G04*
G04 #@! TF.GenerationSoftware,Altium Limited,Altium Designer,19.0.4 (130)*
G04*
G04 Layer_Physical_Order=1*
G04 Layer_Color=255*
%FSLAX44Y44*%
%MOMM*%
G71*
G01*
G75*
%ADD10C,0.2500*%
%ADD13C,0.5000*%
%ADD16R,1.6000X0.7500*%
%ADD17R,2.8000X1.5000*%
%ADD18R,0.4500X1.0000*%
%ADD19R,1.5000X1.4000*%
%ADD20R,1.3970X1.0160*%
%ADD21R,0.9000X2.1000*%
%ADD22R,3.2000X2.1000*%
%ADD23R,1.4000X1.2000*%
%ADD24O,0.5500X2.0000*%
%ADD39C,3.1000*%
%ADD54C,0.3000*%
%ADD55C,0.2750*%
%ADD56C,1.8796*%
%ADD57C,3.3020*%
%ADD58R,1.7000X1.7000*%
%ADD59C,1.7000*%
%ADD60R,1.6000X3.2000*%
%ADD61O,1.6000X3.2000*%
%ADD62C,1.4000*%
%ADD63R,2.0000X2.0000*%
%ADD64C,2.0000*%
%ADD65C,1.5000*%
%ADD66R,1.5000X1.5000*%
%ADD67C,4.0000*%
%ADD68C,2.5000*%
%ADD69R,1.5000X2.0000*%
%ADD70O,1.5000X2.0000*%
%ADD71O,2.0000X1.2000*%
%ADD72R,2.0000X1.2000*%
%ADD73R,1.7000X1.7000*%
%ADD74C,0.8000*%
%ADD75C,1.0000*%
G36*
X2128000Y389500D02*
X1661190D01*
X1660703Y390673D01*
X1687149Y417119D01*
X1687149Y417119D01*
X1688351Y418686D01*
X1689107Y420510D01*
X1689365Y422468D01*
X1689365Y422468D01*
Y501035D01*
X1690174Y501468D01*
X1692458Y503342D01*
X1693682Y504833D01*
X1695318D01*
X1696542Y503342D01*
X1698826Y501468D01*
X1701432Y500075D01*
X1704259Y499217D01*
X1707200Y498927D01*
X1710141Y499217D01*
X1712968Y500075D01*
X1715574Y501468D01*
X1717858Y503342D01*
X1719082Y504833D01*
X1720718D01*
X1721942Y503342D01*
X1724226Y501468D01*
X1726832Y500075D01*
X1729659Y499217D01*
X1732600Y498927D01*
X1735540Y499217D01*
X1738368Y500075D01*
X1740974Y501468D01*
X1743258Y503342D01*
X1744482Y504833D01*
X1746118D01*
X1747342Y503342D01*
X1749626Y501468D01*
X1752232Y500075D01*
X1755060Y499217D01*
X1758000Y498927D01*
X1760941Y499217D01*
X1763768Y500075D01*
X1766374Y501468D01*
X1768658Y503342D01*
X1770532Y505626D01*
X1770965Y506435D01*
X1946600D01*
X1948558Y506693D01*
X1950383Y507449D01*
X1951949Y508651D01*
X1971349Y528051D01*
X1972551Y529618D01*
X1973307Y531442D01*
X1973395Y532109D01*
X1975770Y533379D01*
X1978434Y535566D01*
X1980621Y538230D01*
X1982246Y541270D01*
X1983247Y544569D01*
X1983585Y548000D01*
X1983247Y551431D01*
X1982246Y554729D01*
X1980621Y557769D01*
X1978434Y560434D01*
X1975770Y562621D01*
X1972729Y564246D01*
X1969431Y565247D01*
X1966000Y565585D01*
X1962569Y565247D01*
X1959271Y564246D01*
X1956231Y562621D01*
X1953566Y560434D01*
X1951379Y557769D01*
X1949754Y554729D01*
X1948753Y551431D01*
X1948416Y548000D01*
X1948753Y544569D01*
X1949754Y541270D01*
X1951379Y538230D01*
X1953566Y535566D01*
X1954978Y534407D01*
X1955040Y533138D01*
X1943467Y521565D01*
X1770965D01*
X1770532Y522374D01*
X1768658Y524658D01*
X1766374Y526532D01*
X1763768Y527925D01*
X1760941Y528783D01*
X1758000Y529073D01*
X1755060Y528783D01*
X1752232Y527925D01*
X1749626Y526532D01*
X1747342Y524658D01*
X1746118Y523167D01*
X1744482D01*
X1743258Y524658D01*
X1740974Y526532D01*
X1738368Y527925D01*
X1735540Y528783D01*
X1732600Y529073D01*
X1729659Y528783D01*
X1726832Y527925D01*
X1724226Y526532D01*
X1721942Y524658D01*
X1720718Y523167D01*
X1719082D01*
X1717858Y524658D01*
X1715574Y526532D01*
X1712968Y527925D01*
X1710141Y528783D01*
X1707200Y529073D01*
X1704259Y528783D01*
X1701432Y527925D01*
X1698826Y526532D01*
X1696542Y524658D01*
X1695318Y523167D01*
X1693682D01*
X1692458Y524658D01*
X1690174Y526532D01*
X1687568Y527925D01*
X1684740Y528783D01*
X1681800Y529073D01*
X1678860Y528783D01*
X1676032Y527925D01*
X1673426Y526532D01*
X1671142Y524658D01*
X1669918Y523167D01*
X1668282D01*
X1667058Y524658D01*
X1664774Y526532D01*
X1662168Y527925D01*
X1659341Y528783D01*
X1656400Y529073D01*
X1653459Y528783D01*
X1650632Y527925D01*
X1648026Y526532D01*
X1647148Y525812D01*
X1646000Y526355D01*
Y529000D01*
X1616000D01*
Y499000D01*
X1623435D01*
Y434933D01*
X1594067Y405565D01*
X1415956D01*
X1415394Y406704D01*
X1415582Y406948D01*
X1416791Y409867D01*
X1417204Y413000D01*
X1416791Y416133D01*
X1415582Y419052D01*
X1413658Y421558D01*
X1411152Y423482D01*
X1408233Y424691D01*
X1405100Y425103D01*
X1401967Y424691D01*
X1399048Y423482D01*
X1396542Y421558D01*
X1395779Y420565D01*
X1381534D01*
X1367165Y434933D01*
Y458978D01*
X1368338Y459464D01*
X1391651Y436151D01*
X1391651Y436151D01*
X1393218Y434949D01*
X1395042Y434193D01*
X1395642Y434114D01*
X1396542Y432941D01*
X1399048Y431018D01*
X1401967Y429809D01*
X1405100Y429396D01*
X1408233Y429809D01*
X1411152Y431018D01*
X1413658Y432941D01*
X1415582Y435448D01*
X1416791Y438367D01*
X1417204Y441500D01*
X1416791Y444632D01*
X1415582Y447551D01*
X1413658Y450058D01*
X1411152Y451982D01*
X1408233Y453191D01*
X1405100Y453603D01*
X1401967Y453191D01*
X1399048Y451982D01*
X1398012Y451186D01*
X1378156Y471042D01*
Y533661D01*
X1379295Y534223D01*
X1379937Y533730D01*
X1382379Y532719D01*
X1383730Y532541D01*
Y545000D01*
Y557460D01*
X1382379Y557282D01*
X1379937Y556270D01*
X1379295Y555778D01*
X1378156Y556339D01*
Y714000D01*
X1378083Y714551D01*
X1379274Y715239D01*
X1379937Y714730D01*
X1382379Y713718D01*
X1383730Y713541D01*
Y724730D01*
X1374873D01*
Y723500D01*
X1375132Y721536D01*
X1373929Y720943D01*
X1372100Y722772D01*
Y741000D01*
X1347100D01*
Y711000D01*
X1365044D01*
Y560000D01*
X1347100D01*
Y530000D01*
X1352035D01*
Y431800D01*
X1352293Y429842D01*
X1353049Y428018D01*
X1354251Y426451D01*
X1373051Y407651D01*
X1373051Y407651D01*
X1374115Y406835D01*
X1373684Y405565D01*
X1339756D01*
X1339194Y406704D01*
X1339382Y406948D01*
X1340591Y409867D01*
X1341004Y413000D01*
X1340591Y416133D01*
X1339382Y419052D01*
X1337458Y421558D01*
X1334952Y423482D01*
X1332033Y424691D01*
X1328900Y425103D01*
X1325767Y424691D01*
X1322848Y423482D01*
X1321812Y422686D01*
X1191525Y552973D01*
X1189958Y554175D01*
X1188134Y554931D01*
X1186176Y555189D01*
X1077046D01*
X1076560Y556362D01*
X1099769Y579570D01*
X1100971Y581137D01*
X1101726Y582962D01*
X1101984Y584919D01*
X1101984Y584920D01*
Y608000D01*
X1101726Y609958D01*
X1100971Y611782D01*
X1099769Y613349D01*
X1098202Y614551D01*
X1096389Y615302D01*
X1090806Y620885D01*
Y634891D01*
X1092211Y635473D01*
X1095219Y637781D01*
X1096850Y639907D01*
X1098450D01*
X1100081Y637781D01*
X1103089Y635473D01*
X1106591Y634023D01*
X1110350Y633528D01*
X1114109Y634023D01*
X1117611Y635473D01*
X1120619Y637781D01*
X1122250Y639907D01*
X1123850D01*
X1125481Y637781D01*
X1127885Y635937D01*
Y619922D01*
X1127693Y619458D01*
X1127435Y617500D01*
X1127693Y615542D01*
X1128449Y613718D01*
X1129651Y612151D01*
X1131218Y610949D01*
X1133042Y610193D01*
X1135000Y609935D01*
X1136958Y610193D01*
X1138782Y610949D01*
X1140349Y612151D01*
X1140799Y612601D01*
X1140799Y612601D01*
X1142001Y614168D01*
X1142757Y615992D01*
X1143015Y617950D01*
X1143015Y617950D01*
Y635476D01*
X1146019Y637781D01*
X1147722Y640000D01*
X1149178D01*
X1150881Y637781D01*
X1153889Y635473D01*
X1157391Y634023D01*
X1161150Y633528D01*
X1164909Y634023D01*
X1168411Y635473D01*
X1171419Y637781D01*
X1173727Y640789D01*
X1175177Y644291D01*
X1175672Y648050D01*
X1175177Y651809D01*
X1173727Y655311D01*
X1171419Y658319D01*
X1168411Y660627D01*
X1164909Y662077D01*
X1161150Y662572D01*
X1157391Y662077D01*
X1153889Y660627D01*
X1150881Y658319D01*
X1149178Y656100D01*
X1147722D01*
X1146019Y658319D01*
X1143011Y660627D01*
X1139509Y662077D01*
X1135750Y662572D01*
X1131991Y662077D01*
X1128489Y660627D01*
X1125481Y658319D01*
X1123850Y656193D01*
X1122250D01*
X1120619Y658319D01*
X1117611Y660627D01*
X1114109Y662077D01*
X1110350Y662572D01*
X1106591Y662077D01*
X1105780Y661741D01*
X1093988Y673534D01*
X1092630Y674576D01*
X1091049Y675231D01*
X1089352Y675454D01*
X1068306D01*
Y713412D01*
X1068480Y713534D01*
X1069750Y712872D01*
Y699500D01*
X1072210D01*
Y692770D01*
X1082250D01*
Y691500D01*
X1083520D01*
Y681960D01*
X1092089D01*
X1092870Y681520D01*
X1108188D01*
X1108096Y682218D01*
X1107795Y682944D01*
X1108501Y684000D01*
X1120000D01*
Y689364D01*
X1120500D01*
X1122458Y689622D01*
X1123690Y690132D01*
X1124960Y689396D01*
Y686460D01*
X1133730D01*
Y696000D01*
X1135000D01*
Y697270D01*
X1145040D01*
Y704000D01*
X1147500D01*
Y728000D01*
X1144950D01*
Y734566D01*
X1145219Y734918D01*
X1145657Y735974D01*
X1158500D01*
Y729000D01*
X1183500D01*
Y734435D01*
X1186000D01*
X1187958Y734693D01*
X1189782Y735449D01*
X1191349Y736651D01*
X1196654Y741955D01*
X1198458Y742193D01*
X1200282Y742949D01*
X1201849Y744151D01*
X1207198Y749500D01*
X1234500D01*
Y774500D01*
X1199991D01*
X1199414Y774532D01*
X1198870Y775770D01*
X1199057Y776221D01*
X1199314Y778179D01*
Y784320D01*
X1199314Y784320D01*
X1199057Y786278D01*
X1198750Y787019D01*
Y794570D01*
X1184250D01*
Y786665D01*
X1184193Y786528D01*
X1183935Y784570D01*
X1184154Y782905D01*
X1183521Y781635D01*
X1179750D01*
Y794570D01*
X1174262D01*
X1172373Y796460D01*
Y801000D01*
X1171888Y803439D01*
X1171888Y803439D01*
X1170506Y805506D01*
X1155133Y820879D01*
X1155040Y821167D01*
X1155900Y822484D01*
X1156015Y822490D01*
Y822490D01*
X1170973D01*
X1174943Y818520D01*
X1174750Y817250D01*
X1174750D01*
Y797250D01*
X1189250D01*
Y817250D01*
X1188373D01*
Y820475D01*
X1187887Y822914D01*
X1186506Y824981D01*
X1179985Y831502D01*
Y842650D01*
X1156015D01*
Y842650D01*
X1154772Y842714D01*
Y845285D01*
X1156015Y845350D01*
X1156042Y845350D01*
X1179985D01*
Y857421D01*
X1180065Y858026D01*
X1179985Y858630D01*
Y865510D01*
X1175565D01*
Y883435D01*
X1185000D01*
Y865000D01*
X1223000D01*
Y878893D01*
X1224173Y879379D01*
X1227250Y876302D01*
Y863000D01*
X1229710D01*
Y856270D01*
X1239750D01*
X1249790D01*
Y863000D01*
X1252250D01*
Y887000D01*
X1237948D01*
X1228599Y896349D01*
X1227032Y897551D01*
X1225208Y898307D01*
X1223250Y898565D01*
X1215335D01*
X1214836Y899835D01*
X1217221Y902742D01*
X1219219Y906479D01*
X1220449Y910533D01*
X1220864Y914750D01*
X1220449Y918967D01*
X1219219Y923021D01*
X1217221Y926758D01*
X1214533Y930033D01*
X1211258Y932721D01*
X1207521Y934719D01*
X1203467Y935949D01*
X1199250Y936364D01*
X1195033Y935949D01*
X1190979Y934719D01*
X1187242Y932721D01*
X1183967Y930033D01*
X1181279Y926758D01*
X1179281Y923021D01*
X1178051Y918967D01*
X1177636Y914750D01*
X1178051Y910533D01*
X1179281Y906479D01*
X1181279Y902742D01*
X1183664Y899835D01*
X1183165Y898565D01*
X1175134D01*
X1150565Y923134D01*
Y965651D01*
X1151178Y966122D01*
X1153342Y968942D01*
X1154703Y972226D01*
X1155166Y975750D01*
X1154703Y979274D01*
X1153342Y982558D01*
X1151178Y985378D01*
X1148358Y987542D01*
X1145074Y988902D01*
X1141550Y989366D01*
X1138026Y988902D01*
X1134742Y987542D01*
X1131922Y985378D01*
X1129758Y982558D01*
X1128398Y979274D01*
X1128250Y978153D01*
X1126969Y978153D01*
X1126906Y978632D01*
X1125793Y981318D01*
X1124024Y983624D01*
X1121718Y985393D01*
X1119032Y986506D01*
X1117420Y986718D01*
Y975750D01*
Y964782D01*
X1119032Y964994D01*
X1121718Y966106D01*
X1124024Y967876D01*
X1125793Y970182D01*
X1126906Y972868D01*
X1126969Y973347D01*
X1128250Y973347D01*
X1128398Y972226D01*
X1129758Y968942D01*
X1131922Y966122D01*
X1134742Y963958D01*
X1135435Y963670D01*
Y920000D01*
X1135693Y918042D01*
X1136449Y916218D01*
X1137651Y914651D01*
X1161480Y890822D01*
X1161449Y890782D01*
X1160693Y888958D01*
X1160435Y887000D01*
Y865510D01*
X1156042D01*
X1156015Y865510D01*
X1154772Y865574D01*
Y866000D01*
X1129772D01*
Y854990D01*
X1128575Y854833D01*
X1126994Y854178D01*
X1125636Y853136D01*
X1122917Y850416D01*
X1121744Y850902D01*
Y851730D01*
X1101664D01*
Y845000D01*
X1099204D01*
Y830271D01*
X1095714Y826782D01*
X1094906Y825728D01*
X1093636Y826089D01*
Y846000D01*
X1091176D01*
Y852730D01*
X1081136D01*
X1071096D01*
Y846000D01*
X1068636D01*
Y829990D01*
X1068571Y829500D01*
Y822964D01*
X1068416Y822837D01*
X1067301Y822468D01*
X1063132Y826637D01*
Y828500D01*
X1063068Y828990D01*
Y841000D01*
Y857010D01*
X1063132Y857500D01*
Y865484D01*
X1070349Y872701D01*
X1070350Y872702D01*
X1073885Y876237D01*
X1075087Y877803D01*
X1075843Y879628D01*
X1076043Y881150D01*
X1077564Y881350D01*
X1079389Y882106D01*
X1080956Y883308D01*
X1085824Y888176D01*
X1085825Y888177D01*
X1097549Y899901D01*
X1097549Y899901D01*
X1098751Y901468D01*
X1099507Y903292D01*
X1099765Y905250D01*
Y965651D01*
X1100378Y966122D01*
X1102542Y968942D01*
X1103903Y972226D01*
X1104050Y973347D01*
X1105331Y973347D01*
X1105394Y972868D01*
X1106507Y970182D01*
X1108276Y967876D01*
X1110582Y966106D01*
X1113268Y964994D01*
X1114880Y964782D01*
Y975750D01*
Y986718D01*
X1113268Y986506D01*
X1110582Y985393D01*
X1108276Y983624D01*
X1106507Y981318D01*
X1105394Y978632D01*
X1105331Y978153D01*
X1104050Y978153D01*
X1103903Y979274D01*
X1102542Y982558D01*
X1100378Y985378D01*
X1097558Y987542D01*
X1094274Y988902D01*
X1090750Y989366D01*
X1087226Y988902D01*
X1083942Y987542D01*
X1081122Y985378D01*
X1078958Y982558D01*
X1078685Y981899D01*
X1077415D01*
X1077142Y982558D01*
X1074978Y985378D01*
X1072158Y987542D01*
X1068874Y988902D01*
X1065350Y989366D01*
X1061826Y988902D01*
X1058542Y987542D01*
X1055722Y985378D01*
X1053558Y982558D01*
X1052197Y979274D01*
X1050990Y979529D01*
Y986790D01*
X1041220D01*
Y975750D01*
Y964710D01*
X1050990D01*
Y971971D01*
X1052197Y972226D01*
X1053558Y968942D01*
X1055722Y966122D01*
X1058542Y963958D01*
X1059235Y963670D01*
Y917933D01*
X1019651Y878349D01*
X1018449Y876783D01*
X1017693Y874958D01*
X1017693Y874958D01*
X1017693Y874958D01*
X1017436Y873000D01*
Y865000D01*
X1007501D01*
Y841000D01*
Y821000D01*
X1012436D01*
Y799279D01*
X1012403Y799201D01*
X1012028Y798296D01*
X1012028Y798294D01*
X1012028Y798293D01*
X1011901Y797329D01*
X1011770Y796338D01*
X1011770Y796337D01*
X1011770Y796335D01*
Y790000D01*
X1005500D01*
Y779857D01*
X1004327Y779371D01*
X984849Y798849D01*
X983282Y800051D01*
X981458Y800807D01*
X979500Y801065D01*
X779358D01*
X778742Y802335D01*
X779791Y804867D01*
X780204Y808000D01*
X779791Y811133D01*
X778582Y814052D01*
X776658Y816558D01*
X774152Y818482D01*
X771233Y819691D01*
X768100Y820103D01*
X764967Y819691D01*
X762048Y818482D01*
X759542Y816558D01*
X758779Y815565D01*
X755333D01*
X729565Y841333D01*
Y885500D01*
X735500D01*
Y890246D01*
X736770Y890677D01*
X737772Y889372D01*
X740592Y887208D01*
X743876Y885847D01*
X747400Y885384D01*
X750924Y885847D01*
X754208Y887208D01*
X757028Y889372D01*
X759192Y892192D01*
X760553Y895476D01*
X761016Y899000D01*
X760553Y902524D01*
X759192Y905808D01*
X757028Y908628D01*
X754208Y910792D01*
X750924Y912152D01*
X747400Y912616D01*
X743876Y912152D01*
X740592Y910792D01*
X737772Y908628D01*
X736770Y907323D01*
X735500Y907754D01*
Y912500D01*
X708500D01*
Y885500D01*
X714435D01*
Y864973D01*
X713165Y864713D01*
X673529Y904349D01*
X671962Y905551D01*
X670138Y906307D01*
X668180Y906565D01*
X619960D01*
X618376Y908628D01*
X615556Y910792D01*
X612272Y912152D01*
X608748Y912616D01*
X605224Y912152D01*
X601940Y910792D01*
X599120Y908628D01*
X598118Y907323D01*
X596848Y907754D01*
Y912500D01*
X569848D01*
Y885500D01*
X596848D01*
Y890246D01*
X598118Y890677D01*
X599120Y889372D01*
X601940Y887208D01*
X605224Y885847D01*
X608748Y885384D01*
X612272Y885847D01*
X615556Y887208D01*
X618376Y889372D01*
X619960Y891435D01*
X665047D01*
X700435Y856047D01*
Y824250D01*
X700693Y822292D01*
X701449Y820468D01*
X702651Y818901D01*
X704401Y817151D01*
X704401Y817151D01*
X711151Y810401D01*
X711151Y810401D01*
X712718Y809199D01*
X714542Y808443D01*
X716500Y808185D01*
X718458Y808443D01*
X720282Y809199D01*
X721849Y810401D01*
X723051Y811968D01*
X723807Y813792D01*
X724065Y815750D01*
X723807Y817708D01*
X723051Y819532D01*
X721849Y821099D01*
X721849Y821099D01*
X715565Y827383D01*
Y832408D01*
X716835Y832667D01*
X746851Y802652D01*
X746851Y802651D01*
X747263Y802335D01*
X746832Y801065D01*
X703580D01*
X703580Y801065D01*
X703274Y801024D01*
X702871Y801442D01*
X702487Y802202D01*
X703591Y804867D01*
X704004Y808000D01*
X703591Y811133D01*
X702382Y814052D01*
X700459Y816558D01*
X699465Y817321D01*
Y819150D01*
X699207Y821108D01*
X698451Y822932D01*
X697249Y824499D01*
X697249Y824499D01*
X687343Y834405D01*
X685776Y835607D01*
X683952Y836363D01*
X681994Y836621D01*
X609600D01*
X609600Y836621D01*
X608621Y836492D01*
X607642Y836363D01*
X605818Y835607D01*
X604251Y834405D01*
X567251Y797405D01*
X566049Y795838D01*
X565293Y794014D01*
X565035Y792056D01*
Y773858D01*
X564601D01*
X563430Y773625D01*
X562438Y772962D01*
X561775Y771970D01*
X561542Y770800D01*
Y769743D01*
X561245Y769356D01*
X560588Y767769D01*
X559213D01*
X558556Y769356D01*
X558259Y769742D01*
Y770800D01*
X558027Y771970D01*
X557364Y772962D01*
X556371Y773625D01*
X555201Y773858D01*
X554143D01*
X553756Y774155D01*
X550594Y775465D01*
X547200Y775912D01*
X543807Y775465D01*
X540644Y774155D01*
X540257Y773858D01*
X539201D01*
X538030Y773625D01*
X537038Y772962D01*
X536375Y771970D01*
X536142Y770800D01*
Y769743D01*
X535845Y769356D01*
X534535Y766193D01*
X534088Y762800D01*
Y746800D01*
X534535Y743406D01*
X535845Y740244D01*
X537929Y737528D01*
X538873Y736804D01*
X538517Y735476D01*
X537532Y735346D01*
X535698Y734586D01*
X534122Y733378D01*
X532914Y731803D01*
X532154Y729968D01*
X532062Y729270D01*
X546938D01*
X546846Y729968D01*
X546086Y731803D01*
X545445Y732637D01*
X546133Y733828D01*
X547200Y733688D01*
X550594Y734134D01*
X553756Y735444D01*
X556472Y737528D01*
X558556Y740244D01*
X559213Y741830D01*
X560588D01*
X561245Y740244D01*
X563329Y737528D01*
X566044Y735444D01*
X569207Y734134D01*
X572600Y733688D01*
X575994Y734134D01*
X579156Y735444D01*
X581872Y737528D01*
X583956Y740244D01*
X584613Y741830D01*
X585988D01*
X586645Y740244D01*
X588729Y737528D01*
X591444Y735444D01*
X594607Y734134D01*
X598000Y733688D01*
X601394Y734134D01*
X604556Y735444D01*
X607272Y737528D01*
X609356Y740244D01*
X610013Y741830D01*
X611388D01*
X612045Y740244D01*
X614129Y737528D01*
X616844Y735444D01*
X620007Y734134D01*
X623400Y733688D01*
X626794Y734134D01*
X629956Y735444D01*
X632672Y737528D01*
X634756Y740244D01*
X635413Y741830D01*
X636788D01*
X637445Y740244D01*
X639529Y737528D01*
X642244Y735444D01*
X645407Y734134D01*
X648800Y733688D01*
X652194Y734134D01*
X655356Y735444D01*
X658072Y737528D01*
X660156Y740244D01*
X660813Y741830D01*
X662188D01*
X662845Y740244D01*
X664929Y737528D01*
X667644Y735444D01*
X670807Y734134D01*
X674200Y733688D01*
X677594Y734134D01*
X680756Y735444D01*
X683472Y737528D01*
X685556Y740244D01*
X686213Y741830D01*
X687588D01*
X688245Y740244D01*
X690329Y737528D01*
X693044Y735444D01*
X696207Y734134D01*
X699600Y733688D01*
X702994Y734134D01*
X706156Y735444D01*
X708872Y737528D01*
X710956Y740244D01*
X711613Y741830D01*
X712988D01*
X713645Y740244D01*
X715729Y737528D01*
X718444Y735444D01*
X721607Y734134D01*
X725000Y733688D01*
X728394Y734134D01*
X731556Y735444D01*
X734272Y737528D01*
X736356Y740244D01*
X737013Y741830D01*
X738388D01*
X739045Y740244D01*
X741129Y737528D01*
X743844Y735444D01*
X747007Y734134D01*
X750400Y733688D01*
X753794Y734134D01*
X756956Y735444D01*
X759672Y737528D01*
X761756Y740244D01*
X762413Y741830D01*
X763788D01*
X764445Y740244D01*
X766529Y737528D01*
X769244Y735444D01*
X772407Y734134D01*
X775800Y733688D01*
X779194Y734134D01*
X782356Y735444D01*
X785072Y737528D01*
X787156Y740244D01*
X787813Y741830D01*
X789188D01*
X789845Y740244D01*
X791929Y737528D01*
X793635Y736218D01*
Y660400D01*
X793893Y658442D01*
X794649Y656618D01*
X795851Y655051D01*
X829887Y621015D01*
X831453Y619813D01*
X833278Y619057D01*
X835236Y618799D01*
X962067D01*
X963798Y617068D01*
X963312Y615895D01*
X767165D01*
X747029Y636031D01*
X745462Y637233D01*
X743638Y637989D01*
X741680Y638247D01*
X562565D01*
Y641000D01*
X574000D01*
Y648936D01*
X588500D01*
X590458Y649193D01*
X592282Y649949D01*
X593849Y651151D01*
X596698Y654000D01*
X610500D01*
Y678000D01*
X608040D01*
Y684730D01*
X587960D01*
Y678000D01*
X585500D01*
Y676065D01*
X571540D01*
Y683230D01*
X538460D01*
Y676032D01*
X536748Y675807D01*
X534924Y675051D01*
X533357Y673849D01*
X533357Y673849D01*
X531099Y671591D01*
X529897Y670024D01*
X529141Y668200D01*
X528883Y666242D01*
X529141Y664284D01*
X529897Y662460D01*
X531099Y660893D01*
X532666Y659691D01*
X534490Y658935D01*
X536000Y658736D01*
Y641000D01*
X547435D01*
Y634990D01*
X547693Y633032D01*
X548449Y631208D01*
X549651Y629641D01*
X553959Y625333D01*
X553959Y625333D01*
X555526Y624131D01*
X557350Y623375D01*
X559308Y623117D01*
X559308Y623117D01*
X738547D01*
X758683Y602981D01*
X760250Y601779D01*
X762074Y601023D01*
X764032Y600765D01*
X764032Y600765D01*
X964537D01*
X968115Y597187D01*
X967825Y595681D01*
X966886Y594960D01*
X965837Y593594D01*
X965178Y592003D01*
X965121Y591566D01*
X971550D01*
Y590296D01*
X972820D01*
Y583867D01*
X973257Y583924D01*
X974848Y584583D01*
X976165Y585594D01*
X976393Y585559D01*
X977435Y585136D01*
Y579386D01*
X977693Y577428D01*
X978449Y575604D01*
X979651Y574037D01*
X981218Y572835D01*
X983042Y572079D01*
X985000Y571821D01*
X985981Y571950D01*
X986935Y571113D01*
Y555408D01*
X987193Y553450D01*
X987949Y551626D01*
X989151Y550059D01*
X994972Y544238D01*
X994486Y543065D01*
X981065D01*
X981065Y543065D01*
X979107Y542807D01*
X978522Y542565D01*
X965109D01*
X964426Y543829D01*
X964659Y545000D01*
Y546057D01*
X964956Y546443D01*
X966266Y549606D01*
X966712Y553000D01*
Y569000D01*
X966266Y572393D01*
X964956Y575556D01*
X962872Y578271D01*
X960156Y580355D01*
X956994Y581665D01*
X953600Y582112D01*
X950207Y581665D01*
X947044Y580355D01*
X944329Y578271D01*
X942245Y575556D01*
X941588Y573969D01*
X940213D01*
X939556Y575556D01*
X937472Y578271D01*
X934756Y580355D01*
X931594Y581665D01*
X928200Y582112D01*
X924807Y581665D01*
X921644Y580355D01*
X918929Y578271D01*
X916845Y575556D01*
X916188Y573969D01*
X914813D01*
X914156Y575556D01*
X912072Y578271D01*
X909356Y580355D01*
X906194Y581665D01*
X902800Y582112D01*
X899407Y581665D01*
X896244Y580355D01*
X893529Y578271D01*
X891445Y575556D01*
X890788Y573969D01*
X889413D01*
X888756Y575556D01*
X886672Y578271D01*
X883956Y580355D01*
X880794Y581665D01*
X877400Y582112D01*
X874007Y581665D01*
X870844Y580355D01*
X868129Y578271D01*
X866045Y575556D01*
X865388Y573969D01*
X864013D01*
X863356Y575556D01*
X861272Y578271D01*
X858556Y580355D01*
X855394Y581665D01*
X852000Y582112D01*
X848607Y581665D01*
X845444Y580355D01*
X842729Y578271D01*
X840645Y575556D01*
X839988Y573969D01*
X838613D01*
X837956Y575556D01*
X835872Y578271D01*
X833156Y580355D01*
X829994Y581665D01*
X826600Y582112D01*
X823207Y581665D01*
X820044Y580355D01*
X817329Y578271D01*
X815245Y575556D01*
X814588Y573969D01*
X813213D01*
X812556Y575556D01*
X810472Y578271D01*
X807756Y580355D01*
X804594Y581665D01*
X801200Y582112D01*
X797807Y581665D01*
X794644Y580355D01*
X791929Y578271D01*
X789845Y575556D01*
X788535Y572393D01*
X788088Y569000D01*
Y558864D01*
X787701Y558575D01*
X786431Y559211D01*
Y559730D01*
X777070D01*
Y542536D01*
X778552Y542731D01*
X781116Y543793D01*
X783317Y545482D01*
X785007Y547684D01*
X785434Y548716D01*
X786753Y548582D01*
X787851Y547151D01*
X789417Y545949D01*
X790142Y545649D01*
Y545000D01*
X790375Y543829D01*
X791038Y542837D01*
X792030Y542174D01*
X793201Y541941D01*
X794258D01*
X794644Y541644D01*
X797807Y540334D01*
X801200Y539888D01*
X804594Y540334D01*
X807756Y541644D01*
X808143Y541941D01*
X809201D01*
X810371Y542174D01*
X811364Y542837D01*
X812027Y543829D01*
X812259Y545000D01*
Y546057D01*
X812418Y546264D01*
X813048Y546482D01*
X813977Y546555D01*
X815388Y545651D01*
X815542Y545579D01*
Y545000D01*
X815775Y543829D01*
X816438Y542837D01*
X817430Y542174D01*
X818601Y541941D01*
X819035D01*
Y530268D01*
X819293Y528310D01*
X820049Y526486D01*
X821251Y524919D01*
X821251Y524919D01*
X821251Y524919D01*
X858251Y487919D01*
X858251Y487919D01*
X859818Y486717D01*
X861642Y485961D01*
X863600Y485703D01*
X863600Y485703D01*
X936921D01*
X941161Y481463D01*
X940567Y480260D01*
X939100Y480454D01*
X935967Y480041D01*
X933048Y478832D01*
X930542Y476909D01*
X928618Y474402D01*
X927409Y471483D01*
X926996Y468350D01*
X927409Y465218D01*
X928618Y462298D01*
X930542Y459792D01*
X933048Y457868D01*
X935967Y456659D01*
X939100Y456247D01*
X942233Y456659D01*
X945152Y457868D01*
X947658Y459792D01*
X949582Y462298D01*
X950791Y465218D01*
X951204Y468350D01*
X951010Y469818D01*
X952213Y470411D01*
X967886Y454738D01*
X967400Y453565D01*
X859391D01*
X856103Y456853D01*
X856848Y457868D01*
X859767Y456659D01*
X862900Y456247D01*
X866033Y456659D01*
X868952Y457868D01*
X871459Y459792D01*
X873382Y462298D01*
X874591Y465218D01*
X875004Y468350D01*
X874591Y471483D01*
X873382Y474402D01*
X871459Y476909D01*
X868952Y478832D01*
X866033Y480041D01*
X862900Y480454D01*
X859767Y480041D01*
X856848Y478832D01*
X854342Y476909D01*
X852418Y474402D01*
X851209Y471483D01*
X850796Y468350D01*
X851209Y465218D01*
X852418Y462298D01*
X851403Y461553D01*
X834165Y478792D01*
Y504730D01*
X833907Y506688D01*
X833151Y508512D01*
X831949Y510079D01*
X830382Y511281D01*
X828558Y512037D01*
X826600Y512295D01*
X817061D01*
X816845Y512575D01*
X814548Y514338D01*
X811872Y515447D01*
X809000Y515825D01*
X801000D01*
X798129Y515447D01*
X795453Y514338D01*
X793155Y512575D01*
X791392Y510277D01*
X790283Y507602D01*
X789905Y504730D01*
X790283Y501858D01*
X791392Y499183D01*
X793155Y496885D01*
X793832Y496365D01*
Y495095D01*
X793155Y494575D01*
X791392Y492277D01*
X790283Y489602D01*
X789905Y486730D01*
X790283Y483858D01*
X791392Y481183D01*
X793155Y478885D01*
X793692Y478473D01*
X793284Y477270D01*
X792460D01*
Y470000D01*
X805000D01*
X817540D01*
Y477270D01*
X816717D01*
X816308Y478473D01*
X816845Y478885D01*
X817765Y480083D01*
X819035Y479652D01*
Y475658D01*
X819293Y473700D01*
X820049Y471876D01*
X821251Y470309D01*
X850909Y440651D01*
X850909Y440651D01*
X852476Y439449D01*
X854300Y438693D01*
X856258Y438435D01*
X1067450D01*
X1069408Y438693D01*
X1071233Y439449D01*
X1072799Y440651D01*
X1090349Y458201D01*
X1090349Y458201D01*
X1091195Y459303D01*
X1093374Y460468D01*
X1095658Y462342D01*
X1097533Y464627D01*
X1098925Y467232D01*
X1099783Y470060D01*
X1100073Y473000D01*
X1099783Y475941D01*
X1098925Y478768D01*
X1097533Y481374D01*
X1095658Y483658D01*
X1093374Y485533D01*
X1090768Y486926D01*
X1087941Y487783D01*
X1085000Y488073D01*
X1082060Y487783D01*
X1080937Y487443D01*
X1080264Y488566D01*
X1082227Y490529D01*
X1139867D01*
X1239723Y390673D01*
X1239237Y389500D01*
X286000D01*
Y1050750D01*
X2128000D01*
Y389500D01*
D02*
G37*
G36*
X1088920Y787279D02*
X1089714Y787437D01*
X1091464Y788606D01*
X1091898Y789256D01*
X1093331Y789114D01*
X1093580Y788512D01*
X1094822Y786893D01*
X1096441Y785651D01*
X1098327Y784870D01*
X1100350Y784603D01*
X1102373Y784870D01*
X1104258Y785651D01*
X1105877Y786893D01*
X1106065Y787137D01*
X1107335D01*
X1107523Y786893D01*
X1109141Y785651D01*
X1111027Y784870D01*
X1113050Y784603D01*
X1115073Y784870D01*
X1116958Y785651D01*
X1118577Y786893D01*
X1118765Y787137D01*
X1120035D01*
X1120222Y786893D01*
X1121841Y785651D01*
X1123727Y784870D01*
X1125750Y784603D01*
X1127773Y784870D01*
X1129658Y785651D01*
X1129746Y785718D01*
X1130885Y785156D01*
Y781690D01*
X1131143Y779732D01*
X1131899Y777908D01*
X1132583Y777016D01*
X1132636Y776847D01*
X1132428Y775441D01*
X1132332Y775314D01*
X1131401Y774599D01*
X1130199Y773032D01*
X1129443Y771208D01*
X1129185Y769250D01*
Y768438D01*
X1129443Y766480D01*
X1130199Y764656D01*
X1130885Y763761D01*
Y760590D01*
X1129746Y760029D01*
X1129658Y760096D01*
X1127773Y760877D01*
X1125750Y761143D01*
X1123727Y760877D01*
X1121841Y760096D01*
X1120222Y758854D01*
X1118980Y757235D01*
X1118731Y756632D01*
X1117298Y756491D01*
X1116864Y757140D01*
X1115114Y758309D01*
X1114320Y758467D01*
Y746076D01*
Y733685D01*
X1115114Y733843D01*
X1116864Y735012D01*
X1117298Y735662D01*
X1118731Y735520D01*
X1118980Y734918D01*
X1119377Y734400D01*
Y733389D01*
X1109988Y724000D01*
X1096000D01*
Y723548D01*
X1094750Y723500D01*
Y723500D01*
X1087818D01*
X1087387Y724770D01*
X1088236Y725421D01*
X1091807Y728992D01*
X1092849Y730350D01*
X1093504Y731932D01*
X1093616Y732784D01*
X1094377Y733109D01*
X1094952Y733199D01*
X1096441Y732057D01*
X1098327Y731276D01*
X1100350Y731009D01*
X1102373Y731276D01*
X1104258Y732057D01*
X1105877Y733299D01*
X1107119Y734918D01*
X1107369Y735520D01*
X1108802Y735662D01*
X1109236Y735012D01*
X1110986Y733843D01*
X1111780Y733685D01*
Y746076D01*
Y758467D01*
X1110986Y758309D01*
X1109236Y757140D01*
X1108802Y756491D01*
X1107369Y756632D01*
X1107119Y757235D01*
X1105877Y758854D01*
X1104258Y760096D01*
X1102373Y760877D01*
X1100350Y761143D01*
X1098327Y760877D01*
X1096441Y760096D01*
X1094822Y758854D01*
X1094635Y758609D01*
X1093365D01*
X1093177Y758854D01*
X1091558Y760096D01*
X1089673Y760877D01*
X1087650Y761143D01*
X1085627Y760877D01*
X1083741Y760096D01*
X1082122Y758854D01*
X1081935Y758609D01*
X1080665D01*
X1080477Y758854D01*
X1078858Y760096D01*
X1076973Y760877D01*
X1074950Y761143D01*
X1072927Y760877D01*
X1071041Y760096D01*
X1069423Y758854D01*
X1069235Y758609D01*
X1067965D01*
X1067777Y758854D01*
X1066158Y760096D01*
X1064273Y760877D01*
X1062250Y761143D01*
X1060227Y760877D01*
X1058341Y760096D01*
X1056722Y758854D01*
X1056535Y758609D01*
X1055265D01*
X1055077Y758854D01*
X1053458Y760096D01*
X1052137Y760643D01*
X1051748Y762050D01*
X1067599Y777900D01*
X1067599Y777901D01*
X1068801Y779467D01*
X1069557Y781292D01*
X1069815Y783250D01*
Y785156D01*
X1070954Y785718D01*
X1071041Y785651D01*
X1072927Y784870D01*
X1074950Y784603D01*
X1076973Y784870D01*
X1078858Y785651D01*
X1080477Y786893D01*
X1081719Y788512D01*
X1081969Y789114D01*
X1083402Y789256D01*
X1083836Y788606D01*
X1085586Y787437D01*
X1086380Y787279D01*
Y799670D01*
X1088920D01*
Y787279D01*
D02*
G37*
G36*
X1060820Y636176D02*
X1062666Y636419D01*
X1065571Y637622D01*
X1068064Y639536D01*
X1069978Y642029D01*
X1070231Y642642D01*
X1071606D01*
X1072373Y640789D01*
X1074681Y637781D01*
X1077689Y635473D01*
X1077694Y635471D01*
Y618169D01*
X1077917Y616472D01*
X1078572Y614891D01*
X1079614Y613533D01*
X1086855Y606293D01*
Y588053D01*
X1063667Y564865D01*
X1019512D01*
X1010065Y574312D01*
Y641210D01*
X1011154Y641863D01*
X1013179Y640781D01*
X1017233Y639551D01*
X1021450Y639136D01*
X1025667Y639551D01*
X1029721Y640781D01*
X1033458Y642779D01*
X1035967Y644838D01*
X1037237Y644237D01*
Y632217D01*
X1037495Y630259D01*
X1038251Y628435D01*
X1039453Y626868D01*
X1063670Y602651D01*
X1065237Y601449D01*
X1067062Y600693D01*
X1069019Y600435D01*
X1070977Y600693D01*
X1072802Y601449D01*
X1074369Y602651D01*
X1075571Y604217D01*
X1076326Y606042D01*
X1076584Y608000D01*
X1076326Y609958D01*
X1075571Y611782D01*
X1074369Y613349D01*
X1052367Y635351D01*
Y637079D01*
X1052709Y637247D01*
X1053637Y637578D01*
X1056433Y636419D01*
X1058280Y636176D01*
Y648050D01*
X1060820D01*
Y636176D01*
D02*
G37*
%LPC*%
G36*
X1038680Y986790D02*
X1028910D01*
Y977020D01*
X1038680D01*
Y986790D01*
D02*
G37*
G36*
Y974480D02*
X1028910D01*
Y964710D01*
X1038680D01*
Y974480D01*
D02*
G37*
G36*
X2069000Y1005600D02*
X2064981Y1005204D01*
X2061117Y1004032D01*
X2057555Y1002128D01*
X2054434Y999566D01*
X2051872Y996445D01*
X2049969Y992883D01*
X2048796Y989019D01*
X2048401Y985000D01*
X2048796Y980982D01*
X2049969Y977117D01*
X2051872Y973556D01*
X2054434Y970434D01*
X2057555Y967873D01*
X2061117Y965969D01*
X2064981Y964797D01*
X2069000Y964401D01*
X2073018Y964797D01*
X2076883Y965969D01*
X2080444Y967873D01*
X2083566Y970434D01*
X2086127Y973556D01*
X2088031Y977117D01*
X2089203Y980982D01*
X2089599Y985000D01*
X2089203Y989019D01*
X2088031Y992883D01*
X2086127Y996445D01*
X2083566Y999566D01*
X2080444Y1002128D01*
X2076883Y1004032D01*
X2073018Y1005204D01*
X2069000Y1005600D01*
D02*
G37*
G36*
X1249000Y1000599D02*
X1244981Y1000203D01*
X1241117Y999031D01*
X1237555Y997128D01*
X1234434Y994566D01*
X1231872Y991444D01*
X1229969Y987883D01*
X1228796Y984019D01*
X1228401Y980000D01*
X1228796Y975981D01*
X1229969Y972117D01*
X1231872Y968556D01*
X1234434Y965434D01*
X1237555Y962872D01*
X1241117Y960969D01*
X1244981Y959797D01*
X1249000Y959401D01*
X1253018Y959797D01*
X1256883Y960969D01*
X1260444Y962872D01*
X1263566Y965434D01*
X1266127Y968556D01*
X1268031Y972117D01*
X1269203Y975981D01*
X1269599Y980000D01*
X1269203Y984019D01*
X1268031Y987883D01*
X1266127Y991444D01*
X1263566Y994566D01*
X1260444Y997128D01*
X1256883Y999031D01*
X1253018Y1000203D01*
X1249000Y1000599D01*
D02*
G37*
G36*
X319000D02*
X314981Y1000203D01*
X311117Y999031D01*
X307556Y997128D01*
X304434Y994566D01*
X301873Y991444D01*
X299969Y987883D01*
X298797Y984019D01*
X298401Y980000D01*
X298797Y975981D01*
X299969Y972117D01*
X301873Y968556D01*
X304434Y965434D01*
X307556Y962872D01*
X311117Y960969D01*
X314981Y959797D01*
X319000Y959401D01*
X323019Y959797D01*
X326883Y960969D01*
X330444Y962872D01*
X333566Y965434D01*
X336128Y968556D01*
X338031Y972117D01*
X339203Y975981D01*
X339599Y980000D01*
X339203Y984019D01*
X338031Y987883D01*
X336128Y991444D01*
X333566Y994566D01*
X330444Y997128D01*
X326883Y999031D01*
X323019Y1000203D01*
X319000Y1000599D01*
D02*
G37*
G36*
X1386270Y919459D02*
Y908270D01*
X1395127D01*
Y909500D01*
X1394782Y912121D01*
X1393770Y914563D01*
X1392161Y916661D01*
X1390063Y918270D01*
X1387621Y919281D01*
X1386270Y919459D01*
D02*
G37*
G36*
X1383730D02*
X1382379Y919281D01*
X1379937Y918270D01*
X1377839Y916661D01*
X1376230Y914563D01*
X1375219Y912121D01*
X1374873Y909500D01*
Y908270D01*
X1383730D01*
Y919459D01*
D02*
G37*
G36*
X471000Y912616D02*
X467476Y912152D01*
X464192Y910792D01*
X461371Y908628D01*
X460370Y907323D01*
X459100Y907754D01*
Y912500D01*
X432100D01*
Y885500D01*
X459100D01*
Y890246D01*
X460370Y890677D01*
X461371Y889372D01*
X464192Y887208D01*
X467476Y885847D01*
X471000Y885384D01*
X474524Y885847D01*
X477808Y887208D01*
X480628Y889372D01*
X482792Y892192D01*
X484152Y895476D01*
X484616Y899000D01*
X484152Y902524D01*
X482792Y905808D01*
X480628Y908628D01*
X477808Y910792D01*
X474524Y912152D01*
X471000Y912616D01*
D02*
G37*
G36*
X1891140Y957211D02*
X1886239Y956728D01*
X1881527Y955299D01*
X1877184Y952977D01*
X1873377Y949853D01*
X1870253Y946047D01*
X1867932Y941703D01*
X1866502Y936991D01*
X1866019Y932090D01*
X1866502Y927189D01*
X1867932Y922477D01*
X1870253Y918134D01*
X1873377Y914327D01*
X1877184Y911203D01*
X1881527Y908881D01*
X1886239Y907452D01*
X1891140Y906969D01*
X1896041Y907452D01*
X1900754Y908881D01*
X1905097Y911203D01*
X1908903Y914327D01*
X1912027Y918134D01*
X1914349Y922477D01*
X1915779Y927189D01*
X1916261Y932090D01*
X1915779Y936991D01*
X1914349Y941703D01*
X1912027Y946047D01*
X1908903Y949853D01*
X1905097Y952977D01*
X1900754Y955299D01*
X1896041Y956728D01*
X1891140Y957211D01*
D02*
G37*
G36*
X1521140D02*
X1516239Y956728D01*
X1511527Y955299D01*
X1507184Y952977D01*
X1503377Y949853D01*
X1500253Y946047D01*
X1497931Y941703D01*
X1496502Y936991D01*
X1496019Y932090D01*
X1496502Y927189D01*
X1497931Y922477D01*
X1500253Y918134D01*
X1503377Y914327D01*
X1507184Y911203D01*
X1511527Y908881D01*
X1516239Y907452D01*
X1521140Y906969D01*
X1526041Y907452D01*
X1530753Y908881D01*
X1535096Y911203D01*
X1538903Y914327D01*
X1542027Y918134D01*
X1544349Y922477D01*
X1545778Y927189D01*
X1546261Y932090D01*
X1545778Y936991D01*
X1544349Y941703D01*
X1542027Y946047D01*
X1538903Y949853D01*
X1535096Y952977D01*
X1530753Y955299D01*
X1526041Y956728D01*
X1521140Y957211D01*
D02*
G37*
G36*
X922400Y912108D02*
X918876Y911645D01*
X915592Y910284D01*
X912772Y908120D01*
X910608Y905300D01*
X910335Y904642D01*
X909065D01*
X908792Y905300D01*
X906628Y908120D01*
X903808Y910284D01*
X900524Y911645D01*
X897000Y912108D01*
X893476Y911645D01*
X890192Y910284D01*
X887372Y908120D01*
X885208Y905300D01*
X884935Y904642D01*
X883665D01*
X883392Y905300D01*
X881228Y908120D01*
X878408Y910284D01*
X875124Y911645D01*
X871600Y912108D01*
X868076Y911645D01*
X864792Y910284D01*
X861972Y908120D01*
X860970Y906815D01*
X859700Y907246D01*
Y911992D01*
X832700D01*
Y884992D01*
X859700D01*
Y889738D01*
X860970Y890169D01*
X861972Y888864D01*
X864792Y886700D01*
X868076Y885340D01*
X871600Y884875D01*
X875124Y885340D01*
X878408Y886700D01*
X881228Y888864D01*
X883392Y891684D01*
X883665Y892342D01*
X884935D01*
X885208Y891684D01*
X887372Y888864D01*
X890192Y886700D01*
X893476Y885340D01*
X897000Y884875D01*
X900524Y885340D01*
X903808Y886700D01*
X906628Y888864D01*
X908792Y891684D01*
X909065Y892342D01*
X910335D01*
X910608Y891684D01*
X912772Y888864D01*
X915592Y886700D01*
X918876Y885340D01*
X922400Y884875D01*
X925924Y885340D01*
X929208Y886700D01*
X932028Y888864D01*
X934192Y891684D01*
X935553Y894968D01*
X936016Y898492D01*
X935553Y902016D01*
X934192Y905300D01*
X932028Y908120D01*
X929208Y910284D01*
X925924Y911645D01*
X922400Y912108D01*
D02*
G37*
G36*
X1395127Y905730D02*
X1386270D01*
Y894540D01*
X1387621Y894718D01*
X1390063Y895730D01*
X1392161Y897339D01*
X1393770Y899437D01*
X1394782Y901879D01*
X1395127Y904500D01*
Y905730D01*
D02*
G37*
G36*
X1383730D02*
X1374873D01*
Y904500D01*
X1375219Y901879D01*
X1376230Y899437D01*
X1377839Y897339D01*
X1379937Y895730D01*
X1382379Y894718D01*
X1383730Y894540D01*
Y905730D01*
D02*
G37*
G36*
X1021450Y936364D02*
X1017233Y935949D01*
X1013179Y934719D01*
X1009442Y932721D01*
X1006167Y930033D01*
X1003479Y926758D01*
X1001481Y923021D01*
X1000251Y918967D01*
X999836Y914750D01*
X1000251Y910533D01*
X1001481Y906479D01*
X1003479Y902742D01*
X1006167Y899467D01*
X1009442Y896779D01*
X1013179Y894781D01*
X1017233Y893551D01*
X1021450Y893136D01*
X1025667Y893551D01*
X1029721Y894781D01*
X1033458Y896779D01*
X1036733Y899467D01*
X1039421Y902742D01*
X1041419Y906479D01*
X1042649Y910533D01*
X1043064Y914750D01*
X1042649Y918967D01*
X1041419Y923021D01*
X1039421Y926758D01*
X1036733Y930033D01*
X1033458Y932721D01*
X1029721Y934719D01*
X1025667Y935949D01*
X1021450Y936364D01*
D02*
G37*
G36*
X1372100Y922000D02*
X1347100D01*
Y892000D01*
X1372100D01*
Y922000D01*
D02*
G37*
G36*
X1091176Y863540D02*
X1082406D01*
Y855270D01*
X1091176D01*
Y863540D01*
D02*
G37*
G36*
X1079866D02*
X1071096D01*
Y855270D01*
X1079866D01*
Y863540D01*
D02*
G37*
G36*
X1121744Y862540D02*
X1112974D01*
Y854270D01*
X1121744D01*
Y862540D01*
D02*
G37*
G36*
X1110434D02*
X1101664D01*
Y854270D01*
X1110434D01*
Y862540D01*
D02*
G37*
G36*
X1220540Y856540D02*
X1205270D01*
Y847770D01*
X1220540D01*
Y856540D01*
D02*
G37*
G36*
X1202730D02*
X1187460D01*
Y847770D01*
X1202730D01*
Y856540D01*
D02*
G37*
G36*
X1249790Y853730D02*
X1241020D01*
Y845460D01*
X1249790D01*
Y853730D01*
D02*
G37*
G36*
X1238480D02*
X1229710D01*
Y845460D01*
X1238480D01*
Y853730D01*
D02*
G37*
G36*
X1220540Y845230D02*
X1205270D01*
Y836460D01*
X1220540D01*
Y845230D01*
D02*
G37*
G36*
X1202730D02*
X1187460D01*
Y836460D01*
X1202730D01*
Y845230D01*
D02*
G37*
G36*
X1208520Y830938D02*
Y824770D01*
X1214688D01*
X1214596Y825468D01*
X1213836Y827302D01*
X1212628Y828878D01*
X1211052Y830086D01*
X1209218Y830846D01*
X1208520Y830938D01*
D02*
G37*
G36*
X1205980D02*
X1205282Y830846D01*
X1203447Y830086D01*
X1201872Y828878D01*
X1200664Y827302D01*
X1199904Y825468D01*
X1199812Y824770D01*
X1205980D01*
Y830938D01*
D02*
G37*
G36*
X1214688Y822230D02*
X1208520D01*
Y816062D01*
X1209218Y816154D01*
X1211052Y816914D01*
X1212628Y818122D01*
X1213836Y819697D01*
X1214596Y821532D01*
X1214688Y822230D01*
D02*
G37*
G36*
X1205980D02*
X1199812D01*
X1199904Y821532D01*
X1200664Y819697D01*
X1201872Y818122D01*
X1203447Y816914D01*
X1205282Y816154D01*
X1205980Y816062D01*
Y822230D01*
D02*
G37*
G36*
X512300Y822073D02*
X509360Y821783D01*
X506532Y820925D01*
X503926Y819532D01*
X501642Y817658D01*
X499768Y815374D01*
X499335Y814565D01*
X415586D01*
X413628Y814307D01*
X411804Y813551D01*
X410237Y812349D01*
X385049Y787161D01*
X383847Y785594D01*
X383091Y783770D01*
X382833Y781812D01*
Y681567D01*
X380153Y678887D01*
X369591D01*
X368918Y680096D01*
X370178Y683137D01*
X370608Y686400D01*
X370178Y689663D01*
X368918Y692704D01*
X366915Y695315D01*
X364304Y697319D01*
X361577Y698448D01*
X361576Y698450D01*
Y699750D01*
X361577Y699752D01*
X364304Y700881D01*
X366915Y702885D01*
X368918Y705496D01*
X370178Y708537D01*
X370608Y711800D01*
X370178Y715063D01*
X368918Y718104D01*
X366915Y720715D01*
X364304Y722719D01*
X361263Y723978D01*
X358000Y724408D01*
X354737Y723978D01*
X351696Y722719D01*
X349085Y720715D01*
X347081Y718104D01*
X345821Y715063D01*
X345392Y711800D01*
X345821Y708537D01*
X347081Y705496D01*
X349085Y702885D01*
X351696Y700881D01*
X354423Y699752D01*
X354423Y699750D01*
Y698450D01*
X354423Y698448D01*
X351696Y697319D01*
X349085Y695315D01*
X347081Y692704D01*
X345821Y689663D01*
X345392Y686400D01*
X345821Y683137D01*
X347081Y680096D01*
X349085Y677485D01*
X351696Y675481D01*
X354423Y674352D01*
X354423Y674350D01*
Y673050D01*
X354423Y673048D01*
X351696Y671919D01*
X349085Y669915D01*
X347081Y667304D01*
X345821Y664263D01*
X345392Y661000D01*
X345821Y657737D01*
X347081Y654696D01*
X349085Y652085D01*
X351696Y650081D01*
X354737Y648822D01*
X358000Y648392D01*
X361263Y648822D01*
X364304Y650081D01*
X366915Y652085D01*
X368918Y654696D01*
X370178Y657737D01*
X370608Y661000D01*
X371244Y661725D01*
X378401D01*
X378762Y661449D01*
X380586Y660693D01*
X382544Y660435D01*
X382544Y660435D01*
X397085D01*
X397611Y659165D01*
X369213Y630767D01*
X368040Y631253D01*
Y634330D01*
X359270D01*
Y625560D01*
X362346D01*
X362832Y624387D01*
X352351Y613905D01*
X351148Y612338D01*
X350393Y610514D01*
X350135Y608556D01*
Y507229D01*
X350393Y505271D01*
X351148Y503447D01*
X352351Y501880D01*
X355280Y498951D01*
X356846Y497749D01*
X358500Y497064D01*
Y484800D01*
X385500D01*
Y511800D01*
X375439D01*
X375186Y513070D01*
X377568Y514057D01*
X379874Y515826D01*
X381644Y518133D01*
X382756Y520818D01*
X382968Y522430D01*
X372000D01*
Y523700D01*
X370730D01*
Y534668D01*
X369118Y534456D01*
X366535Y533386D01*
X365610Y533713D01*
X365265Y533883D01*
Y605422D01*
X401842Y642000D01*
X437000D01*
Y646935D01*
X444500D01*
X446458Y647193D01*
X448282Y647949D01*
X449849Y649151D01*
X457423Y656725D01*
X457423Y656725D01*
X458625Y658292D01*
X459381Y660116D01*
X459639Y662074D01*
X459639Y662074D01*
Y667441D01*
X462198Y670000D01*
X470500D01*
Y692643D01*
X471673Y693129D01*
X474500Y690302D01*
Y670000D01*
X476492D01*
X476693Y668472D01*
X477449Y666648D01*
X478651Y665081D01*
X483693Y660039D01*
X484448Y658216D01*
X485650Y656650D01*
X487217Y655447D01*
X489041Y654692D01*
X490999Y654434D01*
X492957Y654692D01*
X494781Y655447D01*
X496348Y656650D01*
X497550Y658216D01*
X498306Y660041D01*
X498564Y661999D01*
Y663431D01*
X498564Y663431D01*
X498306Y665389D01*
X497550Y667213D01*
X496348Y668780D01*
X496348Y668780D01*
X493500Y671628D01*
Y701000D01*
X485198D01*
X476761Y709437D01*
X475195Y710639D01*
X473370Y711395D01*
X471412Y711653D01*
X458271D01*
X457565Y712709D01*
X457807Y713292D01*
X458065Y715250D01*
Y715750D01*
X457807Y717708D01*
X457051Y719532D01*
X455849Y721099D01*
X454282Y722301D01*
X452458Y723057D01*
X450500Y723315D01*
X448542Y723057D01*
X447957Y722815D01*
X445519D01*
X443985Y724349D01*
X442419Y725551D01*
X440594Y726307D01*
X438636Y726564D01*
X432500D01*
Y731000D01*
X430040D01*
Y737730D01*
X409960D01*
Y731000D01*
X407500D01*
Y707000D01*
X432500D01*
Y711435D01*
X435503D01*
X437037Y709901D01*
X437037Y709901D01*
X438604Y708699D01*
X440428Y707943D01*
X441330Y707824D01*
X441785Y706483D01*
X434071Y698769D01*
X432869Y697202D01*
X432180Y695540D01*
X419270D01*
Y685500D01*
X418000D01*
Y684230D01*
X401460D01*
Y675565D01*
X398534D01*
X397752Y676835D01*
X397963Y678434D01*
X397963Y678434D01*
Y778679D01*
X418720Y799436D01*
X431480D01*
X431800Y799393D01*
X432120Y799436D01*
X499335D01*
X499768Y798626D01*
X501642Y796342D01*
X503926Y794468D01*
X506532Y793075D01*
X509360Y792217D01*
X512300Y791928D01*
X515241Y792217D01*
X518068Y793075D01*
X520674Y794468D01*
X522958Y796342D01*
X524833Y798626D01*
X526226Y801232D01*
X527083Y804060D01*
X527373Y807000D01*
X527083Y809941D01*
X526226Y812768D01*
X524833Y815374D01*
X522958Y817658D01*
X520674Y819532D01*
X518068Y820925D01*
X515241Y821783D01*
X512300Y822073D01*
D02*
G37*
G36*
X496400Y775912D02*
X493007Y775465D01*
X489844Y774155D01*
X489458Y773858D01*
X488401D01*
X487230Y773625D01*
X486238Y772962D01*
X485575Y771970D01*
X485342Y770800D01*
Y769743D01*
X485045Y769356D01*
X484388Y767769D01*
X483013D01*
X482356Y769356D01*
X482059Y769742D01*
Y770800D01*
X481827Y771970D01*
X481163Y772962D01*
X480171Y773625D01*
X479001Y773858D01*
X477943D01*
X477556Y774155D01*
X474394Y775465D01*
X471000Y775912D01*
X467607Y775465D01*
X464444Y774155D01*
X464058Y773858D01*
X463001D01*
X461830Y773625D01*
X460838Y772962D01*
X460175Y771970D01*
X459942Y770800D01*
Y769743D01*
X459645Y769356D01*
X458335Y766193D01*
X457888Y762800D01*
Y746800D01*
X458335Y743406D01*
X459645Y740244D01*
X461729Y737528D01*
X464444Y735444D01*
X467607Y734134D01*
X471000Y733688D01*
X474394Y734134D01*
X477556Y735444D01*
X480272Y737528D01*
X482356Y740244D01*
X483013Y741830D01*
X484388D01*
X485045Y740244D01*
X487129Y737528D01*
X489844Y735444D01*
X493007Y734134D01*
X496400Y733688D01*
X499794Y734134D01*
X502956Y735444D01*
X505672Y737528D01*
X507756Y740244D01*
X509066Y743406D01*
X509512Y746800D01*
Y756937D01*
X509899Y757227D01*
X511169Y756591D01*
Y756070D01*
X520530D01*
Y773263D01*
X519049Y773068D01*
X516485Y772006D01*
X514283Y770317D01*
X512594Y768115D01*
X512166Y767082D01*
X512164D01*
X510847Y767218D01*
X509749Y768649D01*
X508182Y769851D01*
X507459Y770151D01*
Y770800D01*
X507226Y771970D01*
X506563Y772962D01*
X505571Y773625D01*
X504401Y773858D01*
X503343D01*
X502956Y774155D01*
X499794Y775465D01*
X496400Y775912D01*
D02*
G37*
G36*
X523070Y773263D02*
Y756070D01*
X532431D01*
Y762800D01*
X532069Y765551D01*
X531007Y768115D01*
X529318Y770317D01*
X527116Y772006D01*
X524552Y773068D01*
X523070Y773263D01*
D02*
G37*
G36*
X430040Y748540D02*
X421270D01*
Y740270D01*
X430040D01*
Y748540D01*
D02*
G37*
G36*
X418730D02*
X409960D01*
Y740270D01*
X418730D01*
Y748540D01*
D02*
G37*
G36*
X520530Y753530D02*
X511169D01*
Y746800D01*
X511532Y744048D01*
X512594Y741484D01*
X514283Y739282D01*
X516485Y737593D01*
X519049Y736531D01*
X520530Y736336D01*
Y753530D01*
D02*
G37*
G36*
X532431D02*
X523070D01*
Y736336D01*
X524552Y736531D01*
X527116Y737593D01*
X529318Y739282D01*
X531007Y741484D01*
X532069Y744048D01*
X532431Y746800D01*
Y753530D01*
D02*
G37*
G36*
X1232040Y741040D02*
X1216770D01*
Y732270D01*
X1232040D01*
Y741040D01*
D02*
G37*
G36*
X1214230D02*
X1198960D01*
Y732270D01*
X1214230D01*
Y741040D01*
D02*
G37*
G36*
X1386270Y738459D02*
Y727270D01*
X1395127D01*
Y728500D01*
X1394782Y731121D01*
X1393770Y733563D01*
X1392161Y735661D01*
X1390063Y737270D01*
X1387621Y738282D01*
X1386270Y738459D01*
D02*
G37*
G36*
X1383730D02*
X1382379Y738282D01*
X1379937Y737270D01*
X1377839Y735661D01*
X1376230Y733563D01*
X1375219Y731121D01*
X1374873Y728500D01*
Y727270D01*
X1383730D01*
Y738459D01*
D02*
G37*
G36*
X1232040Y729730D02*
X1216770D01*
Y720960D01*
X1232040D01*
Y729730D01*
D02*
G37*
G36*
X1214230D02*
X1198960D01*
Y720960D01*
X1214230D01*
Y729730D01*
D02*
G37*
G36*
X546938Y726730D02*
X540770D01*
Y720562D01*
X541468Y720654D01*
X543302Y721414D01*
X544878Y722622D01*
X546086Y724197D01*
X546846Y726032D01*
X546938Y726730D01*
D02*
G37*
G36*
X538230D02*
X532062D01*
X532154Y726032D01*
X532914Y724197D01*
X534122Y722622D01*
X535698Y721414D01*
X537532Y720654D01*
X538230Y720562D01*
Y726730D01*
D02*
G37*
G36*
X1395127Y724730D02*
X1386270D01*
Y713541D01*
X1387621Y713718D01*
X1390063Y714730D01*
X1392161Y716339D01*
X1393770Y718437D01*
X1394782Y720879D01*
X1395127Y723500D01*
Y724730D01*
D02*
G37*
G36*
X1214770Y712688D02*
Y706520D01*
X1220938D01*
X1220846Y707218D01*
X1220086Y709053D01*
X1218878Y710628D01*
X1217302Y711836D01*
X1215468Y712596D01*
X1214770Y712688D01*
D02*
G37*
G36*
X1212230D02*
X1211532Y712596D01*
X1209697Y711836D01*
X1208122Y710628D01*
X1206914Y709053D01*
X1206154Y707218D01*
X1206062Y706520D01*
X1212230D01*
Y712688D01*
D02*
G37*
G36*
X1220938Y703980D02*
X1214770D01*
Y697812D01*
X1215468Y697904D01*
X1217302Y698664D01*
X1218878Y699872D01*
X1220086Y701448D01*
X1220846Y703282D01*
X1220938Y703980D01*
D02*
G37*
G36*
X1212230D02*
X1206062D01*
X1206154Y703282D01*
X1206914Y701448D01*
X1208122Y699872D01*
X1209697Y698664D01*
X1211532Y697904D01*
X1212230Y697812D01*
Y703980D01*
D02*
G37*
G36*
X608040Y695540D02*
X599270D01*
Y687270D01*
X608040D01*
Y695540D01*
D02*
G37*
G36*
X596730D02*
X587960D01*
Y687270D01*
X596730D01*
Y695540D01*
D02*
G37*
G36*
X514040Y698540D02*
X508270D01*
Y686770D01*
X514040D01*
Y698540D01*
D02*
G37*
G36*
X505730D02*
X499960D01*
Y686770D01*
X505730D01*
Y698540D01*
D02*
G37*
G36*
X416730Y695540D02*
X401460D01*
Y686770D01*
X416730D01*
Y695540D01*
D02*
G37*
G36*
X1145040Y694730D02*
X1136270D01*
Y686460D01*
X1145040D01*
Y694730D01*
D02*
G37*
G36*
X571540Y694540D02*
X556270D01*
Y685770D01*
X571540D01*
Y694540D01*
D02*
G37*
G36*
X553730D02*
X538460D01*
Y685770D01*
X553730D01*
Y694540D01*
D02*
G37*
G36*
X1080980Y690230D02*
X1072210D01*
Y681960D01*
X1080980D01*
Y690230D01*
D02*
G37*
G36*
X1108188Y678980D02*
X1102020D01*
Y672812D01*
X1102718Y672904D01*
X1104553Y673664D01*
X1106128Y674872D01*
X1107336Y676448D01*
X1108096Y678282D01*
X1108188Y678980D01*
D02*
G37*
G36*
X1099480D02*
X1093312D01*
X1093404Y678282D01*
X1094164Y676448D01*
X1095372Y674872D01*
X1096947Y673664D01*
X1098782Y672904D01*
X1099480Y672812D01*
Y678980D01*
D02*
G37*
G36*
X514040Y684230D02*
X508270D01*
Y672460D01*
X514040D01*
Y684230D01*
D02*
G37*
G36*
X505730D02*
X499960D01*
Y672460D01*
X505730D01*
Y684230D01*
D02*
G37*
G36*
X743671Y668688D02*
Y662520D01*
X749838D01*
X749746Y663218D01*
X748987Y665052D01*
X747778Y666628D01*
X746203Y667836D01*
X744369Y668596D01*
X743671Y668688D01*
D02*
G37*
G36*
X741131D02*
X740432Y668596D01*
X738598Y667836D01*
X737023Y666628D01*
X735814Y665052D01*
X735055Y663218D01*
X734963Y662520D01*
X741131D01*
Y668688D01*
D02*
G37*
G36*
X749838Y659980D02*
X743671D01*
Y653812D01*
X744369Y653904D01*
X746203Y654664D01*
X747778Y655872D01*
X748987Y657448D01*
X749746Y659282D01*
X749838Y659980D01*
D02*
G37*
G36*
X741131D02*
X734963D01*
X735055Y659282D01*
X735814Y657448D01*
X737023Y655872D01*
X738598Y654664D01*
X740432Y653904D01*
X741131Y653812D01*
Y659980D01*
D02*
G37*
G36*
X1199250Y682364D02*
X1195033Y681949D01*
X1190979Y680719D01*
X1187242Y678721D01*
X1183967Y676033D01*
X1181279Y672758D01*
X1179281Y669021D01*
X1178051Y664967D01*
X1177636Y660750D01*
X1178051Y656533D01*
X1179281Y652479D01*
X1181279Y648742D01*
X1183967Y645467D01*
X1187242Y642779D01*
X1190979Y640781D01*
X1195033Y639551D01*
X1199250Y639136D01*
X1203467Y639551D01*
X1207521Y640781D01*
X1211258Y642779D01*
X1214533Y645467D01*
X1217221Y648742D01*
X1219219Y652479D01*
X1220449Y656533D01*
X1220864Y660750D01*
X1220449Y664967D01*
X1219219Y669021D01*
X1217221Y672758D01*
X1214533Y676033D01*
X1211258Y678721D01*
X1207521Y680719D01*
X1203467Y681949D01*
X1199250Y682364D01*
D02*
G37*
G36*
X368040Y645640D02*
X359270D01*
Y636870D01*
X368040D01*
Y645640D01*
D02*
G37*
G36*
X356730D02*
X347960D01*
Y636870D01*
X356730D01*
Y645640D01*
D02*
G37*
G36*
Y634330D02*
X347960D01*
Y625560D01*
X356730D01*
Y634330D01*
D02*
G37*
G36*
X505000Y644000D02*
X463000D01*
Y613000D01*
X505000D01*
Y644000D01*
D02*
G37*
G36*
X970280Y589026D02*
X965121D01*
X965178Y588589D01*
X965837Y586998D01*
X966886Y585632D01*
X968252Y584583D01*
X969843Y583924D01*
X970280Y583867D01*
Y589026D01*
D02*
G37*
G36*
X2091000Y615584D02*
X2087569Y615247D01*
X2084271Y614246D01*
X2081231Y612621D01*
X2078566Y610434D01*
X2076379Y607769D01*
X2074754Y604729D01*
X2073753Y601430D01*
X2073416Y598000D01*
X2073753Y594569D01*
X2074754Y591270D01*
X2076379Y588230D01*
X2078566Y585566D01*
X2081231Y583379D01*
X2084271Y581754D01*
X2087569Y580753D01*
X2091000Y580415D01*
X2094431Y580753D01*
X2097729Y581754D01*
X2100770Y583379D01*
X2103434Y585566D01*
X2105621Y588230D01*
X2107246Y591270D01*
X2108247Y594569D01*
X2108585Y598000D01*
X2108247Y601430D01*
X2107246Y604729D01*
X2105621Y607769D01*
X2103434Y610434D01*
X2100770Y612621D01*
X2097729Y614246D01*
X2094431Y615247D01*
X2091000Y615584D01*
D02*
G37*
G36*
X1966000D02*
X1962569Y615247D01*
X1959271Y614246D01*
X1956231Y612621D01*
X1953566Y610434D01*
X1951379Y607769D01*
X1949754Y604729D01*
X1948753Y601430D01*
X1948416Y598000D01*
X1948753Y594569D01*
X1949754Y591270D01*
X1951379Y588230D01*
X1953566Y585566D01*
X1956231Y583379D01*
X1959271Y581754D01*
X1962569Y580753D01*
X1966000Y580415D01*
X1969431Y580753D01*
X1972729Y581754D01*
X1975770Y583379D01*
X1978434Y585566D01*
X1980621Y588230D01*
X1982246Y591270D01*
X1983247Y594569D01*
X1983585Y598000D01*
X1983247Y601430D01*
X1982246Y604729D01*
X1980621Y607769D01*
X1978434Y610434D01*
X1975770Y612621D01*
X1972729Y614246D01*
X1969431Y615247D01*
X1966000Y615584D01*
D02*
G37*
G36*
X711200Y600909D02*
X432562D01*
X430604Y600651D01*
X428780Y599895D01*
X427213Y598693D01*
X426011Y597126D01*
X425255Y595302D01*
X424997Y593344D01*
X425255Y591386D01*
X426011Y589562D01*
X427213Y587995D01*
X428780Y586793D01*
X430604Y586037D01*
X432562Y585779D01*
X708067D01*
X715662Y578184D01*
X713645Y575556D01*
X712988Y573969D01*
X711613D01*
X710956Y575556D01*
X708872Y578271D01*
X706156Y580355D01*
X702994Y581665D01*
X699600Y582112D01*
X696207Y581665D01*
X693044Y580355D01*
X690329Y578271D01*
X688245Y575556D01*
X687588Y573969D01*
X686213D01*
X685556Y575556D01*
X683472Y578271D01*
X680756Y580355D01*
X677594Y581665D01*
X674200Y582112D01*
X670807Y581665D01*
X667644Y580355D01*
X664929Y578271D01*
X662845Y575556D01*
X662188Y573969D01*
X660813D01*
X660156Y575556D01*
X658072Y578271D01*
X655356Y580355D01*
X652194Y581665D01*
X648800Y582112D01*
X645407Y581665D01*
X642244Y580355D01*
X639529Y578271D01*
X637445Y575556D01*
X636788Y573969D01*
X635413D01*
X634756Y575556D01*
X632672Y578271D01*
X629956Y580355D01*
X626794Y581665D01*
X623400Y582112D01*
X620007Y581665D01*
X616844Y580355D01*
X614129Y578271D01*
X612045Y575556D01*
X611388Y573969D01*
X610013D01*
X609356Y575556D01*
X607272Y578271D01*
X604556Y580355D01*
X601394Y581665D01*
X598000Y582112D01*
X594607Y581665D01*
X591444Y580355D01*
X588729Y578271D01*
X586645Y575556D01*
X585988Y573969D01*
X584613D01*
X583956Y575556D01*
X581872Y578271D01*
X579156Y580355D01*
X575994Y581665D01*
X572600Y582112D01*
X569207Y581665D01*
X566044Y580355D01*
X563329Y578271D01*
X561245Y575556D01*
X560588Y573969D01*
X559213D01*
X558556Y575556D01*
X556472Y578271D01*
X553756Y580355D01*
X550594Y581665D01*
X547200Y582112D01*
X543807Y581665D01*
X540644Y580355D01*
X537929Y578271D01*
X535845Y575556D01*
X535188Y573969D01*
X533813D01*
X533156Y575556D01*
X531072Y578271D01*
X528356Y580355D01*
X525194Y581665D01*
X521800Y582112D01*
X518407Y581665D01*
X515244Y580355D01*
X512529Y578271D01*
X510445Y575556D01*
X509788Y573969D01*
X508413D01*
X507756Y575556D01*
X505672Y578271D01*
X502956Y580355D01*
X499794Y581665D01*
X496400Y582112D01*
X493007Y581665D01*
X489844Y580355D01*
X487129Y578271D01*
X485270Y575849D01*
X484000Y576191D01*
Y582000D01*
X458000D01*
Y540000D01*
X484000D01*
Y544358D01*
X485265Y545050D01*
X485369Y544861D01*
X485575Y543829D01*
X486238Y542837D01*
X487230Y542174D01*
X488401Y541941D01*
X489458D01*
X489844Y541644D01*
X493007Y540334D01*
X496400Y539888D01*
X499794Y540334D01*
X502956Y541644D01*
X503343Y541941D01*
X504401D01*
X505571Y542174D01*
X506563Y542837D01*
X507226Y543829D01*
X507459Y545000D01*
Y546057D01*
X507756Y546443D01*
X508413Y548030D01*
X509788D01*
X510445Y546443D01*
X510742Y546057D01*
Y545000D01*
X510975Y543829D01*
X511638Y542837D01*
X512630Y542174D01*
X513801Y541941D01*
X514857D01*
X515244Y541644D01*
X518407Y540334D01*
X521800Y539888D01*
X525194Y540334D01*
X528356Y541644D01*
X528743Y541941D01*
X529801D01*
X530971Y542174D01*
X531964Y542837D01*
X532626Y543829D01*
X532859Y545000D01*
Y546057D01*
X533156Y546443D01*
X533813Y548030D01*
X535188D01*
X535845Y546443D01*
X536142Y546057D01*
Y545000D01*
X536375Y543829D01*
X537038Y542837D01*
X538030Y542174D01*
X539201Y541941D01*
X540257D01*
X540644Y541644D01*
X543807Y540334D01*
X547200Y539888D01*
X550594Y540334D01*
X553756Y541644D01*
X554143Y541941D01*
X555201D01*
X556371Y542174D01*
X557364Y542837D01*
X558027Y543829D01*
X558259Y545000D01*
Y546057D01*
X558556Y546443D01*
X559213Y548030D01*
X560588D01*
X561245Y546443D01*
X561542Y546057D01*
Y545000D01*
X561775Y543829D01*
X562438Y542837D01*
X563430Y542174D01*
X564601Y541941D01*
X565658D01*
X566044Y541644D01*
X569207Y540334D01*
X572600Y539888D01*
X575994Y540334D01*
X579156Y541644D01*
X579543Y541941D01*
X580601D01*
X581771Y542174D01*
X582763Y542837D01*
X583427Y543829D01*
X583659Y545000D01*
Y546057D01*
X583956Y546443D01*
X584613Y548030D01*
X585988D01*
X586645Y546443D01*
X586942Y546057D01*
Y545000D01*
X587175Y543829D01*
X587838Y542837D01*
X588830Y542174D01*
X590001Y541941D01*
X591058D01*
X591444Y541644D01*
X594607Y540334D01*
X598000Y539888D01*
X601394Y540334D01*
X604556Y541644D01*
X604943Y541941D01*
X606001D01*
X607171Y542174D01*
X608163Y542837D01*
X608826Y543829D01*
X609059Y545000D01*
Y546057D01*
X609356Y546443D01*
X610013Y548030D01*
X611388D01*
X612045Y546443D01*
X612342Y546057D01*
Y545000D01*
X612575Y543829D01*
X613238Y542837D01*
X614230Y542174D01*
X615401Y541941D01*
X616457D01*
X616844Y541644D01*
X620007Y540334D01*
X623400Y539888D01*
X626794Y540334D01*
X629956Y541644D01*
X630343Y541941D01*
X631401D01*
X632571Y542174D01*
X633563Y542837D01*
X634226Y543829D01*
X634459Y545000D01*
Y546057D01*
X634756Y546443D01*
X635413Y548030D01*
X636788D01*
X637445Y546443D01*
X637742Y546057D01*
Y545000D01*
X637975Y543829D01*
X638638Y542837D01*
X639630Y542174D01*
X640801Y541941D01*
X641858D01*
X642244Y541644D01*
X645407Y540334D01*
X648800Y539888D01*
X652194Y540334D01*
X655356Y541644D01*
X655743Y541941D01*
X656801D01*
X657971Y542174D01*
X658963Y542837D01*
X659626Y543829D01*
X659859Y545000D01*
Y546057D01*
X660156Y546443D01*
X660813Y548030D01*
X662188D01*
X662845Y546443D01*
X663142Y546057D01*
Y545000D01*
X663375Y543829D01*
X664038Y542837D01*
X665030Y542174D01*
X666201Y541941D01*
X667258D01*
X667644Y541644D01*
X670807Y540334D01*
X674200Y539888D01*
X677594Y540334D01*
X680756Y541644D01*
X681143Y541941D01*
X682201D01*
X683371Y542174D01*
X684363Y542837D01*
X685026Y543829D01*
X685259Y545000D01*
Y546057D01*
X685556Y546443D01*
X686213Y548030D01*
X687588D01*
X688245Y546443D01*
X688542Y546057D01*
Y545000D01*
X688775Y543829D01*
X689438Y542837D01*
X690430Y542174D01*
X691601Y541941D01*
X692657D01*
X693044Y541644D01*
X696207Y540334D01*
X699600Y539888D01*
X702994Y540334D01*
X706156Y541644D01*
X706543Y541941D01*
X707601D01*
X708771Y542174D01*
X709763Y542837D01*
X710426Y543829D01*
X710659Y545000D01*
Y546057D01*
X710825Y546273D01*
X710988Y546447D01*
X712389Y546585D01*
X713217Y545949D01*
X713942Y545649D01*
Y545000D01*
X714175Y543829D01*
X714838Y542837D01*
X715830Y542174D01*
X717001Y541941D01*
X718057D01*
X718444Y541644D01*
X721607Y540334D01*
X725000Y539888D01*
X728394Y540334D01*
X731556Y541644D01*
X731943Y541941D01*
X733001D01*
X734171Y542174D01*
X735163Y542837D01*
X735826Y543829D01*
X736059Y545000D01*
Y546057D01*
X736356Y546443D01*
X737013Y548030D01*
X738388D01*
X739045Y546443D01*
X739342Y546057D01*
Y545000D01*
X739575Y543829D01*
X740238Y542837D01*
X741230Y542174D01*
X742401Y541941D01*
X743457D01*
X743844Y541644D01*
X747007Y540334D01*
X750400Y539888D01*
X753794Y540334D01*
X756956Y541644D01*
X757343Y541941D01*
X758401D01*
X759571Y542174D01*
X760564Y542837D01*
X761227Y543829D01*
X761459Y545000D01*
Y546057D01*
X761756Y546443D01*
X763066Y549606D01*
X763512Y553000D01*
Y569000D01*
X763066Y572393D01*
X761756Y575556D01*
X759672Y578271D01*
X756956Y580355D01*
X753794Y581665D01*
X750400Y582112D01*
X747007Y581665D01*
X743844Y580355D01*
X741129Y578271D01*
X739045Y575556D01*
X738388Y573969D01*
X737013D01*
X736356Y575556D01*
X734272Y578271D01*
X732559Y579586D01*
X732307Y581502D01*
X731551Y583326D01*
X730349Y584893D01*
X716549Y598693D01*
X714982Y599895D01*
X713158Y600651D01*
X711200Y600909D01*
D02*
G37*
G36*
X777070Y579463D02*
Y562270D01*
X786431D01*
Y569000D01*
X786069Y571751D01*
X785007Y574315D01*
X783317Y576517D01*
X781116Y578206D01*
X778552Y579268D01*
X777070Y579463D01*
D02*
G37*
G36*
X774530Y579463D02*
X773049Y579268D01*
X770485Y578206D01*
X768283Y576517D01*
X766594Y574315D01*
X765532Y571751D01*
X765169Y569000D01*
Y562270D01*
X774530D01*
Y579463D01*
D02*
G37*
G36*
X1386270Y557460D02*
Y546270D01*
X1395127D01*
Y547500D01*
X1394782Y550121D01*
X1393770Y552564D01*
X1392161Y554661D01*
X1390063Y556270D01*
X1387621Y557282D01*
X1386270Y557460D01*
D02*
G37*
G36*
X774530Y559730D02*
X765169D01*
Y553000D01*
X765532Y550248D01*
X766594Y547684D01*
X768283Y545482D01*
X770485Y543793D01*
X773049Y542731D01*
X774530Y542536D01*
Y559730D01*
D02*
G37*
G36*
X1891140Y587211D02*
X1886239Y586728D01*
X1881527Y585299D01*
X1877184Y582977D01*
X1873377Y579853D01*
X1870253Y576046D01*
X1867932Y571703D01*
X1866502Y566991D01*
X1866019Y562090D01*
X1866502Y557189D01*
X1867932Y552476D01*
X1870253Y548133D01*
X1873377Y544327D01*
X1877184Y541203D01*
X1881527Y538881D01*
X1886239Y537452D01*
X1891140Y536969D01*
X1896041Y537452D01*
X1900754Y538881D01*
X1905097Y541203D01*
X1908903Y544327D01*
X1912027Y548133D01*
X1914349Y552476D01*
X1915779Y557189D01*
X1916261Y562090D01*
X1915779Y566991D01*
X1914349Y571703D01*
X1912027Y576046D01*
X1908903Y579853D01*
X1905097Y582977D01*
X1900754Y585299D01*
X1896041Y586728D01*
X1891140Y587211D01*
D02*
G37*
G36*
X1521140D02*
X1516239Y586728D01*
X1511527Y585299D01*
X1507184Y582977D01*
X1503377Y579853D01*
X1500253Y576046D01*
X1497931Y571703D01*
X1496502Y566991D01*
X1496019Y562090D01*
X1496502Y557189D01*
X1497931Y552476D01*
X1500253Y548133D01*
X1503377Y544327D01*
X1507184Y541203D01*
X1511527Y538881D01*
X1516239Y537452D01*
X1521140Y536969D01*
X1526041Y537452D01*
X1530753Y538881D01*
X1535096Y541203D01*
X1538903Y544327D01*
X1542027Y548133D01*
X1544349Y552476D01*
X1545778Y557189D01*
X1546261Y562090D01*
X1545778Y566991D01*
X1544349Y571703D01*
X1542027Y576046D01*
X1538903Y579853D01*
X1535096Y582977D01*
X1530753Y585299D01*
X1526041Y586728D01*
X1521140Y587211D01*
D02*
G37*
G36*
X1395127Y543730D02*
X1386270D01*
Y532541D01*
X1387621Y532719D01*
X1390063Y533730D01*
X1392161Y535340D01*
X1393770Y537437D01*
X1394782Y539879D01*
X1395127Y542500D01*
Y543730D01*
D02*
G37*
G36*
X2091000Y565585D02*
X2087569Y565247D01*
X2084271Y564246D01*
X2081231Y562621D01*
X2078566Y560434D01*
X2076379Y557769D01*
X2074754Y554729D01*
X2073753Y551431D01*
X2073416Y548000D01*
X2073753Y544569D01*
X2074754Y541270D01*
X2076379Y538230D01*
X2078566Y535566D01*
X2081231Y533379D01*
X2084271Y531754D01*
X2087569Y530753D01*
X2091000Y530415D01*
X2094431Y530753D01*
X2097729Y531754D01*
X2100770Y533379D01*
X2103434Y535566D01*
X2105621Y538230D01*
X2107246Y541270D01*
X2108247Y544569D01*
X2108585Y548000D01*
X2108247Y551431D01*
X2107246Y554729D01*
X2105621Y557769D01*
X2103434Y560434D01*
X2100770Y562621D01*
X2097729Y564246D01*
X2094431Y565247D01*
X2091000Y565585D01*
D02*
G37*
G36*
X495020Y531188D02*
Y525020D01*
X501188D01*
X501096Y525718D01*
X500336Y527552D01*
X499128Y529128D01*
X497552Y530336D01*
X495718Y531096D01*
X495020Y531188D01*
D02*
G37*
G36*
X492480D02*
X491782Y531096D01*
X489948Y530336D01*
X488372Y529128D01*
X487164Y527552D01*
X486404Y525718D01*
X486312Y525020D01*
X492480D01*
Y531188D01*
D02*
G37*
G36*
X373270Y534668D02*
Y524970D01*
X382968D01*
X382756Y526582D01*
X381644Y529268D01*
X379874Y531574D01*
X377568Y533344D01*
X374882Y534456D01*
X373270Y534668D01*
D02*
G37*
G36*
X501188Y522480D02*
X495020D01*
Y516312D01*
X495718Y516404D01*
X497552Y517164D01*
X499128Y518372D01*
X500336Y519948D01*
X501096Y521782D01*
X501188Y522480D01*
D02*
G37*
G36*
X492480D02*
X486312D01*
X486404Y521782D01*
X487164Y519948D01*
X488372Y518372D01*
X489948Y517164D01*
X491782Y516404D01*
X492480Y516312D01*
Y522480D01*
D02*
G37*
G36*
X734270Y514688D02*
Y508520D01*
X740438D01*
X740346Y509218D01*
X739586Y511053D01*
X738378Y512628D01*
X736803Y513836D01*
X734968Y514596D01*
X734270Y514688D01*
D02*
G37*
G36*
X731730D02*
X731032Y514596D01*
X729197Y513836D01*
X727622Y512628D01*
X726414Y511053D01*
X725654Y509218D01*
X725562Y508520D01*
X731730D01*
Y514688D01*
D02*
G37*
G36*
X740438Y505980D02*
X734270D01*
Y499812D01*
X734968Y499904D01*
X736803Y500664D01*
X738378Y501872D01*
X739586Y503447D01*
X740346Y505282D01*
X740438Y505980D01*
D02*
G37*
G36*
X731730D02*
X725562D01*
X725654Y505282D01*
X726414Y503447D01*
X727622Y501872D01*
X729197Y500664D01*
X731032Y499904D01*
X731730Y499812D01*
Y505980D01*
D02*
G37*
G36*
X817540Y467460D02*
X806270D01*
Y460190D01*
X817540D01*
Y467460D01*
D02*
G37*
G36*
X803730D02*
X792460D01*
Y460190D01*
X803730D01*
Y467460D01*
D02*
G37*
G36*
X1405100Y482104D02*
X1401967Y481691D01*
X1399048Y480482D01*
X1396542Y478559D01*
X1394618Y476052D01*
X1393409Y473133D01*
X1392997Y470000D01*
X1393409Y466867D01*
X1394618Y463948D01*
X1396542Y461442D01*
X1399048Y459518D01*
X1401967Y458309D01*
X1405100Y457896D01*
X1408233Y458309D01*
X1411152Y459518D01*
X1413658Y461442D01*
X1415582Y463948D01*
X1416791Y466867D01*
X1417204Y470000D01*
X1416791Y473133D01*
X1415582Y476052D01*
X1413658Y478559D01*
X1411152Y480482D01*
X1408233Y481691D01*
X1405100Y482104D01*
D02*
G37*
G36*
X1328900D02*
X1325767Y481691D01*
X1322848Y480482D01*
X1320342Y478559D01*
X1318418Y476052D01*
X1317209Y473133D01*
X1316797Y470000D01*
X1317209Y466867D01*
X1318418Y463948D01*
X1320342Y461442D01*
X1322848Y459518D01*
X1325767Y458309D01*
X1328900Y457896D01*
X1332033Y458309D01*
X1334952Y459518D01*
X1337458Y461442D01*
X1339382Y463948D01*
X1340591Y466867D01*
X1341004Y470000D01*
X1340591Y473133D01*
X1339382Y476052D01*
X1337458Y478559D01*
X1334952Y480482D01*
X1332033Y481691D01*
X1328900Y482104D01*
D02*
G37*
G36*
X2069000Y471600D02*
X2064981Y471204D01*
X2061117Y470032D01*
X2057555Y468128D01*
X2054434Y465566D01*
X2051872Y462445D01*
X2049969Y458883D01*
X2048796Y455019D01*
X2048401Y451000D01*
X2048796Y446982D01*
X2049969Y443117D01*
X2051872Y439556D01*
X2054434Y436435D01*
X2057555Y433873D01*
X2061117Y431969D01*
X2064981Y430797D01*
X2069000Y430401D01*
X2073018Y430797D01*
X2076883Y431969D01*
X2080444Y433873D01*
X2083566Y436435D01*
X2086127Y439556D01*
X2088031Y443117D01*
X2089203Y446982D01*
X2089599Y451000D01*
X2089203Y455019D01*
X2088031Y458883D01*
X2086127Y462445D01*
X2083566Y465566D01*
X2080444Y468128D01*
X2076883Y470032D01*
X2073018Y471204D01*
X2069000Y471600D01*
D02*
G37*
G36*
X1328900Y453603D02*
X1325767Y453191D01*
X1322848Y451982D01*
X1320342Y450058D01*
X1318418Y447551D01*
X1317209Y444632D01*
X1316797Y441500D01*
X1317209Y438367D01*
X1318418Y435448D01*
X1320342Y432941D01*
X1322848Y431018D01*
X1325767Y429809D01*
X1328900Y429396D01*
X1332033Y429809D01*
X1334952Y431018D01*
X1337458Y432941D01*
X1339382Y435448D01*
X1340591Y438367D01*
X1341004Y441500D01*
X1340591Y444632D01*
X1339382Y447551D01*
X1337458Y450058D01*
X1334952Y451982D01*
X1332033Y453191D01*
X1328900Y453603D01*
D02*
G37*
G36*
X319000Y450599D02*
X314981Y450204D01*
X311117Y449031D01*
X307556Y447128D01*
X304434Y444566D01*
X301873Y441444D01*
X299969Y437883D01*
X298797Y434019D01*
X298401Y430000D01*
X298797Y425981D01*
X299969Y422117D01*
X301873Y418556D01*
X304434Y415434D01*
X307556Y412873D01*
X311117Y410969D01*
X314981Y409797D01*
X319000Y409401D01*
X323019Y409797D01*
X326883Y410969D01*
X330444Y412873D01*
X333566Y415434D01*
X336128Y418556D01*
X338031Y422117D01*
X339203Y425981D01*
X339599Y430000D01*
X339203Y434019D01*
X338031Y437883D01*
X336128Y441444D01*
X333566Y444566D01*
X330444Y447128D01*
X326883Y449031D01*
X323019Y450204D01*
X319000Y450599D01*
D02*
G37*
G36*
X1081745Y783688D02*
Y777520D01*
X1087913D01*
X1087821Y778218D01*
X1087061Y780052D01*
X1085852Y781628D01*
X1084277Y782836D01*
X1082443Y783596D01*
X1081745Y783688D01*
D02*
G37*
G36*
X1079205D02*
X1078506Y783596D01*
X1076672Y782836D01*
X1075097Y781628D01*
X1073889Y780052D01*
X1073129Y778218D01*
X1073037Y777520D01*
X1079205D01*
Y783688D01*
D02*
G37*
G36*
X1087913Y774980D02*
X1081745D01*
Y768812D01*
X1082443Y768904D01*
X1084277Y769664D01*
X1085852Y770872D01*
X1087061Y772448D01*
X1087821Y774282D01*
X1087913Y774980D01*
D02*
G37*
G36*
X1079205D02*
X1073037D01*
X1073129Y774282D01*
X1073889Y772448D01*
X1075097Y770872D01*
X1076672Y769664D01*
X1078506Y768904D01*
X1079205Y768812D01*
Y774980D01*
D02*
G37*
G36*
X1033270Y626429D02*
Y621270D01*
X1038429D01*
X1038372Y621707D01*
X1037713Y623298D01*
X1036664Y624664D01*
X1035298Y625713D01*
X1033707Y626372D01*
X1033270Y626429D01*
D02*
G37*
G36*
X1030730D02*
X1030293Y626372D01*
X1028702Y625713D01*
X1027336Y624664D01*
X1026287Y623298D01*
X1025628Y621707D01*
X1025571Y621270D01*
X1030730D01*
Y626429D01*
D02*
G37*
G36*
X1038429Y618730D02*
X1033270D01*
Y613571D01*
X1033707Y613628D01*
X1035298Y614287D01*
X1036664Y615336D01*
X1037713Y616702D01*
X1038372Y618293D01*
X1038429Y618730D01*
D02*
G37*
G36*
X1030730D02*
X1025571D01*
X1025628Y618293D01*
X1026287Y616702D01*
X1027336Y615336D01*
X1028702Y614287D01*
X1030293Y613628D01*
X1030730Y613571D01*
Y618730D01*
D02*
G37*
%LPD*%
D10*
X1081500Y713000D02*
X1108000D01*
X1081250Y712750D02*
X1081500Y713000D01*
X1108000D02*
X1109000D01*
X1113750Y717750D01*
Y718750D01*
X1125750Y730750D01*
Y746076D01*
Y799670D02*
Y806920D01*
X1135651Y816821D01*
X1150179D02*
X1166000Y801000D01*
X1135651Y816821D02*
X1150179D01*
X1172500Y781820D02*
Y784570D01*
X1171500Y780820D02*
X1172500Y781820D01*
X1166000Y793820D02*
Y801000D01*
X1172500Y784570D02*
Y787320D01*
X1166000Y793820D02*
X1172500Y787320D01*
X1169590Y832885D02*
X1182000Y820475D01*
Y807250D02*
Y820475D01*
X1168885Y832885D02*
X1169590D01*
D13*
X725000Y552500D02*
Y579544D01*
X1135450Y647800D02*
X1135900Y648250D01*
X775800Y568536D02*
X797560Y590296D01*
X767800Y552500D02*
X775800D01*
X521800Y763299D02*
X527050D01*
X410324Y739000D02*
X453136Y781812D01*
X527050Y686000D02*
Y763299D01*
Y686000D02*
X598000D01*
X444500Y654500D02*
X452074Y662074D01*
X1152750Y758309D02*
X1153707Y759266D01*
X1169266D01*
X1171000Y761000D01*
X674200Y764120D02*
X703580Y793500D01*
X452074Y662074D02*
Y670574D01*
X461000Y679500D01*
Y685500D01*
X442386Y715250D02*
X450500D01*
Y715750D01*
X450088Y704088D02*
X471412D01*
X439420Y693420D02*
X450088Y704088D01*
X438636Y719000D02*
X442386Y715250D01*
X452384Y727000D02*
X513832D01*
X440384Y739000D02*
X452384Y727000D01*
X530352Y685500D02*
X531352Y684500D01*
X439420Y668000D02*
Y693420D01*
X520000Y753800D02*
Y781812D01*
X513832Y727000D02*
X521800Y734968D01*
X407924Y736600D02*
Y739000D01*
X431800Y806958D02*
Y807000D01*
X507000Y685500D02*
X530352D01*
X521800Y752000D02*
Y763299D01*
X420000Y739000D02*
X440384D01*
X775800Y482600D02*
Y552500D01*
X766064Y498264D02*
Y558800D01*
X420000Y719000D02*
X438636D01*
X368322Y671322D02*
X383286D01*
X407924Y739000D02*
X410324D01*
X471412Y704088D02*
X484000Y691500D01*
X555000Y653500D02*
X558001Y656500D01*
X588500D01*
X593000Y661000D01*
Y661500D01*
X597500Y666000D01*
X598000D01*
X555000Y634990D02*
Y653500D01*
Y634990D02*
X559308Y630682D01*
X484000Y685500D02*
Y691500D01*
X1189785Y745785D02*
X1193500Y749500D01*
X1186000Y742000D02*
X1189785Y745785D01*
X1193500Y749500D02*
X1196500D01*
X1209000Y762000D01*
X1215500D01*
X1189785Y745785D02*
Y776215D01*
X1038750Y723938D02*
Y724750D01*
Y723938D02*
X1044802Y717886D01*
Y632217D02*
Y717886D01*
Y632217D02*
X1069019Y608000D01*
X1135750Y648050D02*
X1161150D01*
X1135450Y617950D02*
Y647800D01*
X1135000Y617500D02*
X1135450Y617950D01*
X972750Y686250D02*
Y776500D01*
X699600Y764006D02*
X716594Y781000D01*
X1002500Y675127D02*
Y770500D01*
X998190Y670817D02*
X1002500Y675127D01*
X998190Y652583D02*
Y670817D01*
Y652583D02*
X1002500Y648273D01*
Y571179D02*
Y648273D01*
X968250Y781000D02*
X972750Y776500D01*
X1239250Y875000D02*
X1239750D01*
X1223250Y891000D02*
X1239250Y875000D01*
X1205000Y891000D02*
X1223250D01*
X1200500Y874000D02*
X1204000Y877500D01*
X1205000Y878500D02*
Y891000D01*
X1172000D02*
X1205000D01*
X1066800Y914800D02*
Y976250D01*
X1143387Y832885D02*
X1168885D01*
X1066800Y914800D02*
Y914800D01*
X1075607Y888657D02*
X1080475Y893525D01*
X1073839Y890424D02*
X1075607Y888657D01*
X1066768Y883354D02*
X1073839Y890424D01*
X1066768Y883354D02*
X1068536Y881586D01*
X1065000Y878050D02*
X1068536Y881586D01*
X1025000Y873000D02*
X1066800Y914800D01*
X1094419Y584919D02*
Y608000D01*
X1002500Y571179D02*
X1016379Y557300D01*
X1066800D02*
X1094419Y584919D01*
X1016379Y557300D02*
X1066800D01*
X1124939Y817166D02*
X1141772Y834000D01*
X1124939Y816562D02*
Y817166D01*
X1141772Y834000D02*
X1142272D01*
X1113050Y799670D02*
Y813633D01*
X1115979Y816562D02*
X1124939D01*
X1113050Y813633D02*
X1115979Y816562D01*
X826600Y763300D02*
X834600D01*
X521800Y746800D02*
Y752000D01*
X984250Y497750D02*
X1009000Y473000D01*
X818819Y552398D02*
X826600Y548750D01*
X1130000Y691500D02*
X1134500Y696000D01*
X1135000D01*
X716594Y781000D02*
X968250D01*
X699600Y746800D02*
Y764006D01*
X979500Y793500D02*
X1002500Y770500D01*
X703580Y793500D02*
X979500D01*
X674200Y746800D02*
Y764120D01*
X708000Y824250D02*
X716500Y815750D01*
X708000Y824250D02*
Y859180D01*
X709750Y822500D02*
X716500Y815750D01*
X716500D01*
X1138450Y746076D02*
Y766738D01*
X1136750Y768438D02*
X1138450Y766738D01*
X1136750Y768438D02*
Y769250D01*
X595500Y668500D02*
X598000Y666000D01*
X538706Y668500D02*
X595500D01*
X536448Y666242D02*
X538706Y668500D01*
X521800Y723460D02*
Y734968D01*
X507000Y708660D02*
X521800Y723460D01*
X496400Y763300D02*
X504400D01*
X668180Y899000D02*
X708000Y859180D01*
X357700Y507229D02*
X360629Y504300D01*
X357700Y507229D02*
Y608556D01*
X360629Y504300D02*
X366000D01*
X372000Y498300D01*
X341000Y635600D02*
X358000D01*
X352718Y478282D02*
X405000D01*
X341000Y490000D02*
X352718Y478282D01*
X341000Y490000D02*
Y635600D01*
X805000Y504730D02*
X826600D01*
Y475658D02*
Y504730D01*
Y475658D02*
X856258Y446000D01*
X490999Y661999D02*
Y663431D01*
X484000Y670430D02*
X490999Y663431D01*
X401000Y729676D02*
X407924Y736600D01*
X401000Y685500D02*
Y729676D01*
Y685500D02*
X418000D01*
X381254Y669290D02*
X382544Y668000D01*
X439420D01*
X453136Y781812D02*
X520000D01*
Y753800D02*
X521800Y752000D01*
X750400Y763300D02*
X758400D01*
X852000D02*
X860000D01*
X1184080Y535500D02*
X1321580Y398000D01*
X981065Y535500D02*
X1184080D01*
X980565Y535000D02*
X981065Y535500D01*
X877400Y535000D02*
X980565D01*
X877400D02*
Y548750D01*
X801200Y763300D02*
X809200D01*
X801200Y660400D02*
Y763300D01*
X994500Y555408D02*
X1002284Y547624D01*
X965200Y626364D02*
X994500Y597064D01*
X967670Y608330D02*
X985000Y591000D01*
X994500Y555408D02*
Y597064D01*
X985000Y579386D02*
Y591000D01*
X764032Y608330D02*
X967670D01*
X985000Y498500D02*
Y526000D01*
X984250Y497750D02*
X985000Y498500D01*
X1597200Y398000D02*
X1631000Y431800D01*
X1321580Y398000D02*
X1597200D01*
X1647332Y388000D02*
X1681800Y422468D01*
X1253094Y388000D02*
X1647332D01*
X1143000Y498094D02*
X1253094Y388000D01*
X572600Y763300D02*
X580600D01*
X1050568Y853000D02*
X1051068D01*
X1055568Y857500D01*
Y868618D01*
X1065000Y878050D01*
X1080475Y893525D02*
X1092200Y905250D01*
Y974750D01*
X1020001Y853000D02*
X1020500D01*
X1025000Y857500D01*
Y873000D01*
X357700Y608556D02*
X403644Y654500D01*
X418000D01*
X444500D01*
X826600Y746800D02*
Y763300D01*
X877400Y548750D02*
Y569000D01*
X1631000Y431800D02*
Y514000D01*
X928200Y552500D02*
Y569000D01*
X920200Y552500D02*
X928200D01*
X793200Y552500D02*
X794562D01*
X797052Y554990D01*
X801200D01*
Y569000D01*
X826600Y530268D02*
X826600Y530268D01*
X826600Y530268D02*
Y548750D01*
X826600Y530268D02*
Y548750D01*
X863600Y493268D02*
X940054D01*
X826600Y530268D02*
X863600Y493268D01*
X818818Y552398D02*
X818819Y552398D01*
X818600Y552500D02*
X818805Y552404D01*
X818818Y552398D01*
X826600Y548750D02*
Y569000D01*
X826600Y548750D02*
Y569000D01*
X1032510Y456661D02*
X1037661D01*
X976661D02*
X1032510D01*
X1681800Y422468D02*
Y514000D01*
X976630Y456692D02*
X1032510D01*
X940054Y493268D02*
X976630Y456692D01*
X1032510D02*
X1073912Y498094D01*
X1037661Y456661D02*
X1079094Y498094D01*
X1073912D02*
X1079094D01*
X1143000D01*
X953600Y552500D02*
Y569000D01*
X945599Y552500D02*
X953600D01*
X852000Y552500D02*
Y569000D01*
X496316Y552450D02*
X496349Y552450D01*
X496400D02*
Y569000D01*
X496266Y552500D02*
X496316Y552450D01*
X496349Y552450D02*
X496400D01*
X674200Y746800D02*
Y763300D01*
X835236Y626364D02*
X965200D01*
X801200Y660400D02*
X835236Y626364D01*
X1186176Y547624D02*
X1320800Y413000D01*
X1328900D01*
X1002284Y547624D02*
X1186176D01*
X572600Y746800D02*
Y763300D01*
Y767049D01*
Y792056D01*
X609600Y829056D01*
X681994D01*
X691900Y808000D02*
Y819150D01*
X681994Y829056D02*
X691900Y819150D01*
X856258Y446000D02*
X1067450D01*
X1085000Y463550D01*
Y473000D01*
X1142272Y834000D02*
X1143387Y832885D01*
X1359600Y431800D02*
X1378400Y413000D01*
X1359600Y431800D02*
Y545000D01*
X1378400Y413000D02*
X1405100D01*
X1371600Y466900D02*
X1397000Y441500D01*
X1405100D01*
X496400Y746800D02*
Y763300D01*
X1018000Y758000D02*
X1037000D01*
X1050568Y833000D02*
X1051068D01*
X1037000Y758000D02*
X1062250Y783250D01*
Y799670D01*
Y816821D01*
X1051068Y833000D02*
X1055568Y828500D01*
Y823503D02*
X1062250Y816821D01*
X1055568Y823503D02*
Y828500D01*
X1018000Y778000D02*
X1019334Y779335D01*
Y796335D01*
X1049319D01*
X1019334D02*
X1020001Y797001D01*
Y833000D01*
X1049319Y796335D02*
X1049550Y796566D01*
Y799670D01*
X1074950D02*
Y807056D01*
X1076136Y808241D01*
Y829500D01*
X1080636Y834000D01*
X1081136D01*
X1168000Y855430D02*
Y887000D01*
X1143000Y920000D02*
Y975250D01*
X1168000Y887000D02*
X1172000Y891000D01*
X1143000Y920000D02*
X1172000Y891000D01*
X1169905Y855430D02*
X1172500Y858025D01*
X1204000Y877500D02*
X1205000Y878500D01*
X432562Y593344D02*
X711200D01*
X717000Y552500D02*
X725000D01*
X711200Y593344D02*
X725000Y579544D01*
X852000Y746800D02*
Y763300D01*
X405000Y478282D02*
Y490701D01*
X372000Y523700D02*
X405000Y490701D01*
X507000Y685500D02*
Y708660D01*
X405000Y478282D02*
X746082D01*
X531352Y684500D02*
X555000D01*
X746082Y478282D02*
X766064Y498264D01*
X407924Y736600D02*
X410324Y739000D01*
X420000D01*
X521800Y734968D02*
Y746800D01*
X527050Y763299D02*
Y767049D01*
X775800Y482600D02*
X789670Y468730D01*
X775800Y552500D02*
Y568536D01*
Y569000D01*
X789670Y468730D02*
X805000D01*
X797560Y590296D02*
X971550D01*
X1385000Y545000D02*
Y726000D01*
Y907000D01*
X608748Y899000D02*
X668180D01*
X547200Y556260D02*
Y569000D01*
X750400Y746800D02*
Y763300D01*
X752200Y808000D02*
X768100D01*
X722000Y838200D02*
Y899000D01*
Y838200D02*
X752200Y808000D01*
X1758000Y514000D02*
X1946600D01*
X1966000Y533400D01*
Y548000D01*
X358000Y661000D02*
X366290Y669290D01*
X368322D01*
X381254D01*
X368322D02*
Y671322D01*
X559308Y630682D02*
X741680D01*
X764032Y608330D01*
X383286Y671322D02*
X390398Y678434D01*
Y781812D01*
X415586Y807000D01*
X431800D01*
X484000Y670430D02*
Y685500D01*
X431800Y807000D02*
X512300D01*
X1108000Y695000D02*
X1109929Y696929D01*
X1120500D01*
Y708571D01*
X1123429Y711500D01*
X1130500D01*
X1135000Y716000D01*
Y717804D01*
X1138450Y721254D01*
X1138681Y743538D02*
X1168462D01*
X1138450Y743769D02*
X1138681Y743538D01*
X1138450Y781690D02*
Y799670D01*
Y781690D02*
X1146070Y774070D01*
X1168462Y743538D02*
X1171000Y741000D01*
X1172000Y742000D01*
X1186000D01*
X1146070Y774070D02*
X1187641D01*
X1189785Y776215D01*
X1191750Y778179D02*
Y784320D01*
X1189785Y776215D02*
X1191750Y778179D01*
X1191500Y784570D02*
X1191750Y784320D01*
D16*
X471001Y767049D02*
D03*
X496401D02*
D03*
X521801D02*
D03*
X547201D02*
D03*
X572601D02*
D03*
X598001D02*
D03*
X623401D02*
D03*
X648801D02*
D03*
X674201D02*
D03*
X699601D02*
D03*
X725001D02*
D03*
X750401D02*
D03*
X775801D02*
D03*
X801201D02*
D03*
X826601D02*
D03*
X852001D02*
D03*
X877401D02*
D03*
X902801D02*
D03*
X928201D02*
D03*
X953601D02*
D03*
Y548750D02*
D03*
X928201D02*
D03*
X902801D02*
D03*
X877401D02*
D03*
X852001D02*
D03*
X826601D02*
D03*
X801201D02*
D03*
X775801D02*
D03*
X750401D02*
D03*
X725001D02*
D03*
X699601D02*
D03*
X674201D02*
D03*
X648801D02*
D03*
X623401D02*
D03*
X598001D02*
D03*
X572601D02*
D03*
X547201D02*
D03*
X521801D02*
D03*
X496401D02*
D03*
D17*
X1204000Y846500D02*
D03*
Y877500D02*
D03*
X418000Y685500D02*
D03*
Y654500D02*
D03*
X1215500Y762000D02*
D03*
Y731000D02*
D03*
X555000Y653500D02*
D03*
Y684500D02*
D03*
D18*
X1172500Y784570D02*
D03*
X1191500D02*
D03*
X1182000Y807250D02*
D03*
D19*
X1018000Y758000D02*
D03*
Y778000D02*
D03*
X1050568Y833000D02*
D03*
Y853000D02*
D03*
X1081136Y854000D02*
D03*
Y834000D02*
D03*
X1111704Y833000D02*
D03*
Y853000D02*
D03*
X1142272Y834000D02*
D03*
Y854000D02*
D03*
X1020001Y853000D02*
D03*
Y833000D02*
D03*
X1082250Y691500D02*
D03*
Y711500D02*
D03*
X1239750Y855000D02*
D03*
Y875000D02*
D03*
X1171000Y761000D02*
D03*
Y741000D02*
D03*
X1135000Y696000D02*
D03*
Y716000D02*
D03*
X598000Y686000D02*
D03*
Y666000D02*
D03*
X420000Y739000D02*
D03*
Y719000D02*
D03*
D20*
X1168000Y832570D02*
D03*
Y855430D02*
D03*
D21*
X507000Y685500D02*
D03*
X484000D02*
D03*
X461000D02*
D03*
D22*
X484000Y628500D02*
D03*
D23*
X1108000Y713000D02*
D03*
Y695000D02*
D03*
D24*
X1138450Y799670D02*
D03*
X1125750D02*
D03*
X1113050D02*
D03*
X1100350D02*
D03*
X1087650D02*
D03*
X1074950D02*
D03*
X1062250D02*
D03*
X1049550D02*
D03*
X1138450Y746076D02*
D03*
X1125750D02*
D03*
X1113050D02*
D03*
X1100350D02*
D03*
X1087650D02*
D03*
X1074950D02*
D03*
X1062250D02*
D03*
X1049550D02*
D03*
D39*
X2069000Y451000D02*
D03*
Y985000D02*
D03*
X1249000Y430000D02*
D03*
Y980000D02*
D03*
X319000D02*
D03*
Y430000D02*
D03*
D54*
X1089352Y668898D02*
X1111750Y646500D01*
X1084250Y647400D02*
X1085100Y648250D01*
X1070452Y662898D02*
X1085100Y648250D01*
X1074666Y730057D02*
X1083600D01*
X1064609Y720000D02*
X1074666Y730057D01*
X1064507Y720000D02*
X1064609D01*
X1061750Y717243D02*
X1064507Y720000D01*
X1061750Y670655D02*
Y717243D01*
Y670655D02*
X1063507Y668898D01*
X1087171Y745598D02*
X1087650Y746076D01*
X1087171Y733628D02*
Y745598D01*
X1083600Y730057D02*
X1087171Y733628D01*
X1055504Y726000D02*
X1062124D01*
X1053746Y724243D02*
X1055504Y726000D01*
X1053746Y668519D02*
Y724243D01*
X1094250Y606250D02*
Y608169D01*
X1084250Y618169D02*
X1094250Y608169D01*
X1084250Y618169D02*
Y647400D01*
X1059367Y662898D02*
X1070452D01*
X1063507Y668898D02*
X1089352D01*
X1053746Y668519D02*
X1059367Y662898D01*
X1136772Y848500D02*
X1142272Y854000D01*
X1112204Y833000D02*
X1120704Y841500D01*
X1130272Y848500D02*
X1136772D01*
X1123272Y841500D02*
X1130272Y848500D01*
X1120704Y841500D02*
X1123272D01*
X1111704Y833000D02*
X1112204D01*
X1111204D02*
X1111704D01*
X1100350Y822146D02*
X1111204Y833000D01*
X1100350Y799670D02*
Y822146D01*
X1359600Y726000D02*
X1371600Y714000D01*
X1062124Y726000D02*
X1074950Y738826D01*
Y746076D01*
X1371600Y466900D02*
Y714000D01*
X572600Y552500D02*
Y569000D01*
D55*
X1138450Y721254D02*
Y743769D01*
Y746076D01*
D56*
X1059550Y648050D02*
D03*
X1084950D02*
D03*
X1110350D02*
D03*
X1135750D02*
D03*
X1161150D02*
D03*
D57*
X1199250Y660750D02*
D03*
Y914750D02*
D03*
X1021450Y660750D02*
D03*
Y914750D02*
D03*
D58*
X1039950Y975750D02*
D03*
X445600Y899000D02*
D03*
X583348D02*
D03*
X722000D02*
D03*
X846200Y898492D02*
D03*
D59*
X1065350Y975750D02*
D03*
X1090750D02*
D03*
X1116150D02*
D03*
X1141550D02*
D03*
X471000Y899000D02*
D03*
X608748D02*
D03*
X747400D02*
D03*
X372000Y523700D02*
D03*
X871600Y898492D02*
D03*
X897000D02*
D03*
X922400D02*
D03*
D60*
X471000Y561000D02*
D03*
D61*
X496400D02*
D03*
X521800D02*
D03*
X547200D02*
D03*
X572600D02*
D03*
X598000D02*
D03*
X623400D02*
D03*
X648800D02*
D03*
X674200D02*
D03*
X699600D02*
D03*
X725000D02*
D03*
X750400D02*
D03*
X775800D02*
D03*
X801200D02*
D03*
X826600D02*
D03*
X852000D02*
D03*
X877400D02*
D03*
X902800D02*
D03*
X928200D02*
D03*
X953600D02*
D03*
X471000Y754800D02*
D03*
X496400D02*
D03*
X521800D02*
D03*
X547200D02*
D03*
X572600D02*
D03*
X598000D02*
D03*
X623400D02*
D03*
X648800D02*
D03*
X674200D02*
D03*
X699600D02*
D03*
X725000D02*
D03*
X750400D02*
D03*
X775800D02*
D03*
X801200D02*
D03*
X826600D02*
D03*
X852000D02*
D03*
X877400D02*
D03*
X902800D02*
D03*
X928200D02*
D03*
X953600D02*
D03*
D62*
X862900Y468350D02*
D03*
X939100D02*
D03*
X1405100Y413000D02*
D03*
X1328900D02*
D03*
X1405100Y441500D02*
D03*
X1328900D02*
D03*
X768100Y808000D02*
D03*
X691900D02*
D03*
X1405100Y470000D02*
D03*
X1328900D02*
D03*
D63*
X1009000Y473000D02*
D03*
X1631000Y514000D02*
D03*
X616900Y807000D02*
D03*
D64*
X1085000Y473000D02*
D03*
X1758000Y514000D02*
D03*
X1732600D02*
D03*
X1707200D02*
D03*
X1681800D02*
D03*
X1656400D02*
D03*
X512300Y807000D02*
D03*
D65*
X358000Y711800D02*
D03*
Y686400D02*
D03*
Y661000D02*
D03*
D66*
Y635600D02*
D03*
D67*
X1521140Y932090D02*
D03*
X1891140D02*
D03*
X1521140Y562090D02*
D03*
X1891140D02*
D03*
D68*
X1966000Y598000D02*
D03*
X2091000D02*
D03*
Y548000D02*
D03*
X1966000D02*
D03*
D69*
X1359600Y545000D02*
D03*
Y726000D02*
D03*
Y907000D02*
D03*
D70*
X1385000Y545000D02*
D03*
Y726000D02*
D03*
Y907000D02*
D03*
D71*
X805000Y504730D02*
D03*
Y486730D02*
D03*
D72*
Y468730D02*
D03*
D73*
X372000Y498300D02*
D03*
D74*
X450500Y715250D02*
D03*
X451500Y661750D02*
D03*
X1038750Y724750D02*
D03*
X1135000Y617500D02*
D03*
X1069019Y608000D02*
D03*
X972750Y686250D02*
D03*
X716500Y815750D02*
D03*
X1136750Y769250D02*
D03*
X490999Y661999D02*
D03*
X985000Y579386D02*
D03*
X1032000Y620000D02*
D03*
X985000Y526000D02*
D03*
X432562Y593344D02*
D03*
X971550Y590296D02*
D03*
X536448Y666242D02*
D03*
D75*
X1100750Y680250D02*
D03*
X1213500Y705250D02*
D03*
X1152750Y758309D02*
D03*
X733000Y507250D02*
D03*
X742401Y661250D02*
D03*
X1207250Y823500D02*
D03*
X539500Y728000D02*
D03*
X493750Y523750D02*
D03*
X1080475Y776250D02*
D03*
M02*
