G04*
G04 #@! TF.GenerationSoftware,Altium Limited,Altium Designer,19.0.4 (130)*
G04*
G04 Layer_Physical_Order=2*
G04 Layer_Color=16711680*
%FSLAX44Y44*%
%MOMM*%
G71*
G01*
G75*
%ADD13C,0.5000*%
%ADD39C,3.1000*%
%ADD54C,0.3000*%
%ADD56C,1.8796*%
%ADD57C,3.3020*%
%ADD58R,1.7000X1.7000*%
%ADD59C,1.7000*%
%ADD60R,1.6000X3.2000*%
%ADD61O,1.6000X3.2000*%
%ADD62C,1.4000*%
%ADD63R,2.0000X2.0000*%
%ADD64C,2.0000*%
%ADD65C,1.5000*%
%ADD66R,1.5000X1.5000*%
%ADD67C,4.0000*%
%ADD68C,2.5000*%
%ADD69R,1.5000X2.0000*%
%ADD70O,1.5000X2.0000*%
%ADD71O,2.0000X1.2000*%
%ADD72R,2.0000X1.2000*%
%ADD73R,1.7000X1.7000*%
%ADD74C,0.8000*%
%ADD75C,1.0000*%
G36*
X601900Y793565D02*
X596000D01*
X594042Y793307D01*
X592218Y792551D01*
X590651Y791349D01*
X590651Y791349D01*
X580121Y780819D01*
X578919Y779252D01*
X578163Y777428D01*
X577977Y776018D01*
X576779Y775140D01*
X575994Y775465D01*
X572600Y775912D01*
X569207Y775465D01*
X566044Y774155D01*
X563329Y772071D01*
X561245Y769356D01*
X560588Y767769D01*
X559213D01*
X558556Y769356D01*
X556472Y772071D01*
X553756Y774155D01*
X550594Y775465D01*
X547200Y775912D01*
X543807Y775465D01*
X540644Y774155D01*
X537929Y772071D01*
X535845Y769356D01*
X534535Y766193D01*
X534088Y762800D01*
Y746800D01*
X534535Y743406D01*
X535845Y740244D01*
X537929Y737528D01*
X538873Y736804D01*
X538517Y735476D01*
X537532Y735346D01*
X535698Y734586D01*
X534122Y733378D01*
X532914Y731803D01*
X532154Y729968D01*
X532062Y729270D01*
X546938D01*
X546846Y729968D01*
X546086Y731803D01*
X545445Y732637D01*
X546133Y733828D01*
X547200Y733688D01*
X550594Y734134D01*
X553756Y735444D01*
X556472Y737528D01*
X558556Y740244D01*
X559213Y741830D01*
X560588D01*
X561245Y740244D01*
X563329Y737528D01*
X566044Y735444D01*
X569207Y734134D01*
X572600Y733688D01*
X575994Y734134D01*
X577858Y734906D01*
X578914Y734201D01*
Y623140D01*
X542772Y586998D01*
X541526Y587246D01*
X541221Y587982D01*
X540019Y589549D01*
X489219Y640349D01*
X489055Y640475D01*
Y653727D01*
X490010Y654564D01*
X490999Y654434D01*
X492581D01*
X494539Y654692D01*
X496363Y655447D01*
X497930Y656650D01*
X499957Y658677D01*
X536448D01*
X538406Y658935D01*
X540230Y659691D01*
X541797Y660893D01*
X542999Y662460D01*
X543755Y664284D01*
X544013Y666242D01*
X543755Y668200D01*
X542999Y670024D01*
X541797Y671591D01*
X540230Y672793D01*
X538406Y673549D01*
X536448Y673807D01*
X496824D01*
X496824Y673807D01*
X494866Y673549D01*
X493042Y672793D01*
X491696Y671761D01*
X490717Y672038D01*
X490426Y672210D01*
Y734060D01*
X491482Y734766D01*
X493007Y734134D01*
X496400Y733688D01*
X499794Y734134D01*
X502956Y735444D01*
X505672Y737528D01*
X507756Y740244D01*
X509066Y743406D01*
X509512Y746800D01*
Y762800D01*
X509066Y766193D01*
X507756Y769356D01*
X505672Y772071D01*
X505598Y773200D01*
X509185Y776787D01*
X524000D01*
X525958Y777045D01*
X527782Y777801D01*
X529349Y779003D01*
X549782Y799436D01*
X601900D01*
Y793565D01*
D02*
G37*
G36*
X2126750Y772317D02*
X2125577Y771831D01*
X2088149Y809259D01*
X2086582Y810461D01*
X2084758Y811217D01*
X2082800Y811475D01*
X1397023D01*
X1367165Y841333D01*
Y892000D01*
X1372100D01*
Y922000D01*
X1347100D01*
Y892000D01*
X1352035D01*
Y838200D01*
X1352293Y836242D01*
X1353049Y834418D01*
X1354251Y832851D01*
X1388541Y798561D01*
X1388541Y798561D01*
X1390108Y797359D01*
X1391932Y796603D01*
X1393890Y796345D01*
X2079667D01*
X2114435Y761577D01*
Y512565D01*
X2083055D01*
X2083055Y512565D01*
X2081097Y512307D01*
X2079273Y511552D01*
X2077706Y510349D01*
X2077706Y510349D01*
X2026922Y459565D01*
X1774793D01*
X1774533Y460835D01*
X1790349Y476651D01*
X1791551Y478218D01*
X1792307Y480042D01*
X1792436Y481021D01*
X1792565Y482000D01*
X1792565Y482000D01*
Y527000D01*
X1792307Y528958D01*
X1791551Y530782D01*
X1790349Y532349D01*
X1790349Y532349D01*
X1774349Y548349D01*
X1772782Y549551D01*
X1770958Y550307D01*
X1769000Y550565D01*
X1631136D01*
X1629178Y550307D01*
X1627354Y549551D01*
X1625787Y548349D01*
X1625787Y548349D01*
X1610151Y532713D01*
X1608949Y531146D01*
X1608193Y529322D01*
X1607935Y527364D01*
Y510330D01*
X1606762Y509844D01*
X1583257Y533349D01*
X1581691Y534551D01*
X1579866Y535307D01*
X1577908Y535565D01*
X1393769D01*
X1393207Y536704D01*
X1393770Y537437D01*
X1394782Y539879D01*
X1395127Y542500D01*
Y543730D01*
X1385000D01*
X1374873D01*
Y542500D01*
X1375219Y539879D01*
X1376230Y537437D01*
X1376793Y536704D01*
X1376231Y535565D01*
X1372100D01*
Y560000D01*
X1347100D01*
Y535565D01*
X1006571D01*
X1006571Y535565D01*
X1004613Y535307D01*
X1002789Y534551D01*
X1001222Y533349D01*
X1001222Y533349D01*
X993808Y525935D01*
X992565Y526488D01*
Y579386D01*
X992565Y579386D01*
X992436Y580365D01*
X992307Y581344D01*
X991815Y582532D01*
Y588179D01*
X1004071Y600435D01*
X1127000D01*
X1128958Y600693D01*
X1130782Y601449D01*
X1132349Y602651D01*
X1140349Y610651D01*
X1140349Y610651D01*
X1141551Y612218D01*
X1142307Y614042D01*
X1142565Y616000D01*
Y617500D01*
X1142307Y619458D01*
X1141807Y620665D01*
X1142558Y621935D01*
X1912784D01*
X1942069Y592651D01*
X1943636Y591449D01*
X1945460Y590693D01*
X1947418Y590435D01*
X1950201D01*
X1951379Y588230D01*
X1953566Y585566D01*
X1956231Y583379D01*
X1959271Y581754D01*
X1962569Y580753D01*
X1966000Y580415D01*
X1969431Y580753D01*
X1972729Y581754D01*
X1975770Y583379D01*
X1978434Y585566D01*
X1980621Y588230D01*
X1981800Y590435D01*
X2075201D01*
X2076379Y588230D01*
X2078566Y585566D01*
X2081231Y583379D01*
X2084271Y581754D01*
X2087569Y580753D01*
X2091000Y580415D01*
X2094431Y580753D01*
X2097729Y581754D01*
X2100770Y583379D01*
X2103434Y585566D01*
X2105621Y588230D01*
X2107246Y591270D01*
X2108247Y594569D01*
X2108585Y598000D01*
X2108247Y601430D01*
X2107246Y604729D01*
X2105621Y607769D01*
X2103434Y610434D01*
X2100770Y612621D01*
X2097729Y614246D01*
X2094431Y615247D01*
X2091000Y615584D01*
X2087569Y615247D01*
X2084271Y614246D01*
X2081231Y612621D01*
X2078566Y610434D01*
X2076379Y607769D01*
X2075201Y605564D01*
X1981800D01*
X1980621Y607769D01*
X1978434Y610434D01*
X1975770Y612621D01*
X1972729Y614246D01*
X1969431Y615247D01*
X1966000Y615584D01*
X1962569Y615247D01*
X1959271Y614246D01*
X1956231Y612621D01*
X1953566Y610434D01*
X1951379Y607769D01*
X1950825Y606733D01*
X1949569Y606547D01*
X1921267Y634849D01*
X1919700Y636051D01*
X1917876Y636807D01*
X1915918Y637065D01*
X1172470D01*
X1171843Y638335D01*
X1173727Y640789D01*
X1175177Y644291D01*
X1175672Y648050D01*
X1175177Y651809D01*
X1173727Y655311D01*
X1171419Y658319D01*
X1168411Y660627D01*
X1164909Y662077D01*
X1161150Y662572D01*
X1157391Y662077D01*
X1153889Y660627D01*
X1150881Y658319D01*
X1149250Y656193D01*
X1147650D01*
X1146019Y658319D01*
X1143011Y660627D01*
X1139509Y662077D01*
X1135750Y662572D01*
X1131991Y662077D01*
X1128489Y660627D01*
X1125481Y658319D01*
X1123850Y656193D01*
X1122250D01*
X1120619Y658319D01*
X1117611Y660627D01*
X1114109Y662077D01*
X1110350Y662572D01*
X1107280Y662168D01*
X1100201Y669247D01*
X1098634Y670449D01*
X1096810Y671205D01*
X1094852Y671463D01*
X1058808D01*
X1038672Y691599D01*
X1037105Y692801D01*
X1035281Y693557D01*
X1033323Y693815D01*
X972750D01*
X970792Y693557D01*
X968968Y692801D01*
X967401Y691599D01*
X966199Y690032D01*
X965443Y688208D01*
X965185Y686250D01*
X965443Y684292D01*
X966199Y682468D01*
X967401Y680901D01*
X968968Y679699D01*
X970792Y678943D01*
X972750Y678685D01*
X1007513D01*
X1007941Y677489D01*
X1006167Y676033D01*
X1003479Y672758D01*
X1001481Y669021D01*
X1000251Y664967D01*
X999836Y660750D01*
X1000251Y656533D01*
X1001481Y652479D01*
X1003479Y648742D01*
X1006167Y645467D01*
X1009442Y642779D01*
X1013179Y640781D01*
X1017233Y639551D01*
X1021450Y639136D01*
X1025667Y639551D01*
X1029721Y640781D01*
X1033458Y642779D01*
X1036733Y645467D01*
X1039421Y648742D01*
X1041419Y652479D01*
X1042649Y656533D01*
X1043064Y660750D01*
X1042707Y664371D01*
X1043927Y664948D01*
X1050326Y658549D01*
X1050931Y658085D01*
X1051031Y656629D01*
X1050958Y656463D01*
X1049122Y654071D01*
X1047919Y651167D01*
X1047676Y649320D01*
X1059550D01*
Y646780D01*
X1047676D01*
X1047919Y644934D01*
X1049122Y642029D01*
X1051036Y639536D01*
X1052601Y638335D01*
X1052170Y637065D01*
X973162D01*
X973162Y637065D01*
X971204Y636807D01*
X969380Y636051D01*
X967813Y634849D01*
X948251Y615287D01*
X947049Y613720D01*
X946293Y611896D01*
X946035Y609938D01*
Y579581D01*
X944329Y578271D01*
X942245Y575556D01*
X941588Y573969D01*
X940213D01*
X939556Y575556D01*
X937472Y578271D01*
X934756Y580355D01*
X931594Y581665D01*
X928200Y582112D01*
X924807Y581665D01*
X923028Y580928D01*
X921972Y581634D01*
Y734165D01*
X923028Y734871D01*
X924807Y734134D01*
X928200Y733688D01*
X931594Y734134D01*
X934756Y735444D01*
X937472Y737528D01*
X939556Y740244D01*
X940213Y741830D01*
X941588D01*
X942245Y740244D01*
X944329Y737528D01*
X947044Y735444D01*
X950207Y734134D01*
X953600Y733688D01*
X956994Y734134D01*
X960156Y735444D01*
X962872Y737528D01*
X964956Y740244D01*
X966266Y743406D01*
X966712Y746800D01*
Y762800D01*
X966266Y766193D01*
X964956Y769356D01*
X962872Y772071D01*
X960156Y774155D01*
X956994Y775465D01*
X953600Y775912D01*
X950207Y775465D01*
X947044Y774155D01*
X944329Y772071D01*
X942245Y769356D01*
X941588Y767769D01*
X940213D01*
X939556Y769356D01*
X937472Y772071D01*
X934756Y774155D01*
X931594Y775465D01*
X928200Y775912D01*
X924807Y775465D01*
X923028Y774728D01*
X921972Y775434D01*
Y777814D01*
X922723Y779626D01*
X922981Y781584D01*
X922723Y783542D01*
X921967Y785367D01*
X920765Y786934D01*
X894349Y813350D01*
X892782Y814552D01*
X890958Y815307D01*
X889000Y815565D01*
X777421D01*
X776658Y816558D01*
X774152Y818482D01*
X771233Y819691D01*
X768100Y820103D01*
X764967Y819691D01*
X762048Y818482D01*
X759542Y816558D01*
X757618Y814052D01*
X756409Y811133D01*
X755996Y808000D01*
X756409Y804867D01*
X757618Y801948D01*
X759542Y799441D01*
X762048Y797518D01*
X764967Y796309D01*
X768100Y795896D01*
X771233Y796309D01*
X774152Y797518D01*
X776658Y799441D01*
X777421Y800436D01*
X885867D01*
X908860Y777442D01*
Y775504D01*
X907804Y774798D01*
X906194Y775465D01*
X902800Y775912D01*
X899407Y775465D01*
X896244Y774155D01*
X893529Y772071D01*
X891445Y769356D01*
X890788Y767769D01*
X889413D01*
X888756Y769356D01*
X886672Y772071D01*
X883956Y774155D01*
X880794Y775465D01*
X877400Y775912D01*
X874007Y775465D01*
X870844Y774155D01*
X868129Y772071D01*
X866045Y769356D01*
X865388Y767769D01*
X864013D01*
X863356Y769356D01*
X861272Y772071D01*
X859565Y773382D01*
Y787000D01*
X859307Y788958D01*
X858551Y790783D01*
X857349Y792349D01*
X855782Y793551D01*
X853958Y794307D01*
X852000Y794565D01*
X718022D01*
X717536Y795738D01*
X721275Y799477D01*
X721275Y799477D01*
X722477Y801044D01*
X723233Y802868D01*
X723491Y804826D01*
Y813029D01*
X723807Y813792D01*
X724065Y815750D01*
X723807Y817708D01*
X723051Y819532D01*
X721849Y821099D01*
X721678Y821230D01*
X722110Y822500D01*
X863600D01*
X865297Y822723D01*
X866878Y823378D01*
X868236Y824420D01*
X901636Y857820D01*
X902678Y859178D01*
X903333Y860759D01*
X903556Y862456D01*
Y886595D01*
X903808Y886700D01*
X906628Y888864D01*
X908792Y891684D01*
X909065Y892342D01*
X910335D01*
X910608Y891684D01*
X912772Y888864D01*
X915592Y886700D01*
X918876Y885340D01*
X922400Y884875D01*
X925924Y885340D01*
X929208Y886700D01*
X932028Y888864D01*
X934192Y891684D01*
X935553Y894968D01*
X936016Y898492D01*
X935553Y902016D01*
X934192Y905300D01*
X932028Y908120D01*
X929208Y910284D01*
X929090Y910333D01*
Y910475D01*
X928832Y912433D01*
X928076Y914257D01*
X926874Y915824D01*
X906349Y936349D01*
X904782Y937551D01*
X902958Y938307D01*
X901000Y938565D01*
X803492D01*
X801534Y938307D01*
X799710Y937551D01*
X798143Y936349D01*
X784635Y922841D01*
X762006Y900212D01*
X760803Y900620D01*
X760553Y902524D01*
X759192Y905808D01*
X757028Y908628D01*
X754208Y910792D01*
X750924Y912152D01*
X747400Y912616D01*
X743876Y912152D01*
X740592Y910792D01*
X737772Y908628D01*
X736770Y907323D01*
X735500Y907754D01*
Y912500D01*
X708500D01*
Y906565D01*
X674963D01*
X658527Y923001D01*
X656961Y924203D01*
X655136Y924959D01*
X653178Y925217D01*
X602000D01*
X600042Y924959D01*
X598218Y924203D01*
X596651Y923001D01*
X586150Y912500D01*
X569848D01*
Y906565D01*
X512870D01*
X512870Y906565D01*
X510912Y906307D01*
X509088Y905551D01*
X507521Y904349D01*
X507521Y904349D01*
X483737Y880565D01*
X474733D01*
X471173Y884125D01*
X471628Y885466D01*
X474524Y885847D01*
X477808Y887208D01*
X480628Y889372D01*
X482792Y892192D01*
X484152Y895476D01*
X484616Y899000D01*
X484152Y902524D01*
X482792Y905808D01*
X480628Y908628D01*
X477808Y910792D01*
X476268Y911430D01*
Y912296D01*
X476269Y912296D01*
X476011Y914254D01*
X475255Y916079D01*
X474053Y917645D01*
X474053Y917645D01*
X460349Y931349D01*
X458782Y932551D01*
X456958Y933307D01*
X455000Y933565D01*
X433508D01*
X433508Y933565D01*
X431550Y933307D01*
X429726Y932551D01*
X428159Y931349D01*
X428159Y931349D01*
X409651Y912841D01*
X408449Y911274D01*
X407693Y909450D01*
X407435Y907492D01*
Y868462D01*
X407693Y866504D01*
X408449Y864680D01*
X409651Y863113D01*
X424997Y847767D01*
Y596502D01*
X423824Y596016D01*
X419807Y600033D01*
Y685800D01*
X419549Y687758D01*
X418793Y689582D01*
X417591Y691149D01*
X417591Y691149D01*
X391191Y717549D01*
X389624Y718752D01*
X387800Y719507D01*
X385842Y719765D01*
X367644D01*
X366915Y720715D01*
X364304Y722719D01*
X361263Y723978D01*
X358000Y724408D01*
X354737Y723978D01*
X351696Y722719D01*
X349085Y720715D01*
X347081Y718104D01*
X345821Y715063D01*
X345392Y711800D01*
X345821Y708537D01*
X347081Y705496D01*
X349085Y702885D01*
X351696Y700881D01*
X354423Y699752D01*
X354423Y699750D01*
Y698450D01*
X354423Y698448D01*
X351696Y697319D01*
X349085Y695315D01*
X347081Y692704D01*
X345821Y689663D01*
X345392Y686400D01*
X345821Y683137D01*
X347081Y680096D01*
X349085Y677485D01*
X351696Y675481D01*
X354423Y674352D01*
X354423Y674350D01*
Y673050D01*
X354423Y673048D01*
X351696Y671919D01*
X349085Y669915D01*
X347081Y667304D01*
X345821Y664263D01*
X345392Y661000D01*
X345821Y657737D01*
X347081Y654696D01*
X349085Y652085D01*
X351696Y650081D01*
X354737Y648822D01*
X358000Y648392D01*
X361263Y648822D01*
X364304Y650081D01*
X366915Y652085D01*
X368918Y654696D01*
X370178Y657737D01*
X370608Y661000D01*
X370178Y664263D01*
X368918Y667304D01*
X366915Y669915D01*
X364304Y671919D01*
X361577Y673048D01*
X361576Y673050D01*
Y674350D01*
X361577Y674352D01*
X364304Y675481D01*
X366915Y677485D01*
X368258Y679236D01*
X383724D01*
X392993Y669967D01*
Y577850D01*
X393251Y575892D01*
X394007Y574068D01*
X395209Y572501D01*
X403337Y564373D01*
X403337Y564373D01*
X404904Y563171D01*
X406728Y562415D01*
X408686Y562157D01*
X458000D01*
Y540000D01*
X484000D01*
Y545808D01*
X485270Y546150D01*
X487129Y543728D01*
X489844Y541644D01*
X493007Y540334D01*
X496400Y539888D01*
X499794Y540334D01*
X502956Y541644D01*
X505672Y543728D01*
X507756Y546443D01*
X508413Y548030D01*
X509788D01*
X510445Y546443D01*
X512529Y543728D01*
X515244Y541644D01*
X518407Y540334D01*
X521800Y539888D01*
X525194Y540334D01*
X528356Y541644D01*
X528667Y541603D01*
X529321Y540751D01*
X563421Y506651D01*
X564988Y505449D01*
X566812Y504693D01*
X568770Y504435D01*
X668718D01*
X670676Y504693D01*
X672500Y505449D01*
X674067Y506651D01*
X704644Y537228D01*
X705914Y536796D01*
Y460971D01*
X705163Y459158D01*
X704905Y457200D01*
X705163Y455242D01*
X705919Y453418D01*
X707121Y451851D01*
X733537Y425435D01*
X735104Y424233D01*
X736928Y423477D01*
X738886Y423219D01*
X1175828D01*
X1177786Y423477D01*
X1179610Y424233D01*
X1181177Y425435D01*
X1218177Y462435D01*
X1319579D01*
X1320342Y461442D01*
X1322089Y460101D01*
X1321593Y458904D01*
X1321335Y456946D01*
Y450821D01*
X1320342Y450058D01*
X1318418Y447551D01*
X1317209Y444632D01*
X1316797Y441500D01*
X1317209Y438367D01*
X1318418Y435448D01*
X1320342Y432941D01*
X1322848Y431018D01*
X1325767Y429809D01*
X1328900Y429396D01*
X1332033Y429809D01*
X1334952Y431018D01*
X1337458Y432941D01*
X1339382Y435448D01*
X1340591Y438367D01*
X1341004Y441500D01*
X1340591Y444632D01*
X1339382Y447551D01*
X1338713Y448423D01*
X1339199Y449597D01*
X1339522Y449639D01*
X1341346Y450395D01*
X1342913Y451597D01*
X1349517Y458201D01*
X1349517Y458201D01*
X1350719Y459768D01*
X1351475Y461592D01*
X1351733Y463550D01*
X1351733Y463550D01*
Y479000D01*
X1352553Y479935D01*
X1396360D01*
X1396768Y478732D01*
X1396542Y478559D01*
X1394618Y476052D01*
X1393409Y473133D01*
X1392997Y470000D01*
X1393409Y466867D01*
X1394618Y463948D01*
X1396542Y461442D01*
X1397535Y460679D01*
Y459177D01*
X1397793Y457220D01*
X1398549Y455395D01*
X1399751Y453828D01*
X1400043Y453537D01*
X1399795Y452291D01*
X1399048Y451982D01*
X1396542Y450058D01*
X1394618Y447551D01*
X1393409Y444632D01*
X1392997Y441500D01*
X1393409Y438367D01*
X1394618Y435448D01*
X1396542Y432941D01*
X1399048Y431018D01*
X1401967Y429809D01*
X1405100Y429396D01*
X1408233Y429809D01*
X1411152Y431018D01*
X1413658Y432941D01*
X1415582Y435448D01*
X1416791Y438367D01*
X1417204Y441500D01*
X1416943Y443480D01*
X1417780Y444435D01*
X2030056D01*
X2032013Y444693D01*
X2033838Y445449D01*
X2035405Y446651D01*
X2035405Y446651D01*
X2049552Y460799D01*
X2050584Y460034D01*
X2049969Y458883D01*
X2048796Y455019D01*
X2048401Y451000D01*
X2048796Y446982D01*
X2049969Y443117D01*
X2051872Y439556D01*
X2054434Y436435D01*
X2057555Y433873D01*
X2061117Y431969D01*
X2064981Y430797D01*
X2069000Y430401D01*
X2073018Y430797D01*
X2076883Y431969D01*
X2080444Y433873D01*
X2083566Y436435D01*
X2086127Y439556D01*
X2088031Y443117D01*
X2089203Y446982D01*
X2089599Y451000D01*
X2089203Y455019D01*
X2088031Y458883D01*
X2086127Y462445D01*
X2083566Y465566D01*
X2080444Y468128D01*
X2076883Y470032D01*
X2073018Y471204D01*
X2069000Y471600D01*
X2064981Y471204D01*
X2061117Y470032D01*
X2059966Y469416D01*
X2059201Y470447D01*
X2086188Y497436D01*
X2122000D01*
X2123958Y497693D01*
X2125480Y498324D01*
X2126750Y497757D01*
Y389000D01*
X284750D01*
Y1050250D01*
X2126750D01*
Y772317D01*
D02*
G37*
G36*
X789845Y740244D02*
X791929Y737528D01*
X794644Y735444D01*
X797807Y734134D01*
X801200Y733688D01*
X804594Y734134D01*
X807756Y735444D01*
X810472Y737528D01*
X812556Y740244D01*
X813213Y741830D01*
X814588D01*
X815245Y740244D01*
X817329Y737528D01*
X819035Y736218D01*
Y714333D01*
X783321Y678619D01*
X782119Y677053D01*
X781363Y675228D01*
X781105Y673270D01*
X781363Y671312D01*
X782114Y669500D01*
Y578867D01*
X780844Y578319D01*
X778552Y579268D01*
X777070Y579463D01*
Y561000D01*
Y542536D01*
X778552Y542731D01*
X780844Y543680D01*
X782114Y543132D01*
Y456771D01*
X781363Y454958D01*
X781105Y453000D01*
X781317Y451393D01*
X780212Y450730D01*
X780190Y450724D01*
X769572Y461342D01*
Y543046D01*
X770842Y543645D01*
X773049Y542731D01*
X774530Y542536D01*
Y561000D01*
Y579463D01*
X773049Y579268D01*
X770842Y578354D01*
X769572Y578953D01*
Y714795D01*
X770323Y716608D01*
X770581Y718566D01*
X770323Y720524D01*
X769567Y722348D01*
X768365Y723915D01*
X757964Y734316D01*
Y736218D01*
X759672Y737528D01*
X761756Y740244D01*
X762413Y741830D01*
X763788D01*
X764445Y740244D01*
X766529Y737528D01*
X769244Y735444D01*
X772407Y734134D01*
X775800Y733688D01*
X779194Y734134D01*
X782356Y735444D01*
X785072Y737528D01*
X787156Y740244D01*
X787813Y741830D01*
X789188D01*
X789845Y740244D01*
D02*
G37*
G36*
X739045D02*
X741129Y737528D01*
X742835Y736218D01*
Y731182D01*
X743093Y729224D01*
X743849Y727400D01*
X745051Y725833D01*
X756460Y714424D01*
Y581704D01*
X755404Y580998D01*
X753794Y581665D01*
X750400Y582112D01*
X747007Y581665D01*
X743844Y580355D01*
X741129Y578271D01*
X739045Y575556D01*
X738388Y573969D01*
X737013D01*
X736356Y575556D01*
X734272Y578271D01*
X731556Y580355D01*
X728394Y581665D01*
X725000Y582112D01*
X721607Y581665D01*
X720082Y581034D01*
X719026Y581739D01*
Y734060D01*
X720082Y734766D01*
X721607Y734134D01*
X725000Y733688D01*
X728394Y734134D01*
X731556Y735444D01*
X734272Y737528D01*
X736356Y740244D01*
X737013Y741830D01*
X738388D01*
X739045Y740244D01*
D02*
G37*
G36*
X1128193Y620665D02*
X1127693Y619458D01*
X1127683Y619381D01*
X1123866Y615564D01*
X1038273D01*
X1038121Y615874D01*
X1037768Y616834D01*
X1038372Y618293D01*
X1038429Y618730D01*
X1025571D01*
X1025628Y618293D01*
X1026232Y616834D01*
X1025879Y615874D01*
X1025726Y615564D01*
X1000938D01*
X998980Y615307D01*
X997155Y614551D01*
X995589Y613349D01*
X995589Y613349D01*
X978901Y596661D01*
X977699Y595094D01*
X977628Y594924D01*
X976369Y594759D01*
X976214Y594960D01*
X974848Y596009D01*
X973257Y596668D01*
X972820Y596725D01*
Y590296D01*
Y583867D01*
X973257Y583924D01*
X974848Y584583D01*
X975415Y585018D01*
X976685Y584392D01*
Y580136D01*
X976943Y578178D01*
X977435Y576990D01*
Y534746D01*
X976165Y534120D01*
X975603Y534551D01*
X973779Y535307D01*
X971821Y535565D01*
X935764D01*
Y542418D01*
X937472Y543728D01*
X939556Y546443D01*
X940213Y548030D01*
X941588D01*
X942245Y546443D01*
X944329Y543728D01*
X947044Y541644D01*
X950207Y540334D01*
X953600Y539888D01*
X956994Y540334D01*
X960156Y541644D01*
X962872Y543728D01*
X964956Y546443D01*
X966266Y549606D01*
X966712Y553000D01*
Y569000D01*
X966266Y572393D01*
X964956Y575556D01*
X962872Y578271D01*
X961164Y579581D01*
Y606804D01*
X976295Y621935D01*
X1024405D01*
X1024974Y621270D01*
X1039026D01*
X1039595Y621935D01*
X1127442D01*
X1128193Y620665D01*
D02*
G37*
G36*
X739045Y546443D02*
X741129Y543728D01*
X743844Y541644D01*
X747007Y540334D01*
X750400Y539888D01*
X753794Y540334D01*
X755404Y541001D01*
X756460Y540295D01*
Y460971D01*
X755709Y459158D01*
X755451Y457200D01*
X755709Y455242D01*
X756465Y453418D01*
X757667Y451851D01*
X769996Y439522D01*
X769510Y438349D01*
X742019D01*
X719026Y461342D01*
Y540260D01*
X720082Y540966D01*
X721607Y540334D01*
X725000Y539888D01*
X728394Y540334D01*
X731556Y541644D01*
X734272Y543728D01*
X736356Y546443D01*
X737013Y548030D01*
X738388D01*
X739045Y546443D01*
D02*
G37*
%LPC*%
G36*
X523070Y773263D02*
Y756070D01*
X532431D01*
Y762800D01*
X532069Y765551D01*
X531007Y768115D01*
X529318Y770317D01*
X527116Y772006D01*
X524552Y773068D01*
X523070Y773263D01*
D02*
G37*
G36*
X520530Y773263D02*
X519049Y773068D01*
X516485Y772006D01*
X514283Y770317D01*
X512594Y768115D01*
X511532Y765551D01*
X511169Y762800D01*
Y756070D01*
X520530D01*
Y773263D01*
D02*
G37*
G36*
Y753530D02*
X511169D01*
Y746800D01*
X511532Y744048D01*
X512594Y741484D01*
X514283Y739282D01*
X516485Y737593D01*
X519049Y736531D01*
X520530Y736336D01*
Y753530D01*
D02*
G37*
G36*
X532431D02*
X523070D01*
Y736336D01*
X524552Y736531D01*
X527116Y737593D01*
X529318Y739282D01*
X531007Y741484D01*
X532069Y744048D01*
X532431Y746800D01*
Y753530D01*
D02*
G37*
G36*
X546938Y726730D02*
X540770D01*
Y720562D01*
X541468Y720654D01*
X543302Y721414D01*
X544878Y722622D01*
X546086Y724197D01*
X546846Y726032D01*
X546938Y726730D01*
D02*
G37*
G36*
X538230D02*
X532062D01*
X532154Y726032D01*
X532914Y724197D01*
X534122Y722622D01*
X535698Y721414D01*
X537532Y720654D01*
X538230Y720562D01*
Y726730D01*
D02*
G37*
G36*
X1090750Y989366D02*
X1087226Y988902D01*
X1083942Y987542D01*
X1081122Y985378D01*
X1078958Y982558D01*
X1078685Y981899D01*
X1077415D01*
X1077142Y982558D01*
X1074978Y985378D01*
X1072158Y987542D01*
X1068874Y988902D01*
X1065350Y989366D01*
X1061826Y988902D01*
X1058542Y987542D01*
X1055722Y985378D01*
X1053558Y982558D01*
X1052197Y979274D01*
X1050990Y979529D01*
Y986790D01*
X1041220D01*
Y975750D01*
Y964710D01*
X1050990D01*
Y971971D01*
X1052197Y972226D01*
X1053558Y968942D01*
X1055722Y966122D01*
X1058542Y963958D01*
X1061826Y962597D01*
X1065350Y962133D01*
X1068874Y962597D01*
X1072158Y963958D01*
X1074978Y966122D01*
X1077142Y968942D01*
X1077415Y969600D01*
X1078685D01*
X1078958Y968942D01*
X1081122Y966122D01*
X1083942Y963958D01*
X1087226Y962597D01*
X1090750Y962133D01*
X1094274Y962597D01*
X1097558Y963958D01*
X1100378Y966122D01*
X1102542Y968942D01*
X1103903Y972226D01*
X1104050Y973347D01*
X1105331Y973347D01*
X1105394Y972868D01*
X1106507Y970182D01*
X1108276Y967876D01*
X1110582Y966106D01*
X1113268Y964994D01*
X1114880Y964782D01*
Y975750D01*
Y986718D01*
X1113268Y986506D01*
X1110582Y985393D01*
X1108276Y983624D01*
X1106507Y981318D01*
X1105394Y978632D01*
X1105331Y978153D01*
X1104050Y978153D01*
X1103903Y979274D01*
X1102542Y982558D01*
X1100378Y985378D01*
X1097558Y987542D01*
X1094274Y988902D01*
X1090750Y989366D01*
D02*
G37*
G36*
X1141550D02*
X1138026Y988902D01*
X1134742Y987542D01*
X1131922Y985378D01*
X1129758Y982558D01*
X1128398Y979274D01*
X1128250Y978153D01*
X1126969Y978153D01*
X1126906Y978632D01*
X1125793Y981318D01*
X1124024Y983624D01*
X1121718Y985393D01*
X1119032Y986506D01*
X1117420Y986718D01*
Y975750D01*
Y964782D01*
X1119032Y964994D01*
X1121718Y966106D01*
X1124024Y967876D01*
X1125793Y970182D01*
X1126906Y972868D01*
X1126969Y973347D01*
X1128250Y973347D01*
X1128398Y972226D01*
X1129758Y968942D01*
X1131922Y966122D01*
X1134742Y963958D01*
X1138026Y962597D01*
X1141550Y962133D01*
X1145074Y962597D01*
X1148358Y963958D01*
X1151178Y966122D01*
X1153342Y968942D01*
X1154703Y972226D01*
X1155166Y975750D01*
X1154703Y979274D01*
X1153342Y982558D01*
X1151178Y985378D01*
X1148358Y987542D01*
X1145074Y988902D01*
X1141550Y989366D01*
D02*
G37*
G36*
X1038680Y986790D02*
X1028910D01*
Y977020D01*
X1038680D01*
Y986790D01*
D02*
G37*
G36*
Y974480D02*
X1028910D01*
Y964710D01*
X1038680D01*
Y974480D01*
D02*
G37*
G36*
X2069000Y1005600D02*
X2064981Y1005204D01*
X2061117Y1004032D01*
X2057555Y1002128D01*
X2054434Y999566D01*
X2051872Y996445D01*
X2049969Y992883D01*
X2048796Y989019D01*
X2048401Y985000D01*
X2048796Y980982D01*
X2049969Y977117D01*
X2051872Y973556D01*
X2054434Y970434D01*
X2057555Y967873D01*
X2061117Y965969D01*
X2064981Y964797D01*
X2069000Y964401D01*
X2073018Y964797D01*
X2076883Y965969D01*
X2080444Y967873D01*
X2083566Y970434D01*
X2086127Y973556D01*
X2088031Y977117D01*
X2089203Y980982D01*
X2089599Y985000D01*
X2089203Y989019D01*
X2088031Y992883D01*
X2086127Y996445D01*
X2083566Y999566D01*
X2080444Y1002128D01*
X2076883Y1004032D01*
X2073018Y1005204D01*
X2069000Y1005600D01*
D02*
G37*
G36*
X1249000Y1000599D02*
X1244981Y1000203D01*
X1241117Y999031D01*
X1237555Y997128D01*
X1234434Y994566D01*
X1231872Y991444D01*
X1229969Y987883D01*
X1228796Y984019D01*
X1228401Y980000D01*
X1228796Y975981D01*
X1229969Y972117D01*
X1231872Y968556D01*
X1234434Y965434D01*
X1237555Y962872D01*
X1241117Y960969D01*
X1244981Y959797D01*
X1249000Y959401D01*
X1253018Y959797D01*
X1256883Y960969D01*
X1260444Y962872D01*
X1263566Y965434D01*
X1266127Y968556D01*
X1268031Y972117D01*
X1269203Y975981D01*
X1269599Y980000D01*
X1269203Y984019D01*
X1268031Y987883D01*
X1266127Y991444D01*
X1263566Y994566D01*
X1260444Y997128D01*
X1256883Y999031D01*
X1253018Y1000203D01*
X1249000Y1000599D01*
D02*
G37*
G36*
X319000D02*
X314981Y1000203D01*
X311117Y999031D01*
X307556Y997128D01*
X304434Y994566D01*
X301873Y991444D01*
X299969Y987883D01*
X298797Y984019D01*
X298401Y980000D01*
X298797Y975981D01*
X299969Y972117D01*
X301873Y968556D01*
X304434Y965434D01*
X307556Y962872D01*
X311117Y960969D01*
X314981Y959797D01*
X319000Y959401D01*
X323019Y959797D01*
X326883Y960969D01*
X330444Y962872D01*
X333566Y965434D01*
X336128Y968556D01*
X338031Y972117D01*
X339203Y975981D01*
X339599Y980000D01*
X339203Y984019D01*
X338031Y987883D01*
X336128Y991444D01*
X333566Y994566D01*
X330444Y997128D01*
X326883Y999031D01*
X323019Y1000203D01*
X319000Y1000599D01*
D02*
G37*
G36*
X1386270Y919459D02*
Y908270D01*
X1395127D01*
Y909500D01*
X1394782Y912121D01*
X1393770Y914563D01*
X1392161Y916661D01*
X1390063Y918270D01*
X1387621Y919281D01*
X1386270Y919459D01*
D02*
G37*
G36*
X1383730D02*
X1382379Y919281D01*
X1379937Y918270D01*
X1377839Y916661D01*
X1376230Y914563D01*
X1375219Y912121D01*
X1374873Y909500D01*
Y908270D01*
X1383730D01*
Y919459D01*
D02*
G37*
G36*
X1891140Y957211D02*
X1886239Y956728D01*
X1881527Y955299D01*
X1877184Y952977D01*
X1873377Y949853D01*
X1870253Y946047D01*
X1867932Y941703D01*
X1866502Y936991D01*
X1866019Y932090D01*
X1866502Y927189D01*
X1867932Y922477D01*
X1870253Y918134D01*
X1873377Y914327D01*
X1877184Y911203D01*
X1881527Y908881D01*
X1886239Y907452D01*
X1891140Y906969D01*
X1896041Y907452D01*
X1900754Y908881D01*
X1905097Y911203D01*
X1908903Y914327D01*
X1912027Y918134D01*
X1914349Y922477D01*
X1915779Y927189D01*
X1916261Y932090D01*
X1915779Y936991D01*
X1914349Y941703D01*
X1912027Y946047D01*
X1908903Y949853D01*
X1905097Y952977D01*
X1900754Y955299D01*
X1896041Y956728D01*
X1891140Y957211D01*
D02*
G37*
G36*
X1521140D02*
X1516239Y956728D01*
X1511527Y955299D01*
X1507184Y952977D01*
X1503377Y949853D01*
X1500253Y946047D01*
X1497931Y941703D01*
X1496502Y936991D01*
X1496019Y932090D01*
X1496502Y927189D01*
X1497931Y922477D01*
X1500253Y918134D01*
X1503377Y914327D01*
X1507184Y911203D01*
X1511527Y908881D01*
X1516239Y907452D01*
X1521140Y906969D01*
X1526041Y907452D01*
X1530753Y908881D01*
X1535096Y911203D01*
X1538903Y914327D01*
X1542027Y918134D01*
X1544349Y922477D01*
X1545778Y927189D01*
X1546261Y932090D01*
X1545778Y936991D01*
X1544349Y941703D01*
X1542027Y946047D01*
X1538903Y949853D01*
X1535096Y952977D01*
X1530753Y955299D01*
X1526041Y956728D01*
X1521140Y957211D01*
D02*
G37*
G36*
X1395127Y905730D02*
X1386270D01*
Y894540D01*
X1387621Y894718D01*
X1390063Y895730D01*
X1392161Y897339D01*
X1393770Y899437D01*
X1394782Y901879D01*
X1395127Y904500D01*
Y905730D01*
D02*
G37*
G36*
X1383730D02*
X1374873D01*
Y904500D01*
X1375219Y901879D01*
X1376230Y899437D01*
X1377839Y897339D01*
X1379937Y895730D01*
X1382379Y894718D01*
X1383730Y894540D01*
Y905730D01*
D02*
G37*
G36*
X1199250Y936364D02*
X1195033Y935949D01*
X1190979Y934719D01*
X1187242Y932721D01*
X1183967Y930033D01*
X1181279Y926758D01*
X1179281Y923021D01*
X1178051Y918967D01*
X1177636Y914750D01*
X1178051Y910533D01*
X1179281Y906479D01*
X1181279Y902742D01*
X1183967Y899467D01*
X1187242Y896779D01*
X1190979Y894781D01*
X1195033Y893551D01*
X1199250Y893136D01*
X1203467Y893551D01*
X1207521Y894781D01*
X1211258Y896779D01*
X1214533Y899467D01*
X1217221Y902742D01*
X1219219Y906479D01*
X1220449Y910533D01*
X1220864Y914750D01*
X1220449Y918967D01*
X1219219Y923021D01*
X1217221Y926758D01*
X1214533Y930033D01*
X1211258Y932721D01*
X1207521Y934719D01*
X1203467Y935949D01*
X1199250Y936364D01*
D02*
G37*
G36*
X1021450D02*
X1017233Y935949D01*
X1013179Y934719D01*
X1009442Y932721D01*
X1006167Y930033D01*
X1003479Y926758D01*
X1001481Y923021D01*
X1000251Y918967D01*
X999836Y914750D01*
X1000251Y910533D01*
X1001481Y906479D01*
X1003479Y902742D01*
X1006167Y899467D01*
X1009442Y896779D01*
X1013179Y894781D01*
X1017233Y893551D01*
X1021450Y893136D01*
X1025667Y893551D01*
X1029721Y894781D01*
X1033458Y896779D01*
X1036733Y899467D01*
X1039421Y902742D01*
X1041419Y906479D01*
X1042649Y910533D01*
X1043064Y914750D01*
X1042649Y918967D01*
X1041419Y923021D01*
X1039421Y926758D01*
X1036733Y930033D01*
X1033458Y932721D01*
X1029721Y934719D01*
X1025667Y935949D01*
X1021450Y936364D01*
D02*
G37*
G36*
X1208520Y830938D02*
Y824770D01*
X1214688D01*
X1214596Y825468D01*
X1213836Y827302D01*
X1212628Y828878D01*
X1211052Y830086D01*
X1209218Y830846D01*
X1208520Y830938D01*
D02*
G37*
G36*
X1205980D02*
X1205282Y830846D01*
X1203447Y830086D01*
X1201872Y828878D01*
X1200664Y827302D01*
X1199904Y825468D01*
X1199812Y824770D01*
X1205980D01*
Y830938D01*
D02*
G37*
G36*
X1214688Y822230D02*
X1208520D01*
Y816062D01*
X1209218Y816154D01*
X1211052Y816914D01*
X1212628Y818122D01*
X1213836Y819697D01*
X1214596Y821532D01*
X1214688Y822230D01*
D02*
G37*
G36*
X1205980D02*
X1199812D01*
X1199904Y821532D01*
X1200664Y819697D01*
X1201872Y818122D01*
X1203447Y816914D01*
X1205282Y816154D01*
X1205980Y816062D01*
Y822230D01*
D02*
G37*
G36*
X1081745Y783688D02*
Y777520D01*
X1087913D01*
X1087821Y778218D01*
X1087061Y780052D01*
X1085852Y781628D01*
X1084277Y782836D01*
X1082443Y783596D01*
X1081745Y783688D01*
D02*
G37*
G36*
X1079205D02*
X1078506Y783596D01*
X1076672Y782836D01*
X1075097Y781628D01*
X1073889Y780052D01*
X1073129Y778218D01*
X1073037Y777520D01*
X1079205D01*
Y783688D01*
D02*
G37*
G36*
X1087913Y774980D02*
X1081745D01*
Y768812D01*
X1082443Y768904D01*
X1084277Y769664D01*
X1085852Y770872D01*
X1087061Y772448D01*
X1087821Y774282D01*
X1087913Y774980D01*
D02*
G37*
G36*
X1079205D02*
X1073037D01*
X1073129Y774282D01*
X1073889Y772448D01*
X1075097Y770872D01*
X1076672Y769664D01*
X1078506Y768904D01*
X1079205Y768812D01*
Y774980D01*
D02*
G37*
G36*
X1154020Y765747D02*
Y759579D01*
X1160188D01*
X1160096Y760278D01*
X1159336Y762112D01*
X1158128Y763687D01*
X1156553Y764895D01*
X1154718Y765655D01*
X1154020Y765747D01*
D02*
G37*
G36*
X1151480D02*
X1150782Y765655D01*
X1148948Y764895D01*
X1147372Y763687D01*
X1146164Y762112D01*
X1145404Y760278D01*
X1145312Y759579D01*
X1151480D01*
Y765747D01*
D02*
G37*
G36*
X1160188Y757039D02*
X1154020D01*
Y750871D01*
X1154718Y750963D01*
X1156553Y751723D01*
X1158128Y752932D01*
X1159336Y754507D01*
X1160096Y756341D01*
X1160188Y757039D01*
D02*
G37*
G36*
X1151480D02*
X1145312D01*
X1145404Y756341D01*
X1146164Y754507D01*
X1147372Y752932D01*
X1148948Y751723D01*
X1150782Y750963D01*
X1151480Y750871D01*
Y757039D01*
D02*
G37*
G36*
X1386270Y738459D02*
Y727270D01*
X1395127D01*
Y728500D01*
X1394782Y731121D01*
X1393770Y733563D01*
X1392161Y735661D01*
X1390063Y737270D01*
X1387621Y738282D01*
X1386270Y738459D01*
D02*
G37*
G36*
X1383730D02*
X1382379Y738282D01*
X1379937Y737270D01*
X1377839Y735661D01*
X1376230Y733563D01*
X1375219Y731121D01*
X1374873Y728500D01*
Y727270D01*
X1383730D01*
Y738459D01*
D02*
G37*
G36*
X1102500Y776815D02*
X1100542Y776557D01*
X1098718Y775801D01*
X1097151Y774599D01*
X1097151Y774599D01*
X1076654Y754102D01*
X1060537D01*
X1058579Y753844D01*
X1056755Y753088D01*
X1055188Y751886D01*
X1033401Y730099D01*
X1032199Y728532D01*
X1031443Y726708D01*
X1031185Y724750D01*
X1031443Y722792D01*
X1032199Y720968D01*
X1033401Y719401D01*
X1034968Y718199D01*
X1036792Y717443D01*
X1038750Y717185D01*
X1040708Y717443D01*
X1042532Y718199D01*
X1044099Y719401D01*
X1063670Y738972D01*
X1079787D01*
X1081745Y739230D01*
X1083569Y739986D01*
X1085136Y741188D01*
X1105633Y761685D01*
X1136750D01*
X1138708Y761943D01*
X1140532Y762699D01*
X1142099Y763901D01*
X1143301Y765468D01*
X1144057Y767292D01*
X1144315Y769250D01*
X1144057Y771208D01*
X1143301Y773032D01*
X1142099Y774599D01*
X1140532Y775801D01*
X1138708Y776557D01*
X1136750Y776815D01*
X1102500D01*
X1102500Y776815D01*
D02*
G37*
G36*
X1395127Y724730D02*
X1386270D01*
Y713541D01*
X1387621Y713718D01*
X1390063Y714730D01*
X1392161Y716339D01*
X1393770Y718437D01*
X1394782Y720879D01*
X1395127Y723500D01*
Y724730D01*
D02*
G37*
G36*
X1383730D02*
X1374873D01*
Y723500D01*
X1375219Y720879D01*
X1376230Y718437D01*
X1377839Y716339D01*
X1379937Y714730D01*
X1382379Y713718D01*
X1383730Y713541D01*
Y724730D01*
D02*
G37*
G36*
X1372100Y741000D02*
X1347100D01*
Y711000D01*
X1372100D01*
Y741000D01*
D02*
G37*
G36*
X1214770Y712688D02*
Y706520D01*
X1220938D01*
X1220846Y707218D01*
X1220086Y709053D01*
X1218878Y710628D01*
X1217302Y711836D01*
X1215468Y712596D01*
X1214770Y712688D01*
D02*
G37*
G36*
X1212230D02*
X1211532Y712596D01*
X1209697Y711836D01*
X1208122Y710628D01*
X1206914Y709053D01*
X1206154Y707218D01*
X1206062Y706520D01*
X1212230D01*
Y712688D01*
D02*
G37*
G36*
X1220938Y703980D02*
X1214770D01*
Y697812D01*
X1215468Y697904D01*
X1217302Y698664D01*
X1218878Y699872D01*
X1220086Y701448D01*
X1220846Y703282D01*
X1220938Y703980D01*
D02*
G37*
G36*
X1212230D02*
X1206062D01*
X1206154Y703282D01*
X1206914Y701448D01*
X1208122Y699872D01*
X1209697Y698664D01*
X1211532Y697904D01*
X1212230Y697812D01*
Y703980D01*
D02*
G37*
G36*
X1102020Y687688D02*
Y681520D01*
X1108188D01*
X1108096Y682218D01*
X1107336Y684053D01*
X1106128Y685628D01*
X1104553Y686836D01*
X1102718Y687596D01*
X1102020Y687688D01*
D02*
G37*
G36*
X1099480D02*
X1098782Y687596D01*
X1096947Y686836D01*
X1095372Y685628D01*
X1094164Y684053D01*
X1093404Y682218D01*
X1093312Y681520D01*
X1099480D01*
Y687688D01*
D02*
G37*
G36*
X1108188Y678980D02*
X1102020D01*
Y672812D01*
X1102718Y672904D01*
X1104553Y673664D01*
X1106128Y674872D01*
X1107336Y676448D01*
X1108096Y678282D01*
X1108188Y678980D01*
D02*
G37*
G36*
X1099480D02*
X1093312D01*
X1093404Y678282D01*
X1094164Y676448D01*
X1095372Y674872D01*
X1096947Y673664D01*
X1098782Y672904D01*
X1099480Y672812D01*
Y678980D01*
D02*
G37*
G36*
X1199250Y682364D02*
X1195033Y681949D01*
X1190979Y680719D01*
X1187242Y678721D01*
X1183967Y676033D01*
X1181279Y672758D01*
X1179281Y669021D01*
X1178051Y664967D01*
X1177636Y660750D01*
X1178051Y656533D01*
X1179281Y652479D01*
X1181279Y648742D01*
X1183967Y645467D01*
X1187242Y642779D01*
X1190979Y640781D01*
X1195033Y639551D01*
X1199250Y639136D01*
X1203467Y639551D01*
X1207521Y640781D01*
X1211258Y642779D01*
X1214533Y645467D01*
X1217221Y648742D01*
X1219219Y652479D01*
X1220449Y656533D01*
X1220864Y660750D01*
X1220449Y664967D01*
X1219219Y669021D01*
X1217221Y672758D01*
X1214533Y676033D01*
X1211258Y678721D01*
X1207521Y680719D01*
X1203467Y681949D01*
X1199250Y682364D01*
D02*
G37*
G36*
X368040Y645640D02*
X359270D01*
Y636870D01*
X368040D01*
Y645640D01*
D02*
G37*
G36*
X356730D02*
X347960D01*
Y636870D01*
X356730D01*
Y645640D01*
D02*
G37*
G36*
X368040Y634330D02*
X359270D01*
Y625560D01*
X368040D01*
Y634330D01*
D02*
G37*
G36*
X356730D02*
X347960D01*
Y625560D01*
X356730D01*
Y634330D01*
D02*
G37*
G36*
X2091000Y565585D02*
X2087569Y565247D01*
X2084271Y564246D01*
X2081231Y562621D01*
X2078566Y560434D01*
X2076379Y557769D01*
X2075201Y555565D01*
X1981800D01*
X1980621Y557769D01*
X1978434Y560434D01*
X1975770Y562621D01*
X1972729Y564246D01*
X1969431Y565247D01*
X1966000Y565585D01*
X1962569Y565247D01*
X1959271Y564246D01*
X1956231Y562621D01*
X1953566Y560434D01*
X1951379Y557769D01*
X1949754Y554729D01*
X1948753Y551431D01*
X1948416Y548000D01*
X1948753Y544569D01*
X1949754Y541270D01*
X1951379Y538230D01*
X1953566Y535566D01*
X1956231Y533379D01*
X1959271Y531754D01*
X1962569Y530753D01*
X1966000Y530415D01*
X1969431Y530753D01*
X1972729Y531754D01*
X1975770Y533379D01*
X1978434Y535566D01*
X1980621Y538230D01*
X1981800Y540435D01*
X2075201D01*
X2076379Y538230D01*
X2078566Y535566D01*
X2081231Y533379D01*
X2084271Y531754D01*
X2087569Y530753D01*
X2091000Y530415D01*
X2094431Y530753D01*
X2097729Y531754D01*
X2100770Y533379D01*
X2103434Y535566D01*
X2105621Y538230D01*
X2107246Y541270D01*
X2108247Y544569D01*
X2108585Y548000D01*
X2108247Y551431D01*
X2107246Y554729D01*
X2105621Y557769D01*
X2103434Y560434D01*
X2100770Y562621D01*
X2097729Y564246D01*
X2094431Y565247D01*
X2091000Y565585D01*
D02*
G37*
G36*
X1386270Y557460D02*
Y546270D01*
X1395127D01*
Y547500D01*
X1394782Y550121D01*
X1393770Y552564D01*
X1392161Y554661D01*
X1390063Y556270D01*
X1387621Y557282D01*
X1386270Y557460D01*
D02*
G37*
G36*
X1383730D02*
X1382379Y557282D01*
X1379937Y556270D01*
X1377839Y554661D01*
X1376230Y552564D01*
X1375219Y550121D01*
X1374873Y547500D01*
Y546270D01*
X1383730D01*
Y557460D01*
D02*
G37*
G36*
X1891140Y587211D02*
X1886239Y586728D01*
X1881527Y585299D01*
X1877184Y582977D01*
X1873377Y579853D01*
X1870253Y576046D01*
X1867932Y571703D01*
X1866502Y566991D01*
X1866019Y562090D01*
X1866502Y557189D01*
X1867932Y552476D01*
X1870253Y548133D01*
X1873377Y544327D01*
X1877184Y541203D01*
X1881527Y538881D01*
X1886239Y537452D01*
X1891140Y536969D01*
X1896041Y537452D01*
X1900754Y538881D01*
X1905097Y541203D01*
X1908903Y544327D01*
X1912027Y548133D01*
X1914349Y552476D01*
X1915779Y557189D01*
X1916261Y562090D01*
X1915779Y566991D01*
X1914349Y571703D01*
X1912027Y576046D01*
X1908903Y579853D01*
X1905097Y582977D01*
X1900754Y585299D01*
X1896041Y586728D01*
X1891140Y587211D01*
D02*
G37*
G36*
X1521140D02*
X1516239Y586728D01*
X1511527Y585299D01*
X1507184Y582977D01*
X1503377Y579853D01*
X1500253Y576046D01*
X1497931Y571703D01*
X1496502Y566991D01*
X1496019Y562090D01*
X1496502Y557189D01*
X1497931Y552476D01*
X1500253Y548133D01*
X1503377Y544327D01*
X1507184Y541203D01*
X1511527Y538881D01*
X1516239Y537452D01*
X1521140Y536969D01*
X1526041Y537452D01*
X1530753Y538881D01*
X1535096Y541203D01*
X1538903Y544327D01*
X1542027Y548133D01*
X1544349Y552476D01*
X1545778Y557189D01*
X1546261Y562090D01*
X1545778Y566991D01*
X1544349Y571703D01*
X1542027Y576046D01*
X1538903Y579853D01*
X1535096Y582977D01*
X1530753Y585299D01*
X1526041Y586728D01*
X1521140Y587211D01*
D02*
G37*
G36*
X495020Y531188D02*
Y525020D01*
X501188D01*
X501096Y525718D01*
X500336Y527552D01*
X499128Y529128D01*
X497552Y530336D01*
X495718Y531096D01*
X495020Y531188D01*
D02*
G37*
G36*
X492480D02*
X491782Y531096D01*
X489948Y530336D01*
X488372Y529128D01*
X487164Y527552D01*
X486404Y525718D01*
X486312Y525020D01*
X492480D01*
Y531188D01*
D02*
G37*
G36*
X373270Y534668D02*
Y524970D01*
X382968D01*
X382756Y526582D01*
X381644Y529268D01*
X379874Y531574D01*
X377568Y533344D01*
X374882Y534456D01*
X373270Y534668D01*
D02*
G37*
G36*
X370730D02*
X369118Y534456D01*
X366433Y533344D01*
X364126Y531574D01*
X362357Y529268D01*
X361244Y526582D01*
X361032Y524970D01*
X370730D01*
Y534668D01*
D02*
G37*
G36*
X501188Y522480D02*
X495020D01*
Y516312D01*
X495718Y516404D01*
X497552Y517164D01*
X499128Y518372D01*
X500336Y519948D01*
X501096Y521782D01*
X501188Y522480D01*
D02*
G37*
G36*
X492480D02*
X486312D01*
X486404Y521782D01*
X487164Y519948D01*
X488372Y518372D01*
X489948Y517164D01*
X491782Y516404D01*
X492480Y516312D01*
Y522480D01*
D02*
G37*
G36*
X382968Y522430D02*
X372000D01*
X361032D01*
X361244Y520818D01*
X362357Y518133D01*
X364126Y515826D01*
X366433Y514057D01*
X368815Y513070D01*
X368562Y511800D01*
X358500D01*
Y484800D01*
X385500D01*
Y511800D01*
X375439D01*
X375186Y513070D01*
X377568Y514057D01*
X379874Y515826D01*
X381644Y518133D01*
X382756Y520818D01*
X382968Y522430D01*
D02*
G37*
G36*
X1249000Y450599D02*
X1244981Y450204D01*
X1241117Y449031D01*
X1237555Y447128D01*
X1234434Y444566D01*
X1231872Y441444D01*
X1229969Y437883D01*
X1228796Y434019D01*
X1228401Y430000D01*
X1228796Y425981D01*
X1229969Y422117D01*
X1231872Y418556D01*
X1234434Y415434D01*
X1237555Y412873D01*
X1241117Y410969D01*
X1244981Y409797D01*
X1249000Y409401D01*
X1253018Y409797D01*
X1256883Y410969D01*
X1260444Y412873D01*
X1263566Y415434D01*
X1266127Y418556D01*
X1268031Y422117D01*
X1269203Y425981D01*
X1269599Y430000D01*
X1269203Y434019D01*
X1268031Y437883D01*
X1266127Y441444D01*
X1263566Y444566D01*
X1260444Y447128D01*
X1256883Y449031D01*
X1253018Y450204D01*
X1249000Y450599D01*
D02*
G37*
G36*
X319000D02*
X314981Y450204D01*
X311117Y449031D01*
X307556Y447128D01*
X304434Y444566D01*
X301873Y441444D01*
X299969Y437883D01*
X298797Y434019D01*
X298401Y430000D01*
X298797Y425981D01*
X299969Y422117D01*
X301873Y418556D01*
X304434Y415434D01*
X307556Y412873D01*
X311117Y410969D01*
X314981Y409797D01*
X319000Y409401D01*
X323019Y409797D01*
X326883Y410969D01*
X330444Y412873D01*
X333566Y415434D01*
X336128Y418556D01*
X338031Y422117D01*
X339203Y425981D01*
X339599Y430000D01*
X339203Y434019D01*
X338031Y437883D01*
X336128Y441444D01*
X333566Y444566D01*
X330444Y447128D01*
X326883Y449031D01*
X323019Y450204D01*
X319000Y450599D01*
D02*
G37*
G36*
X1405100Y425103D02*
X1401967Y424691D01*
X1399048Y423482D01*
X1396542Y421558D01*
X1394618Y419052D01*
X1393409Y416133D01*
X1392997Y413000D01*
X1393409Y409867D01*
X1394618Y406948D01*
X1396542Y404441D01*
X1399048Y402518D01*
X1401967Y401309D01*
X1405100Y400896D01*
X1408233Y401309D01*
X1411152Y402518D01*
X1413658Y404441D01*
X1415582Y406948D01*
X1416791Y409867D01*
X1417204Y413000D01*
X1416791Y416133D01*
X1415582Y419052D01*
X1413658Y421558D01*
X1411152Y423482D01*
X1408233Y424691D01*
X1405100Y425103D01*
D02*
G37*
G36*
X1328900D02*
X1325767Y424691D01*
X1322848Y423482D01*
X1320342Y421558D01*
X1318418Y419052D01*
X1317209Y416133D01*
X1316797Y413000D01*
X1317209Y409867D01*
X1318418Y406948D01*
X1320342Y404441D01*
X1322848Y402518D01*
X1325767Y401309D01*
X1328900Y400896D01*
X1332033Y401309D01*
X1334952Y402518D01*
X1337458Y404441D01*
X1339382Y406948D01*
X1340591Y409867D01*
X1341004Y413000D01*
X1340591Y416133D01*
X1339382Y419052D01*
X1337458Y421558D01*
X1334952Y423482D01*
X1332033Y424691D01*
X1328900Y425103D01*
D02*
G37*
G36*
X743671Y668688D02*
Y662520D01*
X749838D01*
X749746Y663218D01*
X748987Y665052D01*
X747778Y666628D01*
X746203Y667836D01*
X744369Y668596D01*
X743671Y668688D01*
D02*
G37*
G36*
X741131D02*
X740432Y668596D01*
X738598Y667836D01*
X737023Y666628D01*
X735814Y665052D01*
X735055Y663218D01*
X734963Y662520D01*
X741131D01*
Y668688D01*
D02*
G37*
G36*
X749838Y659980D02*
X743671D01*
Y653812D01*
X744369Y653904D01*
X746203Y654664D01*
X747778Y655872D01*
X748987Y657448D01*
X749746Y659282D01*
X749838Y659980D01*
D02*
G37*
G36*
X741131D02*
X734963D01*
X735055Y659282D01*
X735814Y657448D01*
X737023Y655872D01*
X738598Y654664D01*
X740432Y653904D01*
X741131Y653812D01*
Y659980D01*
D02*
G37*
G36*
X970280Y596725D02*
X969843Y596668D01*
X968252Y596009D01*
X966886Y594960D01*
X965837Y593594D01*
X965178Y592003D01*
X965121Y591566D01*
X970280D01*
Y596725D01*
D02*
G37*
G36*
Y589026D02*
X965121D01*
X965178Y588589D01*
X965837Y586998D01*
X966886Y585632D01*
X968252Y584583D01*
X969843Y583924D01*
X970280Y583867D01*
Y589026D01*
D02*
G37*
G36*
X734270Y514688D02*
Y508520D01*
X740438D01*
X740346Y509218D01*
X739586Y511053D01*
X738378Y512628D01*
X736803Y513836D01*
X734968Y514596D01*
X734270Y514688D01*
D02*
G37*
G36*
X731730D02*
X731032Y514596D01*
X729197Y513836D01*
X727622Y512628D01*
X726414Y511053D01*
X725654Y509218D01*
X725562Y508520D01*
X731730D01*
Y514688D01*
D02*
G37*
G36*
X740438Y505980D02*
X734270D01*
Y499812D01*
X734968Y499904D01*
X736803Y500664D01*
X738378Y501872D01*
X739586Y503447D01*
X740346Y505282D01*
X740438Y505980D01*
D02*
G37*
G36*
X731730D02*
X725562D01*
X725654Y505282D01*
X726414Y503447D01*
X727622Y501872D01*
X729197Y500664D01*
X731032Y499904D01*
X731730Y499812D01*
Y505980D01*
D02*
G37*
%LPD*%
D13*
X450500Y715250D02*
X451500Y714250D01*
Y661750D02*
Y714250D01*
X496824Y666242D02*
X536448D01*
X1094852Y663898D02*
X1110500Y648250D01*
X1038750Y724750D02*
X1060537Y746537D01*
X1135000Y616000D02*
Y617500D01*
X1127000Y608000D02*
X1135000Y616000D01*
X1069019Y608000D02*
X1127000D01*
X1055675Y663898D02*
X1094852D01*
X1033323Y686250D02*
X1055675Y663898D01*
X972750Y686250D02*
X1033323D01*
X1106617Y648050D02*
X1110350D01*
X973162Y629500D02*
X1915918D01*
X788670Y453000D02*
X907152D01*
X801200Y545592D02*
X812800D01*
X968510Y445000D02*
X1147648D01*
X950722Y462788D02*
X968510Y445000D01*
X1147648D02*
X1181648Y479000D01*
X812800Y545592D02*
X870892Y487500D01*
X1315095Y496500D02*
X1317095Y498500D01*
X886000Y496500D02*
X1315095D01*
X1053565Y457500D02*
X1103750D01*
X1133750Y487500D01*
X1317408D01*
X686816Y775716D02*
X715926Y804826D01*
Y815176D02*
X716500Y815750D01*
X715926Y804826D02*
Y815176D01*
X1102500Y769250D02*
X1136750D01*
X1079787Y746537D02*
X1102500Y769250D01*
X1060537Y746537D02*
X1079787D01*
X1915918Y629500D02*
X1947418Y598000D01*
X953600Y569000D02*
Y609938D01*
X973162Y629500D01*
X871600Y898492D02*
Y913250D01*
X840022Y918000D02*
X866850D01*
X871600Y913250D01*
X787400Y865378D02*
X840022Y918000D01*
X596000Y786000D02*
X626293D01*
X585470Y775470D02*
X596000Y786000D01*
X626293D02*
X635500Y795207D01*
Y821651D01*
X644823Y788468D02*
Y841573D01*
X641571Y785216D02*
X644823Y788468D01*
X652823Y780469D02*
Y822223D01*
X649571Y777216D02*
X652823Y780469D01*
X636823Y785216D02*
X641571D01*
X644823Y841573D02*
X661879Y858629D01*
X640137Y777216D02*
X649571D01*
X652823Y822223D02*
X672980Y842379D01*
X665750Y865378D02*
X787400D01*
X631401Y825750D02*
X635500Y821651D01*
X629451Y777844D02*
X636823Y785216D01*
X613250Y777844D02*
X629451D01*
X636016Y773095D02*
X640137Y777216D01*
X625000Y830401D02*
X631401Y825750D01*
X625000Y830401D02*
Y862000D01*
X661879Y858629D02*
Y861507D01*
X665750Y865378D01*
X506052Y784352D02*
X524000D01*
X546648Y807000D01*
X616900D01*
X746492Y874000D02*
X789984Y917492D01*
X625000Y862000D02*
X637000Y874000D01*
X746492D01*
X921525Y899367D02*
Y910475D01*
X789984Y917492D02*
X803492Y931000D01*
X901000D01*
X921525Y910475D01*
Y899367D02*
X922400Y898492D01*
X742400Y884000D02*
X747400Y889000D01*
X529670Y884000D02*
X742400D01*
X483870Y838200D02*
X529670Y884000D01*
X358000Y712200D02*
X385842D01*
X2082800Y803910D02*
X2122000Y764710D01*
Y505000D02*
Y764710D01*
X2083055Y505000D02*
X2122000D01*
X490999Y661999D02*
X492581D01*
X496824Y666242D01*
X432562Y593344D02*
Y850900D01*
X468704Y901296D02*
Y912296D01*
X415000Y868462D02*
X432562Y850900D01*
X415000Y868462D02*
Y907492D01*
X433508Y926000D01*
X455000D01*
X468704Y912296D01*
Y901296D02*
X471000Y899000D01*
X486870Y873000D02*
X512870Y899000D01*
X445600D02*
X471600Y873000D01*
X486870D01*
X512870Y899000D02*
X533654D01*
X653178Y917652D02*
X671830Y899000D01*
X602000Y917652D02*
X653178D01*
X583348Y899000D02*
X602000Y917652D01*
X984250Y580136D02*
X985000Y579386D01*
X984250Y580136D02*
Y591312D01*
X1000938Y608000D01*
X1001254Y620000D02*
X1032000D01*
X971550Y590296D02*
X1001254Y620000D01*
X852000Y530500D02*
X886000Y496500D01*
X931116Y505000D02*
X994885D01*
X915416Y520700D02*
X931116Y505000D01*
X994885D02*
X996385Y506500D01*
X991571Y513000D02*
X1006571Y528000D01*
X977000Y513000D02*
X991571D01*
X996385Y506500D02*
X1586186D01*
X1006571Y528000D02*
X1577908D01*
X974750Y515250D02*
X977000Y513000D01*
X974750Y515250D02*
Y525071D01*
X985000Y526000D02*
Y579386D01*
X1586186Y506500D02*
X1610186Y482500D01*
X1343705Y495500D02*
X1584500D01*
X1340705Y498500D02*
X1343705Y495500D01*
X1317095Y498500D02*
X1340705D01*
X1340392Y487500D02*
X1407594D01*
X1337391Y490500D02*
X1340392Y487500D01*
X1320409Y490500D02*
X1337391D01*
X1317408Y487500D02*
X1320409Y490500D01*
X1337578Y479000D02*
X1344168D01*
X1334078Y482500D02*
X1337578Y479000D01*
X1323722Y482500D02*
X1334078D01*
X1320222Y479000D02*
X1323722Y482500D01*
X1181648Y479000D02*
X1320222D01*
X1344168Y463550D02*
Y479000D01*
X1584500Y495500D02*
X1600500Y479500D01*
X939100Y457200D02*
Y468350D01*
X923098Y441198D02*
X939100Y457200D01*
X971821Y528000D02*
X974750Y525071D01*
X1407594Y487500D02*
X1423594Y471500D01*
X935500Y528000D02*
X971821D01*
X1577908D02*
X1615408Y490500D01*
X1785000Y482000D02*
Y527000D01*
X1769000Y466000D02*
X1785000Y482000D01*
X1604058Y466000D02*
X1769000D01*
X1769000Y543000D02*
X1785000Y527000D01*
X1631136Y543000D02*
X1769000D01*
X1762920Y531000D02*
X1773500Y520420D01*
X1656400Y531000D02*
X1762920D01*
X1656400Y514000D02*
Y531000D01*
X1721450Y490500D02*
X1732600Y501650D01*
X1615408Y490500D02*
X1721450D01*
X1707200Y499500D02*
Y514000D01*
X1706200Y498500D02*
X1707200Y499500D01*
X1618722Y498500D02*
X1706200D01*
X1615500Y527364D02*
X1631136Y543000D01*
X1745200Y482500D02*
X1758000Y495300D01*
X1610186Y482500D02*
X1745200D01*
X1758300Y474500D02*
X1773500Y489700D01*
X1606872Y474500D02*
X1758300D01*
X1598559Y471500D02*
X1604058Y466000D01*
X1773500Y489700D02*
Y520420D01*
X1601872Y479500D02*
X1606872Y474500D01*
X1600500Y479500D02*
X1601872D01*
X1615500Y501722D02*
Y527364D01*
X1423594Y471500D02*
X1598559D01*
X1615500Y501722D02*
X1618722Y498500D01*
X928200Y520700D02*
X935500Y528000D01*
X1405100Y459177D02*
X1412278Y452000D01*
X1405100Y459177D02*
Y470000D01*
X1412278Y452000D02*
X2030056D01*
X2083055Y505000D01*
X358000Y686800D02*
X386858D01*
X788670Y673270D02*
X826600Y711200D01*
Y746800D01*
X1328900Y441500D02*
Y456946D01*
X1337564D01*
X1344168Y463550D01*
X928200Y520700D02*
Y569000D01*
X1732600Y501650D02*
Y514000D01*
X801200Y545592D02*
Y569000D01*
X1966000Y598000D02*
X2091000D01*
X1947418D02*
X1966000D01*
X852000Y530500D02*
Y569000D01*
X386858Y686800D02*
X400558Y673100D01*
X358000Y686400D02*
Y686800D01*
X471000Y569000D02*
Y569722D01*
X400558Y577850D02*
Y673100D01*
X408686Y569722D02*
X471000D01*
X400558Y577850D02*
X408686Y569722D01*
X428498Y580644D02*
X449834D01*
X412242Y596900D02*
X428498Y580644D01*
X460756Y591566D02*
X482600D01*
X449834Y580644D02*
X460756Y591566D01*
X358000Y711800D02*
Y712200D01*
X412242Y596900D02*
Y685800D01*
X385842Y712200D02*
X412242Y685800D01*
X482600Y591566D02*
X496400Y577766D01*
Y569000D02*
Y577766D01*
X568770Y512000D02*
X668718D01*
X534670Y546100D02*
X568770Y512000D01*
X483870Y635000D02*
X534670Y584200D01*
X668718Y512000D02*
X699600Y542882D01*
Y569000D01*
X747400Y889000D02*
Y899000D01*
X598000Y569000D02*
Y726186D01*
X610616Y738802D01*
X623400Y569000D02*
Y692234D01*
X636016Y704850D01*
X672980Y842379D02*
X799579D01*
X846200Y889000D01*
Y898492D01*
X805000Y486730D02*
X818322D01*
X836702Y468350D01*
X862900D01*
X1393890Y803910D02*
X2082800D01*
X1359600Y838200D02*
Y907000D01*
Y838200D02*
X1393890Y803910D01*
X496400Y746800D02*
Y774700D01*
X506052Y784352D01*
X605790Y807000D02*
X616900D01*
X738886Y430784D02*
X1175828D01*
X712470Y457200D02*
X738886Y430784D01*
X712470Y787000D02*
X852000D01*
X1175828Y430784D02*
X1215043Y470000D01*
X1328900D01*
X852000Y746800D02*
Y787000D01*
X674200Y569000D02*
Y577089D01*
X686816Y589704D01*
X547200Y569000D02*
Y580728D01*
X585470Y618998D01*
X750400Y731182D02*
Y746800D01*
Y731182D02*
X763016Y718566D01*
Y457200D02*
X779018Y441198D01*
X923098D01*
X533654Y899000D02*
X583348D01*
X671830D02*
X722000D01*
X1758000Y495300D02*
Y514000D01*
X768100Y808000D02*
X889000D01*
X915416Y781584D01*
X1966000Y548000D02*
X2091000D01*
X1000938Y608000D02*
X1069019D01*
D39*
X2069000Y451000D02*
D03*
Y985000D02*
D03*
X1249000Y430000D02*
D03*
Y980000D02*
D03*
X319000D02*
D03*
Y430000D02*
D03*
D54*
X907152Y453000D02*
X934002Y479850D01*
X957750Y487500D02*
X987750Y457500D01*
X870892Y487500D02*
X957750Y487500D01*
X1050815Y454750D02*
X1053565Y457500D01*
X990815Y454750D02*
X1050815D01*
X988064Y457500D02*
X990815Y454750D01*
X987750Y457500D02*
X988064D01*
X788670Y453000D02*
Y673270D01*
X610616Y774616D02*
X613250Y777250D01*
X585470Y618998D02*
Y775470D01*
X636016Y704850D02*
Y773095D01*
X610616Y738802D02*
Y774616D01*
X661416Y819150D02*
X671322Y829056D01*
X661416Y523700D02*
Y819150D01*
X671322Y829056D02*
X863600D01*
X482499Y636371D02*
Y665519D01*
Y636371D02*
X483870Y635000D01*
Y666890D02*
Y838200D01*
X482499Y665519D02*
X483870Y666890D01*
X950722Y462788D02*
Y479850D01*
X934002D02*
X950722D01*
X534670Y546100D02*
Y584200D01*
X712470Y457200D02*
Y787000D01*
X686816Y589704D02*
Y775716D01*
X572600Y523700D02*
Y569000D01*
Y523700D02*
X661416D01*
X863600Y829056D02*
X897000Y862456D01*
Y898492D01*
X763016Y457200D02*
Y718566D01*
X915416Y520700D02*
Y781584D01*
D56*
X1059550Y648050D02*
D03*
X1084950D02*
D03*
X1110350D02*
D03*
X1135750D02*
D03*
X1161150D02*
D03*
D57*
X1199250Y660750D02*
D03*
Y914750D02*
D03*
X1021450Y660750D02*
D03*
Y914750D02*
D03*
D58*
X1039950Y975750D02*
D03*
X445600Y899000D02*
D03*
X583348D02*
D03*
X722000D02*
D03*
X846200Y898492D02*
D03*
D59*
X1065350Y975750D02*
D03*
X1090750D02*
D03*
X1116150D02*
D03*
X1141550D02*
D03*
X471000Y899000D02*
D03*
X608748D02*
D03*
X747400D02*
D03*
X372000Y523700D02*
D03*
X871600Y898492D02*
D03*
X897000D02*
D03*
X922400D02*
D03*
D60*
X471000Y561000D02*
D03*
D61*
X496400D02*
D03*
X521800D02*
D03*
X547200D02*
D03*
X572600D02*
D03*
X598000D02*
D03*
X623400D02*
D03*
X648800D02*
D03*
X674200D02*
D03*
X699600D02*
D03*
X725000D02*
D03*
X750400D02*
D03*
X775800D02*
D03*
X801200D02*
D03*
X826600D02*
D03*
X852000D02*
D03*
X877400D02*
D03*
X902800D02*
D03*
X928200D02*
D03*
X953600D02*
D03*
X471000Y754800D02*
D03*
X496400D02*
D03*
X521800D02*
D03*
X547200D02*
D03*
X572600D02*
D03*
X598000D02*
D03*
X623400D02*
D03*
X648800D02*
D03*
X674200D02*
D03*
X699600D02*
D03*
X725000D02*
D03*
X750400D02*
D03*
X775800D02*
D03*
X801200D02*
D03*
X826600D02*
D03*
X852000D02*
D03*
X877400D02*
D03*
X902800D02*
D03*
X928200D02*
D03*
X953600D02*
D03*
D62*
X862900Y468350D02*
D03*
X939100D02*
D03*
X1405100Y413000D02*
D03*
X1328900D02*
D03*
X1405100Y441500D02*
D03*
X1328900D02*
D03*
X768100Y808000D02*
D03*
X691900D02*
D03*
X1405100Y470000D02*
D03*
X1328900D02*
D03*
D63*
X1009000Y473000D02*
D03*
X1631000Y514000D02*
D03*
X616900Y807000D02*
D03*
D64*
X1085000Y473000D02*
D03*
X1758000Y514000D02*
D03*
X1732600D02*
D03*
X1707200D02*
D03*
X1681800D02*
D03*
X1656400D02*
D03*
X512300Y807000D02*
D03*
D65*
X358000Y711800D02*
D03*
Y686400D02*
D03*
Y661000D02*
D03*
D66*
Y635600D02*
D03*
D67*
X1521140Y932090D02*
D03*
X1891140D02*
D03*
X1521140Y562090D02*
D03*
X1891140D02*
D03*
D68*
X1966000Y598000D02*
D03*
X2091000D02*
D03*
Y548000D02*
D03*
X1966000D02*
D03*
D69*
X1359600Y545000D02*
D03*
Y726000D02*
D03*
Y907000D02*
D03*
D70*
X1385000Y545000D02*
D03*
Y726000D02*
D03*
Y907000D02*
D03*
D71*
X805000Y504730D02*
D03*
Y486730D02*
D03*
D72*
Y468730D02*
D03*
D73*
X372000Y498300D02*
D03*
D74*
X450500Y715250D02*
D03*
X451500Y661750D02*
D03*
X1038750Y724750D02*
D03*
X1135000Y617500D02*
D03*
X1069019Y608000D02*
D03*
X972750Y686250D02*
D03*
X716500Y815750D02*
D03*
X1136750Y769250D02*
D03*
X490999Y661999D02*
D03*
X985000Y579386D02*
D03*
X1032000Y620000D02*
D03*
X985000Y526000D02*
D03*
X432562Y593344D02*
D03*
X971550Y590296D02*
D03*
X536448Y666242D02*
D03*
D75*
X1100750Y680250D02*
D03*
X1213500Y705250D02*
D03*
X1152750Y758309D02*
D03*
X733000Y507250D02*
D03*
X742401Y661250D02*
D03*
X1207250Y823500D02*
D03*
X539500Y728000D02*
D03*
X493750Y523750D02*
D03*
X1080475Y776250D02*
D03*
M02*
