G04*
G04 #@! TF.GenerationSoftware,Altium Limited,Altium Designer,19.0.4 (130)*
G04*
G04 Layer_Color=32768*
%FSLAX44Y44*%
%MOMM*%
G71*
G01*
G75*
%ADD76C,0.1000*%
%ADD77C,0.0500*%
%ADD78C,0.0762*%
D76*
X1185000Y834000D02*
X1223000D01*
X1185000Y890000D02*
X1223000D01*
X1185000Y834000D02*
Y890000D01*
X1223000Y834000D02*
Y890000D01*
X1204000Y857000D02*
Y867000D01*
X1199000Y862000D02*
X1209000D01*
X1166000Y778220D02*
X1198000D01*
X1166000Y813780D02*
X1198000D01*
X1166000Y778220D02*
Y813780D01*
X1198000Y778220D02*
Y813780D01*
X1013000Y768000D02*
X1023000D01*
X1018000Y763000D02*
Y773000D01*
X1005500Y746000D02*
Y790000D01*
X1030500Y746000D02*
Y790000D01*
X1005500Y746000D02*
X1030500D01*
X1005500Y790000D02*
X1030500D01*
X1045568Y843000D02*
X1055568D01*
X1050568Y838000D02*
Y848000D01*
X1038068Y821000D02*
Y865000D01*
X1063068Y821000D02*
Y865000D01*
X1038068Y821000D02*
X1063068D01*
X1038068Y865000D02*
X1063068D01*
X1076136Y844000D02*
X1086136D01*
X1081136Y839000D02*
Y849000D01*
X1093636Y822000D02*
Y866000D01*
X1068636Y822000D02*
Y866000D01*
X1093636D01*
X1068636Y822000D02*
X1093636D01*
X1106704Y843000D02*
X1116704D01*
X1111704Y838000D02*
Y848000D01*
X1099204Y821000D02*
Y865000D01*
X1124204Y821000D02*
Y865000D01*
X1099204Y821000D02*
X1124204D01*
X1099204Y865000D02*
X1124204D01*
X1137272Y844000D02*
X1147272D01*
X1142272Y839000D02*
Y849000D01*
X1129772Y822000D02*
Y866000D01*
X1154772Y822000D02*
Y866000D01*
X1129772Y822000D02*
X1154772D01*
X1129772Y866000D02*
X1154772D01*
X399000Y698000D02*
X437000D01*
X399000Y642000D02*
X437000D01*
Y698000D01*
X399000Y642000D02*
Y698000D01*
X418000Y665000D02*
Y675000D01*
X413000Y670000D02*
X423000D01*
X449500Y697000D02*
X518500D01*
X449500Y617000D02*
X518500D01*
Y697000D01*
X449500Y617000D02*
Y697000D01*
X484000Y652000D02*
Y662000D01*
X479000Y657000D02*
X489000D01*
X1007500Y865000D02*
X1032500D01*
X1007500Y821000D02*
X1032500D01*
Y865000D01*
X1007500Y821000D02*
Y865000D01*
X1020001Y838000D02*
Y848000D01*
X1015000Y843000D02*
X1025000D01*
X1069750Y679500D02*
X1094750D01*
X1069750Y723500D02*
X1094750D01*
X1069750Y679500D02*
Y723500D01*
X1094750Y679500D02*
Y723500D01*
X1082250Y696500D02*
Y706500D01*
X1077250Y701500D02*
X1087250D01*
X1098500Y721500D02*
X1117500D01*
X1098500Y686500D02*
X1117500D01*
Y721500D01*
X1098500Y686500D02*
Y721500D01*
X1108000Y699000D02*
Y709000D01*
X1103000Y704000D02*
X1113000D01*
X1227250Y843000D02*
X1252250D01*
X1227250Y887000D02*
X1252250D01*
X1227250Y843000D02*
Y887000D01*
X1252250Y843000D02*
Y887000D01*
X1239750Y860000D02*
Y870000D01*
X1234750Y865000D02*
X1244750D01*
X1210500Y746500D02*
X1220500D01*
X1215500Y741500D02*
Y751500D01*
X1234500Y718500D02*
Y774500D01*
X1196500Y718500D02*
Y774500D01*
X1234500D01*
X1196500Y718500D02*
X1234500D01*
X1158500Y773000D02*
X1183500D01*
X1158500Y729000D02*
X1183500D01*
Y773000D01*
X1158500Y729000D02*
Y773000D01*
X1171000Y746000D02*
Y756000D01*
X1166000Y751000D02*
X1176000D01*
X1122500Y684000D02*
X1147500D01*
X1122500Y728000D02*
X1147500D01*
X1122500Y684000D02*
Y728000D01*
X1147500Y684000D02*
Y728000D01*
X1135000Y701000D02*
Y711000D01*
X1130000Y706000D02*
X1140000D01*
X550000Y669000D02*
X560000D01*
X555000Y664000D02*
Y674000D01*
X536000Y641000D02*
Y697000D01*
X574000Y641000D02*
Y697000D01*
X536000Y641000D02*
X574000D01*
X536000Y697000D02*
X574000D01*
X585500Y698000D02*
X610500D01*
X585500Y654000D02*
X610500D01*
Y698000D01*
X585500Y654000D02*
Y698000D01*
X598000Y671000D02*
Y681000D01*
X593000Y676000D02*
X603000D01*
X407500Y751000D02*
X432500D01*
X407500Y707000D02*
X432500D01*
Y751000D01*
X407500Y707000D02*
Y751000D01*
X420000Y724000D02*
Y734000D01*
X415000Y729000D02*
X425000D01*
D77*
X1185500Y796000D02*
G03*
X1185500Y796000I-3500J0D01*
G01*
X1177000Y796000D02*
X1187000D01*
X1182000Y791000D02*
Y801000D01*
D78*
X1165460Y844000D02*
X1170540D01*
X1168000Y841460D02*
Y846540D01*
M02*
