M48
;Layer_Color=9474304
;FILE_FORMAT=4:4
METRIC,LZ
;TYPE=PLATED
T1F00S00C0.5000
T2F00S00C0.8000
T3F00S00C0.8500
T4F00S00C0.9000
T5F00S00C1.0000
T6F00S00C1.0160
T7F00S00C1.2000
T8F00S00C1.5000
;TYPE=NON_PLATED
T9F00S00C3.1000
T10F00S00C3.3020
%
T01
X012135Y0070525
X0115275Y00758309
X0113675Y0076925
X01080475Y0077625
X0103875Y0072475
X0097275Y0068625
X0097155Y00590296
X00985Y00579386
Y00526
X01032Y0062
X01069019Y00608
X01135Y006175
X0110075Y0068025
X00742401Y0066125
X00733Y0050725
X0049375Y0052375
X00432562Y00593344
X004515Y0066175
X00490999Y00661999
X00536448Y00666242
X005395Y00728
X004505Y0071525
X007165Y0081575
X0120725Y008235
T02
X00805Y0046873
Y0048673
Y0050473
T03
X013289Y00413
Y004415
Y0047
X014051
Y004415
Y00413
X009391Y0046835
X008629
X007681Y00808
X006919
T04
X00372Y004983
Y005237
X00358Y006356
Y00661
Y006864
Y007118
X004456Y00899
X00471
X00583348
X00608748
X00722
X007474
X008462Y00898492
X008716
X00897
X009224
X0103995Y0097575
X0106535
X0109075
X0111615
X0114155
T05
X01631Y00514
X016564
X016818
X017072
X017326
X01758
X01385Y00545
X013596
Y00726
X01385
X009536Y007468
X009282
X009028
X008774
X00852
X008266
X008012
Y00569
X008266
X00852
X008774
X009028
X009282
X009536
X01009Y00473
X01085
X007758Y00569
X007504
X00725
X006996
X006742
X006488
X006234
X00598
X005726
X005472
X005218
X004964
X00471
Y007468
X004964
X005218
X005472
X005726
X00598
X006234
X006488
X006742
X006996
X00725
X007504
X007758
X013596Y00907
X01385
T06
X0105955Y0064805
X0108495
X0111035
X0113575
X0116115
T07
X005123Y00807
X006169
T08
X02091Y00548
Y00598
X01966
Y00548
T09
X02069Y00451
X0189114Y0056209
X0152114
X01249Y0043
X00319
Y0098
X01249
X0152114Y0093209
X0189114
X02069Y00985
T10
X0119925Y0066075
X0102145
Y0091475
X0119925
M30
