G04*
G04 #@! TF.GenerationSoftware,Altium Limited,Altium Designer,19.0.4 (130)*
G04*
G04 Layer_Color=16711935*
%FSLAX44Y44*%
%MOMM*%
G71*
G01*
G75*
%ADD38C,3.1000*%
%ADD39R,1.8032X3.4032*%
%ADD40O,1.8032X3.4032*%
%ADD41C,1.6032*%
%ADD42R,2.2032X2.2032*%
%ADD43C,2.2032*%
%ADD44C,1.7032*%
%ADD45R,1.7032X1.7032*%
%ADD46C,3.4032*%
%ADD47R,2.2032X2.2032*%
%ADD48R,1.7032X1.7032*%
%ADD49C,4.2032*%
%ADD50C,2.7032*%
%ADD51R,1.7032X2.2032*%
%ADD52O,1.7032X2.2032*%
%ADD53O,2.2032X1.4032*%
%ADD54R,2.2032X1.4032*%
%ADD55R,1.9032X1.9032*%
%ADD56C,1.9032*%
%ADD57R,1.9032X1.9032*%
D38*
X2069000Y451000D02*
D03*
Y985000D02*
D03*
X1249000Y430000D02*
D03*
Y980000D02*
D03*
X319000D02*
D03*
Y430000D02*
D03*
D39*
X471000Y561000D02*
D03*
D40*
X496400D02*
D03*
X521800D02*
D03*
X547200D02*
D03*
X572600D02*
D03*
X598000D02*
D03*
X623400D02*
D03*
X648800D02*
D03*
X674200D02*
D03*
X699600D02*
D03*
X725000D02*
D03*
X750400D02*
D03*
X775800D02*
D03*
X801200D02*
D03*
X826600D02*
D03*
X852000D02*
D03*
X877400D02*
D03*
X902800D02*
D03*
X928200D02*
D03*
X953600D02*
D03*
X471000Y754800D02*
D03*
X496400D02*
D03*
X521800D02*
D03*
X547200D02*
D03*
X572600D02*
D03*
X598000D02*
D03*
X623400D02*
D03*
X648800D02*
D03*
X674200D02*
D03*
X699600D02*
D03*
X725000D02*
D03*
X750400D02*
D03*
X775800D02*
D03*
X801200D02*
D03*
X826600D02*
D03*
X852000D02*
D03*
X877400D02*
D03*
X902800D02*
D03*
X928200D02*
D03*
X953600D02*
D03*
D41*
X862900Y468350D02*
D03*
X939100D02*
D03*
X1405100Y413000D02*
D03*
X1328900D02*
D03*
X1405100Y441500D02*
D03*
X1328900D02*
D03*
X768100Y808000D02*
D03*
X691900D02*
D03*
X1405100Y470000D02*
D03*
X1328900D02*
D03*
D42*
X1009000Y473000D02*
D03*
X1631000Y514000D02*
D03*
X616900Y807000D02*
D03*
D43*
X1085000Y473000D02*
D03*
X1136200Y606000D02*
D03*
X1110800D02*
D03*
X1085400D02*
D03*
X1758000Y514000D02*
D03*
X1732600D02*
D03*
X1707200D02*
D03*
X1681800D02*
D03*
X1656400D02*
D03*
X512300Y807000D02*
D03*
D44*
X1131400Y889000D02*
D03*
X1106000D02*
D03*
X1080600D02*
D03*
X358000Y711800D02*
D03*
Y686400D02*
D03*
Y661000D02*
D03*
D45*
X1055200Y889000D02*
D03*
D46*
X1027400Y576800D02*
D03*
X1168800D02*
D03*
D47*
X1060000Y606000D02*
D03*
D48*
X358000Y635600D02*
D03*
D49*
X1521140Y932090D02*
D03*
X1891140D02*
D03*
X1521140Y562090D02*
D03*
X1891140D02*
D03*
D50*
X1966000Y598000D02*
D03*
X2091000D02*
D03*
Y548000D02*
D03*
X1966000D02*
D03*
D51*
X1359600Y545000D02*
D03*
Y726000D02*
D03*
Y907000D02*
D03*
D52*
X1385000Y545000D02*
D03*
Y726000D02*
D03*
Y907000D02*
D03*
D53*
X805000Y504730D02*
D03*
Y486730D02*
D03*
D54*
Y468730D02*
D03*
D55*
X445600Y899000D02*
D03*
X583348D02*
D03*
X722000D02*
D03*
X846200Y898492D02*
D03*
D56*
X471000Y899000D02*
D03*
X608748D02*
D03*
X747400D02*
D03*
X372000Y523700D02*
D03*
X871600Y898492D02*
D03*
X897000D02*
D03*
X922400D02*
D03*
D57*
X372000Y498300D02*
D03*
M02*
