G04*
G04 #@! TF.GenerationSoftware,Altium Limited,Altium Designer,19.0.4 (130)*
G04*
G04 Layer_Color=128*
%FSLAX44Y44*%
%MOMM*%
G71*
G01*
G75*
%ADD84C,0.0508*%
D84*
X2053500Y451000D02*
X2084500D01*
X2069000Y435500D02*
Y466500D01*
X2053500Y985000D02*
X2084500D01*
X2069000Y969500D02*
Y1000500D01*
X466000Y569000D02*
X476000D01*
X471000Y564000D02*
Y574000D01*
X491400Y569000D02*
X501400D01*
X496400Y564000D02*
Y574000D01*
X516800Y569000D02*
X526800D01*
X521800Y564000D02*
Y574000D01*
X542200Y569000D02*
X552200D01*
X547200Y564000D02*
Y574000D01*
X567600Y569000D02*
X577600D01*
X572600Y564000D02*
Y574000D01*
X593000Y569000D02*
X603000D01*
X598000Y564000D02*
Y574000D01*
X618400Y569000D02*
X628400D01*
X623400Y564000D02*
Y574000D01*
X643800Y569000D02*
X653800D01*
X648800Y564000D02*
Y574000D01*
X669200Y569000D02*
X679200D01*
X674200Y564000D02*
Y574000D01*
X694600Y569000D02*
X704600D01*
X699600Y564000D02*
Y574000D01*
X720000Y569000D02*
X730000D01*
X725000Y564000D02*
Y574000D01*
X745400Y569000D02*
X755400D01*
X750400Y564000D02*
Y574000D01*
X770800Y569000D02*
X780800D01*
X775800Y564000D02*
Y574000D01*
X796200Y569000D02*
X806200D01*
X801200Y564000D02*
Y574000D01*
X821600Y569000D02*
X831600D01*
X826600Y564000D02*
Y574000D01*
X847000Y569000D02*
X857000D01*
X852000Y564000D02*
Y574000D01*
X872400Y569000D02*
X882400D01*
X877400Y564000D02*
Y574000D01*
X897800Y569000D02*
X907800D01*
X902800Y564000D02*
Y574000D01*
X923200Y569000D02*
X933200D01*
X928200Y564000D02*
Y574000D01*
X948600Y569000D02*
X958600D01*
X953600Y564000D02*
Y574000D01*
X466000Y746800D02*
X476000D01*
X471000Y741800D02*
Y751800D01*
X491400Y746800D02*
X501400D01*
X496400Y741800D02*
Y751800D01*
X516800Y746800D02*
X526800D01*
X521800Y741800D02*
Y751800D01*
X542200Y746800D02*
X552200D01*
X547200Y741800D02*
Y751800D01*
X567600Y746800D02*
X577600D01*
X572600Y741800D02*
Y751800D01*
X593000Y746800D02*
X603000D01*
X598000Y741800D02*
Y751800D01*
X618400Y746800D02*
X628400D01*
X623400Y741800D02*
Y751800D01*
X643800Y746800D02*
X653800D01*
X648800Y741800D02*
Y751800D01*
X669200Y746800D02*
X679200D01*
X674200Y741800D02*
Y751800D01*
X694600Y746800D02*
X704600D01*
X699600Y741800D02*
Y751800D01*
X720000Y746800D02*
X730000D01*
X725000Y741800D02*
Y751800D01*
X745400Y746800D02*
X755400D01*
X750400Y741800D02*
Y751800D01*
X770800Y746800D02*
X780800D01*
X775800Y741800D02*
Y751800D01*
X796200Y746800D02*
X806200D01*
X801200Y741800D02*
Y751800D01*
X821600Y746800D02*
X831600D01*
X826600Y741800D02*
Y751800D01*
X847000Y746800D02*
X857000D01*
X852000Y741800D02*
Y751800D01*
X872400Y746800D02*
X882400D01*
X877400Y741800D02*
Y751800D01*
X897800Y746800D02*
X907800D01*
X902800Y741800D02*
Y751800D01*
X923200Y746800D02*
X933200D01*
X928200Y741800D02*
Y751800D01*
X948600Y746800D02*
X958600D01*
X953600Y741800D02*
Y751800D01*
X858650Y468350D02*
X867150D01*
X862900Y464100D02*
Y472600D01*
X934850Y468350D02*
X943350D01*
X939100Y464100D02*
Y472600D01*
X1400850Y413000D02*
X1409350D01*
X1405100Y408750D02*
Y417250D01*
X1324650Y413000D02*
X1333150D01*
X1328900Y408750D02*
Y417250D01*
X1400850Y441500D02*
X1409350D01*
X1405100Y437250D02*
Y445750D01*
X1324650Y441500D02*
X1333150D01*
X1328900Y437250D02*
Y445750D01*
X763850Y808000D02*
X772350D01*
X768100Y803750D02*
Y812250D01*
X687650Y808000D02*
X696150D01*
X691900Y803750D02*
Y812250D01*
X1400850Y470000D02*
X1409350D01*
X1405100Y465750D02*
Y474250D01*
X1324650Y470000D02*
X1333150D01*
X1328900Y465750D02*
Y474250D01*
X1004000Y473000D02*
X1014000D01*
X1009000Y468000D02*
Y478000D01*
X1080000Y473000D02*
X1090000D01*
X1085000Y468000D02*
Y478000D01*
X1126900Y889000D02*
X1135900D01*
X1131400Y884500D02*
Y893500D01*
X1101500Y889000D02*
X1110500D01*
X1106000Y884500D02*
Y893500D01*
X1076100Y889000D02*
X1085100D01*
X1080600Y884500D02*
Y893500D01*
X1050700Y889000D02*
X1059700D01*
X1055200Y884500D02*
Y893500D01*
X1011400Y576800D02*
X1043400D01*
X1027400Y560800D02*
Y592800D01*
X1152800Y576800D02*
X1184800D01*
X1168800Y560800D02*
Y592800D01*
X1131200Y606000D02*
X1141200D01*
X1136200Y601000D02*
Y611000D01*
X1105800Y606000D02*
X1115800D01*
X1110800Y601000D02*
Y611000D01*
X1080400Y606000D02*
X1090400D01*
X1085400Y601000D02*
Y611000D01*
X1055000Y606000D02*
X1065000D01*
X1060000Y601000D02*
Y611000D01*
X353500Y711800D02*
X362500D01*
X358000Y707300D02*
Y716300D01*
X353500Y686400D02*
X362500D01*
X358000Y681900D02*
Y690900D01*
X353500Y661000D02*
X362500D01*
X358000Y656500D02*
Y665500D01*
X353500Y635600D02*
X362500D01*
X358000Y631100D02*
Y640100D01*
X1626000Y514000D02*
X1636000D01*
X1631000Y509000D02*
Y519000D01*
X1505640Y932090D02*
X1536640D01*
X1521140Y916590D02*
Y947590D01*
X1875640Y932090D02*
X1906640D01*
X1891140Y916590D02*
Y947590D01*
X1505640Y562090D02*
X1536640D01*
X1521140Y546590D02*
Y577590D01*
X1875640Y562090D02*
X1906640D01*
X1891140Y546590D02*
Y577590D01*
X1753000Y514000D02*
X1763000D01*
X1758000Y509000D02*
Y519000D01*
X1727600Y514000D02*
X1737600D01*
X1732600Y509000D02*
Y519000D01*
X1702200Y514000D02*
X1712200D01*
X1707200Y509000D02*
Y519000D01*
X1676800Y514000D02*
X1686800D01*
X1681800Y509000D02*
Y519000D01*
X1651400Y514000D02*
X1661400D01*
X1656400Y509000D02*
Y519000D01*
X1958500Y598000D02*
X1973500D01*
X1966000Y590500D02*
Y605500D01*
X2083500Y598000D02*
X2098500D01*
X2091000Y590500D02*
Y605500D01*
X2083500Y548000D02*
X2098500D01*
X2091000Y540500D02*
Y555500D01*
X1958500Y548000D02*
X1973500D01*
X1966000Y540500D02*
Y555500D01*
X1354600Y545000D02*
X1364600D01*
X1359600Y540000D02*
Y550000D01*
X1380000Y545000D02*
X1390000D01*
X1385000Y540000D02*
Y550000D01*
X1354600Y726000D02*
X1364600D01*
X1359600Y721000D02*
Y731000D01*
X1380000Y726000D02*
X1390000D01*
X1385000Y721000D02*
Y731000D01*
X1354600Y907000D02*
X1364600D01*
X1359600Y902000D02*
Y912000D01*
X1380000Y907000D02*
X1390000D01*
X1385000Y902000D02*
Y912000D01*
X506300Y807000D02*
X518300D01*
X512300Y801000D02*
Y813000D01*
X610900Y807000D02*
X622900D01*
X616900Y801000D02*
Y813000D01*
X801000Y504730D02*
X809000D01*
X805000Y500730D02*
Y508730D01*
X801000Y486730D02*
X809000D01*
X805000Y482730D02*
Y490730D01*
X801000Y468730D02*
X809000D01*
X805000Y464730D02*
Y472730D01*
X1233500Y430000D02*
X1264500D01*
X1249000Y414500D02*
Y445500D01*
X1233500Y980000D02*
X1264500D01*
X1249000Y964500D02*
Y995500D01*
X303500Y980000D02*
X334500D01*
X319000Y964500D02*
Y995500D01*
X303500Y430000D02*
X334500D01*
X319000Y414500D02*
Y445500D01*
X441100Y899000D02*
X450100D01*
X445600Y894500D02*
Y903500D01*
X466500Y899000D02*
X475500D01*
X471000Y894500D02*
Y903500D01*
X578848Y899000D02*
X587848D01*
X583348Y894500D02*
Y903500D01*
X604248Y899000D02*
X613248D01*
X608748Y894500D02*
Y903500D01*
X717500Y899000D02*
X726500D01*
X722000Y894500D02*
Y903500D01*
X742900Y899000D02*
X751900D01*
X747400Y894500D02*
Y903500D01*
X367500Y498300D02*
X376500D01*
X372000Y493800D02*
Y502800D01*
X367500Y523700D02*
X376500D01*
X372000Y519200D02*
Y528200D01*
X841700Y898492D02*
X850700D01*
X846200Y893992D02*
Y902992D01*
X867100Y898492D02*
X876100D01*
X871600Y893992D02*
Y902992D01*
X892500Y898492D02*
X901500D01*
X897000Y893992D02*
Y902992D01*
X917900Y898492D02*
X926900D01*
X922400Y893992D02*
Y902992D01*
X1027500Y758000D02*
X1032500D01*
X1030000Y755500D02*
Y760500D01*
X1057500Y529590D02*
X1062500D01*
X1060000Y527090D02*
Y532090D01*
X921552Y613664D02*
X926552D01*
X924052Y611164D02*
Y616164D01*
X1174028Y642874D02*
X1179028D01*
X1176528Y640374D02*
Y645374D01*
X490006Y657606D02*
X495006D01*
X492506Y655106D02*
Y660106D01*
X555792Y669036D02*
X560792D01*
X558292Y666536D02*
Y671536D01*
X492038Y806958D02*
X497038D01*
X494538Y804458D02*
Y809458D01*
X969050Y590296D02*
X974050D01*
X971550Y587796D02*
Y592796D01*
X1040424Y612902D02*
X1045424D01*
X1042924Y610402D02*
Y615402D01*
X1104178Y692150D02*
X1109178D01*
X1106678Y689650D02*
Y694650D01*
X1140754Y713994D02*
X1145754D01*
X1143254Y711494D02*
Y716494D01*
X1091478Y758952D02*
X1096478D01*
X1093978Y756452D02*
Y761452D01*
X939840Y603758D02*
X944840D01*
X942340Y601258D02*
Y606258D01*
X701080Y792480D02*
X706080D01*
X703580Y789980D02*
Y794980D01*
X430062Y593344D02*
X435062D01*
X432562Y590844D02*
Y595844D01*
X1028486Y743458D02*
X1033486D01*
X1030986Y740958D02*
Y745958D01*
X1007912Y800100D02*
X1012912D01*
X1010412Y797600D02*
Y802600D01*
X1035090Y656082D02*
X1040090D01*
X1037590Y653582D02*
Y658582D01*
M02*
