G04*
G04 #@! TF.GenerationSoftware,Altium Limited,Altium Designer,19.0.4 (130)*
G04*
G04 Layer_Color=65535*
%FSLAX44Y44*%
%MOMM*%
G71*
G01*
G75*
%ADD10C,0.2500*%
%ADD11C,0.2000*%
%ADD12C,0.2540*%
%ADD13C,0.5000*%
%ADD14R,0.8000X2.8000*%
D10*
X518250Y685500D02*
G03*
X518250Y685500I-1250J0D01*
G01*
X1137950Y724250D02*
G03*
X1137950Y724250I-1250J0D01*
G01*
X1175995Y779240D02*
G03*
X1175995Y779240I-1250J0D01*
G01*
D11*
X457300Y651550D02*
G03*
X457300Y664250I0J6350D01*
G01*
X821007Y507218D02*
G03*
X821007Y466242I-16007J-20488D01*
G01*
X1133966Y704746D02*
G03*
X1133966Y695254I-8J-4746D01*
G01*
X431000Y666000D02*
Y674000D01*
X405000Y666000D02*
Y674000D01*
X450500Y672000D02*
X517500D01*
X450500Y642000D02*
X517500D01*
Y672000D01*
X450500Y642000D02*
Y672000D01*
X457300Y552900D02*
Y651550D01*
X966300Y552900D02*
Y762900D01*
X457300Y664250D02*
Y762900D01*
Y552900D02*
X966300D01*
X457300Y762900D02*
X966300D01*
X1004500Y825000D02*
X1017500D01*
X1069500D02*
X1082500D01*
X1037665Y769000D02*
X1050665D01*
X1056000Y630500D02*
Y643500D01*
X1002500Y769000D02*
X1015500D01*
X1100000Y631000D02*
Y643000D01*
X875600Y460730D02*
Y468350D01*
Y460730D02*
X926400D01*
Y475970D01*
X875600D02*
X926400D01*
X875600Y468350D02*
Y475970D01*
X926400Y468350D02*
X928686D01*
X873314D02*
X875600D01*
X1392400Y413000D02*
Y420620D01*
X1341600D02*
X1392400D01*
X1341600Y405380D02*
Y420620D01*
Y405380D02*
X1392400D01*
Y413000D01*
X1339314D02*
X1341600D01*
X1392400D02*
X1394686D01*
X1392400Y441500D02*
Y449120D01*
X1341600D02*
X1392400D01*
X1341600Y433880D02*
Y449120D01*
Y433880D02*
X1392400D01*
Y441500D01*
X1339314D02*
X1341600D01*
X1392400D02*
X1394686D01*
X755400Y808000D02*
Y815620D01*
X704600D02*
X755400D01*
X704600Y800380D02*
Y815620D01*
Y800380D02*
X755400D01*
Y808000D01*
X702314D02*
X704600D01*
X755400D02*
X757686D01*
X1392400Y470000D02*
Y477620D01*
X1341600D02*
X1392400D01*
X1341600Y462380D02*
Y477620D01*
Y462380D02*
X1392400D01*
Y470000D01*
X1339314D02*
X1341600D01*
X1392400D02*
X1394686D01*
X1042500Y876300D02*
Y901700D01*
X1144100D01*
X1042500Y876300D02*
X1144100D01*
Y901700D01*
X345300Y622900D02*
X370700D01*
X345300D02*
Y724500D01*
X370700Y622900D02*
Y724500D01*
X345300D02*
X370700D01*
X538100Y793000D02*
Y821000D01*
X591100D01*
X538100Y793000D02*
X591100D01*
X1037665Y825076D02*
X1050665D01*
X1072831Y769000D02*
X1085831D01*
X1128000Y829830D02*
Y837830D01*
X1102000Y829830D02*
Y837830D01*
X1107994Y769000D02*
X1120994D01*
X1172500Y633000D02*
X1180500D01*
X1172500Y659000D02*
X1180500D01*
X1168246Y675500D02*
Y688500D01*
Y702350D02*
Y715350D01*
X542000Y665000D02*
Y673000D01*
X568000Y665000D02*
Y673000D01*
X591500Y676000D02*
X604500D01*
X413500Y729000D02*
X426500D01*
X821000Y466830D02*
Y506630D01*
X1034000Y713462D02*
X1134000D01*
X1034000Y686284D02*
X1134000D01*
X1034000D02*
Y713462D01*
X1134000Y704826D02*
Y713462D01*
Y686284D02*
Y695254D01*
X1143745Y757000D02*
X1151745D01*
X1143745D02*
Y767000D01*
X1165745Y757000D02*
X1173745D01*
Y767000D01*
D12*
X1107000Y473000D02*
G03*
X1107000Y473000I-60000J0D01*
G01*
X2061000Y573000D02*
G03*
X2061000Y573000I-32500J0D01*
G01*
X1422300Y567700D02*
G03*
X1422300Y522000I-49860J-22850D01*
G01*
Y545000D02*
G03*
X1422300Y545000I-50000J0D01*
G01*
Y748700D02*
G03*
X1422300Y703000I-49860J-22850D01*
G01*
Y726000D02*
G03*
X1422300Y726000I-50000J0D01*
G01*
Y929700D02*
G03*
X1422300Y884000I-49860J-22850D01*
G01*
Y907000D02*
G03*
X1422300Y907000I-50000J0D01*
G01*
X996600Y550000D02*
Y905000D01*
X1199600D01*
X996600Y550000D02*
X1199600D01*
Y905000D01*
X1481140Y472090D02*
Y972090D01*
X1931140D01*
Y472090D02*
Y972090D01*
X1481140Y472090D02*
X1931140D01*
X2088500Y513000D02*
Y633000D01*
X1968500D02*
X2088500D01*
X1968500Y513000D02*
X2088500D01*
X1968500D02*
Y633000D01*
X1422300Y545000D02*
Y567700D01*
Y522000D02*
Y545000D01*
Y726000D02*
Y748700D01*
Y703000D02*
Y726000D01*
Y907000D02*
Y929700D01*
Y884000D02*
Y907000D01*
X420225Y863948D02*
Y922698D01*
X495663Y863948D02*
Y922698D01*
X420225Y863948D02*
X495663D01*
X467825Y916272D02*
Y922698D01*
X420225D02*
X447632D01*
Y916272D02*
Y922698D01*
X467825D02*
X487840D01*
X495663D01*
X447632Y916272D02*
X467825D01*
X557974Y863948D02*
Y922698D01*
X633411Y863948D02*
Y922698D01*
X557974Y863948D02*
X633411D01*
X605573Y916272D02*
Y922698D01*
X557974D02*
X585380D01*
Y916272D02*
Y922698D01*
X605573D02*
X625588D01*
X633411D01*
X585380Y916272D02*
X605573D01*
X696626Y863948D02*
Y922698D01*
X772064Y863948D02*
Y922698D01*
X696626Y863948D02*
X772064D01*
X744226Y916272D02*
Y922698D01*
X696626D02*
X724033D01*
Y916272D02*
Y922698D01*
X744226D02*
X764240D01*
X772064D01*
X724033Y916272D02*
X744226D01*
X348302Y472926D02*
X407052D01*
X348302Y548364D02*
X407052D01*
Y472926D02*
Y548364D01*
X348302Y520525D02*
X354728D01*
X348302Y472926D02*
Y500332D01*
X354728D01*
X348302Y520525D02*
Y540540D01*
Y548364D01*
X354728Y500332D02*
Y520525D01*
X899032Y917288D02*
X917574D01*
Y923384D01*
X847724Y917034D02*
X867282D01*
X847724D02*
Y923130D01*
X945006Y863948D02*
Y923384D01*
X821308Y863948D02*
Y923130D01*
Y863948D02*
X945006D01*
X821308Y923130D02*
X847724D01*
X917574Y923384D02*
X945006D01*
X867282Y923130D02*
X899032D01*
Y917288D02*
Y923130D01*
X867282Y917034D02*
Y923130D01*
X1144760Y808330D02*
Y818490D01*
Y808330D02*
X1175240D01*
Y818490D01*
X1144760Y851510D02*
Y861670D01*
X1175240D01*
Y851510D02*
Y861670D01*
X309697Y714370D02*
X307157Y716909D01*
X302079D01*
X299540Y714370D01*
Y711831D01*
X302079Y709292D01*
X307157D01*
X309697Y706753D01*
Y704213D01*
X307157Y701674D01*
X302079D01*
X299540Y704213D01*
X324932Y714370D02*
X322393Y716909D01*
X317314D01*
X314775Y714370D01*
Y704213D01*
X317314Y701674D01*
X322393D01*
X324932Y704213D01*
X330010Y716909D02*
Y701674D01*
X340167D01*
X309697Y689992D02*
X307157Y692531D01*
X302079D01*
X299540Y689992D01*
Y687453D01*
X302079Y684914D01*
X307157D01*
X309697Y682374D01*
Y679835D01*
X307157Y677296D01*
X302079D01*
X299540Y679835D01*
X314775Y692531D02*
Y677296D01*
X322393D01*
X324932Y679835D01*
Y689992D01*
X322393Y692531D01*
X314775D01*
X330010Y677296D02*
Y687453D01*
X335089Y692531D01*
X340167Y687453D01*
Y677296D01*
Y684914D01*
X330010D01*
X309697Y668153D02*
X299540D01*
Y660536D01*
X304618Y663075D01*
X307157D01*
X309697Y660536D01*
Y655457D01*
X307157Y652918D01*
X302079D01*
X299540Y655457D01*
X314775Y668153D02*
Y657996D01*
X319853Y652918D01*
X324932Y657996D01*
Y668153D01*
X309697Y641236D02*
X307157Y643775D01*
X302079D01*
X299540Y641236D01*
Y631079D01*
X302079Y628540D01*
X307157D01*
X309697Y631079D01*
Y636157D01*
X304618D01*
X314775Y628540D02*
Y643775D01*
X324932Y628540D01*
Y643775D01*
X330010D02*
Y628540D01*
X337628D01*
X340167Y631079D01*
Y641236D01*
X337628Y643775D01*
X330010D01*
X844540Y695721D02*
Y685724D01*
Y690723D01*
X851205D01*
Y695721D01*
Y685724D01*
X854537Y695721D02*
X861201Y685724D01*
Y695721D02*
X854537Y685724D01*
X864534Y695721D02*
X871198D01*
Y694055D01*
X864534Y687390D01*
Y685724D01*
X874530D02*
X877863D01*
X876197D01*
Y695721D01*
X874530Y694055D01*
X882861Y685724D02*
X886193D01*
X884527D01*
Y695721D01*
X882861Y694055D01*
X844540Y667632D02*
Y677629D01*
X849538D01*
X851205Y675963D01*
Y672630D01*
X849538Y670964D01*
X844540D01*
X847872D02*
X851205Y667632D01*
X854537Y675963D02*
X856203Y677629D01*
X859535D01*
X861201Y675963D01*
Y674297D01*
X859535Y672630D01*
X861201Y670964D01*
Y669298D01*
X859535Y667632D01*
X856203D01*
X854537Y669298D01*
Y670964D01*
X856203Y672630D01*
X854537Y674297D01*
Y675963D01*
X856203Y672630D02*
X859535D01*
X881195Y675963D02*
X879529Y677629D01*
X876197D01*
X874530Y675963D01*
Y674297D01*
X876197Y672630D01*
X879529D01*
X881195Y670964D01*
Y669298D01*
X879529Y667632D01*
X876197D01*
X874530Y669298D01*
X884527Y677629D02*
Y667632D01*
Y672630D01*
X891192D01*
Y677629D01*
Y667632D01*
X899522Y677629D02*
X896190D01*
X894524Y675963D01*
Y669298D01*
X896190Y667632D01*
X899522D01*
X901188Y669298D01*
Y675963D01*
X899522Y677629D01*
X904521Y667632D02*
Y677629D01*
X909519D01*
X911185Y675963D01*
Y672630D01*
X909519Y670964D01*
X904521D01*
X907853D02*
X911185Y667632D01*
X914517Y677629D02*
X921182D01*
X917850D01*
Y667632D01*
X924514Y674297D02*
X926180D01*
Y672630D01*
X924514D01*
Y674297D01*
Y669298D02*
X926180D01*
Y667632D01*
X924514D01*
Y669298D01*
X942842Y667632D02*
X946174D01*
X944508D01*
Y677629D01*
X942842Y675963D01*
X951172D02*
X952838Y677629D01*
X956171D01*
X957837Y675963D01*
Y669298D01*
X956171Y667632D01*
X952838D01*
X951172Y669298D01*
Y675963D01*
X967834D02*
X966168Y677629D01*
X962835D01*
X961169Y675963D01*
Y674297D01*
X962835Y672630D01*
X966168D01*
X967834Y670964D01*
Y669298D01*
X966168Y667632D01*
X962835D01*
X961169Y669298D01*
X971166Y667632D02*
Y677629D01*
X976164D01*
X977830Y675963D01*
Y672630D01*
X976164Y670964D01*
X971166D01*
X987827Y675963D02*
X986161Y677629D01*
X982829D01*
X981163Y675963D01*
Y674297D01*
X982829Y672630D01*
X986161D01*
X987827Y670964D01*
Y669298D01*
X986161Y667632D01*
X982829D01*
X981163Y669298D01*
X849538Y659537D02*
X846206D01*
X844540Y657871D01*
Y651206D01*
X846206Y649540D01*
X849538D01*
X851205Y651206D01*
Y657871D01*
X849538Y659537D01*
X854537Y649540D02*
Y659537D01*
X859535D01*
X861201Y657871D01*
Y654538D01*
X859535Y652872D01*
X854537D01*
X871198Y659537D02*
X864534D01*
Y649540D01*
X871198D01*
X864534Y654538D02*
X867866D01*
X874530Y649540D02*
Y659537D01*
X881195Y649540D01*
Y659537D01*
X884527Y656205D02*
X886193D01*
Y654538D01*
X884527D01*
Y656205D01*
Y651206D02*
X886193D01*
Y649540D01*
X884527D01*
Y651206D01*
X902855Y657871D02*
X904521Y659537D01*
X907853D01*
X909519Y657871D01*
Y656205D01*
X907853Y654538D01*
X909519Y652872D01*
Y651206D01*
X907853Y649540D01*
X904521D01*
X902855Y651206D01*
Y652872D01*
X904521Y654538D01*
X902855Y656205D01*
Y657871D01*
X904521Y654538D02*
X907853D01*
X912851Y657871D02*
X914517Y659537D01*
X917850D01*
X919516Y657871D01*
Y651206D01*
X917850Y649540D01*
X914517D01*
X912851Y651206D01*
Y657871D01*
X929513D02*
X927847Y659537D01*
X924514D01*
X922848Y657871D01*
Y656205D01*
X924514Y654538D01*
X927847D01*
X929513Y652872D01*
Y651206D01*
X927847Y649540D01*
X924514D01*
X922848Y651206D01*
X932845Y649540D02*
Y659537D01*
X937843D01*
X939509Y657871D01*
Y654538D01*
X937843Y652872D01*
X932845D01*
X949506Y657871D02*
X947840Y659537D01*
X944508D01*
X942842Y657871D01*
Y656205D01*
X944508Y654538D01*
X947840D01*
X949506Y652872D01*
Y651206D01*
X947840Y649540D01*
X944508D01*
X942842Y651206D01*
X893000Y484508D02*
X898078D01*
X895539D01*
Y499743D01*
X893000Y497204D01*
X905696Y499743D02*
Y484508D01*
Y489586D01*
X915853Y499743D01*
X908235Y492126D01*
X915853Y484508D01*
X724000Y826000D02*
X729078D01*
X726539D01*
Y841235D01*
X724000Y838696D01*
X736696D02*
X739235Y841235D01*
X744313D01*
X746853Y838696D01*
Y828539D01*
X744313Y826000D01*
X739235D01*
X736696Y828539D01*
Y838696D01*
X751931Y841235D02*
Y826000D01*
Y831078D01*
X762088Y841235D01*
X754470Y833617D01*
X762088Y826000D01*
X456000Y946874D02*
Y931639D01*
Y939257D01*
X466157D01*
Y946874D01*
Y931639D01*
X481392Y946874D02*
X471235D01*
Y931639D01*
X481392D01*
X471235Y939257D02*
X476313D01*
X486470Y931639D02*
Y941796D01*
X491549Y946874D01*
X496627Y941796D01*
Y931639D01*
Y939257D01*
X486470D01*
X501705Y946874D02*
Y931639D01*
X509323D01*
X511862Y934178D01*
Y944335D01*
X509323Y946874D01*
X501705D01*
X1045000Y916000D02*
Y926157D01*
X1050078Y931235D01*
X1055157Y926157D01*
Y916000D01*
Y923617D01*
X1045000D01*
X1060235D02*
X1070392D01*
X1065313Y928696D02*
Y918539D01*
X1075470Y916000D02*
Y926157D01*
X1080548Y931235D01*
X1085627Y926157D01*
Y916000D01*
Y923617D01*
X1075470D01*
X1090705D02*
X1100862D01*
X1116097Y931235D02*
X1105940D01*
Y916000D01*
X1116097D01*
X1105940Y923617D02*
X1111019D01*
X1121175D02*
X1131332D01*
X1146567Y931235D02*
X1136410D01*
Y916000D01*
X1146567D01*
X1136410Y923617D02*
X1141489D01*
X1151646D02*
X1161802D01*
X1156724Y928696D02*
Y918539D01*
X801157Y425696D02*
X798617Y428235D01*
X793539D01*
X791000Y425696D01*
Y423157D01*
X793539Y420617D01*
X798617D01*
X801157Y418078D01*
Y415539D01*
X798617Y413000D01*
X793539D01*
X791000Y415539D01*
X806235Y425696D02*
X808774Y428235D01*
X813853D01*
X816392Y425696D01*
Y423157D01*
X813853Y420617D01*
X816392Y418078D01*
Y415539D01*
X813853Y413000D01*
X808774D01*
X806235Y415539D01*
Y418078D01*
X808774Y420617D01*
X806235Y423157D01*
Y425696D01*
X808774Y420617D02*
X813853D01*
X821470Y425696D02*
X824009Y428235D01*
X829088D01*
X831627Y425696D01*
Y415539D01*
X829088Y413000D01*
X824009D01*
X821470Y415539D01*
Y425696D01*
X846862Y428235D02*
X836705D01*
Y420617D01*
X841784Y423157D01*
X844323D01*
X846862Y420617D01*
Y415539D01*
X844323Y413000D01*
X839244D01*
X836705Y415539D01*
X851940Y425696D02*
X854480Y428235D01*
X859558D01*
X862097Y425696D01*
Y415539D01*
X859558Y413000D01*
X854480D01*
X851940Y415539D01*
Y425696D01*
X1366157Y983368D02*
X1363618Y985907D01*
X1358539D01*
X1356000Y983368D01*
Y973211D01*
X1358539Y970672D01*
X1363618D01*
X1366157Y973211D01*
Y978289D01*
X1361078D01*
X1356000Y804862D02*
Y802323D01*
X1361078Y797244D01*
X1366157Y802323D01*
Y804862D01*
X1361078Y797244D02*
Y789627D01*
X1356000Y608706D02*
Y623941D01*
X1363618D01*
X1366157Y621402D01*
Y616324D01*
X1363618Y613784D01*
X1356000D01*
X1361078D02*
X1366157Y608706D01*
X828000Y844000D02*
Y859235D01*
X835618D01*
X838157Y856696D01*
Y851618D01*
X835618Y849078D01*
X828000D01*
X843235Y851618D02*
X853392D01*
X848313Y856696D02*
Y846539D01*
X858470Y844000D02*
Y859235D01*
X866088D01*
X868627Y856696D01*
Y851618D01*
X866088Y849078D01*
X858470D01*
X873705Y851618D02*
X883862D01*
X888940Y859235D02*
Y844000D01*
X896558D01*
X899097Y846539D01*
Y856696D01*
X896558Y859235D01*
X888940D01*
X904175Y851618D02*
X914332D01*
X909254Y856696D02*
Y846539D01*
X919410Y859235D02*
Y844000D01*
X927028D01*
X929567Y846539D01*
Y856696D01*
X927028Y859235D01*
X919410D01*
X934645Y851618D02*
X944802D01*
X869157Y943696D02*
X866618Y946235D01*
X861539D01*
X859000Y943696D01*
Y941157D01*
X861539Y938617D01*
X866618D01*
X869157Y936078D01*
Y933539D01*
X866618Y931000D01*
X861539D01*
X859000Y933539D01*
X874235Y946235D02*
X884392D01*
X879313D01*
Y931000D01*
X899627Y946235D02*
X889470D01*
Y931000D01*
X899627D01*
X889470Y938617D02*
X894548D01*
X904705Y931000D02*
Y946235D01*
X912323D01*
X914862Y943696D01*
Y938617D01*
X912323Y936078D01*
X904705D01*
X919940Y931000D02*
Y946235D01*
X927558D01*
X930097Y943696D01*
Y938617D01*
X927558Y936078D01*
X919940D01*
X945332Y946235D02*
X935175D01*
Y931000D01*
X945332D01*
X935175Y938617D02*
X940254D01*
X950410Y931000D02*
Y946235D01*
X958028D01*
X960567Y943696D01*
Y938617D01*
X958028Y936078D01*
X950410D01*
X955489D02*
X960567Y931000D01*
X732000Y934161D02*
Y949396D01*
X739617D01*
X742157Y946857D01*
Y941779D01*
X739617Y939240D01*
X732000D01*
X737078D02*
X742157Y934161D01*
X747235Y931622D02*
X757392D01*
X762470Y949396D02*
Y934161D01*
X772627D01*
X777705D02*
Y949396D01*
X782784Y944318D01*
X787862Y949396D01*
Y934161D01*
X604157Y949413D02*
X594000D01*
Y941796D01*
X599078D01*
X594000D01*
Y934178D01*
X609235D02*
Y949413D01*
X616853D01*
X619392Y946874D01*
Y941796D01*
X616853Y939257D01*
X609235D01*
X614313D02*
X619392Y934178D01*
X624470Y931639D02*
X634627D01*
X639705Y949413D02*
Y934178D01*
X649862D01*
X654940D02*
Y949413D01*
X660019Y944335D01*
X665097Y949413D01*
Y934178D01*
X309111Y529696D02*
X306572Y532235D01*
X301493D01*
X298954Y529696D01*
Y519539D01*
X301493Y517000D01*
X306572D01*
X309111Y519539D01*
Y524618D01*
X304032D01*
X314189Y517000D02*
Y532235D01*
X324346Y517000D01*
Y532235D01*
X329424D02*
Y517000D01*
X337042D01*
X339581Y519539D01*
Y529696D01*
X337042Y532235D01*
X329424D01*
X298954Y488000D02*
X304032D01*
X301493D01*
Y503235D01*
X298954Y500696D01*
X321807Y488000D02*
X311650D01*
X321807Y498157D01*
Y500696D01*
X319267Y503235D01*
X314189D01*
X311650Y500696D01*
X326885Y503235D02*
Y493078D01*
X331963Y488000D01*
X337042Y493078D01*
Y503235D01*
X1005000Y491618D02*
X1015157D01*
X1010078Y496696D02*
Y486539D01*
X1056000Y570000D02*
X1061078D01*
X1058539D01*
Y585235D01*
X1056000Y582696D01*
X1020600Y767235D02*
Y752000D01*
Y759618D01*
X1030757D01*
Y767235D01*
Y752000D01*
X1035835Y767235D02*
X1045992Y752000D01*
Y767235D02*
X1035835Y752000D01*
X1051070Y767235D02*
X1061227D01*
Y764696D01*
X1051070Y754539D01*
Y752000D01*
X1066305D02*
X1071384D01*
X1068844D01*
Y767235D01*
X1066305Y764696D01*
X1079001Y752000D02*
X1084079D01*
X1081540D01*
Y767235D01*
X1079001Y764696D01*
X1091697Y752000D02*
Y767235D01*
X1096775Y762157D01*
X1101854Y767235D01*
Y752000D01*
X1109471D02*
X1114550D01*
X1117089Y754539D01*
Y759618D01*
X1114550Y762157D01*
X1109471D01*
X1106932Y759618D01*
Y754539D01*
X1109471Y752000D01*
X1132324Y767235D02*
Y752000D01*
X1124706D01*
X1122167Y754539D01*
Y759618D01*
X1124706Y762157D01*
X1132324D01*
X1137402D02*
Y754539D01*
X1139941Y752000D01*
X1147559D01*
Y762157D01*
X1152637Y752000D02*
X1157716D01*
X1155176D01*
Y767235D01*
X1152637D01*
X1172951Y752000D02*
X1167872D01*
X1165333Y754539D01*
Y759618D01*
X1167872Y762157D01*
X1172951D01*
X1175490Y759618D01*
Y757078D01*
X1165333D01*
X1628140Y533090D02*
X1633218D01*
X1630679D01*
Y548325D01*
X1628140Y545786D01*
X1550993Y742990D02*
X1531000D01*
Y727995D01*
X1540997Y732993D01*
X1545995D01*
X1550993Y727995D01*
Y717998D01*
X1545995Y713000D01*
X1535998D01*
X1531000Y717998D01*
X1560990Y727995D02*
X1580984D01*
X1590981Y742990D02*
Y713000D01*
X1600977Y722997D01*
X1610974Y713000D01*
Y742990D01*
X1620971Y713000D02*
Y732993D01*
X1630968Y742990D01*
X1640964Y732993D01*
Y713000D01*
Y727995D01*
X1620971D01*
X1650961Y742990D02*
Y737992D01*
X1660958Y727995D01*
X1670955Y737992D01*
Y742990D01*
X1660958Y727995D02*
Y713000D01*
X1730935Y737992D02*
X1725937Y742990D01*
X1715940D01*
X1710942Y737992D01*
Y732993D01*
X1715940Y727995D01*
X1725937D01*
X1730935Y722997D01*
Y717998D01*
X1725937Y713000D01*
X1715940D01*
X1710942Y717998D01*
X1740932Y742990D02*
Y713000D01*
X1750929Y722997D01*
X1760926Y713000D01*
Y742990D01*
X1770922D02*
X1780919D01*
X1775921D01*
Y713000D01*
X1770922D01*
X1780919D01*
X1795914Y742990D02*
X1815908D01*
X1805911D01*
Y713000D01*
X1845898Y737992D02*
X1840900Y742990D01*
X1830903D01*
X1825905Y737992D01*
Y717998D01*
X1830903Y713000D01*
X1840900D01*
X1845898Y717998D01*
X1855895Y742990D02*
Y713000D01*
Y727995D01*
X1875888D01*
Y742990D01*
Y713000D01*
X1996157Y590000D02*
X1986000D01*
X1996157Y600157D01*
Y602696D01*
X1993618Y605235D01*
X1988539D01*
X1986000Y602696D01*
X1988000Y539000D02*
X1993078D01*
X1990539D01*
Y554235D01*
X1988000Y551696D01*
X451500Y720245D02*
Y710088D01*
X456578Y705010D01*
X461657Y710088D01*
Y720245D01*
X466735Y705010D02*
Y720245D01*
X474353D01*
X476892Y717706D01*
Y712627D01*
X474353Y710088D01*
X466735D01*
X471813D02*
X476892Y705010D01*
X481970D02*
X487048D01*
X484509D01*
Y720245D01*
X481970Y717706D01*
X548271D02*
X545732Y720245D01*
X540653D01*
X538114Y717706D01*
Y707549D01*
X540653Y705010D01*
X545732D01*
X548271Y707549D01*
X560967Y705010D02*
Y720245D01*
X553349Y712627D01*
X563506D01*
X417157Y634696D02*
X414618Y637235D01*
X409539D01*
X407000Y634696D01*
Y624539D01*
X409539Y622000D01*
X414618D01*
X417157Y624539D01*
X432392Y622000D02*
X422235D01*
X432392Y632157D01*
Y634696D01*
X429853Y637235D01*
X424774D01*
X422235Y634696D01*
X1011000Y628000D02*
Y637997D01*
X1015998D01*
X1017664Y636331D01*
Y632998D01*
X1015998Y631332D01*
X1011000D01*
X1014332D02*
X1017664Y628000D01*
X1020997Y636331D02*
X1022663Y637997D01*
X1025995D01*
X1027661Y636331D01*
Y634664D01*
X1025995Y632998D01*
X1027661Y631332D01*
Y629666D01*
X1025995Y628000D01*
X1022663D01*
X1020997Y629666D01*
Y631332D01*
X1022663Y632998D01*
X1020997Y634664D01*
Y636331D01*
X1022663Y632998D02*
X1025995D01*
X597801Y718722D02*
X595261Y721261D01*
X590183D01*
X587644Y718722D01*
Y708565D01*
X590183Y706026D01*
X595261D01*
X597801Y708565D01*
X602879Y718722D02*
X605418Y721261D01*
X610497D01*
X613036Y718722D01*
Y716183D01*
X610497Y713643D01*
X607957D01*
X610497D01*
X613036Y711104D01*
Y708565D01*
X610497Y706026D01*
X605418D01*
X602879Y708565D01*
X419583Y771722D02*
X417043Y774261D01*
X411965D01*
X409426Y771722D01*
Y761565D01*
X411965Y759026D01*
X417043D01*
X419583Y761565D01*
X424661Y759026D02*
X429739D01*
X427200D01*
Y774261D01*
X424661Y771722D01*
X1007900Y929090D02*
X1002821D01*
X1005360D01*
Y916394D01*
X1002821Y913855D01*
X1000282D01*
X997743Y916394D01*
X1012978Y926551D02*
X1015517Y929090D01*
X1020596D01*
X1023135Y926551D01*
Y924012D01*
X1020596Y921473D01*
X1023135Y918933D01*
Y916394D01*
X1020596Y913855D01*
X1015517D01*
X1012978Y916394D01*
Y918933D01*
X1015517Y921473D01*
X1012978Y924012D01*
Y926551D01*
X1015517Y921473D02*
X1020596D01*
X1007000Y713997D02*
Y705666D01*
X1008666Y704000D01*
X1011998D01*
X1013664Y705666D01*
Y713997D01*
X1023661Y704000D02*
X1016997D01*
X1023661Y710665D01*
Y712331D01*
X1021995Y713997D01*
X1018663D01*
X1016997Y712331D01*
X458808Y794547D02*
Y781851D01*
X461347Y779312D01*
X466426D01*
X468965Y781851D01*
Y794547D01*
X474043Y779312D02*
X479122D01*
X476582D01*
Y794547D01*
X474043Y792008D01*
X999669Y850924D02*
Y860921D01*
X1004667D01*
X1006333Y859255D01*
Y855922D01*
X1004667Y854256D01*
X999669D01*
X1003001D02*
X1006333Y850924D01*
X1009666D02*
X1012998D01*
X1011332D01*
Y860921D01*
X1009666Y859255D01*
X1017996Y850924D02*
X1021329D01*
X1019662D01*
Y860921D01*
X1017996Y859255D01*
X1068292Y850618D02*
Y860615D01*
X1073290D01*
X1074957Y858949D01*
Y855616D01*
X1073290Y853950D01*
X1068292D01*
X1071624D02*
X1074957Y850618D01*
X1078289D02*
X1081621D01*
X1079955D01*
Y860615D01*
X1078289Y858949D01*
X1086619D02*
X1088286Y860615D01*
X1091618D01*
X1093284Y858949D01*
Y852284D01*
X1091618Y850618D01*
X1088286D01*
X1086619Y852284D01*
Y858949D01*
X1036542Y794738D02*
Y804735D01*
X1041540D01*
X1043206Y803069D01*
Y799736D01*
X1041540Y798070D01*
X1036542D01*
X1039874D02*
X1043206Y794738D01*
X1046539Y796404D02*
X1048205Y794738D01*
X1051537D01*
X1053203Y796404D01*
Y803069D01*
X1051537Y804735D01*
X1048205D01*
X1046539Y803069D01*
Y801403D01*
X1048205Y799736D01*
X1053203D01*
X1001354Y794722D02*
Y804719D01*
X1006352D01*
X1008018Y803053D01*
Y799720D01*
X1006352Y798054D01*
X1001354D01*
X1004686D02*
X1008018Y794722D01*
X1011351Y804719D02*
X1018015D01*
Y803053D01*
X1011351Y796388D01*
Y794722D01*
X1128000Y625000D02*
Y634997D01*
X1132998D01*
X1134665Y633331D01*
Y629998D01*
X1132998Y628332D01*
X1128000D01*
X1131332D02*
X1134665Y625000D01*
X1144661Y634997D02*
X1141329Y633331D01*
X1137997Y629998D01*
Y626666D01*
X1139663Y625000D01*
X1142995D01*
X1144661Y626666D01*
Y628332D01*
X1142995Y629998D01*
X1137997D01*
X857328Y484508D02*
Y499743D01*
X864946D01*
X867485Y497204D01*
Y492126D01*
X864946Y489586D01*
X857328D01*
X862406D02*
X867485Y484508D01*
X882720Y499743D02*
X872563D01*
Y492126D01*
X877641Y494665D01*
X880181D01*
X882720Y492126D01*
Y487047D01*
X880181Y484508D01*
X875102D01*
X872563Y487047D01*
X1431000Y406333D02*
Y421568D01*
X1438618D01*
X1441157Y419029D01*
Y413951D01*
X1438618Y411412D01*
X1431000D01*
X1436078D02*
X1441157Y406333D01*
X1453853D02*
Y421568D01*
X1446235Y413951D01*
X1456392D01*
X1430000Y433167D02*
Y448401D01*
X1437617D01*
X1440157Y445862D01*
Y440784D01*
X1437617Y438245D01*
X1430000D01*
X1435078D02*
X1440157Y433167D01*
X1445235Y445862D02*
X1447774Y448401D01*
X1452853D01*
X1455392Y445862D01*
Y443323D01*
X1452853Y440784D01*
X1450313D01*
X1452853D01*
X1455392Y438245D01*
Y435706D01*
X1452853Y433167D01*
X1447774D01*
X1445235Y435706D01*
X686466Y824246D02*
Y839481D01*
X694083D01*
X696623Y836942D01*
Y831863D01*
X694083Y829324D01*
X686466D01*
X691544D02*
X696623Y824246D01*
X711858D02*
X701701D01*
X711858Y834403D01*
Y836942D01*
X709319Y839481D01*
X704240D01*
X701701Y836942D01*
X1433000Y463090D02*
Y478325D01*
X1440618D01*
X1443157Y475786D01*
Y470707D01*
X1440618Y468168D01*
X1433000D01*
X1438078D02*
X1443157Y463090D01*
X1448235D02*
X1453313D01*
X1450774D01*
Y478325D01*
X1448235Y475786D01*
X1151472Y791626D02*
Y798291D01*
X1149806Y799957D01*
X1146473D01*
X1144807Y798291D01*
Y791626D01*
X1146473Y789960D01*
X1149806D01*
X1148139Y793292D02*
X1151472Y789960D01*
X1149806D02*
X1151472Y791626D01*
X1161469Y789960D02*
X1154804D01*
X1161469Y796625D01*
Y798291D01*
X1159802Y799957D01*
X1156470D01*
X1154804Y798291D01*
X802157Y439539D02*
Y449696D01*
X799617Y452235D01*
X794539D01*
X792000Y449696D01*
Y439539D01*
X794539Y437000D01*
X799617D01*
X797078Y442078D02*
X802157Y437000D01*
X799617D02*
X802157Y439539D01*
X807235Y437000D02*
X812313D01*
X809774D01*
Y452235D01*
X807235Y449696D01*
X1101000Y426235D02*
Y411000D01*
X1111157D01*
X1126392Y423696D02*
X1123853Y426235D01*
X1118774D01*
X1116235Y423696D01*
Y421157D01*
X1118774Y418618D01*
X1123853D01*
X1126392Y416078D01*
Y413539D01*
X1123853Y411000D01*
X1118774D01*
X1116235Y413539D01*
X1131470Y411000D02*
X1136548D01*
X1134009D01*
Y426235D01*
X1131470Y423696D01*
X1146092Y880655D02*
Y870658D01*
X1152757D01*
X1156089D02*
X1159421D01*
X1157755D01*
Y880655D01*
X1156089Y878989D01*
X359737Y572465D02*
X354658D01*
X357197D01*
Y559769D01*
X354658Y557230D01*
X352119D01*
X349580Y559769D01*
X364815Y557230D02*
Y572465D01*
X372433D01*
X374972Y569926D01*
Y564847D01*
X372433Y562308D01*
X364815D01*
X380050Y557230D02*
X385129D01*
X382589D01*
Y572465D01*
X380050Y569926D01*
X1169665Y895997D02*
X1166332D01*
X1167998D01*
Y887666D01*
X1166332Y886000D01*
X1164666D01*
X1163000Y887666D01*
X1172997D02*
X1174663Y886000D01*
X1177995D01*
X1179661Y887666D01*
Y894331D01*
X1177995Y895997D01*
X1174663D01*
X1172997Y894331D01*
Y892664D01*
X1174663Y890998D01*
X1179661D01*
X357108Y748244D02*
X352029D01*
X354568D01*
Y735548D01*
X352029Y733009D01*
X349490D01*
X346951Y735548D01*
X362186Y748244D02*
X372343D01*
Y745705D01*
X362186Y735548D01*
Y733009D01*
X1492440Y996214D02*
X1487361D01*
X1489901D01*
Y983518D01*
X1487361Y980979D01*
X1484822D01*
X1482283Y983518D01*
X1507675Y996214D02*
X1502596Y993675D01*
X1497518Y988596D01*
Y983518D01*
X1500057Y980979D01*
X1505136D01*
X1507675Y983518D01*
Y986057D01*
X1505136Y988596D01*
X1497518D01*
X1939454Y595874D02*
X1934375D01*
X1936915D01*
Y583178D01*
X1934375Y580639D01*
X1931836D01*
X1929297Y583178D01*
X1954689Y595874D02*
X1944532D01*
Y588256D01*
X1949610Y590796D01*
X1952150D01*
X1954689Y588256D01*
Y583178D01*
X1952150Y580639D01*
X1947071D01*
X1944532Y583178D01*
X832719Y947619D02*
X827640D01*
X830180D01*
Y934923D01*
X827640Y932384D01*
X825101D01*
X822562Y934923D01*
X845415Y932384D02*
Y947619D01*
X837797Y940002D01*
X847954D01*
X708087Y949396D02*
X703008D01*
X705547D01*
Y936700D01*
X703008Y934161D01*
X700469D01*
X697930Y936700D01*
X713165Y946857D02*
X715704Y949396D01*
X720783D01*
X723322Y946857D01*
Y944318D01*
X720783Y941779D01*
X718243D01*
X720783D01*
X723322Y939240D01*
Y936700D01*
X720783Y934161D01*
X715704D01*
X713165Y936700D01*
X569502Y949413D02*
X564423D01*
X566963D01*
Y936717D01*
X564423Y934178D01*
X561884D01*
X559345Y936717D01*
X584737Y934178D02*
X574580D01*
X584737Y944335D01*
Y946874D01*
X582198Y949413D01*
X577119D01*
X574580Y946874D01*
X431754D02*
X426675D01*
X429215D01*
Y934178D01*
X426675Y931639D01*
X424136D01*
X421597Y934178D01*
X436832Y931639D02*
X441910D01*
X439371D01*
Y946874D01*
X436832Y944335D01*
X1318874Y623941D02*
Y608706D01*
X1326492D01*
X1329031Y611245D01*
Y621402D01*
X1326492Y623941D01*
X1318874D01*
X1341727Y608706D02*
Y623941D01*
X1334109Y616324D01*
X1344266D01*
X1318833Y804862D02*
Y789627D01*
X1326451D01*
X1328990Y792166D01*
Y802323D01*
X1326451Y804862D01*
X1318833D01*
X1334068Y802323D02*
X1336607Y804862D01*
X1341686D01*
X1344225Y802323D01*
Y799784D01*
X1341686Y797244D01*
X1339146D01*
X1341686D01*
X1344225Y794705D01*
Y792166D01*
X1341686Y789627D01*
X1336607D01*
X1334068Y792166D01*
X1318970Y985907D02*
Y970672D01*
X1326588D01*
X1329127Y973211D01*
Y983368D01*
X1326588Y985907D01*
X1318970D01*
X1344362Y970672D02*
X1334205D01*
X1344362Y980829D01*
Y983368D01*
X1341823Y985907D01*
X1336744D01*
X1334205Y983368D01*
X503896Y844799D02*
Y829564D01*
X511514D01*
X514053Y832103D01*
Y842260D01*
X511514Y844799D01*
X503896D01*
X519131Y829564D02*
X524210D01*
X521670D01*
Y844799D01*
X519131Y842260D01*
X1043206Y858949D02*
X1041540Y860615D01*
X1038208D01*
X1036542Y858949D01*
Y852284D01*
X1038208Y850618D01*
X1041540D01*
X1043206Y852284D01*
X1046539Y850618D02*
X1049871D01*
X1048205D01*
Y860615D01*
X1046539Y858949D01*
X1054869Y850618D02*
X1058202D01*
X1056536D01*
Y860615D01*
X1054869Y858949D01*
X1078259Y803069D02*
X1076592Y804735D01*
X1073260D01*
X1071594Y803069D01*
Y796404D01*
X1073260Y794738D01*
X1076592D01*
X1078259Y796404D01*
X1081591Y794738D02*
X1084923D01*
X1083257D01*
Y804735D01*
X1081591Y803069D01*
X1089921D02*
X1091588Y804735D01*
X1094920D01*
X1096586Y803069D01*
Y796404D01*
X1094920Y794738D01*
X1091588D01*
X1089921Y796404D01*
Y803069D01*
X1106961Y876475D02*
X1105294Y878141D01*
X1101962D01*
X1100296Y876475D01*
Y869810D01*
X1101962Y868144D01*
X1105294D01*
X1106961Y869810D01*
X1110293D02*
X1111959Y868144D01*
X1115291D01*
X1116957Y869810D01*
Y876475D01*
X1115291Y878141D01*
X1111959D01*
X1110293Y876475D01*
Y874809D01*
X1111959Y873142D01*
X1116957D01*
X1113565Y803069D02*
X1111898Y804735D01*
X1108566D01*
X1106900Y803069D01*
Y796404D01*
X1108566Y794738D01*
X1111898D01*
X1113565Y796404D01*
X1116897Y803069D02*
X1118563Y804735D01*
X1121895D01*
X1123561Y803069D01*
Y801403D01*
X1121895Y799736D01*
X1123561Y798070D01*
Y796404D01*
X1121895Y794738D01*
X1118563D01*
X1116897Y796404D01*
Y798070D01*
X1118563Y799736D01*
X1116897Y801403D01*
Y803069D01*
X1118563Y799736D02*
X1121895D01*
X1135115Y648331D02*
X1133448Y649997D01*
X1130116D01*
X1128450Y648331D01*
Y641666D01*
X1130116Y640000D01*
X1133448D01*
X1135115Y641666D01*
X1138447Y649997D02*
X1145111D01*
Y648331D01*
X1138447Y641666D01*
Y640000D01*
X1202664Y686331D02*
X1200998Y687997D01*
X1197666D01*
X1196000Y686331D01*
Y679666D01*
X1197666Y678000D01*
X1200998D01*
X1202664Y679666D01*
X1212661Y687997D02*
X1209329Y686331D01*
X1205997Y682998D01*
Y679666D01*
X1207663Y678000D01*
X1210995D01*
X1212661Y679666D01*
Y681332D01*
X1210995Y682998D01*
X1205997D01*
X1202664Y713331D02*
X1200998Y714997D01*
X1197666D01*
X1196000Y713331D01*
Y706666D01*
X1197666Y705000D01*
X1200998D01*
X1202664Y706666D01*
X1212661Y714997D02*
X1205997D01*
Y709998D01*
X1209329Y711665D01*
X1210995D01*
X1212661Y709998D01*
Y706666D01*
X1210995Y705000D01*
X1207663D01*
X1205997Y706666D01*
D13*
X428000Y460321D02*
Y485313D01*
X440496D01*
X444661Y481147D01*
Y472817D01*
X440496Y468652D01*
X428000D01*
X452992Y460321D02*
X461323D01*
X457157D01*
Y476982D01*
X452992D01*
X490480D02*
X477984D01*
X473819Y472817D01*
Y464486D01*
X477984Y460321D01*
X490480D01*
X502976D02*
X511306D01*
X515472Y464486D01*
Y472817D01*
X511306Y476982D01*
X502976D01*
X498810Y472817D01*
Y464486D01*
X502976Y460321D01*
X565456Y481147D02*
X561290Y485313D01*
X552960D01*
X548794Y481147D01*
Y476982D01*
X552960Y472817D01*
X561290D01*
X565456Y468652D01*
Y464486D01*
X561290Y460321D01*
X552960D01*
X548794Y464486D01*
X577952Y481147D02*
Y476982D01*
X573786D01*
X582117D01*
X577952D01*
Y464486D01*
X582117Y460321D01*
X594613Y476982D02*
Y460321D01*
Y468652D01*
X598778Y472817D01*
X602943Y476982D01*
X607109D01*
X619605Y460321D02*
X627935D01*
X623770D01*
Y476982D01*
X619605D01*
X640431Y460321D02*
Y476982D01*
X652927D01*
X657093Y472817D01*
Y460321D01*
X673754Y451990D02*
X677919D01*
X682085Y456156D01*
Y476982D01*
X669589D01*
X665423Y472817D01*
Y464486D01*
X669589Y460321D01*
X682085D01*
X698746Y451990D02*
X702911D01*
X707076Y456156D01*
Y476982D01*
X694581D01*
X690415Y472817D01*
Y464486D01*
X694581Y460321D01*
X707076D01*
X727903D02*
X719572D01*
X715407Y464486D01*
Y472817D01*
X719572Y476982D01*
X727903D01*
X732068Y472817D01*
Y468652D01*
X715407D01*
X740399Y476982D02*
Y460321D01*
Y468652D01*
X744564Y472817D01*
X748730Y476982D01*
X752895D01*
X428000Y434992D02*
Y418331D01*
X436331Y410000D01*
X444661Y418331D01*
Y434992D01*
X452992Y410000D02*
X461323D01*
X457157D01*
Y434992D01*
X452992Y430827D01*
X473819Y410000D02*
Y414165D01*
X477984D01*
Y410000D01*
X473819D01*
X494645Y430827D02*
X498810Y434992D01*
X507141D01*
X511306Y430827D01*
Y414165D01*
X507141Y410000D01*
X498810D01*
X494645Y414165D01*
Y430827D01*
D14*
X588100Y807000D02*
D03*
M02*
