G04*
G04 #@! TF.GenerationSoftware,Altium Limited,Altium Designer,19.0.4 (130)*
G04*
G04 Layer_Color=255*
%FSLAX44Y44*%
%MOMM*%
G71*
G01*
G75*
%ADD39C,3.1000*%
%ADD56C,1.8796*%
%ADD57C,3.3020*%
%ADD58R,1.7000X1.7000*%
%ADD59C,1.7000*%
%ADD60R,1.6000X3.2000*%
%ADD61O,1.6000X3.2000*%
%ADD62C,1.4000*%
%ADD63R,2.0000X2.0000*%
%ADD64C,2.0000*%
%ADD65C,1.5000*%
%ADD66R,1.5000X1.5000*%
%ADD67C,4.0000*%
%ADD68C,2.5000*%
%ADD69R,1.5000X2.0000*%
%ADD70O,1.5000X2.0000*%
%ADD71O,2.0000X1.2000*%
%ADD72R,2.0000X1.2000*%
%ADD73R,1.7000X1.7000*%
D39*
X2069000Y451000D02*
D03*
Y985000D02*
D03*
X1249000Y430000D02*
D03*
Y980000D02*
D03*
X319000D02*
D03*
Y430000D02*
D03*
D56*
X1059550Y648050D02*
D03*
X1084950D02*
D03*
X1110350D02*
D03*
X1135750D02*
D03*
X1161150D02*
D03*
D57*
X1199250Y660750D02*
D03*
Y914750D02*
D03*
X1021450Y660750D02*
D03*
Y914750D02*
D03*
D58*
X1039950Y975750D02*
D03*
X445600Y899000D02*
D03*
X583348D02*
D03*
X722000D02*
D03*
X846200Y898492D02*
D03*
D59*
X1065350Y975750D02*
D03*
X1090750D02*
D03*
X1116150D02*
D03*
X1141550D02*
D03*
X471000Y899000D02*
D03*
X608748D02*
D03*
X747400D02*
D03*
X372000Y523700D02*
D03*
X871600Y898492D02*
D03*
X897000D02*
D03*
X922400D02*
D03*
D60*
X471000Y561000D02*
D03*
D61*
X496400D02*
D03*
X521800D02*
D03*
X547200D02*
D03*
X572600D02*
D03*
X598000D02*
D03*
X623400D02*
D03*
X648800D02*
D03*
X674200D02*
D03*
X699600D02*
D03*
X725000D02*
D03*
X750400D02*
D03*
X775800D02*
D03*
X801200D02*
D03*
X826600D02*
D03*
X852000D02*
D03*
X877400D02*
D03*
X902800D02*
D03*
X928200D02*
D03*
X953600D02*
D03*
X471000Y754800D02*
D03*
X496400D02*
D03*
X521800D02*
D03*
X547200D02*
D03*
X572600D02*
D03*
X598000D02*
D03*
X623400D02*
D03*
X648800D02*
D03*
X674200D02*
D03*
X699600D02*
D03*
X725000D02*
D03*
X750400D02*
D03*
X775800D02*
D03*
X801200D02*
D03*
X826600D02*
D03*
X852000D02*
D03*
X877400D02*
D03*
X902800D02*
D03*
X928200D02*
D03*
X953600D02*
D03*
D62*
X862900Y468350D02*
D03*
X939100D02*
D03*
X1405100Y413000D02*
D03*
X1328900D02*
D03*
X1405100Y441500D02*
D03*
X1328900D02*
D03*
X768100Y808000D02*
D03*
X691900D02*
D03*
X1405100Y470000D02*
D03*
X1328900D02*
D03*
D63*
X1009000Y473000D02*
D03*
X1631000Y514000D02*
D03*
X616900Y807000D02*
D03*
D64*
X1085000Y473000D02*
D03*
X1758000Y514000D02*
D03*
X1732600D02*
D03*
X1707200D02*
D03*
X1681800D02*
D03*
X1656400D02*
D03*
X512300Y807000D02*
D03*
D65*
X358000Y711800D02*
D03*
Y686400D02*
D03*
Y661000D02*
D03*
D66*
Y635600D02*
D03*
D67*
X1521140Y932090D02*
D03*
X1891140D02*
D03*
X1521140Y562090D02*
D03*
X1891140D02*
D03*
D68*
X1966000Y598000D02*
D03*
X2091000D02*
D03*
Y548000D02*
D03*
X1966000D02*
D03*
D69*
X1359600Y545000D02*
D03*
Y726000D02*
D03*
Y907000D02*
D03*
D70*
X1385000Y545000D02*
D03*
Y726000D02*
D03*
Y907000D02*
D03*
D71*
X805000Y504730D02*
D03*
Y486730D02*
D03*
D72*
Y468730D02*
D03*
D73*
X372000Y498300D02*
D03*
M02*
