M48
;Layer_Color=9474304
;FILE_FORMAT=4:4
METRIC,LZ
;TYPE=PLATED
T1F00S00C0.5000
T2F00S00C0.8000
T3F00S00C0.8500
T4F00S00C0.9000
T5F00S00C1.0000
T6F00S00C1.2000
T7F00S00C1.5000
T8F00S00C3.2000
;TYPE=NON_PLATED
T9F00S00C3.1000
%
T01
X00924052Y00613664
X0094234Y00603758
X0097155Y00590296
X01042924Y00612902
X0103759Y00656082
X01030986Y00743458
X0103Y00758
X01093978Y00758952
X01106678Y0069215
X01143254Y00713994
X01176528Y00642874
X0106Y0052959
X0070358Y0079248
X00558292Y00669036
X00492506Y00657606
X00432562Y00593344
X00494538Y00806958
X01010412Y008001
T02
X00805Y0046873
Y0048673
Y0050473
T03
X013289Y00413
Y004415
Y0047
X014051
Y004415
Y00413
X009391Y0046835
X008629
X007681Y00808
X006919
T04
X00372Y004983
Y005237
X00358Y006356
Y00661
Y006864
Y007118
X004456Y00899
X00471
X00583348
X00608748
X00722
X007474
X008462Y00898492
X008716
X00897
X009224
X010552Y00889
X010806
X01106
X011314
T05
X01631Y00514
X016564
X016818
X017072
X017326
X01758
X01385Y00545
X013596
Y00726
X01385
X011362Y00606
X011108
X010854
X0106
X009536Y00569
X009282
X009028
X008774
X00852
X008266
X008012
Y007468
X008266
X00852
X008774
X009028
X009282
X009536
X01009Y00473
X01085
X007758Y00569
X007504
X00725
X006996
X006742
X006488
X006234
X00598
X005726
X005472
X005218
X004964
X00471
Y007468
X004964
X005218
X005472
X005726
X00598
X006234
X006488
X006742
X006996
X00725
X007504
X007758
X013596Y00907
X01385
T06
X005123Y00807
X006169
T07
X02091Y00548
Y00598
X01966
Y00548
T08
X010274Y005768
X011688
T09
X02069Y00451
X0189114Y0056209
X0152114
X01249Y0043
X00319
Y0098
X01249
X0152114Y0093209
X0189114
X02069Y00985
M30
