G04*
G04 #@! TF.GenerationSoftware,Altium Limited,Altium Designer,19.0.4 (130)*
G04*
G04 Layer_Color=2752767*
%FSLAX44Y44*%
%MOMM*%
G71*
G01*
G75*
%ADD79C,0.0508*%
%ADD80C,0.0677*%
%ADD81C,0.0339*%
D79*
X1057518Y646018D02*
Y650082D01*
X1061582D01*
Y646018D01*
X1057518D01*
X1082918D02*
Y650082D01*
X1086982D01*
Y646018D01*
X1082918D01*
X1108318D02*
Y650082D01*
X1112382D01*
Y646018D01*
X1108318D01*
X1133718D02*
Y650082D01*
X1137782D01*
Y646018D01*
X1133718D01*
X1159118D02*
Y650082D01*
X1163182D01*
Y646018D01*
X1159118D01*
X1039950Y973718D02*
X1037918Y977782D01*
X1041982D01*
X1039950Y973718D01*
X1065350D02*
X1063318Y977782D01*
X1067382D01*
X1065350Y973718D01*
X1090750D02*
X1088718Y977782D01*
X1092782D01*
X1090750Y973718D01*
X1116150D02*
X1114118Y977782D01*
X1118182D01*
X1116150Y973718D01*
X1141550D02*
X1139518Y977782D01*
X1143582D01*
X1141550Y973718D01*
X2069000Y448968D02*
X2070016Y449984D01*
X2071032D01*
X2070016Y451000D01*
X2071032Y452016D01*
X2070016D01*
X2069000Y453032D01*
X2067984Y452016D01*
X2066968D01*
X2067984Y451000D01*
X2066968Y449984D01*
X2067984D01*
X2069000Y448968D01*
Y982968D02*
X2070016Y983984D01*
X2071032D01*
X2070016Y985000D01*
X2071032Y986016D01*
X2070016D01*
X2069000Y987032D01*
X2067984Y986016D01*
X2066968D01*
X2067984Y985000D01*
X2066968Y983984D01*
X2067984D01*
X2069000Y982968D01*
X468968Y566968D02*
X469984Y569000D01*
X468968Y571032D01*
X471000Y570016D01*
X473032Y571032D01*
X472016Y569000D01*
X473032Y566968D01*
X471000Y567984D01*
X468968Y566968D01*
X494368D02*
X495384Y569000D01*
X494368Y571032D01*
X496400Y570016D01*
X498432Y571032D01*
X497416Y569000D01*
X498432Y566968D01*
X496400Y567984D01*
X494368Y566968D01*
X519768D02*
X520784Y569000D01*
X519768Y571032D01*
X521800Y570016D01*
X523832Y571032D01*
X522816Y569000D01*
X523832Y566968D01*
X521800Y567984D01*
X519768Y566968D01*
X545168D02*
X546184Y569000D01*
X545168Y571032D01*
X547200Y570016D01*
X549232Y571032D01*
X548216Y569000D01*
X549232Y566968D01*
X547200Y567984D01*
X545168Y566968D01*
X570568D02*
X571584Y569000D01*
X570568Y571032D01*
X572600Y570016D01*
X574632Y571032D01*
X573616Y569000D01*
X574632Y566968D01*
X572600Y567984D01*
X570568Y566968D01*
X595968D02*
X596984Y569000D01*
X595968Y571032D01*
X598000Y570016D01*
X600032Y571032D01*
X599016Y569000D01*
X600032Y566968D01*
X598000Y567984D01*
X595968Y566968D01*
X621368D02*
X622384Y569000D01*
X621368Y571032D01*
X623400Y570016D01*
X625432Y571032D01*
X624416Y569000D01*
X625432Y566968D01*
X623400Y567984D01*
X621368Y566968D01*
X646768D02*
X647784Y569000D01*
X646768Y571032D01*
X648800Y570016D01*
X650832Y571032D01*
X649816Y569000D01*
X650832Y566968D01*
X648800Y567984D01*
X646768Y566968D01*
X672168D02*
X673184Y569000D01*
X672168Y571032D01*
X674200Y570016D01*
X676232Y571032D01*
X675216Y569000D01*
X676232Y566968D01*
X674200Y567984D01*
X672168Y566968D01*
X697568D02*
X698584Y569000D01*
X697568Y571032D01*
X699600Y570016D01*
X701632Y571032D01*
X700616Y569000D01*
X701632Y566968D01*
X699600Y567984D01*
X697568Y566968D01*
X722968D02*
X723984Y569000D01*
X722968Y571032D01*
X725000Y570016D01*
X727032Y571032D01*
X726016Y569000D01*
X727032Y566968D01*
X725000Y567984D01*
X722968Y566968D01*
X748368D02*
X749384Y569000D01*
X748368Y571032D01*
X750400Y570016D01*
X752432Y571032D01*
X751416Y569000D01*
X752432Y566968D01*
X750400Y567984D01*
X748368Y566968D01*
X773768D02*
X774784Y569000D01*
X773768Y571032D01*
X775800Y570016D01*
X777832Y571032D01*
X776816Y569000D01*
X777832Y566968D01*
X775800Y567984D01*
X773768Y566968D01*
X799168D02*
X800184Y569000D01*
X799168Y571032D01*
X801200Y570016D01*
X803232Y571032D01*
X802216Y569000D01*
X803232Y566968D01*
X801200Y567984D01*
X799168Y566968D01*
X824568D02*
X825584Y569000D01*
X824568Y571032D01*
X826600Y570016D01*
X828632Y571032D01*
X827616Y569000D01*
X828632Y566968D01*
X826600Y567984D01*
X824568Y566968D01*
X849968D02*
X850984Y569000D01*
X849968Y571032D01*
X852000Y570016D01*
X854032Y571032D01*
X853016Y569000D01*
X854032Y566968D01*
X852000Y567984D01*
X849968Y566968D01*
X875368D02*
X876384Y569000D01*
X875368Y571032D01*
X877400Y570016D01*
X879432Y571032D01*
X878416Y569000D01*
X879432Y566968D01*
X877400Y567984D01*
X875368Y566968D01*
X900768D02*
X901784Y569000D01*
X900768Y571032D01*
X902800Y570016D01*
X904832Y571032D01*
X903816Y569000D01*
X904832Y566968D01*
X902800Y567984D01*
X900768Y566968D01*
X926168D02*
X927184Y569000D01*
X926168Y571032D01*
X928200Y570016D01*
X930232Y571032D01*
X929216Y569000D01*
X930232Y566968D01*
X928200Y567984D01*
X926168Y566968D01*
X951568D02*
X952584Y569000D01*
X951568Y571032D01*
X953600Y570016D01*
X955632Y571032D01*
X954616Y569000D01*
X955632Y566968D01*
X953600Y567984D01*
X951568Y566968D01*
X468968Y744768D02*
X469984Y746800D01*
X468968Y748832D01*
X471000Y747816D01*
X473032Y748832D01*
X472016Y746800D01*
X473032Y744768D01*
X471000Y745784D01*
X468968Y744768D01*
X494368D02*
X495384Y746800D01*
X494368Y748832D01*
X496400Y747816D01*
X498432Y748832D01*
X497416Y746800D01*
X498432Y744768D01*
X496400Y745784D01*
X494368Y744768D01*
X519768D02*
X520784Y746800D01*
X519768Y748832D01*
X521800Y747816D01*
X523832Y748832D01*
X522816Y746800D01*
X523832Y744768D01*
X521800Y745784D01*
X519768Y744768D01*
X545168D02*
X546184Y746800D01*
X545168Y748832D01*
X547200Y747816D01*
X549232Y748832D01*
X548216Y746800D01*
X549232Y744768D01*
X547200Y745784D01*
X545168Y744768D01*
X570568D02*
X571584Y746800D01*
X570568Y748832D01*
X572600Y747816D01*
X574632Y748832D01*
X573616Y746800D01*
X574632Y744768D01*
X572600Y745784D01*
X570568Y744768D01*
X595968D02*
X596984Y746800D01*
X595968Y748832D01*
X598000Y747816D01*
X600032Y748832D01*
X599016Y746800D01*
X600032Y744768D01*
X598000Y745784D01*
X595968Y744768D01*
X621368D02*
X622384Y746800D01*
X621368Y748832D01*
X623400Y747816D01*
X625432Y748832D01*
X624416Y746800D01*
X625432Y744768D01*
X623400Y745784D01*
X621368Y744768D01*
X646768D02*
X647784Y746800D01*
X646768Y748832D01*
X648800Y747816D01*
X650832Y748832D01*
X649816Y746800D01*
X650832Y744768D01*
X648800Y745784D01*
X646768Y744768D01*
X672168D02*
X673184Y746800D01*
X672168Y748832D01*
X674200Y747816D01*
X676232Y748832D01*
X675216Y746800D01*
X676232Y744768D01*
X674200Y745784D01*
X672168Y744768D01*
X697568D02*
X698584Y746800D01*
X697568Y748832D01*
X699600Y747816D01*
X701632Y748832D01*
X700616Y746800D01*
X701632Y744768D01*
X699600Y745784D01*
X697568Y744768D01*
X722968D02*
X723984Y746800D01*
X722968Y748832D01*
X725000Y747816D01*
X727032Y748832D01*
X726016Y746800D01*
X727032Y744768D01*
X725000Y745784D01*
X722968Y744768D01*
X748368D02*
X749384Y746800D01*
X748368Y748832D01*
X750400Y747816D01*
X752432Y748832D01*
X751416Y746800D01*
X752432Y744768D01*
X750400Y745784D01*
X748368Y744768D01*
X773768D02*
X774784Y746800D01*
X773768Y748832D01*
X775800Y747816D01*
X777832Y748832D01*
X776816Y746800D01*
X777832Y744768D01*
X775800Y745784D01*
X773768Y744768D01*
X799168D02*
X800184Y746800D01*
X799168Y748832D01*
X801200Y747816D01*
X803232Y748832D01*
X802216Y746800D01*
X803232Y744768D01*
X801200Y745784D01*
X799168Y744768D01*
X824568D02*
X825584Y746800D01*
X824568Y748832D01*
X826600Y747816D01*
X828632Y748832D01*
X827616Y746800D01*
X828632Y744768D01*
X826600Y745784D01*
X824568Y744768D01*
X849968D02*
X850984Y746800D01*
X849968Y748832D01*
X852000Y747816D01*
X854032Y748832D01*
X853016Y746800D01*
X854032Y744768D01*
X852000Y745784D01*
X849968Y744768D01*
X875368D02*
X876384Y746800D01*
X875368Y748832D01*
X877400Y747816D01*
X879432Y748832D01*
X878416Y746800D01*
X879432Y744768D01*
X877400Y745784D01*
X875368Y744768D01*
X900768D02*
X901784Y746800D01*
X900768Y748832D01*
X902800Y747816D01*
X904832Y748832D01*
X903816Y746800D01*
X904832Y744768D01*
X902800Y745784D01*
X900768Y744768D01*
X926168D02*
X927184Y746800D01*
X926168Y748832D01*
X928200Y747816D01*
X930232Y748832D01*
X929216Y746800D01*
X930232Y744768D01*
X928200Y745784D01*
X926168Y744768D01*
X951568D02*
X952584Y746800D01*
X951568Y748832D01*
X953600Y747816D01*
X955632Y748832D01*
X954616Y746800D01*
X955632Y744768D01*
X953600Y745784D01*
X951568Y744768D01*
X861884Y467334D02*
Y466318D01*
X863916D01*
Y467334D01*
X864932D01*
Y469366D01*
X863916D01*
Y470382D01*
X861884D01*
Y469366D01*
X860868D01*
Y467334D01*
X861884D01*
X938084D02*
Y466318D01*
X940116D01*
Y467334D01*
X941132D01*
Y469366D01*
X940116D01*
Y470382D01*
X938084D01*
Y469366D01*
X937068D01*
Y467334D01*
X938084D01*
X1404084Y411984D02*
Y410968D01*
X1406116D01*
Y411984D01*
X1407132D01*
Y414016D01*
X1406116D01*
Y415032D01*
X1404084D01*
Y414016D01*
X1403068D01*
Y411984D01*
X1404084D01*
X1327884D02*
Y410968D01*
X1329916D01*
Y411984D01*
X1330932D01*
Y414016D01*
X1329916D01*
Y415032D01*
X1327884D01*
Y414016D01*
X1326868D01*
Y411984D01*
X1327884D01*
X1404084Y440484D02*
Y439468D01*
X1406116D01*
Y440484D01*
X1407132D01*
Y442516D01*
X1406116D01*
Y443532D01*
X1404084D01*
Y442516D01*
X1403068D01*
Y440484D01*
X1404084D01*
X1327884D02*
Y439468D01*
X1329916D01*
Y440484D01*
X1330932D01*
Y442516D01*
X1329916D01*
Y443532D01*
X1327884D01*
Y442516D01*
X1326868D01*
Y440484D01*
X1327884D01*
X767084Y806984D02*
Y805968D01*
X769116D01*
Y806984D01*
X770132D01*
Y809016D01*
X769116D01*
Y810032D01*
X767084D01*
Y809016D01*
X766068D01*
Y806984D01*
X767084D01*
X690884D02*
Y805968D01*
X692916D01*
Y806984D01*
X693932D01*
Y809016D01*
X692916D01*
Y810032D01*
X690884D01*
Y809016D01*
X689868D01*
Y806984D01*
X690884D01*
X1404084Y468984D02*
Y467968D01*
X1406116D01*
Y468984D01*
X1407132D01*
Y471016D01*
X1406116D01*
Y472032D01*
X1404084D01*
Y471016D01*
X1403068D01*
Y468984D01*
X1404084D01*
X1327884D02*
Y467968D01*
X1329916D01*
Y468984D01*
X1330932D01*
Y471016D01*
X1329916D01*
Y472032D01*
X1327884D01*
Y471016D01*
X1326868D01*
Y468984D01*
X1327884D01*
X1006968Y470968D02*
X1007984Y473000D01*
X1006968Y475032D01*
X1009000Y474016D01*
X1011032Y475032D01*
X1010016Y473000D01*
X1011032Y470968D01*
X1009000Y471984D01*
X1006968Y470968D01*
X1082968D02*
X1083984Y473000D01*
X1082968Y475032D01*
X1085000Y474016D01*
X1087032Y475032D01*
X1086016Y473000D01*
X1087032Y470968D01*
X1085000Y471984D01*
X1082968Y470968D01*
X358000Y709768D02*
X355968Y713832D01*
X360032D01*
X358000Y709768D01*
Y684368D02*
X355968Y688432D01*
X360032D01*
X358000Y684368D01*
Y658968D02*
X355968Y663032D01*
X360032D01*
X358000Y658968D01*
Y633568D02*
X355968Y637632D01*
X360032D01*
X358000Y633568D01*
X1628968Y511968D02*
X1629984Y514000D01*
X1628968Y516032D01*
X1631000Y515016D01*
X1633032Y516032D01*
X1632016Y514000D01*
X1633032Y511968D01*
X1631000Y512984D01*
X1628968Y511968D01*
X1521140Y930058D02*
X1522156Y931074D01*
X1523172D01*
X1522156Y932090D01*
X1523172Y933106D01*
X1522156D01*
X1521140Y934122D01*
X1520124Y933106D01*
X1519108D01*
X1520124Y932090D01*
X1519108Y931074D01*
X1520124D01*
X1521140Y930058D01*
X1891140D02*
X1892156Y931074D01*
X1893172D01*
X1892156Y932090D01*
X1893172Y933106D01*
X1892156D01*
X1891140Y934122D01*
X1890124Y933106D01*
X1889108D01*
X1890124Y932090D01*
X1889108Y931074D01*
X1890124D01*
X1891140Y930058D01*
X1521140Y560058D02*
X1522156Y561074D01*
X1523172D01*
X1522156Y562090D01*
X1523172Y563106D01*
X1522156D01*
X1521140Y564122D01*
X1520124Y563106D01*
X1519108D01*
X1520124Y562090D01*
X1519108Y561074D01*
X1520124D01*
X1521140Y560058D01*
X1891140D02*
X1892156Y561074D01*
X1893172D01*
X1892156Y562090D01*
X1893172Y563106D01*
X1892156D01*
X1891140Y564122D01*
X1890124Y563106D01*
X1889108D01*
X1890124Y562090D01*
X1889108Y561074D01*
X1890124D01*
X1891140Y560058D01*
X1755968Y511968D02*
X1756984Y514000D01*
X1755968Y516032D01*
X1758000Y515016D01*
X1760032Y516032D01*
X1759016Y514000D01*
X1760032Y511968D01*
X1758000Y512984D01*
X1755968Y511968D01*
X1730568D02*
X1731584Y514000D01*
X1730568Y516032D01*
X1732600Y515016D01*
X1734632Y516032D01*
X1733616Y514000D01*
X1734632Y511968D01*
X1732600Y512984D01*
X1730568Y511968D01*
X1705168D02*
X1706184Y514000D01*
X1705168Y516032D01*
X1707200Y515016D01*
X1709232Y516032D01*
X1708216Y514000D01*
X1709232Y511968D01*
X1707200Y512984D01*
X1705168Y511968D01*
X1679768D02*
X1680784Y514000D01*
X1679768Y516032D01*
X1681800Y515016D01*
X1683832Y516032D01*
X1682816Y514000D01*
X1683832Y511968D01*
X1681800Y512984D01*
X1679768Y511968D01*
X1654368D02*
X1655384Y514000D01*
X1654368Y516032D01*
X1656400Y515016D01*
X1658432Y516032D01*
X1657416Y514000D01*
X1658432Y511968D01*
X1656400Y512984D01*
X1654368Y511968D01*
X1963968Y595968D02*
X1964984D01*
X1966000Y596984D01*
X1967016Y595968D01*
X1968032D01*
Y596984D01*
X1967016Y598000D01*
X1968032Y599016D01*
Y600032D01*
X1967016D01*
X1966000Y599016D01*
X1964984Y600032D01*
X1963968D01*
Y599016D01*
X1964984Y598000D01*
X1963968Y596984D01*
Y595968D01*
X2088968D02*
X2089984D01*
X2091000Y596984D01*
X2092016Y595968D01*
X2093032D01*
Y596984D01*
X2092016Y598000D01*
X2093032Y599016D01*
Y600032D01*
X2092016D01*
X2091000Y599016D01*
X2089984Y600032D01*
X2088968D01*
Y599016D01*
X2089984Y598000D01*
X2088968Y596984D01*
Y595968D01*
Y545968D02*
X2089984D01*
X2091000Y546984D01*
X2092016Y545968D01*
X2093032D01*
Y546984D01*
X2092016Y548000D01*
X2093032Y549016D01*
Y550032D01*
X2092016D01*
X2091000Y549016D01*
X2089984Y550032D01*
X2088968D01*
Y549016D01*
X2089984Y548000D01*
X2088968Y546984D01*
Y545968D01*
X1963968D02*
X1964984D01*
X1966000Y546984D01*
X1967016Y545968D01*
X1968032D01*
Y546984D01*
X1967016Y548000D01*
X1968032Y549016D01*
Y550032D01*
X1967016D01*
X1966000Y549016D01*
X1964984Y550032D01*
X1963968D01*
Y549016D01*
X1964984Y548000D01*
X1963968Y546984D01*
Y545968D01*
X1357568Y542968D02*
X1358584Y545000D01*
X1357568Y547032D01*
X1359600Y546016D01*
X1361632Y547032D01*
X1360616Y545000D01*
X1361632Y542968D01*
X1359600Y543984D01*
X1357568Y542968D01*
X1382968D02*
X1383984Y545000D01*
X1382968Y547032D01*
X1385000Y546016D01*
X1387032Y547032D01*
X1386016Y545000D01*
X1387032Y542968D01*
X1385000Y543984D01*
X1382968Y542968D01*
X1357568Y723968D02*
X1358584Y726000D01*
X1357568Y728032D01*
X1359600Y727016D01*
X1361632Y728032D01*
X1360616Y726000D01*
X1361632Y723968D01*
X1359600Y724984D01*
X1357568Y723968D01*
X1382968D02*
X1383984Y726000D01*
X1382968Y728032D01*
X1385000Y727016D01*
X1387032Y728032D01*
X1386016Y726000D01*
X1387032Y723968D01*
X1385000Y724984D01*
X1382968Y723968D01*
X1357568Y904968D02*
X1358584Y907000D01*
X1357568Y909032D01*
X1359600Y908016D01*
X1361632Y909032D01*
X1360616Y907000D01*
X1361632Y904968D01*
X1359600Y905984D01*
X1357568Y904968D01*
X1382968D02*
X1383984Y907000D01*
X1382968Y909032D01*
X1385000Y908016D01*
X1387032Y909032D01*
X1386016Y907000D01*
X1387032Y904968D01*
X1385000Y905984D01*
X1382968Y904968D01*
X510268Y807000D02*
X512300Y809032D01*
X514332Y807000D01*
X512300Y804968D01*
X510268Y807000D01*
X614868D02*
X616900Y809032D01*
X618932Y807000D01*
X616900Y804968D01*
X614868Y807000D01*
X802968Y502698D02*
Y506762D01*
X807032D01*
Y502698D01*
X802968D01*
X803984Y503714D02*
Y505746D01*
X806016D01*
Y503714D01*
X803984D01*
X802968Y484698D02*
Y488762D01*
X807032D01*
Y484698D01*
X802968D01*
X803984Y485714D02*
Y487746D01*
X806016D01*
Y485714D01*
X803984D01*
X802968Y466698D02*
Y470762D01*
X807032D01*
Y466698D01*
X802968D01*
X803984Y467714D02*
Y469746D01*
X806016D01*
Y467714D01*
X803984D01*
X1249000Y427968D02*
X1250016Y428984D01*
X1251032D01*
X1250016Y430000D01*
X1251032Y431016D01*
X1250016D01*
X1249000Y432032D01*
X1247984Y431016D01*
X1246968D01*
X1247984Y430000D01*
X1246968Y428984D01*
X1247984D01*
X1249000Y427968D01*
Y977968D02*
X1250016Y978984D01*
X1251032D01*
X1250016Y980000D01*
X1251032Y981016D01*
X1250016D01*
X1249000Y982032D01*
X1247984Y981016D01*
X1246968D01*
X1247984Y980000D01*
X1246968Y978984D01*
X1247984D01*
X1249000Y977968D01*
X319000D02*
X320016Y978984D01*
X321032D01*
X320016Y980000D01*
X321032Y981016D01*
X320016D01*
X319000Y982032D01*
X317984Y981016D01*
X316968D01*
X317984Y980000D01*
X316968Y978984D01*
X317984D01*
X319000Y977968D01*
Y427968D02*
X320016Y428984D01*
X321032D01*
X320016Y430000D01*
X321032Y431016D01*
X320016D01*
X319000Y432032D01*
X317984Y431016D01*
X316968D01*
X317984Y430000D01*
X316968Y428984D01*
X317984D01*
X319000Y427968D01*
X445600Y896968D02*
X443568Y901032D01*
X447632D01*
X445600Y896968D01*
X471000D02*
X468968Y901032D01*
X473032D01*
X471000Y896968D01*
X583348D02*
X581316Y901032D01*
X585380D01*
X583348Y896968D01*
X608748D02*
X606716Y901032D01*
X610780D01*
X608748Y896968D01*
X722000D02*
X719968Y901032D01*
X724032D01*
X722000Y896968D01*
X747400D02*
X745368Y901032D01*
X749432D01*
X747400Y896968D01*
X372000Y496268D02*
X369968Y500332D01*
X374032D01*
X372000Y496268D01*
Y521668D02*
X369968Y525732D01*
X374032D01*
X372000Y521668D01*
X846200Y896460D02*
X844168Y900524D01*
X848232D01*
X846200Y896460D01*
X871600D02*
X869568Y900524D01*
X873632D01*
X871600Y896460D01*
X897000D02*
X894968Y900524D01*
X899032D01*
X897000Y896460D01*
X922400D02*
X920368Y900524D01*
X924432D01*
X922400Y896460D01*
D80*
X1201282Y660750D02*
G03*
X1201282Y660750I-2032J0D01*
G01*
Y914750D02*
G03*
X1201282Y914750I-2032J0D01*
G01*
X1023482Y660750D02*
G03*
X1023482Y660750I-2032J0D01*
G01*
Y914750D02*
G03*
X1023482Y914750I-2032J0D01*
G01*
X452532Y715250D02*
G03*
X452532Y715250I-2032J0D01*
G01*
X453532Y661750D02*
G03*
X453532Y661750I-2032J0D01*
G01*
X1040782Y724750D02*
G03*
X1040782Y724750I-2032J0D01*
G01*
X1137032Y617500D02*
G03*
X1137032Y617500I-2032J0D01*
G01*
X1071051Y608000D02*
G03*
X1071051Y608000I-2032J0D01*
G01*
X974782Y686250D02*
G03*
X974782Y686250I-2032J0D01*
G01*
X1102782Y680250D02*
G03*
X1102782Y680250I-2032J0D01*
G01*
X1215532Y705250D02*
G03*
X1215532Y705250I-2032J0D01*
G01*
X1154782Y758309D02*
G03*
X1154782Y758309I-2032J0D01*
G01*
X735032Y507250D02*
G03*
X735032Y507250I-2032J0D01*
G01*
X744433Y661250D02*
G03*
X744433Y661250I-2032J0D01*
G01*
X1209282Y823500D02*
G03*
X1209282Y823500I-2032J0D01*
G01*
X718532Y815750D02*
G03*
X718532Y815750I-2032J0D01*
G01*
X1138782Y769250D02*
G03*
X1138782Y769250I-2032J0D01*
G01*
X541532Y728000D02*
G03*
X541532Y728000I-2032J0D01*
G01*
X495782Y523750D02*
G03*
X495782Y523750I-2032J0D01*
G01*
X493031Y661999D02*
G03*
X493031Y661999I-2032J0D01*
G01*
X987032Y579386D02*
G03*
X987032Y579386I-2032J0D01*
G01*
X1034032Y620000D02*
G03*
X1034032Y620000I-2032J0D01*
G01*
X987032Y526000D02*
G03*
X987032Y526000I-2032J0D01*
G01*
X434594Y593344D02*
G03*
X434594Y593344I-2032J0D01*
G01*
X973582Y590296D02*
G03*
X973582Y590296I-2032J0D01*
G01*
X1082507Y776250D02*
G03*
X1082507Y776250I-2032J0D01*
G01*
X538480Y666242D02*
G03*
X538480Y666242I-2032J0D01*
G01*
D81*
X451516Y715250D02*
G03*
X451516Y715250I-1016J0D01*
G01*
X452516Y661750D02*
G03*
X452516Y661750I-1016J0D01*
G01*
X1039766Y724750D02*
G03*
X1039766Y724750I-1016J0D01*
G01*
X1136016Y617500D02*
G03*
X1136016Y617500I-1016J0D01*
G01*
X1070035Y608000D02*
G03*
X1070035Y608000I-1016J0D01*
G01*
X973766Y686250D02*
G03*
X973766Y686250I-1016J0D01*
G01*
X1101766Y680250D02*
G03*
X1101766Y680250I-1016J0D01*
G01*
X1214516Y705250D02*
G03*
X1214516Y705250I-1016J0D01*
G01*
X1153766Y758309D02*
G03*
X1153766Y758309I-1016J0D01*
G01*
X734016Y507250D02*
G03*
X734016Y507250I-1016J0D01*
G01*
X743417Y661250D02*
G03*
X743417Y661250I-1016J0D01*
G01*
X1208266Y823500D02*
G03*
X1208266Y823500I-1016J0D01*
G01*
X717516Y815750D02*
G03*
X717516Y815750I-1016J0D01*
G01*
X1137766Y769250D02*
G03*
X1137766Y769250I-1016J0D01*
G01*
X540516Y728000D02*
G03*
X540516Y728000I-1016J0D01*
G01*
X494766Y523750D02*
G03*
X494766Y523750I-1016J0D01*
G01*
X492015Y661999D02*
G03*
X492015Y661999I-1016J0D01*
G01*
X986016Y579386D02*
G03*
X986016Y579386I-1016J0D01*
G01*
X1033016Y620000D02*
G03*
X1033016Y620000I-1016J0D01*
G01*
X986016Y526000D02*
G03*
X986016Y526000I-1016J0D01*
G01*
X433578Y593344D02*
G03*
X433578Y593344I-1016J0D01*
G01*
X972566Y590296D02*
G03*
X972566Y590296I-1016J0D01*
G01*
X1081491Y776250D02*
G03*
X1081491Y776250I-1016J0D01*
G01*
X537464Y666242D02*
G03*
X537464Y666242I-1016J0D01*
G01*
M02*
