G04*
G04 #@! TF.GenerationSoftware,Altium Limited,Altium Designer,19.0.4 (130)*
G04*
G04 Layer_Color=2752767*
%FSLAX44Y44*%
%MOMM*%
G71*
G01*
G75*
%ADD12C,0.2540*%
%ADD84C,0.0508*%
%ADD85C,0.3810*%
%ADD86C,0.4064*%
D12*
X2209025Y494902D02*
G03*
X2209025Y494902I-8467J0D01*
G01*
X2200559Y791235D02*
X2209025Y808168D01*
X2192092D02*
X2209025D01*
X2192092D02*
X2200559Y791235D01*
X2192092Y757368D02*
X2196325D01*
X2192092D02*
Y765835D01*
X2196325D01*
Y770068D01*
X2204792D01*
Y765835D02*
Y770068D01*
Y765835D02*
X2209025D01*
Y757368D02*
Y765835D01*
X2204792Y757368D02*
X2209025D01*
X2204792Y753135D02*
Y757368D01*
X2196325Y753135D02*
X2204792D01*
X2196325D02*
Y757368D01*
Y719268D02*
X2200559Y715035D01*
X2192092Y719268D02*
X2196325D01*
X2192092D02*
X2196325Y723502D01*
X2192092Y727735D02*
X2196325Y723502D01*
X2192092Y727735D02*
X2196325D01*
X2200559Y731968D01*
X2204792Y727735D01*
X2209025D01*
X2204792Y723502D02*
X2209025Y727735D01*
X2204792Y723502D02*
X2209025Y719268D01*
X2204792D02*
X2209025D01*
X2200559Y715035D02*
X2204792Y719268D01*
X2192092Y676935D02*
Y681168D01*
X2196325Y685402D01*
X2192092Y689635D02*
X2196325Y685402D01*
X2192092Y689635D02*
Y693868D01*
X2196325D01*
X2200559Y689635D01*
X2204792Y693868D01*
X2209025D01*
Y689635D02*
Y693868D01*
X2204792Y685402D02*
X2209025Y689635D01*
X2204792Y685402D02*
X2209025Y681168D01*
Y676935D02*
Y681168D01*
X2204792Y676935D02*
X2209025D01*
X2200559Y681168D02*
X2204792Y676935D01*
X2196325D02*
X2200559Y681168D01*
X2192092Y676935D02*
X2196325D01*
X2192092Y638835D02*
X2200559Y643068D01*
X2209025Y638835D01*
X2204792Y647302D02*
X2209025Y638835D01*
X2204792Y647302D02*
X2209025Y655768D01*
X2200559Y651535D02*
X2209025Y655768D01*
X2192092D02*
X2200559Y651535D01*
X2192092Y655768D02*
X2196325Y647302D01*
X2192092Y638835D02*
X2196325Y647302D01*
X2195479Y604122D02*
X2205639D01*
Y614282D01*
X2195479D02*
X2205639D01*
X2195479Y604122D02*
Y614282D01*
X2192092Y600735D02*
X2209025D01*
Y617668D01*
X2192092D02*
X2209025D01*
X2192092Y600735D02*
Y617668D01*
Y571102D02*
X2200559Y562635D01*
X2209025Y571102D01*
X2200559Y579568D02*
X2209025Y571102D01*
X2192092D02*
X2200559Y579568D01*
X2192092Y524535D02*
X2209025D01*
Y541468D01*
X2192092D02*
X2209025D01*
X2192092Y524535D02*
Y541468D01*
X3810189Y791235D02*
X3805111Y796313D01*
Y801392D01*
X3810189Y806470D01*
X3817807Y791235D02*
Y806470D01*
X3822885Y801392D01*
X3827963Y806470D01*
Y791235D01*
X3833042D02*
X3838120D01*
X3835581D01*
Y801392D01*
X3833042D01*
X3845738D02*
X3855894Y791235D01*
X3850816Y796313D01*
X3855894Y801392D01*
X3845738Y791235D01*
X3868590D02*
X3863512D01*
X3860973Y793774D01*
Y798852D01*
X3863512Y801392D01*
X3868590D01*
X3871129Y798852D01*
Y796313D01*
X3860973D01*
X3886364Y806470D02*
Y791235D01*
X3878747D01*
X3876208Y793774D01*
Y798852D01*
X3878747Y801392D01*
X3886364D01*
X3891443Y791235D02*
X3896521Y796313D01*
Y801392D01*
X3891443Y806470D01*
X3815268Y763292D02*
X3807650D01*
X3805111Y760752D01*
Y755674D01*
X3807650Y753135D01*
X3815268D01*
X3820346Y765831D02*
X3822885Y768370D01*
X3827963D01*
X3830503Y765831D01*
Y763292D01*
X3827963Y760752D01*
X3825424D01*
X3827963D01*
X3830503Y758213D01*
Y755674D01*
X3827963Y753135D01*
X3822885D01*
X3820346Y755674D01*
X3845738Y753135D02*
X3835581D01*
X3845738Y763292D01*
Y765831D01*
X3843199Y768370D01*
X3838120D01*
X3835581Y765831D01*
X3850816D02*
X3853355Y768370D01*
X3858434D01*
X3860973Y765831D01*
Y755674D01*
X3858434Y753135D01*
X3853355D01*
X3850816Y755674D01*
Y765831D01*
X3866051Y768370D02*
Y753135D01*
Y760752D01*
X3868590Y763292D01*
X3873669D01*
X3876208Y760752D01*
Y753135D01*
X3881286Y765831D02*
X3883825Y768370D01*
X3888904D01*
X3891443Y765831D01*
Y763292D01*
X3888904Y760752D01*
X3886364D01*
X3888904D01*
X3891443Y758213D01*
Y755674D01*
X3888904Y753135D01*
X3883825D01*
X3881286Y755674D01*
X3906678Y753135D02*
X3896521D01*
X3906678Y763292D01*
Y765831D01*
X3904139Y768370D01*
X3899060D01*
X3896521Y765831D01*
X3911756D02*
X3914295Y768370D01*
X3919374D01*
X3921913Y765831D01*
Y755674D01*
X3919374Y753135D01*
X3914295D01*
X3911756Y755674D01*
Y765831D01*
X3810189Y715035D02*
X3805111Y720113D01*
Y725192D01*
X3810189Y730270D01*
X3817807Y715035D02*
Y730270D01*
X3822885Y725192D01*
X3827963Y730270D01*
Y715035D01*
X3833042D02*
X3838120D01*
X3835581D01*
Y725192D01*
X3833042D01*
X3845738D02*
X3855894Y715035D01*
X3850816Y720113D01*
X3855894Y725192D01*
X3845738Y715035D01*
X3868590D02*
X3863512D01*
X3860973Y717574D01*
Y722653D01*
X3863512Y725192D01*
X3868590D01*
X3871129Y722653D01*
Y720113D01*
X3860973D01*
X3886364Y730270D02*
Y715035D01*
X3878747D01*
X3876208Y717574D01*
Y722653D01*
X3878747Y725192D01*
X3886364D01*
X3891443Y715035D02*
X3896521Y720113D01*
Y725192D01*
X3891443Y730270D01*
X3815268Y687092D02*
X3807650D01*
X3805111Y684553D01*
Y679474D01*
X3807650Y676935D01*
X3815268D01*
X3830503D02*
X3820346D01*
X3830503Y687092D01*
Y689631D01*
X3827963Y692170D01*
X3822885D01*
X3820346Y689631D01*
X3845738Y692170D02*
X3835581D01*
Y684553D01*
X3840659Y687092D01*
X3843199D01*
X3845738Y684553D01*
Y679474D01*
X3843199Y676935D01*
X3838120D01*
X3835581Y679474D01*
X3850816Y689631D02*
X3853355Y692170D01*
X3858434D01*
X3860973Y689631D01*
Y679474D01*
X3858434Y676935D01*
X3853355D01*
X3850816Y679474D01*
Y689631D01*
X3866051Y692170D02*
Y676935D01*
Y684553D01*
X3868590Y687092D01*
X3873669D01*
X3876208Y684553D01*
Y676935D01*
X3881286D02*
X3886364D01*
X3883825D01*
Y692170D01*
X3881286Y689631D01*
X3904139Y692170D02*
X3893982D01*
Y684553D01*
X3899060Y687092D01*
X3901599D01*
X3904139Y684553D01*
Y679474D01*
X3901599Y676935D01*
X3896521D01*
X3893982Y679474D01*
X3909217Y689631D02*
X3911756Y692170D01*
X3916835D01*
X3919374Y689631D01*
Y679474D01*
X3916835Y676935D01*
X3911756D01*
X3909217Y679474D01*
Y689631D01*
X3815268Y648992D02*
X3807650D01*
X3805111Y646452D01*
Y641374D01*
X3807650Y638835D01*
X3815268D01*
X3820346D02*
X3825424D01*
X3822885D01*
Y654070D01*
X3820346Y651531D01*
X3840659Y638835D02*
Y654070D01*
X3833042Y646452D01*
X3843199D01*
X3848277Y651531D02*
X3850816Y654070D01*
X3855894D01*
X3858434Y651531D01*
Y641374D01*
X3855894Y638835D01*
X3850816D01*
X3848277Y641374D01*
Y651531D01*
X3863512Y654070D02*
Y638835D01*
Y646452D01*
X3866051Y648992D01*
X3871129D01*
X3873669Y646452D01*
Y638835D01*
X3878747Y651531D02*
X3881286Y654070D01*
X3886364D01*
X3888904Y651531D01*
Y648992D01*
X3886364Y646452D01*
X3888904Y643913D01*
Y641374D01*
X3886364Y638835D01*
X3881286D01*
X3878747Y641374D01*
Y643913D01*
X3881286Y646452D01*
X3878747Y648992D01*
Y651531D01*
X3881286Y646452D02*
X3886364D01*
X3904139Y654070D02*
X3893982D01*
Y646452D01*
X3899060Y648992D01*
X3901599D01*
X3904139Y646452D01*
Y641374D01*
X3901599Y638835D01*
X3896521D01*
X3893982Y641374D01*
X3810189Y600735D02*
X3805111Y605813D01*
Y610892D01*
X3810189Y615970D01*
X3817807Y600735D02*
Y615970D01*
X3822885Y610892D01*
X3827963Y615970D01*
Y600735D01*
X3833042D02*
X3838120D01*
X3835581D01*
Y610892D01*
X3833042D01*
X3845738D02*
X3855894Y600735D01*
X3850816Y605813D01*
X3855894Y610892D01*
X3845738Y600735D01*
X3868590D02*
X3863512D01*
X3860973Y603274D01*
Y608353D01*
X3863512Y610892D01*
X3868590D01*
X3871129Y608353D01*
Y605813D01*
X3860973D01*
X3886364Y615970D02*
Y600735D01*
X3878747D01*
X3876208Y603274D01*
Y608353D01*
X3878747Y610892D01*
X3886364D01*
X3891443Y600735D02*
X3896521Y605813D01*
Y610892D01*
X3891443Y615970D01*
X3805111Y572792D02*
X3810189Y562635D01*
X3815268Y572792D01*
X3820346Y575331D02*
X3822885Y577870D01*
X3827963D01*
X3830503Y575331D01*
Y572792D01*
X3827963Y570252D01*
X3830503Y567713D01*
Y565174D01*
X3827963Y562635D01*
X3822885D01*
X3820346Y565174D01*
Y567713D01*
X3822885Y570252D01*
X3820346Y572792D01*
Y575331D01*
X3822885Y570252D02*
X3827963D01*
X3835581Y575331D02*
X3838120Y577870D01*
X3843199D01*
X3845738Y575331D01*
Y565174D01*
X3843199Y562635D01*
X3838120D01*
X3835581Y565174D01*
Y575331D01*
X3850816Y577870D02*
Y562635D01*
Y570252D01*
X3853355Y572792D01*
X3858434D01*
X3860973Y570252D01*
Y562635D01*
X3876208Y577870D02*
X3866051D01*
Y570252D01*
X3871129Y572792D01*
X3873669D01*
X3876208Y570252D01*
Y565174D01*
X3873669Y562635D01*
X3868590D01*
X3866051Y565174D01*
X3881286Y575331D02*
X3883825Y577870D01*
X3888904D01*
X3891443Y575331D01*
Y565174D01*
X3888904Y562635D01*
X3883825D01*
X3881286Y565174D01*
Y575331D01*
X3896521Y562635D02*
Y572792D01*
X3899060D01*
X3901599Y570252D01*
Y562635D01*
Y570252D01*
X3904139Y572792D01*
X3906678Y570252D01*
Y562635D01*
X3911756Y575331D02*
X3914295Y577870D01*
X3919374D01*
X3921913Y575331D01*
Y565174D01*
X3919374Y562635D01*
X3914295D01*
X3911756Y565174D01*
Y575331D01*
X3926991Y562635D02*
Y572792D01*
X3929531D01*
X3932070Y570252D01*
Y562635D01*
Y570252D01*
X3934609Y572792D01*
X3937148Y570252D01*
Y562635D01*
X3942226Y572792D02*
X3952383Y562635D01*
X3947305Y567713D01*
X3952383Y572792D01*
X3942226Y562635D01*
X3957462Y575331D02*
X3960001Y577870D01*
X3965079D01*
X3967618Y575331D01*
Y565174D01*
X3965079Y562635D01*
X3960001D01*
X3957462Y565174D01*
Y575331D01*
X3810189Y524535D02*
X3805111Y529613D01*
Y534692D01*
X3810189Y539770D01*
X3817807Y524535D02*
Y539770D01*
X3822885Y534692D01*
X3827963Y539770D01*
Y524535D01*
X3833042D02*
X3838120D01*
X3835581D01*
Y534692D01*
X3833042D01*
X3845738D02*
X3855894Y524535D01*
X3850816Y529613D01*
X3855894Y534692D01*
X3845738Y524535D01*
X3868590D02*
X3863512D01*
X3860973Y527074D01*
Y532152D01*
X3863512Y534692D01*
X3868590D01*
X3871129Y532152D01*
Y529613D01*
X3860973D01*
X3886364Y539770D02*
Y524535D01*
X3878747D01*
X3876208Y527074D01*
Y532152D01*
X3878747Y534692D01*
X3886364D01*
X3891443Y524535D02*
X3896521Y529613D01*
Y534692D01*
X3891443Y539770D01*
X3810189Y486435D02*
X3805111Y491513D01*
Y496592D01*
X3810189Y501670D01*
X3817807Y486435D02*
Y501670D01*
X3822885Y496592D01*
X3827963Y501670D01*
Y486435D01*
X3833042D02*
X3838120D01*
X3835581D01*
Y496592D01*
X3833042D01*
X3845738D02*
X3855894Y486435D01*
X3850816Y491513D01*
X3855894Y496592D01*
X3845738Y486435D01*
X3868590D02*
X3863512D01*
X3860973Y488974D01*
Y494053D01*
X3863512Y496592D01*
X3868590D01*
X3871129Y494053D01*
Y491513D01*
X3860973D01*
X3886364Y501670D02*
Y486435D01*
X3878747D01*
X3876208Y488974D01*
Y494053D01*
X3878747Y496592D01*
X3886364D01*
X3891443Y486435D02*
X3896521Y491513D01*
Y496592D01*
X3891443Y501670D01*
X3620757Y791235D02*
X3615678Y796313D01*
Y801392D01*
X3620757Y806470D01*
X3628374Y791235D02*
Y806470D01*
X3633452Y801392D01*
X3638531Y806470D01*
Y791235D01*
X3643609D02*
X3648687D01*
X3646148D01*
Y801392D01*
X3643609D01*
X3656305D02*
X3666461Y791235D01*
X3661383Y796313D01*
X3666461Y801392D01*
X3656305Y791235D01*
X3679157D02*
X3674079D01*
X3671540Y793774D01*
Y798852D01*
X3674079Y801392D01*
X3679157D01*
X3681697Y798852D01*
Y796313D01*
X3671540D01*
X3696932Y806470D02*
Y791235D01*
X3689314D01*
X3686775Y793774D01*
Y798852D01*
X3689314Y801392D01*
X3696932D01*
X3702010Y791235D02*
X3707088Y796313D01*
Y801392D01*
X3702010Y806470D01*
X3615678Y753135D02*
Y768370D01*
X3623296D01*
X3625835Y765831D01*
Y760752D01*
X3623296Y758213D01*
X3615678D01*
X3620757D02*
X3625835Y753135D01*
X3633452D02*
X3638531D01*
X3641070Y755674D01*
Y760752D01*
X3638531Y763292D01*
X3633452D01*
X3630913Y760752D01*
Y755674D01*
X3633452Y753135D01*
X3646148Y763292D02*
Y755674D01*
X3648687Y753135D01*
X3656305D01*
Y763292D01*
X3661383Y753135D02*
Y763292D01*
X3669001D01*
X3671540Y760752D01*
Y753135D01*
X3686775Y768370D02*
Y753135D01*
X3679157D01*
X3676618Y755674D01*
Y760752D01*
X3679157Y763292D01*
X3686775D01*
X3699471Y753135D02*
X3694393D01*
X3691853Y755674D01*
Y760752D01*
X3694393Y763292D01*
X3699471D01*
X3702010Y760752D01*
Y758213D01*
X3691853D01*
X3717245Y768370D02*
Y753135D01*
X3709628D01*
X3707089Y755674D01*
Y760752D01*
X3709628Y763292D01*
X3717245D01*
X3620757Y715035D02*
X3615678Y720113D01*
Y725192D01*
X3620757Y730270D01*
X3628374Y715035D02*
Y730270D01*
X3633452Y725192D01*
X3638531Y730270D01*
Y715035D01*
X3643609D02*
X3648687D01*
X3646148D01*
Y725192D01*
X3643609D01*
X3656305D02*
X3666461Y715035D01*
X3661383Y720113D01*
X3666461Y725192D01*
X3656305Y715035D01*
X3679157D02*
X3674079D01*
X3671540Y717574D01*
Y722653D01*
X3674079Y725192D01*
X3679157D01*
X3681697Y722653D01*
Y720113D01*
X3671540D01*
X3696932Y730270D02*
Y715035D01*
X3689314D01*
X3686775Y717574D01*
Y722653D01*
X3689314Y725192D01*
X3696932D01*
X3702010Y715035D02*
X3707088Y720113D01*
Y725192D01*
X3702010Y730270D01*
X3615678Y676935D02*
Y692170D01*
X3623296D01*
X3625835Y689631D01*
Y684553D01*
X3623296Y682013D01*
X3615678D01*
X3620757D02*
X3625835Y676935D01*
X3633452D02*
X3638531D01*
X3641070Y679474D01*
Y684553D01*
X3638531Y687092D01*
X3633452D01*
X3630913Y684553D01*
Y679474D01*
X3633452Y676935D01*
X3646148Y687092D02*
Y679474D01*
X3648687Y676935D01*
X3656305D01*
Y687092D01*
X3661383Y676935D02*
Y687092D01*
X3669001D01*
X3671540Y684553D01*
Y676935D01*
X3686775Y692170D02*
Y676935D01*
X3679157D01*
X3676618Y679474D01*
Y684553D01*
X3679157Y687092D01*
X3686775D01*
X3699471Y676935D02*
X3694393D01*
X3691853Y679474D01*
Y684553D01*
X3694393Y687092D01*
X3699471D01*
X3702010Y684553D01*
Y682013D01*
X3691853D01*
X3717245Y692170D02*
Y676935D01*
X3709628D01*
X3707089Y679474D01*
Y684553D01*
X3709628Y687092D01*
X3717245D01*
X3615678Y638835D02*
Y654070D01*
X3623296D01*
X3625835Y651531D01*
Y646452D01*
X3623296Y643913D01*
X3615678D01*
X3620757D02*
X3625835Y638835D01*
X3633452D02*
X3638531D01*
X3641070Y641374D01*
Y646452D01*
X3638531Y648992D01*
X3633452D01*
X3630913Y646452D01*
Y641374D01*
X3633452Y638835D01*
X3646148Y648992D02*
Y641374D01*
X3648687Y638835D01*
X3656305D01*
Y648992D01*
X3661383Y638835D02*
Y648992D01*
X3669001D01*
X3671540Y646452D01*
Y638835D01*
X3686775Y654070D02*
Y638835D01*
X3679157D01*
X3676618Y641374D01*
Y646452D01*
X3679157Y648992D01*
X3686775D01*
X3699471Y638835D02*
X3694393D01*
X3691853Y641374D01*
Y646452D01*
X3694393Y648992D01*
X3699471D01*
X3702010Y646452D01*
Y643913D01*
X3691853D01*
X3717245Y654070D02*
Y638835D01*
X3709628D01*
X3707089Y641374D01*
Y646452D01*
X3709628Y648992D01*
X3717245D01*
X3615678Y600735D02*
Y615970D01*
X3623296D01*
X3625835Y613431D01*
Y608353D01*
X3623296Y605813D01*
X3615678D01*
X3620757D02*
X3625835Y600735D01*
X3633452D02*
X3638531D01*
X3641070Y603274D01*
Y608353D01*
X3638531Y610892D01*
X3633452D01*
X3630913Y608353D01*
Y603274D01*
X3633452Y600735D01*
X3646148Y610892D02*
Y603274D01*
X3648687Y600735D01*
X3656305D01*
Y610892D01*
X3661383Y600735D02*
Y610892D01*
X3669001D01*
X3671540Y608353D01*
Y600735D01*
X3686775Y615970D02*
Y600735D01*
X3679157D01*
X3676618Y603274D01*
Y608353D01*
X3679157Y610892D01*
X3686775D01*
X3699471Y600735D02*
X3694393D01*
X3691853Y603274D01*
Y608353D01*
X3694393Y610892D01*
X3699471D01*
X3702010Y608353D01*
Y605813D01*
X3691853D01*
X3717245Y615970D02*
Y600735D01*
X3709628D01*
X3707089Y603274D01*
Y608353D01*
X3709628Y610892D01*
X3717245D01*
X3615678Y562635D02*
Y577870D01*
X3623296D01*
X3625835Y575331D01*
Y570252D01*
X3623296Y567713D01*
X3615678D01*
X3620757D02*
X3625835Y562635D01*
X3633452D02*
X3638531D01*
X3641070Y565174D01*
Y570252D01*
X3638531Y572792D01*
X3633452D01*
X3630913Y570252D01*
Y565174D01*
X3633452Y562635D01*
X3646148Y572792D02*
Y565174D01*
X3648687Y562635D01*
X3656305D01*
Y572792D01*
X3661383Y562635D02*
Y572792D01*
X3669001D01*
X3671540Y570252D01*
Y562635D01*
X3686775Y577870D02*
Y562635D01*
X3679157D01*
X3676618Y565174D01*
Y570252D01*
X3679157Y572792D01*
X3686775D01*
X3699471Y562635D02*
X3694393D01*
X3691853Y565174D01*
Y570252D01*
X3694393Y572792D01*
X3699471D01*
X3702010Y570252D01*
Y567713D01*
X3691853D01*
X3717245Y577870D02*
Y562635D01*
X3709628D01*
X3707089Y565174D01*
Y570252D01*
X3709628Y572792D01*
X3717245D01*
X3620757Y524535D02*
X3615678Y529613D01*
Y534692D01*
X3620757Y539770D01*
X3628374Y524535D02*
Y539770D01*
X3633452Y534692D01*
X3638531Y539770D01*
Y524535D01*
X3643609D02*
X3648687D01*
X3646148D01*
Y534692D01*
X3643609D01*
X3656305D02*
X3666461Y524535D01*
X3661383Y529613D01*
X3666461Y534692D01*
X3656305Y524535D01*
X3679157D02*
X3674079D01*
X3671540Y527074D01*
Y532152D01*
X3674079Y534692D01*
X3679157D01*
X3681697Y532152D01*
Y529613D01*
X3671540D01*
X3696932Y539770D02*
Y524535D01*
X3689314D01*
X3686775Y527074D01*
Y532152D01*
X3689314Y534692D01*
X3696932D01*
X3702010Y524535D02*
X3707088Y529613D01*
Y534692D01*
X3702010Y539770D01*
X3620757Y486435D02*
X3615678Y491513D01*
Y496592D01*
X3620757Y501670D01*
X3628374Y486435D02*
Y501670D01*
X3633452Y496592D01*
X3638531Y501670D01*
Y486435D01*
X3643609D02*
X3648687D01*
X3646148D01*
Y496592D01*
X3643609D01*
X3656305D02*
X3666461Y486435D01*
X3661383Y491513D01*
X3666461Y496592D01*
X3656305Y486435D01*
X3679157D02*
X3674079D01*
X3671540Y488974D01*
Y494053D01*
X3674079Y496592D01*
X3679157D01*
X3681697Y494053D01*
Y491513D01*
X3671540D01*
X3696932Y501670D02*
Y486435D01*
X3689314D01*
X3686775Y488974D01*
Y494053D01*
X3689314Y496592D01*
X3696932D01*
X3702010Y486435D02*
X3707088Y491513D01*
Y496592D01*
X3702010Y501670D01*
X3465857Y791235D02*
Y806470D01*
X3473474D01*
X3476013Y803931D01*
Y798852D01*
X3473474Y796313D01*
X3465857D01*
X3483631Y801392D02*
X3488709D01*
X3491248Y798852D01*
Y791235D01*
X3483631D01*
X3481092Y793774D01*
X3483631Y796313D01*
X3491248D01*
X3506483Y806470D02*
Y791235D01*
X3498866D01*
X3496327Y793774D01*
Y798852D01*
X3498866Y801392D01*
X3506483D01*
X3465857Y753135D02*
Y768370D01*
X3473474D01*
X3476013Y765831D01*
Y760752D01*
X3473474Y758213D01*
X3465857D01*
X3483631Y763292D02*
X3488709D01*
X3491248Y760752D01*
Y753135D01*
X3483631D01*
X3481092Y755674D01*
X3483631Y758213D01*
X3491248D01*
X3506483Y768370D02*
Y753135D01*
X3498866D01*
X3496327Y755674D01*
Y760752D01*
X3498866Y763292D01*
X3506483D01*
X3465857Y715035D02*
Y730270D01*
X3473474D01*
X3476013Y727731D01*
Y722653D01*
X3473474Y720113D01*
X3465857D01*
X3483631Y725192D02*
X3488709D01*
X3491248Y722653D01*
Y715035D01*
X3483631D01*
X3481092Y717574D01*
X3483631Y720113D01*
X3491248D01*
X3506483Y730270D02*
Y715035D01*
X3498866D01*
X3496327Y717574D01*
Y722653D01*
X3498866Y725192D01*
X3506483D01*
X3465857Y676935D02*
Y692170D01*
X3473474D01*
X3476013Y689631D01*
Y684553D01*
X3473474Y682013D01*
X3465857D01*
X3483631Y687092D02*
X3488709D01*
X3491248Y684553D01*
Y676935D01*
X3483631D01*
X3481092Y679474D01*
X3483631Y682013D01*
X3491248D01*
X3506483Y692170D02*
Y676935D01*
X3498866D01*
X3496327Y679474D01*
Y684553D01*
X3498866Y687092D01*
X3506483D01*
X3465857Y638835D02*
Y654070D01*
X3473474D01*
X3476013Y651531D01*
Y646452D01*
X3473474Y643913D01*
X3465857D01*
X3483631Y648992D02*
X3488709D01*
X3491248Y646452D01*
Y638835D01*
X3483631D01*
X3481092Y641374D01*
X3483631Y643913D01*
X3491248D01*
X3506483Y654070D02*
Y638835D01*
X3498866D01*
X3496327Y641374D01*
Y646452D01*
X3498866Y648992D01*
X3506483D01*
X3465857Y600735D02*
Y615970D01*
X3473474D01*
X3476013Y613431D01*
Y608353D01*
X3473474Y605813D01*
X3465857D01*
X3483631Y610892D02*
X3488709D01*
X3491248Y608353D01*
Y600735D01*
X3483631D01*
X3481092Y603274D01*
X3483631Y605813D01*
X3491248D01*
X3506483Y615970D02*
Y600735D01*
X3498866D01*
X3496327Y603274D01*
Y608353D01*
X3498866Y610892D01*
X3506483D01*
X3465857Y577870D02*
Y567713D01*
X3470935Y562635D01*
X3476013Y567713D01*
Y577870D01*
X3481092Y562635D02*
X3486170D01*
X3483631D01*
Y572792D01*
X3481092D01*
X3496327D02*
X3501405D01*
X3503944Y570252D01*
Y562635D01*
X3496327D01*
X3493788Y565174D01*
X3496327Y567713D01*
X3503944D01*
X3465857Y524535D02*
Y539770D01*
X3473474D01*
X3476013Y537231D01*
Y532152D01*
X3473474Y529613D01*
X3465857D01*
X3483631Y534692D02*
X3488709D01*
X3491248Y532152D01*
Y524535D01*
X3483631D01*
X3481092Y527074D01*
X3483631Y529613D01*
X3491248D01*
X3506483Y539770D02*
Y524535D01*
X3498866D01*
X3496327Y527074D01*
Y532152D01*
X3498866Y534692D01*
X3506483D01*
X3465857Y486435D02*
Y501670D01*
X3473474D01*
X3476013Y499131D01*
Y494053D01*
X3473474Y491513D01*
X3465857D01*
X3483631Y496592D02*
X3488709D01*
X3491248Y494053D01*
Y486435D01*
X3483631D01*
X3481092Y488974D01*
X3483631Y491513D01*
X3491248D01*
X3506483Y501670D02*
Y486435D01*
X3498866D01*
X3496327Y488974D01*
Y494053D01*
X3498866Y496592D01*
X3506483D01*
X3084971Y806470D02*
X3095127D01*
X3090049D01*
Y791235D01*
X3102745D02*
X3107823D01*
X3110363Y793774D01*
Y798852D01*
X3107823Y801392D01*
X3102745D01*
X3100206Y798852D01*
Y793774D01*
X3102745Y791235D01*
X3115441Y786157D02*
Y801392D01*
X3123058D01*
X3125598Y798852D01*
Y793774D01*
X3123058Y791235D01*
X3115441D01*
X3145911Y806470D02*
Y791235D01*
X3156068D01*
X3163685Y801392D02*
X3168764D01*
X3171303Y798852D01*
Y791235D01*
X3163685D01*
X3161146Y793774D01*
X3163685Y796313D01*
X3171303D01*
X3176381Y801392D02*
Y793774D01*
X3178920Y791235D01*
X3186538D01*
Y788696D01*
X3183999Y786157D01*
X3181459D01*
X3186538Y791235D02*
Y801392D01*
X3199234Y791235D02*
X3194155D01*
X3191616Y793774D01*
Y798852D01*
X3194155Y801392D01*
X3199234D01*
X3201773Y798852D01*
Y796313D01*
X3191616D01*
X3206851Y801392D02*
Y791235D01*
Y796313D01*
X3209390Y798852D01*
X3211930Y801392D01*
X3214469D01*
X3237321Y798852D02*
X3247478D01*
X3267791Y806470D02*
Y791235D01*
X3275409D01*
X3277948Y793774D01*
Y796313D01*
X3275409Y798852D01*
X3267791D01*
X3275409D01*
X3277948Y801392D01*
Y803931D01*
X3275409Y806470D01*
X3267791D01*
X3285566Y791235D02*
X3290644D01*
X3293183Y793774D01*
Y798852D01*
X3290644Y801392D01*
X3285566D01*
X3283027Y798852D01*
Y793774D01*
X3285566Y791235D01*
X3300801Y803931D02*
Y801392D01*
X3298262D01*
X3303340D01*
X3300801D01*
Y793774D01*
X3303340Y791235D01*
X3313497Y803931D02*
Y801392D01*
X3310958D01*
X3316036D01*
X3313497D01*
Y793774D01*
X3316036Y791235D01*
X3326193D02*
X3331271D01*
X3333810Y793774D01*
Y798852D01*
X3331271Y801392D01*
X3326193D01*
X3323653Y798852D01*
Y793774D01*
X3326193Y791235D01*
X3338889D02*
Y801392D01*
X3341428D01*
X3343967Y798852D01*
Y791235D01*
Y798852D01*
X3346506Y801392D01*
X3349045Y798852D01*
Y791235D01*
X3369359Y806470D02*
Y791235D01*
X3379515D01*
X3387133Y801392D02*
X3392211D01*
X3394750Y798852D01*
Y791235D01*
X3387133D01*
X3384594Y793774D01*
X3387133Y796313D01*
X3394750D01*
X3399829Y801392D02*
Y793774D01*
X3402368Y791235D01*
X3409985D01*
Y788696D01*
X3407446Y786157D01*
X3404907D01*
X3409985Y791235D02*
Y801392D01*
X3422681Y791235D02*
X3417603D01*
X3415064Y793774D01*
Y798852D01*
X3417603Y801392D01*
X3422681D01*
X3425221Y798852D01*
Y796313D01*
X3415064D01*
X3430299Y801392D02*
Y791235D01*
Y796313D01*
X3432838Y798852D01*
X3435377Y801392D01*
X3437917D01*
X3084971Y768370D02*
X3095127D01*
X3090049D01*
Y753135D01*
X3102745D02*
X3107823D01*
X3110363Y755674D01*
Y760752D01*
X3107823Y763292D01*
X3102745D01*
X3100206Y760752D01*
Y755674D01*
X3102745Y753135D01*
X3115441Y748057D02*
Y763292D01*
X3123058D01*
X3125598Y760752D01*
Y755674D01*
X3123058Y753135D01*
X3115441D01*
X3145911Y768370D02*
Y753135D01*
X3156068D01*
X3163685Y763292D02*
X3168764D01*
X3171303Y760752D01*
Y753135D01*
X3163685D01*
X3161146Y755674D01*
X3163685Y758213D01*
X3171303D01*
X3176381Y763292D02*
Y755674D01*
X3178920Y753135D01*
X3186538D01*
Y750596D01*
X3183999Y748057D01*
X3181459D01*
X3186538Y753135D02*
Y763292D01*
X3199234Y753135D02*
X3194155D01*
X3191616Y755674D01*
Y760752D01*
X3194155Y763292D01*
X3199234D01*
X3201773Y760752D01*
Y758213D01*
X3191616D01*
X3206851Y763292D02*
Y753135D01*
Y758213D01*
X3209390Y760752D01*
X3211930Y763292D01*
X3214469D01*
X3237321Y760752D02*
X3247478D01*
X3267791Y768370D02*
Y753135D01*
X3275409D01*
X3277948Y755674D01*
Y758213D01*
X3275409Y760752D01*
X3267791D01*
X3275409D01*
X3277948Y763292D01*
Y765831D01*
X3275409Y768370D01*
X3267791D01*
X3285566Y753135D02*
X3290644D01*
X3293183Y755674D01*
Y760752D01*
X3290644Y763292D01*
X3285566D01*
X3283027Y760752D01*
Y755674D01*
X3285566Y753135D01*
X3300801Y765831D02*
Y763292D01*
X3298262D01*
X3303340D01*
X3300801D01*
Y755674D01*
X3303340Y753135D01*
X3313497Y765831D02*
Y763292D01*
X3310958D01*
X3316036D01*
X3313497D01*
Y755674D01*
X3316036Y753135D01*
X3326193D02*
X3331271D01*
X3333810Y755674D01*
Y760752D01*
X3331271Y763292D01*
X3326193D01*
X3323653Y760752D01*
Y755674D01*
X3326193Y753135D01*
X3338889D02*
Y763292D01*
X3341428D01*
X3343967Y760752D01*
Y753135D01*
Y760752D01*
X3346506Y763292D01*
X3349045Y760752D01*
Y753135D01*
X3369359Y768370D02*
Y753135D01*
X3379515D01*
X3387133Y763292D02*
X3392211D01*
X3394750Y760752D01*
Y753135D01*
X3387133D01*
X3384594Y755674D01*
X3387133Y758213D01*
X3394750D01*
X3399829Y763292D02*
Y755674D01*
X3402368Y753135D01*
X3409985D01*
Y750596D01*
X3407446Y748057D01*
X3404907D01*
X3409985Y753135D02*
Y763292D01*
X3422681Y753135D02*
X3417603D01*
X3415064Y755674D01*
Y760752D01*
X3417603Y763292D01*
X3422681D01*
X3425221Y760752D01*
Y758213D01*
X3415064D01*
X3430299Y763292D02*
Y753135D01*
Y758213D01*
X3432838Y760752D01*
X3435377Y763292D01*
X3437917D01*
X3084971Y730270D02*
X3095127D01*
X3090049D01*
Y715035D01*
X3102745D02*
X3107823D01*
X3110363Y717574D01*
Y722653D01*
X3107823Y725192D01*
X3102745D01*
X3100206Y722653D01*
Y717574D01*
X3102745Y715035D01*
X3115441Y709957D02*
Y725192D01*
X3123058D01*
X3125598Y722653D01*
Y717574D01*
X3123058Y715035D01*
X3115441D01*
X3145911Y730270D02*
Y715035D01*
X3156068D01*
X3163685Y725192D02*
X3168764D01*
X3171303Y722653D01*
Y715035D01*
X3163685D01*
X3161146Y717574D01*
X3163685Y720113D01*
X3171303D01*
X3176381Y725192D02*
Y717574D01*
X3178920Y715035D01*
X3186538D01*
Y712496D01*
X3183999Y709957D01*
X3181459D01*
X3186538Y715035D02*
Y725192D01*
X3199234Y715035D02*
X3194155D01*
X3191616Y717574D01*
Y722653D01*
X3194155Y725192D01*
X3199234D01*
X3201773Y722653D01*
Y720113D01*
X3191616D01*
X3206851Y725192D02*
Y715035D01*
Y720113D01*
X3209390Y722653D01*
X3211930Y725192D01*
X3214469D01*
X3237321Y722653D02*
X3247478D01*
X3267791Y730270D02*
Y715035D01*
X3275409D01*
X3277948Y717574D01*
Y720113D01*
X3275409Y722653D01*
X3267791D01*
X3275409D01*
X3277948Y725192D01*
Y727731D01*
X3275409Y730270D01*
X3267791D01*
X3285566Y715035D02*
X3290644D01*
X3293183Y717574D01*
Y722653D01*
X3290644Y725192D01*
X3285566D01*
X3283027Y722653D01*
Y717574D01*
X3285566Y715035D01*
X3300801Y727731D02*
Y725192D01*
X3298262D01*
X3303340D01*
X3300801D01*
Y717574D01*
X3303340Y715035D01*
X3313497Y727731D02*
Y725192D01*
X3310958D01*
X3316036D01*
X3313497D01*
Y717574D01*
X3316036Y715035D01*
X3326193D02*
X3331271D01*
X3333810Y717574D01*
Y722653D01*
X3331271Y725192D01*
X3326193D01*
X3323653Y722653D01*
Y717574D01*
X3326193Y715035D01*
X3338889D02*
Y725192D01*
X3341428D01*
X3343967Y722653D01*
Y715035D01*
Y722653D01*
X3346506Y725192D01*
X3349045Y722653D01*
Y715035D01*
X3369359Y730270D02*
Y715035D01*
X3379515D01*
X3387133Y725192D02*
X3392211D01*
X3394750Y722653D01*
Y715035D01*
X3387133D01*
X3384594Y717574D01*
X3387133Y720113D01*
X3394750D01*
X3399829Y725192D02*
Y717574D01*
X3402368Y715035D01*
X3409985D01*
Y712496D01*
X3407446Y709957D01*
X3404907D01*
X3409985Y715035D02*
Y725192D01*
X3422681Y715035D02*
X3417603D01*
X3415064Y717574D01*
Y722653D01*
X3417603Y725192D01*
X3422681D01*
X3425221Y722653D01*
Y720113D01*
X3415064D01*
X3430299Y725192D02*
Y715035D01*
Y720113D01*
X3432838Y722653D01*
X3435377Y725192D01*
X3437917D01*
X3084971Y692170D02*
X3095127D01*
X3090049D01*
Y676935D01*
X3102745D02*
X3107823D01*
X3110363Y679474D01*
Y684553D01*
X3107823Y687092D01*
X3102745D01*
X3100206Y684553D01*
Y679474D01*
X3102745Y676935D01*
X3115441Y671857D02*
Y687092D01*
X3123058D01*
X3125598Y684553D01*
Y679474D01*
X3123058Y676935D01*
X3115441D01*
X3145911Y692170D02*
Y676935D01*
X3156068D01*
X3163685Y687092D02*
X3168764D01*
X3171303Y684553D01*
Y676935D01*
X3163685D01*
X3161146Y679474D01*
X3163685Y682013D01*
X3171303D01*
X3176381Y687092D02*
Y679474D01*
X3178920Y676935D01*
X3186538D01*
Y674396D01*
X3183999Y671857D01*
X3181459D01*
X3186538Y676935D02*
Y687092D01*
X3199234Y676935D02*
X3194155D01*
X3191616Y679474D01*
Y684553D01*
X3194155Y687092D01*
X3199234D01*
X3201773Y684553D01*
Y682013D01*
X3191616D01*
X3206851Y687092D02*
Y676935D01*
Y682013D01*
X3209390Y684553D01*
X3211930Y687092D01*
X3214469D01*
X3237321Y684553D02*
X3247478D01*
X3267791Y692170D02*
Y676935D01*
X3275409D01*
X3277948Y679474D01*
Y682013D01*
X3275409Y684553D01*
X3267791D01*
X3275409D01*
X3277948Y687092D01*
Y689631D01*
X3275409Y692170D01*
X3267791D01*
X3285566Y676935D02*
X3290644D01*
X3293183Y679474D01*
Y684553D01*
X3290644Y687092D01*
X3285566D01*
X3283027Y684553D01*
Y679474D01*
X3285566Y676935D01*
X3300801Y689631D02*
Y687092D01*
X3298262D01*
X3303340D01*
X3300801D01*
Y679474D01*
X3303340Y676935D01*
X3313497Y689631D02*
Y687092D01*
X3310958D01*
X3316036D01*
X3313497D01*
Y679474D01*
X3316036Y676935D01*
X3326193D02*
X3331271D01*
X3333810Y679474D01*
Y684553D01*
X3331271Y687092D01*
X3326193D01*
X3323653Y684553D01*
Y679474D01*
X3326193Y676935D01*
X3338889D02*
Y687092D01*
X3341428D01*
X3343967Y684553D01*
Y676935D01*
Y684553D01*
X3346506Y687092D01*
X3349045Y684553D01*
Y676935D01*
X3369359Y692170D02*
Y676935D01*
X3379515D01*
X3387133Y687092D02*
X3392211D01*
X3394750Y684553D01*
Y676935D01*
X3387133D01*
X3384594Y679474D01*
X3387133Y682013D01*
X3394750D01*
X3399829Y687092D02*
Y679474D01*
X3402368Y676935D01*
X3409985D01*
Y674396D01*
X3407446Y671857D01*
X3404907D01*
X3409985Y676935D02*
Y687092D01*
X3422681Y676935D02*
X3417603D01*
X3415064Y679474D01*
Y684553D01*
X3417603Y687092D01*
X3422681D01*
X3425221Y684553D01*
Y682013D01*
X3415064D01*
X3430299Y687092D02*
Y676935D01*
Y682013D01*
X3432838Y684553D01*
X3435377Y687092D01*
X3437917D01*
X3084971Y654070D02*
X3095127D01*
X3090049D01*
Y638835D01*
X3102745D02*
X3107823D01*
X3110363Y641374D01*
Y646452D01*
X3107823Y648992D01*
X3102745D01*
X3100206Y646452D01*
Y641374D01*
X3102745Y638835D01*
X3115441Y633757D02*
Y648992D01*
X3123058D01*
X3125598Y646452D01*
Y641374D01*
X3123058Y638835D01*
X3115441D01*
X3145911Y654070D02*
Y638835D01*
X3156068D01*
X3163685Y648992D02*
X3168764D01*
X3171303Y646452D01*
Y638835D01*
X3163685D01*
X3161146Y641374D01*
X3163685Y643913D01*
X3171303D01*
X3176381Y648992D02*
Y641374D01*
X3178920Y638835D01*
X3186538D01*
Y636296D01*
X3183999Y633757D01*
X3181459D01*
X3186538Y638835D02*
Y648992D01*
X3199234Y638835D02*
X3194155D01*
X3191616Y641374D01*
Y646452D01*
X3194155Y648992D01*
X3199234D01*
X3201773Y646452D01*
Y643913D01*
X3191616D01*
X3206851Y648992D02*
Y638835D01*
Y643913D01*
X3209390Y646452D01*
X3211930Y648992D01*
X3214469D01*
X3237321Y646452D02*
X3247478D01*
X3267791Y654070D02*
Y638835D01*
X3275409D01*
X3277948Y641374D01*
Y643913D01*
X3275409Y646452D01*
X3267791D01*
X3275409D01*
X3277948Y648992D01*
Y651531D01*
X3275409Y654070D01*
X3267791D01*
X3285566Y638835D02*
X3290644D01*
X3293183Y641374D01*
Y646452D01*
X3290644Y648992D01*
X3285566D01*
X3283027Y646452D01*
Y641374D01*
X3285566Y638835D01*
X3300801Y651531D02*
Y648992D01*
X3298262D01*
X3303340D01*
X3300801D01*
Y641374D01*
X3303340Y638835D01*
X3313497Y651531D02*
Y648992D01*
X3310958D01*
X3316036D01*
X3313497D01*
Y641374D01*
X3316036Y638835D01*
X3326193D02*
X3331271D01*
X3333810Y641374D01*
Y646452D01*
X3331271Y648992D01*
X3326193D01*
X3323653Y646452D01*
Y641374D01*
X3326193Y638835D01*
X3338889D02*
Y648992D01*
X3341428D01*
X3343967Y646452D01*
Y638835D01*
Y646452D01*
X3346506Y648992D01*
X3349045Y646452D01*
Y638835D01*
X3369359Y654070D02*
Y638835D01*
X3379515D01*
X3387133Y648992D02*
X3392211D01*
X3394750Y646452D01*
Y638835D01*
X3387133D01*
X3384594Y641374D01*
X3387133Y643913D01*
X3394750D01*
X3399829Y648992D02*
Y641374D01*
X3402368Y638835D01*
X3409985D01*
Y636296D01*
X3407446Y633757D01*
X3404907D01*
X3409985Y638835D02*
Y648992D01*
X3422681Y638835D02*
X3417603D01*
X3415064Y641374D01*
Y646452D01*
X3417603Y648992D01*
X3422681D01*
X3425221Y646452D01*
Y643913D01*
X3415064D01*
X3430299Y648992D02*
Y638835D01*
Y643913D01*
X3432838Y646452D01*
X3435377Y648992D01*
X3437917D01*
X3084971Y615970D02*
X3095127D01*
X3090049D01*
Y600735D01*
X3102745D02*
X3107823D01*
X3110363Y603274D01*
Y608353D01*
X3107823Y610892D01*
X3102745D01*
X3100206Y608353D01*
Y603274D01*
X3102745Y600735D01*
X3115441Y595657D02*
Y610892D01*
X3123058D01*
X3125598Y608353D01*
Y603274D01*
X3123058Y600735D01*
X3115441D01*
X3145911Y615970D02*
Y600735D01*
X3156068D01*
X3163685Y610892D02*
X3168764D01*
X3171303Y608353D01*
Y600735D01*
X3163685D01*
X3161146Y603274D01*
X3163685Y605813D01*
X3171303D01*
X3176381Y610892D02*
Y603274D01*
X3178920Y600735D01*
X3186538D01*
Y598196D01*
X3183999Y595657D01*
X3181459D01*
X3186538Y600735D02*
Y610892D01*
X3199234Y600735D02*
X3194155D01*
X3191616Y603274D01*
Y608353D01*
X3194155Y610892D01*
X3199234D01*
X3201773Y608353D01*
Y605813D01*
X3191616D01*
X3206851Y610892D02*
Y600735D01*
Y605813D01*
X3209390Y608353D01*
X3211930Y610892D01*
X3214469D01*
X3237321Y608353D02*
X3247478D01*
X3267791Y615970D02*
Y600735D01*
X3275409D01*
X3277948Y603274D01*
Y605813D01*
X3275409Y608353D01*
X3267791D01*
X3275409D01*
X3277948Y610892D01*
Y613431D01*
X3275409Y615970D01*
X3267791D01*
X3285566Y600735D02*
X3290644D01*
X3293183Y603274D01*
Y608353D01*
X3290644Y610892D01*
X3285566D01*
X3283027Y608353D01*
Y603274D01*
X3285566Y600735D01*
X3300801Y613431D02*
Y610892D01*
X3298262D01*
X3303340D01*
X3300801D01*
Y603274D01*
X3303340Y600735D01*
X3313497Y613431D02*
Y610892D01*
X3310958D01*
X3316036D01*
X3313497D01*
Y603274D01*
X3316036Y600735D01*
X3326193D02*
X3331271D01*
X3333810Y603274D01*
Y608353D01*
X3331271Y610892D01*
X3326193D01*
X3323653Y608353D01*
Y603274D01*
X3326193Y600735D01*
X3338889D02*
Y610892D01*
X3341428D01*
X3343967Y608353D01*
Y600735D01*
Y608353D01*
X3346506Y610892D01*
X3349045Y608353D01*
Y600735D01*
X3369359Y615970D02*
Y600735D01*
X3379515D01*
X3387133Y610892D02*
X3392211D01*
X3394750Y608353D01*
Y600735D01*
X3387133D01*
X3384594Y603274D01*
X3387133Y605813D01*
X3394750D01*
X3399829Y610892D02*
Y603274D01*
X3402368Y600735D01*
X3409985D01*
Y598196D01*
X3407446Y595657D01*
X3404907D01*
X3409985Y600735D02*
Y610892D01*
X3422681Y600735D02*
X3417603D01*
X3415064Y603274D01*
Y608353D01*
X3417603Y610892D01*
X3422681D01*
X3425221Y608353D01*
Y605813D01*
X3415064D01*
X3430299Y610892D02*
Y600735D01*
Y605813D01*
X3432838Y608353D01*
X3435377Y610892D01*
X3437917D01*
X3084971Y577870D02*
X3095127D01*
X3090049D01*
Y562635D01*
X3102745D02*
X3107823D01*
X3110363Y565174D01*
Y570252D01*
X3107823Y572792D01*
X3102745D01*
X3100206Y570252D01*
Y565174D01*
X3102745Y562635D01*
X3115441Y557557D02*
Y572792D01*
X3123058D01*
X3125598Y570252D01*
Y565174D01*
X3123058Y562635D01*
X3115441D01*
X3145911Y577870D02*
Y562635D01*
X3156068D01*
X3163685Y572792D02*
X3168764D01*
X3171303Y570252D01*
Y562635D01*
X3163685D01*
X3161146Y565174D01*
X3163685Y567713D01*
X3171303D01*
X3176381Y572792D02*
Y565174D01*
X3178920Y562635D01*
X3186538D01*
Y560096D01*
X3183999Y557557D01*
X3181459D01*
X3186538Y562635D02*
Y572792D01*
X3199234Y562635D02*
X3194155D01*
X3191616Y565174D01*
Y570252D01*
X3194155Y572792D01*
X3199234D01*
X3201773Y570252D01*
Y567713D01*
X3191616D01*
X3206851Y572792D02*
Y562635D01*
Y567713D01*
X3209390Y570252D01*
X3211930Y572792D01*
X3214469D01*
X3237321Y570252D02*
X3247478D01*
X3267791Y577870D02*
Y562635D01*
X3275409D01*
X3277948Y565174D01*
Y567713D01*
X3275409Y570252D01*
X3267791D01*
X3275409D01*
X3277948Y572792D01*
Y575331D01*
X3275409Y577870D01*
X3267791D01*
X3285566Y562635D02*
X3290644D01*
X3293183Y565174D01*
Y570252D01*
X3290644Y572792D01*
X3285566D01*
X3283027Y570252D01*
Y565174D01*
X3285566Y562635D01*
X3300801Y575331D02*
Y572792D01*
X3298262D01*
X3303340D01*
X3300801D01*
Y565174D01*
X3303340Y562635D01*
X3313497Y575331D02*
Y572792D01*
X3310958D01*
X3316036D01*
X3313497D01*
Y565174D01*
X3316036Y562635D01*
X3326193D02*
X3331271D01*
X3333810Y565174D01*
Y570252D01*
X3331271Y572792D01*
X3326193D01*
X3323653Y570252D01*
Y565174D01*
X3326193Y562635D01*
X3338889D02*
Y572792D01*
X3341428D01*
X3343967Y570252D01*
Y562635D01*
Y570252D01*
X3346506Y572792D01*
X3349045Y570252D01*
Y562635D01*
X3369359Y577870D02*
Y562635D01*
X3379515D01*
X3387133Y572792D02*
X3392211D01*
X3394750Y570252D01*
Y562635D01*
X3387133D01*
X3384594Y565174D01*
X3387133Y567713D01*
X3394750D01*
X3399829Y572792D02*
Y565174D01*
X3402368Y562635D01*
X3409985D01*
Y560096D01*
X3407446Y557557D01*
X3404907D01*
X3409985Y562635D02*
Y572792D01*
X3422681Y562635D02*
X3417603D01*
X3415064Y565174D01*
Y570252D01*
X3417603Y572792D01*
X3422681D01*
X3425221Y570252D01*
Y567713D01*
X3415064D01*
X3430299Y572792D02*
Y562635D01*
Y567713D01*
X3432838Y570252D01*
X3435377Y572792D01*
X3437917D01*
X3084971Y539770D02*
X3095127D01*
X3090049D01*
Y524535D01*
X3102745D02*
X3107823D01*
X3110363Y527074D01*
Y532152D01*
X3107823Y534692D01*
X3102745D01*
X3100206Y532152D01*
Y527074D01*
X3102745Y524535D01*
X3115441Y519457D02*
Y534692D01*
X3123058D01*
X3125598Y532152D01*
Y527074D01*
X3123058Y524535D01*
X3115441D01*
X3145911Y539770D02*
Y524535D01*
X3156068D01*
X3163685Y534692D02*
X3168764D01*
X3171303Y532152D01*
Y524535D01*
X3163685D01*
X3161146Y527074D01*
X3163685Y529613D01*
X3171303D01*
X3176381Y534692D02*
Y527074D01*
X3178920Y524535D01*
X3186538D01*
Y521996D01*
X3183999Y519457D01*
X3181459D01*
X3186538Y524535D02*
Y534692D01*
X3199234Y524535D02*
X3194155D01*
X3191616Y527074D01*
Y532152D01*
X3194155Y534692D01*
X3199234D01*
X3201773Y532152D01*
Y529613D01*
X3191616D01*
X3206851Y534692D02*
Y524535D01*
Y529613D01*
X3209390Y532152D01*
X3211930Y534692D01*
X3214469D01*
X3237321Y532152D02*
X3247478D01*
X3267791Y539770D02*
Y524535D01*
X3275409D01*
X3277948Y527074D01*
Y529613D01*
X3275409Y532152D01*
X3267791D01*
X3275409D01*
X3277948Y534692D01*
Y537231D01*
X3275409Y539770D01*
X3267791D01*
X3285566Y524535D02*
X3290644D01*
X3293183Y527074D01*
Y532152D01*
X3290644Y534692D01*
X3285566D01*
X3283027Y532152D01*
Y527074D01*
X3285566Y524535D01*
X3300801Y537231D02*
Y534692D01*
X3298262D01*
X3303340D01*
X3300801D01*
Y527074D01*
X3303340Y524535D01*
X3313497Y537231D02*
Y534692D01*
X3310958D01*
X3316036D01*
X3313497D01*
Y527074D01*
X3316036Y524535D01*
X3326193D02*
X3331271D01*
X3333810Y527074D01*
Y532152D01*
X3331271Y534692D01*
X3326193D01*
X3323653Y532152D01*
Y527074D01*
X3326193Y524535D01*
X3338889D02*
Y534692D01*
X3341428D01*
X3343967Y532152D01*
Y524535D01*
Y532152D01*
X3346506Y534692D01*
X3349045Y532152D01*
Y524535D01*
X3369359Y539770D02*
Y524535D01*
X3379515D01*
X3387133Y534692D02*
X3392211D01*
X3394750Y532152D01*
Y524535D01*
X3387133D01*
X3384594Y527074D01*
X3387133Y529613D01*
X3394750D01*
X3399829Y534692D02*
Y527074D01*
X3402368Y524535D01*
X3409985D01*
Y521996D01*
X3407446Y519457D01*
X3404907D01*
X3409985Y524535D02*
Y534692D01*
X3422681Y524535D02*
X3417603D01*
X3415064Y527074D01*
Y532152D01*
X3417603Y534692D01*
X3422681D01*
X3425221Y532152D01*
Y529613D01*
X3415064D01*
X3430299Y534692D02*
Y524535D01*
Y529613D01*
X3432838Y532152D01*
X3435377Y534692D01*
X3437917D01*
X3084971Y501670D02*
X3095127D01*
X3090049D01*
Y486435D01*
X3102745D02*
X3107823D01*
X3110363Y488974D01*
Y494053D01*
X3107823Y496592D01*
X3102745D01*
X3100206Y494053D01*
Y488974D01*
X3102745Y486435D01*
X3115441Y481357D02*
Y496592D01*
X3123058D01*
X3125598Y494053D01*
Y488974D01*
X3123058Y486435D01*
X3115441D01*
X3145911Y501670D02*
Y486435D01*
X3156068D01*
X3163685Y496592D02*
X3168764D01*
X3171303Y494053D01*
Y486435D01*
X3163685D01*
X3161146Y488974D01*
X3163685Y491513D01*
X3171303D01*
X3176381Y496592D02*
Y488974D01*
X3178920Y486435D01*
X3186538D01*
Y483896D01*
X3183999Y481357D01*
X3181459D01*
X3186538Y486435D02*
Y496592D01*
X3199234Y486435D02*
X3194155D01*
X3191616Y488974D01*
Y494053D01*
X3194155Y496592D01*
X3199234D01*
X3201773Y494053D01*
Y491513D01*
X3191616D01*
X3206851Y496592D02*
Y486435D01*
Y491513D01*
X3209390Y494053D01*
X3211930Y496592D01*
X3214469D01*
X3237321Y494053D02*
X3247478D01*
X3267791Y501670D02*
Y486435D01*
X3275409D01*
X3277948Y488974D01*
Y491513D01*
X3275409Y494053D01*
X3267791D01*
X3275409D01*
X3277948Y496592D01*
Y499131D01*
X3275409Y501670D01*
X3267791D01*
X3285566Y486435D02*
X3290644D01*
X3293183Y488974D01*
Y494053D01*
X3290644Y496592D01*
X3285566D01*
X3283027Y494053D01*
Y488974D01*
X3285566Y486435D01*
X3300801Y499131D02*
Y496592D01*
X3298262D01*
X3303340D01*
X3300801D01*
Y488974D01*
X3303340Y486435D01*
X3313497Y499131D02*
Y496592D01*
X3310958D01*
X3316036D01*
X3313497D01*
Y488974D01*
X3316036Y486435D01*
X3326193D02*
X3331271D01*
X3333810Y488974D01*
Y494053D01*
X3331271Y496592D01*
X3326193D01*
X3323653Y494053D01*
Y488974D01*
X3326193Y486435D01*
X3338889D02*
Y496592D01*
X3341428D01*
X3343967Y494053D01*
Y486435D01*
Y494053D01*
X3346506Y496592D01*
X3349045Y494053D01*
Y486435D01*
X3369359Y501670D02*
Y486435D01*
X3379515D01*
X3387133Y496592D02*
X3392211D01*
X3394750Y494053D01*
Y486435D01*
X3387133D01*
X3384594Y488974D01*
X3387133Y491513D01*
X3394750D01*
X3399829Y496592D02*
Y488974D01*
X3402368Y486435D01*
X3409985D01*
Y483896D01*
X3407446Y481357D01*
X3404907D01*
X3409985Y486435D02*
Y496592D01*
X3422681Y486435D02*
X3417603D01*
X3415064Y488974D01*
Y494053D01*
X3417603Y496592D01*
X3422681D01*
X3425221Y494053D01*
Y491513D01*
X3415064D01*
X3430299Y496592D02*
Y486435D01*
Y491513D01*
X3432838Y494053D01*
X3435377Y496592D01*
X3437917D01*
X2898585Y791235D02*
Y806470D01*
X2906202D01*
X2908742Y803931D01*
Y798852D01*
X2906202Y796313D01*
X2898585D01*
X2903663D02*
X2908742Y791235D01*
X2916359D02*
X2921438D01*
X2923977Y793774D01*
Y798852D01*
X2921438Y801392D01*
X2916359D01*
X2913820Y798852D01*
Y793774D01*
X2916359Y791235D01*
X2929055Y801392D02*
Y793774D01*
X2931594Y791235D01*
X2939212D01*
Y801392D01*
X2944290Y791235D02*
Y801392D01*
X2951908D01*
X2954447Y798852D01*
Y791235D01*
X2969682Y806470D02*
Y791235D01*
X2962065D01*
X2959525Y793774D01*
Y798852D01*
X2962065Y801392D01*
X2969682D01*
X2898585Y753135D02*
Y768370D01*
X2906202D01*
X2908742Y765831D01*
Y760752D01*
X2906202Y758213D01*
X2898585D01*
X2903663D02*
X2908742Y753135D01*
X2916359D02*
X2921438D01*
X2923977Y755674D01*
Y760752D01*
X2921438Y763292D01*
X2916359D01*
X2913820Y760752D01*
Y755674D01*
X2916359Y753135D01*
X2929055Y763292D02*
Y755674D01*
X2931594Y753135D01*
X2939212D01*
Y763292D01*
X2944290Y753135D02*
Y763292D01*
X2951908D01*
X2954447Y760752D01*
Y753135D01*
X2969682Y768370D02*
Y753135D01*
X2962065D01*
X2959525Y755674D01*
Y760752D01*
X2962065Y763292D01*
X2969682D01*
X2898585Y715035D02*
Y730270D01*
X2906202D01*
X2908742Y727731D01*
Y722653D01*
X2906202Y720113D01*
X2898585D01*
X2903663D02*
X2908742Y715035D01*
X2916359D02*
X2921438D01*
X2923977Y717574D01*
Y722653D01*
X2921438Y725192D01*
X2916359D01*
X2913820Y722653D01*
Y717574D01*
X2916359Y715035D01*
X2929055Y725192D02*
Y717574D01*
X2931594Y715035D01*
X2939212D01*
Y725192D01*
X2944290Y715035D02*
Y725192D01*
X2951908D01*
X2954447Y722653D01*
Y715035D01*
X2969682Y730270D02*
Y715035D01*
X2962065D01*
X2959525Y717574D01*
Y722653D01*
X2962065Y725192D01*
X2969682D01*
X2898585Y676935D02*
Y692170D01*
X2906202D01*
X2908742Y689631D01*
Y684553D01*
X2906202Y682013D01*
X2898585D01*
X2903663D02*
X2908742Y676935D01*
X2916359D02*
X2921438D01*
X2923977Y679474D01*
Y684553D01*
X2921438Y687092D01*
X2916359D01*
X2913820Y684553D01*
Y679474D01*
X2916359Y676935D01*
X2929055Y687092D02*
Y679474D01*
X2931594Y676935D01*
X2939212D01*
Y687092D01*
X2944290Y676935D02*
Y687092D01*
X2951908D01*
X2954447Y684553D01*
Y676935D01*
X2969682Y692170D02*
Y676935D01*
X2962065D01*
X2959525Y679474D01*
Y684553D01*
X2962065Y687092D01*
X2969682D01*
X2898585Y638835D02*
Y654070D01*
X2906202D01*
X2908742Y651531D01*
Y646452D01*
X2906202Y643913D01*
X2898585D01*
X2903663D02*
X2908742Y638835D01*
X2916359D02*
X2921438D01*
X2923977Y641374D01*
Y646452D01*
X2921438Y648992D01*
X2916359D01*
X2913820Y646452D01*
Y641374D01*
X2916359Y638835D01*
X2929055Y648992D02*
Y641374D01*
X2931594Y638835D01*
X2939212D01*
Y648992D01*
X2944290Y638835D02*
Y648992D01*
X2951908D01*
X2954447Y646452D01*
Y638835D01*
X2969682Y654070D02*
Y638835D01*
X2962065D01*
X2959525Y641374D01*
Y646452D01*
X2962065Y648992D01*
X2969682D01*
X2898585Y600735D02*
Y615970D01*
X2906202D01*
X2908742Y613431D01*
Y608353D01*
X2906202Y605813D01*
X2898585D01*
X2903663D02*
X2908742Y600735D01*
X2916359D02*
X2921438D01*
X2923977Y603274D01*
Y608353D01*
X2921438Y610892D01*
X2916359D01*
X2913820Y608353D01*
Y603274D01*
X2916359Y600735D01*
X2929055Y610892D02*
Y603274D01*
X2931594Y600735D01*
X2939212D01*
Y610892D01*
X2944290Y600735D02*
Y610892D01*
X2951908D01*
X2954447Y608353D01*
Y600735D01*
X2969682Y615970D02*
Y600735D01*
X2962065D01*
X2959525Y603274D01*
Y608353D01*
X2962065Y610892D01*
X2969682D01*
X2898585Y562635D02*
Y577870D01*
X2906202D01*
X2908742Y575331D01*
Y570252D01*
X2906202Y567713D01*
X2898585D01*
X2903663D02*
X2908742Y562635D01*
X2916359D02*
X2921438D01*
X2923977Y565174D01*
Y570252D01*
X2921438Y572792D01*
X2916359D01*
X2913820Y570252D01*
Y565174D01*
X2916359Y562635D01*
X2929055Y572792D02*
Y565174D01*
X2931594Y562635D01*
X2939212D01*
Y572792D01*
X2944290Y562635D02*
Y572792D01*
X2951908D01*
X2954447Y570252D01*
Y562635D01*
X2969682Y577870D02*
Y562635D01*
X2962065D01*
X2959525Y565174D01*
Y570252D01*
X2962065Y572792D01*
X2969682D01*
X2898585Y524535D02*
Y539770D01*
X2906202D01*
X2908742Y537231D01*
Y532152D01*
X2906202Y529613D01*
X2898585D01*
X2903663D02*
X2908742Y524535D01*
X2916359D02*
X2921438D01*
X2923977Y527074D01*
Y532152D01*
X2921438Y534692D01*
X2916359D01*
X2913820Y532152D01*
Y527074D01*
X2916359Y524535D01*
X2929055Y534692D02*
Y527074D01*
X2931594Y524535D01*
X2939212D01*
Y534692D01*
X2944290Y524535D02*
Y534692D01*
X2951908D01*
X2954447Y532152D01*
Y524535D01*
X2969682Y539770D02*
Y524535D01*
X2962065D01*
X2959525Y527074D01*
Y532152D01*
X2962065Y534692D01*
X2969682D01*
X2898585Y486435D02*
Y501670D01*
X2906202D01*
X2908742Y499131D01*
Y494053D01*
X2906202Y491513D01*
X2898585D01*
X2903663D02*
X2908742Y486435D01*
X2916359D02*
X2921438D01*
X2923977Y488974D01*
Y494053D01*
X2921438Y496592D01*
X2916359D01*
X2913820Y494053D01*
Y488974D01*
X2916359Y486435D01*
X2929055Y496592D02*
Y488974D01*
X2931594Y486435D01*
X2939212D01*
Y496592D01*
X2944290Y486435D02*
Y496592D01*
X2951908D01*
X2954447Y494053D01*
Y486435D01*
X2969682Y501670D02*
Y486435D01*
X2962065D01*
X2959525Y488974D01*
Y494053D01*
X2962065Y496592D01*
X2969682D01*
X2770092Y791235D02*
Y806470D01*
X2777710D01*
X2780249Y803931D01*
Y798852D01*
X2777710Y796313D01*
X2770092D01*
X2785327Y806470D02*
X2795484D01*
X2790406D01*
Y791235D01*
X2800563Y806470D02*
Y791235D01*
Y798852D01*
X2810719D01*
Y806470D01*
Y791235D01*
X2770092Y753135D02*
Y768370D01*
X2777710D01*
X2780249Y765831D01*
Y760752D01*
X2777710Y758213D01*
X2770092D01*
X2785327Y768370D02*
X2795484D01*
X2790406D01*
Y753135D01*
X2800563Y768370D02*
Y753135D01*
Y760752D01*
X2810719D01*
Y768370D01*
Y753135D01*
X2770092Y715035D02*
Y730270D01*
X2777710D01*
X2780249Y727731D01*
Y722653D01*
X2777710Y720113D01*
X2770092D01*
X2785327Y730270D02*
X2795484D01*
X2790406D01*
Y715035D01*
X2800563Y730270D02*
Y715035D01*
Y722653D01*
X2810719D01*
Y730270D01*
Y715035D01*
X2770092Y676935D02*
Y692170D01*
X2777710D01*
X2780249Y689631D01*
Y684553D01*
X2777710Y682013D01*
X2770092D01*
X2785327Y692170D02*
X2795484D01*
X2790406D01*
Y676935D01*
X2800563Y692170D02*
Y676935D01*
Y684553D01*
X2810719D01*
Y692170D01*
Y676935D01*
X2770092Y638835D02*
Y654070D01*
X2777710D01*
X2780249Y651531D01*
Y646452D01*
X2777710Y643913D01*
X2770092D01*
X2785327Y654070D02*
X2795484D01*
X2790406D01*
Y638835D01*
X2800563Y654070D02*
Y638835D01*
Y646452D01*
X2810719D01*
Y654070D01*
Y638835D01*
X2770092Y600735D02*
Y615970D01*
X2780249Y600735D01*
Y615970D01*
X2785327Y600735D02*
Y615970D01*
X2792945D01*
X2795484Y613431D01*
Y608353D01*
X2792945Y605813D01*
X2785327D01*
X2800563Y615970D02*
X2810719D01*
X2805641D01*
Y600735D01*
X2815798Y615970D02*
Y600735D01*
Y608353D01*
X2825954D01*
Y615970D01*
Y600735D01*
X2770092Y562635D02*
Y577870D01*
X2777710D01*
X2780249Y575331D01*
Y570252D01*
X2777710Y567713D01*
X2770092D01*
X2785327Y577870D02*
X2795484D01*
X2790406D01*
Y562635D01*
X2800563Y577870D02*
Y562635D01*
Y570252D01*
X2810719D01*
Y577870D01*
Y562635D01*
X2770092Y524535D02*
Y539770D01*
X2777710D01*
X2780249Y537231D01*
Y532152D01*
X2777710Y529613D01*
X2770092D01*
X2785327Y539770D02*
X2795484D01*
X2790406D01*
Y524535D01*
X2800563Y539770D02*
Y524535D01*
Y532152D01*
X2810719D01*
Y539770D01*
Y524535D01*
X2770092Y486435D02*
Y501670D01*
X2777710D01*
X2780249Y499131D01*
Y494053D01*
X2777710Y491513D01*
X2770092D01*
X2785327Y501670D02*
X2795484D01*
X2790406D01*
Y486435D01*
X2800563Y501670D02*
Y486435D01*
Y494053D01*
X2810719D01*
Y501670D01*
Y486435D01*
X2485695Y791235D02*
Y806470D01*
X2478078Y798852D01*
X2488235D01*
X2493313Y806470D02*
X2503470D01*
Y803931D01*
X2493313Y793774D01*
Y791235D01*
X2508548D02*
Y793774D01*
X2511087D01*
Y791235D01*
X2508548D01*
X2531401D02*
X2521244D01*
X2531401Y801392D01*
Y803931D01*
X2528862Y806470D01*
X2523783D01*
X2521244Y803931D01*
X2544097Y791235D02*
Y806470D01*
X2536479Y798852D01*
X2546636D01*
X2551714Y791235D02*
Y801392D01*
X2554253D01*
X2556792Y798852D01*
Y791235D01*
Y798852D01*
X2559332Y801392D01*
X2561871Y798852D01*
Y791235D01*
X2566949D02*
X2572028D01*
X2569489D01*
Y801392D01*
X2566949D01*
X2579645Y791235D02*
X2584724D01*
X2582184D01*
Y806470D01*
X2579645D01*
X2612654Y791235D02*
X2607576Y796313D01*
Y801392D01*
X2612654Y806470D01*
X2620272Y791235D02*
X2625350D01*
X2622811D01*
Y806470D01*
X2620272Y803931D01*
X2632968Y791235D02*
Y793774D01*
X2635507D01*
Y791235D01*
X2632968D01*
X2655820D02*
X2645664D01*
X2655820Y801392D01*
Y803931D01*
X2653281Y806470D01*
X2648203D01*
X2645664Y803931D01*
X2660899D02*
X2663438Y806470D01*
X2668516D01*
X2671056Y803931D01*
Y793774D01*
X2668516Y791235D01*
X2663438D01*
X2660899Y793774D01*
Y803931D01*
X2676134D02*
X2678673Y806470D01*
X2683752D01*
X2686291Y803931D01*
Y793774D01*
X2683752Y791235D01*
X2678673D01*
X2676134Y793774D01*
Y803931D01*
X2691369Y791235D02*
Y801392D01*
X2693908D01*
X2696447Y798852D01*
Y791235D01*
Y798852D01*
X2698987Y801392D01*
X2701526Y798852D01*
Y791235D01*
X2706604D02*
Y801392D01*
X2709143D01*
X2711682Y798852D01*
Y791235D01*
Y798852D01*
X2714221Y801392D01*
X2716761Y798852D01*
Y791235D01*
X2721839D02*
X2726917Y796313D01*
Y801392D01*
X2721839Y806470D01*
X2478078Y753135D02*
X2483156D01*
X2480617D01*
Y768370D01*
X2478078Y765831D01*
X2500931Y753135D02*
X2490774D01*
X2500931Y763292D01*
Y765831D01*
X2498391Y768370D01*
X2493313D01*
X2490774Y765831D01*
X2516166Y768370D02*
X2506009D01*
Y760752D01*
X2511087Y763292D01*
X2513627D01*
X2516166Y760752D01*
Y755674D01*
X2513627Y753135D01*
X2508548D01*
X2506009Y755674D01*
X2521244Y753135D02*
Y755674D01*
X2523783D01*
Y753135D01*
X2521244D01*
X2533940Y755674D02*
X2536479Y753135D01*
X2541557D01*
X2544097Y755674D01*
Y765831D01*
X2541557Y768370D01*
X2536479D01*
X2533940Y765831D01*
Y763292D01*
X2536479Y760752D01*
X2544097D01*
X2549175Y765831D02*
X2551714Y768370D01*
X2556792D01*
X2559332Y765831D01*
Y763292D01*
X2556792Y760752D01*
X2559332Y758213D01*
Y755674D01*
X2556792Y753135D01*
X2551714D01*
X2549175Y755674D01*
Y758213D01*
X2551714Y760752D01*
X2549175Y763292D01*
Y765831D01*
X2551714Y760752D02*
X2556792D01*
X2564410Y753135D02*
Y763292D01*
X2566949D01*
X2569489Y760752D01*
Y753135D01*
Y760752D01*
X2572028Y763292D01*
X2574567Y760752D01*
Y753135D01*
X2579645D02*
X2584724D01*
X2582184D01*
Y763292D01*
X2579645D01*
X2592341Y753135D02*
X2597419D01*
X2594880D01*
Y768370D01*
X2592341D01*
X2625350Y753135D02*
X2620272Y758213D01*
Y763292D01*
X2625350Y768370D01*
X2632968Y765831D02*
X2635507Y768370D01*
X2640585D01*
X2643125Y765831D01*
Y763292D01*
X2640585Y760752D01*
X2638046D01*
X2640585D01*
X2643125Y758213D01*
Y755674D01*
X2640585Y753135D01*
X2635507D01*
X2632968Y755674D01*
X2648203Y753135D02*
Y755674D01*
X2650742D01*
Y753135D01*
X2648203D01*
X2671056D02*
X2660899D01*
X2671056Y763292D01*
Y765831D01*
X2668516Y768370D01*
X2663438D01*
X2660899Y765831D01*
X2676134D02*
X2678673Y768370D01*
X2683752D01*
X2686291Y765831D01*
Y755674D01*
X2683752Y753135D01*
X2678673D01*
X2676134Y755674D01*
Y765831D01*
X2691369D02*
X2693908Y768370D01*
X2698987D01*
X2701526Y765831D01*
Y755674D01*
X2698987Y753135D01*
X2693908D01*
X2691369Y755674D01*
Y765831D01*
X2706604Y753135D02*
Y763292D01*
X2709143D01*
X2711682Y760752D01*
Y753135D01*
Y760752D01*
X2714221Y763292D01*
X2716761Y760752D01*
Y753135D01*
X2721839D02*
Y763292D01*
X2724378D01*
X2726917Y760752D01*
Y753135D01*
Y760752D01*
X2729456Y763292D01*
X2731996Y760752D01*
Y753135D01*
X2737074D02*
X2742152Y758213D01*
Y763292D01*
X2737074Y768370D01*
X2478078Y727731D02*
X2480617Y730270D01*
X2485695D01*
X2488235Y727731D01*
Y725192D01*
X2485695Y722653D01*
X2483156D01*
X2485695D01*
X2488235Y720113D01*
Y717574D01*
X2485695Y715035D01*
X2480617D01*
X2478078Y717574D01*
X2493313Y715035D02*
X2498391D01*
X2495852D01*
Y730270D01*
X2493313Y727731D01*
X2506009Y715035D02*
Y717574D01*
X2508548D01*
Y715035D01*
X2506009D01*
X2528862Y730270D02*
X2518705D01*
Y722653D01*
X2523783Y725192D01*
X2526322D01*
X2528862Y722653D01*
Y717574D01*
X2526322Y715035D01*
X2521244D01*
X2518705Y717574D01*
X2533940Y727731D02*
X2536479Y730270D01*
X2541557D01*
X2544097Y727731D01*
Y717574D01*
X2541557Y715035D01*
X2536479D01*
X2533940Y717574D01*
Y727731D01*
X2549175Y715035D02*
Y725192D01*
X2551714D01*
X2554253Y722653D01*
Y715035D01*
Y722653D01*
X2556792Y725192D01*
X2559332Y722653D01*
Y715035D01*
X2564410D02*
X2569489D01*
X2566949D01*
Y725192D01*
X2564410D01*
X2577106Y715035D02*
X2582184D01*
X2579645D01*
Y730270D01*
X2577106D01*
X2610115Y715035D02*
X2605037Y720113D01*
Y725192D01*
X2610115Y730270D01*
X2617733Y727731D02*
X2620272Y730270D01*
X2625350D01*
X2627889Y727731D01*
Y717574D01*
X2625350Y715035D01*
X2620272D01*
X2617733Y717574D01*
Y727731D01*
X2632968Y715035D02*
Y717574D01*
X2635507D01*
Y715035D01*
X2632968D01*
X2645664Y727731D02*
X2648203Y730270D01*
X2653281D01*
X2655820Y727731D01*
Y725192D01*
X2653281Y722653D01*
X2655820Y720113D01*
Y717574D01*
X2653281Y715035D01*
X2648203D01*
X2645664Y717574D01*
Y720113D01*
X2648203Y722653D01*
X2645664Y725192D01*
Y727731D01*
X2648203Y722653D02*
X2653281D01*
X2660899Y727731D02*
X2663438Y730270D01*
X2668516D01*
X2671056Y727731D01*
Y717574D01*
X2668516Y715035D01*
X2663438D01*
X2660899Y717574D01*
Y727731D01*
X2676134D02*
X2678673Y730270D01*
X2683752D01*
X2686291Y727731D01*
Y717574D01*
X2683752Y715035D01*
X2678673D01*
X2676134Y717574D01*
Y727731D01*
X2691369Y715035D02*
Y725192D01*
X2693908D01*
X2696447Y722653D01*
Y715035D01*
Y722653D01*
X2698987Y725192D01*
X2701526Y722653D01*
Y715035D01*
X2706604D02*
Y725192D01*
X2709143D01*
X2711682Y722653D01*
Y715035D01*
Y722653D01*
X2714221Y725192D01*
X2716761Y722653D01*
Y715035D01*
X2721839D02*
X2726917Y720113D01*
Y725192D01*
X2721839Y730270D01*
X2488235Y692170D02*
X2478078D01*
Y684553D01*
X2483156Y687092D01*
X2485695D01*
X2488235Y684553D01*
Y679474D01*
X2485695Y676935D01*
X2480617D01*
X2478078Y679474D01*
X2493313D02*
X2495852Y676935D01*
X2500931D01*
X2503470Y679474D01*
Y689631D01*
X2500931Y692170D01*
X2495852D01*
X2493313Y689631D01*
Y687092D01*
X2495852Y684553D01*
X2503470D01*
X2508548Y676935D02*
Y679474D01*
X2511087D01*
Y676935D01*
X2508548D01*
X2521244Y689631D02*
X2523783Y692170D01*
X2528862D01*
X2531401Y689631D01*
Y679474D01*
X2528862Y676935D01*
X2523783D01*
X2521244Y679474D01*
Y689631D01*
X2546636Y692170D02*
X2541557Y689631D01*
X2536479Y684553D01*
Y679474D01*
X2539018Y676935D01*
X2544097D01*
X2546636Y679474D01*
Y682013D01*
X2544097Y684553D01*
X2536479D01*
X2551714Y676935D02*
Y687092D01*
X2554253D01*
X2556792Y684553D01*
Y676935D01*
Y684553D01*
X2559332Y687092D01*
X2561871Y684553D01*
Y676935D01*
X2566949D02*
X2572028D01*
X2569489D01*
Y687092D01*
X2566949D01*
X2579645Y676935D02*
X2584724D01*
X2582184D01*
Y692170D01*
X2579645D01*
X2612654Y676935D02*
X2607576Y682013D01*
Y687092D01*
X2612654Y692170D01*
X2620272Y676935D02*
X2625350D01*
X2622811D01*
Y692170D01*
X2620272Y689631D01*
X2632968Y676935D02*
Y679474D01*
X2635507D01*
Y676935D01*
X2632968D01*
X2655820Y692170D02*
X2645664D01*
Y684553D01*
X2650742Y687092D01*
X2653281D01*
X2655820Y684553D01*
Y679474D01*
X2653281Y676935D01*
X2648203D01*
X2645664Y679474D01*
X2660899Y689631D02*
X2663438Y692170D01*
X2668516D01*
X2671056Y689631D01*
Y679474D01*
X2668516Y676935D01*
X2663438D01*
X2660899Y679474D01*
Y689631D01*
X2676134D02*
X2678673Y692170D01*
X2683752D01*
X2686291Y689631D01*
Y679474D01*
X2683752Y676935D01*
X2678673D01*
X2676134Y679474D01*
Y689631D01*
X2691369Y676935D02*
Y687092D01*
X2693908D01*
X2696447Y684553D01*
Y676935D01*
Y684553D01*
X2698987Y687092D01*
X2701526Y684553D01*
Y676935D01*
X2706604D02*
Y687092D01*
X2709143D01*
X2711682Y684553D01*
Y676935D01*
Y684553D01*
X2714221Y687092D01*
X2716761Y684553D01*
Y676935D01*
X2721839D02*
X2726917Y682013D01*
Y687092D01*
X2721839Y692170D01*
X2478078Y651531D02*
X2480617Y654070D01*
X2485695D01*
X2488235Y651531D01*
Y648992D01*
X2485695Y646452D01*
X2483156D01*
X2485695D01*
X2488235Y643913D01*
Y641374D01*
X2485695Y638835D01*
X2480617D01*
X2478078Y641374D01*
X2493313Y651531D02*
X2495852Y654070D01*
X2500931D01*
X2503470Y651531D01*
Y648992D01*
X2500931Y646452D01*
X2498391D01*
X2500931D01*
X2503470Y643913D01*
Y641374D01*
X2500931Y638835D01*
X2495852D01*
X2493313Y641374D01*
X2508548Y638835D02*
Y641374D01*
X2511087D01*
Y638835D01*
X2508548D01*
X2528862D02*
Y654070D01*
X2521244Y646452D01*
X2531401D01*
X2536479Y654070D02*
X2546636D01*
Y651531D01*
X2536479Y641374D01*
Y638835D01*
X2551714D02*
Y648992D01*
X2554253D01*
X2556792Y646452D01*
Y638835D01*
Y646452D01*
X2559332Y648992D01*
X2561871Y646452D01*
Y638835D01*
X2566949D02*
X2572028D01*
X2569489D01*
Y648992D01*
X2566949D01*
X2579645Y638835D02*
X2584724D01*
X2582184D01*
Y654070D01*
X2579645D01*
X2612654Y638835D02*
X2607576Y643913D01*
Y648992D01*
X2612654Y654070D01*
X2620272Y651531D02*
X2622811Y654070D01*
X2627889D01*
X2630429Y651531D01*
Y641374D01*
X2627889Y638835D01*
X2622811D01*
X2620272Y641374D01*
Y651531D01*
X2635507Y638835D02*
Y641374D01*
X2638046D01*
Y638835D01*
X2635507D01*
X2648203Y651531D02*
X2650742Y654070D01*
X2655820D01*
X2658360Y651531D01*
Y648992D01*
X2655820Y646452D01*
X2658360Y643913D01*
Y641374D01*
X2655820Y638835D01*
X2650742D01*
X2648203Y641374D01*
Y643913D01*
X2650742Y646452D01*
X2648203Y648992D01*
Y651531D01*
X2650742Y646452D02*
X2655820D01*
X2673595Y654070D02*
X2663438D01*
Y646452D01*
X2668516Y648992D01*
X2671056D01*
X2673595Y646452D01*
Y641374D01*
X2671056Y638835D01*
X2665977D01*
X2663438Y641374D01*
X2678673Y651531D02*
X2681212Y654070D01*
X2686291D01*
X2688830Y651531D01*
Y641374D01*
X2686291Y638835D01*
X2681212D01*
X2678673Y641374D01*
Y651531D01*
X2693908Y638835D02*
Y648992D01*
X2696447D01*
X2698987Y646452D01*
Y638835D01*
Y646452D01*
X2701526Y648992D01*
X2704065Y646452D01*
Y638835D01*
X2709143D02*
Y648992D01*
X2711682D01*
X2714221Y646452D01*
Y638835D01*
Y646452D01*
X2716761Y648992D01*
X2719300Y646452D01*
Y638835D01*
X2724378D02*
X2729456Y643913D01*
Y648992D01*
X2724378Y654070D01*
X2478078Y600735D02*
X2483156D01*
X2480617D01*
Y615970D01*
X2478078Y613431D01*
X2500931Y600735D02*
X2490774D01*
X2500931Y610892D01*
Y613431D01*
X2498391Y615970D01*
X2493313D01*
X2490774Y613431D01*
X2516166Y600735D02*
X2506009D01*
X2516166Y610892D01*
Y613431D01*
X2513627Y615970D01*
X2508548D01*
X2506009Y613431D01*
X2521244Y600735D02*
Y603274D01*
X2523783D01*
Y600735D01*
X2521244D01*
X2533940Y613431D02*
X2536479Y615970D01*
X2541557D01*
X2544097Y613431D01*
Y603274D01*
X2541557Y600735D01*
X2536479D01*
X2533940Y603274D01*
Y613431D01*
X2559332Y615970D02*
X2549175D01*
Y608353D01*
X2554253Y610892D01*
X2556792D01*
X2559332Y608353D01*
Y603274D01*
X2556792Y600735D01*
X2551714D01*
X2549175Y603274D01*
X2564410Y600735D02*
Y610892D01*
X2566949D01*
X2569489Y608353D01*
Y600735D01*
Y608353D01*
X2572028Y610892D01*
X2574567Y608353D01*
Y600735D01*
X2579645D02*
X2584724D01*
X2582184D01*
Y610892D01*
X2579645D01*
X2592341Y600735D02*
X2597419D01*
X2594880D01*
Y615970D01*
X2592341D01*
X2625350Y600735D02*
X2620272Y605813D01*
Y610892D01*
X2625350Y615970D01*
X2632968Y613431D02*
X2635507Y615970D01*
X2640585D01*
X2643125Y613431D01*
Y610892D01*
X2640585Y608353D01*
X2638046D01*
X2640585D01*
X2643125Y605813D01*
Y603274D01*
X2640585Y600735D01*
X2635507D01*
X2632968Y603274D01*
X2648203Y600735D02*
Y603274D01*
X2650742D01*
Y600735D01*
X2648203D01*
X2660899D02*
X2665977D01*
X2663438D01*
Y615970D01*
X2660899Y613431D01*
X2673595D02*
X2676134Y615970D01*
X2681212D01*
X2683752Y613431D01*
Y603274D01*
X2681212Y600735D01*
X2676134D01*
X2673595Y603274D01*
Y613431D01*
X2688830D02*
X2691369Y615970D01*
X2696447D01*
X2698987Y613431D01*
Y603274D01*
X2696447Y600735D01*
X2691369D01*
X2688830Y603274D01*
Y613431D01*
X2704065Y600735D02*
Y610892D01*
X2706604D01*
X2709143Y608353D01*
Y600735D01*
Y608353D01*
X2711682Y610892D01*
X2714221Y608353D01*
Y600735D01*
X2719300D02*
Y610892D01*
X2721839D01*
X2724378Y608353D01*
Y600735D01*
Y608353D01*
X2726917Y610892D01*
X2729456Y608353D01*
Y600735D01*
X2734535D02*
X2739613Y605813D01*
Y610892D01*
X2734535Y615970D01*
X2478078Y562635D02*
X2483156D01*
X2480617D01*
Y577870D01*
X2478078Y575331D01*
X2490774Y565174D02*
X2493313Y562635D01*
X2498391D01*
X2500931Y565174D01*
Y575331D01*
X2498391Y577870D01*
X2493313D01*
X2490774Y575331D01*
Y572792D01*
X2493313Y570252D01*
X2500931D01*
X2506009Y562635D02*
Y565174D01*
X2508548D01*
Y562635D01*
X2506009D01*
X2528862Y577870D02*
X2523783Y575331D01*
X2518705Y570252D01*
Y565174D01*
X2521244Y562635D01*
X2526322D01*
X2528862Y565174D01*
Y567713D01*
X2526322Y570252D01*
X2518705D01*
X2533940Y565174D02*
X2536479Y562635D01*
X2541557D01*
X2544097Y565174D01*
Y575331D01*
X2541557Y577870D01*
X2536479D01*
X2533940Y575331D01*
Y572792D01*
X2536479Y570252D01*
X2544097D01*
X2549175Y562635D02*
Y572792D01*
X2551714D01*
X2554253Y570252D01*
Y562635D01*
Y570252D01*
X2556792Y572792D01*
X2559332Y570252D01*
Y562635D01*
X2564410D02*
X2569489D01*
X2566949D01*
Y572792D01*
X2564410D01*
X2577106Y562635D02*
X2582184D01*
X2579645D01*
Y577870D01*
X2577106D01*
X2610115Y562635D02*
X2605037Y567713D01*
Y572792D01*
X2610115Y577870D01*
X2617733Y575331D02*
X2620272Y577870D01*
X2625350D01*
X2627889Y575331D01*
Y565174D01*
X2625350Y562635D01*
X2620272D01*
X2617733Y565174D01*
Y575331D01*
X2632968Y562635D02*
Y565174D01*
X2635507D01*
Y562635D01*
X2632968D01*
X2655820Y577870D02*
X2645664D01*
Y570252D01*
X2650742Y572792D01*
X2653281D01*
X2655820Y570252D01*
Y565174D01*
X2653281Y562635D01*
X2648203D01*
X2645664Y565174D01*
X2660899Y575331D02*
X2663438Y577870D01*
X2668516D01*
X2671056Y575331D01*
Y565174D01*
X2668516Y562635D01*
X2663438D01*
X2660899Y565174D01*
Y575331D01*
X2676134D02*
X2678673Y577870D01*
X2683752D01*
X2686291Y575331D01*
Y565174D01*
X2683752Y562635D01*
X2678673D01*
X2676134Y565174D01*
Y575331D01*
X2691369Y562635D02*
Y572792D01*
X2693908D01*
X2696447Y570252D01*
Y562635D01*
Y570252D01*
X2698987Y572792D01*
X2701526Y570252D01*
Y562635D01*
X2706604D02*
Y572792D01*
X2709143D01*
X2711682Y570252D01*
Y562635D01*
Y570252D01*
X2714221Y572792D01*
X2716761Y570252D01*
Y562635D01*
X2721839D02*
X2726917Y567713D01*
Y572792D01*
X2721839Y577870D01*
X2478078Y537231D02*
X2480617Y539770D01*
X2485695D01*
X2488235Y537231D01*
Y534692D01*
X2485695Y532152D01*
X2483156D01*
X2485695D01*
X2488235Y529613D01*
Y527074D01*
X2485695Y524535D01*
X2480617D01*
X2478078Y527074D01*
X2503470Y539770D02*
X2493313D01*
Y532152D01*
X2498391Y534692D01*
X2500931D01*
X2503470Y532152D01*
Y527074D01*
X2500931Y524535D01*
X2495852D01*
X2493313Y527074D01*
X2508548Y524535D02*
Y527074D01*
X2511087D01*
Y524535D01*
X2508548D01*
X2528862D02*
Y539770D01*
X2521244Y532152D01*
X2531401D01*
X2536479Y537231D02*
X2539018Y539770D01*
X2544097D01*
X2546636Y537231D01*
Y534692D01*
X2544097Y532152D01*
X2541557D01*
X2544097D01*
X2546636Y529613D01*
Y527074D01*
X2544097Y524535D01*
X2539018D01*
X2536479Y527074D01*
X2551714Y524535D02*
Y534692D01*
X2554253D01*
X2556792Y532152D01*
Y524535D01*
Y532152D01*
X2559332Y534692D01*
X2561871Y532152D01*
Y524535D01*
X2566949D02*
X2572028D01*
X2569489D01*
Y534692D01*
X2566949D01*
X2579645Y524535D02*
X2584724D01*
X2582184D01*
Y539770D01*
X2579645D01*
X2612654Y524535D02*
X2607576Y529613D01*
Y534692D01*
X2612654Y539770D01*
X2620272Y537231D02*
X2622811Y539770D01*
X2627889D01*
X2630429Y537231D01*
Y527074D01*
X2627889Y524535D01*
X2622811D01*
X2620272Y527074D01*
Y537231D01*
X2635507Y524535D02*
Y527074D01*
X2638046D01*
Y524535D01*
X2635507D01*
X2648203Y527074D02*
X2650742Y524535D01*
X2655820D01*
X2658360Y527074D01*
Y537231D01*
X2655820Y539770D01*
X2650742D01*
X2648203Y537231D01*
Y534692D01*
X2650742Y532152D01*
X2658360D01*
X2663438Y537231D02*
X2665977Y539770D01*
X2671056D01*
X2673595Y537231D01*
Y527074D01*
X2671056Y524535D01*
X2665977D01*
X2663438Y527074D01*
Y537231D01*
X2678673D02*
X2681212Y539770D01*
X2686291D01*
X2688830Y537231D01*
Y527074D01*
X2686291Y524535D01*
X2681212D01*
X2678673Y527074D01*
Y537231D01*
X2693908Y524535D02*
Y534692D01*
X2696447D01*
X2698987Y532152D01*
Y524535D01*
Y532152D01*
X2701526Y534692D01*
X2704065Y532152D01*
Y524535D01*
X2709143D02*
Y534692D01*
X2711682D01*
X2714221Y532152D01*
Y524535D01*
Y532152D01*
X2716761Y534692D01*
X2719300Y532152D01*
Y524535D01*
X2724378D02*
X2729456Y529613D01*
Y534692D01*
X2724378Y539770D01*
X2478078Y499131D02*
X2480617Y501670D01*
X2485695D01*
X2488235Y499131D01*
Y496592D01*
X2485695Y494053D01*
X2483156D01*
X2485695D01*
X2488235Y491513D01*
Y488974D01*
X2485695Y486435D01*
X2480617D01*
X2478078Y488974D01*
X2493313D02*
X2495852Y486435D01*
X2500931D01*
X2503470Y488974D01*
Y499131D01*
X2500931Y501670D01*
X2495852D01*
X2493313Y499131D01*
Y496592D01*
X2495852Y494053D01*
X2503470D01*
X2508548Y486435D02*
Y488974D01*
X2511087D01*
Y486435D01*
X2508548D01*
X2521244Y499131D02*
X2523783Y501670D01*
X2528862D01*
X2531401Y499131D01*
Y496592D01*
X2528862Y494053D01*
X2526322D01*
X2528862D01*
X2531401Y491513D01*
Y488974D01*
X2528862Y486435D01*
X2523783D01*
X2521244Y488974D01*
X2536479Y501670D02*
X2546636D01*
Y499131D01*
X2536479Y488974D01*
Y486435D01*
X2551714D02*
Y496592D01*
X2554253D01*
X2556792Y494053D01*
Y486435D01*
Y494053D01*
X2559332Y496592D01*
X2561871Y494053D01*
Y486435D01*
X2566949D02*
X2572028D01*
X2569489D01*
Y496592D01*
X2566949D01*
X2579645Y486435D02*
X2584724D01*
X2582184D01*
Y501670D01*
X2579645D01*
X2612654Y486435D02*
X2607576Y491513D01*
Y496592D01*
X2612654Y501670D01*
X2620272Y486435D02*
X2625350D01*
X2622811D01*
Y501670D01*
X2620272Y499131D01*
X2632968Y486435D02*
Y488974D01*
X2635507D01*
Y486435D01*
X2632968D01*
X2645664Y499131D02*
X2648203Y501670D01*
X2653281D01*
X2655820Y499131D01*
Y488974D01*
X2653281Y486435D01*
X2648203D01*
X2645664Y488974D01*
Y499131D01*
X2660899D02*
X2663438Y501670D01*
X2668516D01*
X2671056Y499131D01*
Y488974D01*
X2668516Y486435D01*
X2663438D01*
X2660899Y488974D01*
Y499131D01*
X2676134D02*
X2678673Y501670D01*
X2683752D01*
X2686291Y499131D01*
Y488974D01*
X2683752Y486435D01*
X2678673D01*
X2676134Y488974D01*
Y499131D01*
X2691369Y486435D02*
Y496592D01*
X2693908D01*
X2696447Y494053D01*
Y486435D01*
Y494053D01*
X2698987Y496592D01*
X2701526Y494053D01*
Y486435D01*
X2706604D02*
Y496592D01*
X2709143D01*
X2711682Y494053D01*
Y486435D01*
Y494053D01*
X2714221Y496592D01*
X2716761Y494053D01*
Y486435D01*
X2721839D02*
X2726917Y491513D01*
Y496592D01*
X2721839Y501670D01*
X2328257Y448335D02*
X2333336D01*
X2330797D01*
Y463570D01*
X2328257Y461031D01*
X2351110Y448335D02*
X2340953D01*
X2351110Y458492D01*
Y461031D01*
X2348571Y463570D01*
X2343492D01*
X2340953Y461031D01*
X2356188Y463570D02*
X2366345D01*
Y461031D01*
X2356188Y450874D01*
Y448335D01*
X2386658Y463570D02*
X2396815D01*
X2391737D01*
Y448335D01*
X2404433D02*
X2409511D01*
X2412050Y450874D01*
Y455952D01*
X2409511Y458492D01*
X2404433D01*
X2401894Y455952D01*
Y450874D01*
X2404433Y448335D01*
X2419668Y461031D02*
Y458492D01*
X2417129D01*
X2422207D01*
X2419668D01*
Y450874D01*
X2422207Y448335D01*
X2432364Y458492D02*
X2437442D01*
X2439981Y455952D01*
Y448335D01*
X2432364D01*
X2429825Y450874D01*
X2432364Y453413D01*
X2439981D01*
X2445060Y448335D02*
X2450138D01*
X2447599D01*
Y463570D01*
X2445060D01*
X2338414Y791235D02*
X2328257D01*
X2338414Y801392D01*
Y803931D01*
X2335875Y806470D01*
X2330797D01*
X2328257Y803931D01*
X2338414Y753135D02*
X2328257D01*
X2338414Y763292D01*
Y765831D01*
X2335875Y768370D01*
X2330797D01*
X2328257Y765831D01*
Y727731D02*
X2330797Y730270D01*
X2335875D01*
X2338414Y727731D01*
Y725192D01*
X2335875Y722653D01*
X2333336D01*
X2335875D01*
X2338414Y720113D01*
Y717574D01*
X2335875Y715035D01*
X2330797D01*
X2328257Y717574D01*
X2335875Y676935D02*
Y692170D01*
X2328257Y684553D01*
X2338414D01*
X2328257Y638835D02*
X2333336D01*
X2330797D01*
Y654070D01*
X2328257Y651531D01*
X2340953D02*
X2343492Y654070D01*
X2348571D01*
X2351110Y651531D01*
Y641374D01*
X2348571Y638835D01*
X2343492D01*
X2340953Y641374D01*
Y651531D01*
X2328257Y600735D02*
X2333336D01*
X2330797D01*
Y615970D01*
X2328257Y613431D01*
X2340953D02*
X2343492Y615970D01*
X2348571D01*
X2351110Y613431D01*
Y603274D01*
X2348571Y600735D01*
X2343492D01*
X2340953Y603274D01*
Y613431D01*
X2328257Y562635D02*
X2333336D01*
X2330797D01*
Y577870D01*
X2328257Y575331D01*
X2340953D02*
X2343492Y577870D01*
X2348571D01*
X2351110Y575331D01*
Y572792D01*
X2348571Y570252D01*
X2351110Y567713D01*
Y565174D01*
X2348571Y562635D01*
X2343492D01*
X2340953Y565174D01*
Y567713D01*
X2343492Y570252D01*
X2340953Y572792D01*
Y575331D01*
X2343492Y570252D02*
X2348571D01*
X2338414Y524535D02*
X2328257D01*
X2338414Y534692D01*
Y537231D01*
X2335875Y539770D01*
X2330797D01*
X2328257Y537231D01*
X2343492D02*
X2346032Y539770D01*
X2351110D01*
X2353649Y537231D01*
Y527074D01*
X2351110Y524535D01*
X2346032D01*
X2343492Y527074D01*
Y537231D01*
X2338414Y501670D02*
X2328257D01*
Y494053D01*
X2333336Y496592D01*
X2335875D01*
X2338414Y494053D01*
Y488974D01*
X2335875Y486435D01*
X2330797D01*
X2328257Y488974D01*
X2343492Y499131D02*
X2346032Y501670D01*
X2351110D01*
X2353649Y499131D01*
Y496592D01*
X2351110Y494053D01*
X2353649Y491513D01*
Y488974D01*
X2351110Y486435D01*
X2346032D01*
X2343492Y488974D01*
Y491513D01*
X2346032Y494053D01*
X2343492Y496592D01*
Y499131D01*
X2346032Y494053D02*
X2351110D01*
D84*
X1387540Y907000D02*
G03*
X1387540Y907000I-2540J0D01*
G01*
X1362140D02*
G03*
X1362140Y907000I-2540J0D01*
G01*
X1387540Y726000D02*
G03*
X1387540Y726000I-2540J0D01*
G01*
X1362140D02*
G03*
X1362140Y726000I-2540J0D01*
G01*
X1387540Y545000D02*
G03*
X1387540Y545000I-2540J0D01*
G01*
X1362140D02*
G03*
X1362140Y545000I-2540J0D01*
G01*
X1658940Y514000D02*
G03*
X1658940Y514000I-2540J0D01*
G01*
X1684340D02*
G03*
X1684340Y514000I-2540J0D01*
G01*
X1709740D02*
G03*
X1709740Y514000I-2540J0D01*
G01*
X1735140D02*
G03*
X1735140Y514000I-2540J0D01*
G01*
X1760540D02*
G03*
X1760540Y514000I-2540J0D01*
G01*
X1633540D02*
G03*
X1633540Y514000I-2540J0D01*
G01*
X1062540Y606000D02*
G03*
X1062540Y606000I-2540J0D01*
G01*
X1087940D02*
G03*
X1087940Y606000I-2540J0D01*
G01*
X1113340D02*
G03*
X1113340Y606000I-2540J0D01*
G01*
X1138740D02*
G03*
X1138740Y606000I-2540J0D01*
G01*
X1087540Y473000D02*
G03*
X1087540Y473000I-2540J0D01*
G01*
X1011540D02*
G03*
X1011540Y473000I-2540J0D01*
G01*
X956140Y746800D02*
G03*
X956140Y746800I-2540J0D01*
G01*
X930740D02*
G03*
X930740Y746800I-2540J0D01*
G01*
X905340D02*
G03*
X905340Y746800I-2540J0D01*
G01*
X879940D02*
G03*
X879940Y746800I-2540J0D01*
G01*
X854540D02*
G03*
X854540Y746800I-2540J0D01*
G01*
X829140D02*
G03*
X829140Y746800I-2540J0D01*
G01*
X803740D02*
G03*
X803740Y746800I-2540J0D01*
G01*
X778340D02*
G03*
X778340Y746800I-2540J0D01*
G01*
X752940D02*
G03*
X752940Y746800I-2540J0D01*
G01*
X727540D02*
G03*
X727540Y746800I-2540J0D01*
G01*
X702140D02*
G03*
X702140Y746800I-2540J0D01*
G01*
X676740D02*
G03*
X676740Y746800I-2540J0D01*
G01*
X651340D02*
G03*
X651340Y746800I-2540J0D01*
G01*
X625940D02*
G03*
X625940Y746800I-2540J0D01*
G01*
X600540D02*
G03*
X600540Y746800I-2540J0D01*
G01*
X575140D02*
G03*
X575140Y746800I-2540J0D01*
G01*
X549740D02*
G03*
X549740Y746800I-2540J0D01*
G01*
X524340D02*
G03*
X524340Y746800I-2540J0D01*
G01*
X498940D02*
G03*
X498940Y746800I-2540J0D01*
G01*
X473540D02*
G03*
X473540Y746800I-2540J0D01*
G01*
X956140Y569000D02*
G03*
X956140Y569000I-2540J0D01*
G01*
X930740D02*
G03*
X930740Y569000I-2540J0D01*
G01*
X905340D02*
G03*
X905340Y569000I-2540J0D01*
G01*
X879940D02*
G03*
X879940Y569000I-2540J0D01*
G01*
X854540D02*
G03*
X854540Y569000I-2540J0D01*
G01*
X829140D02*
G03*
X829140Y569000I-2540J0D01*
G01*
X803740D02*
G03*
X803740Y569000I-2540J0D01*
G01*
X778340D02*
G03*
X778340Y569000I-2540J0D01*
G01*
X752940D02*
G03*
X752940Y569000I-2540J0D01*
G01*
X727540D02*
G03*
X727540Y569000I-2540J0D01*
G01*
X702140D02*
G03*
X702140Y569000I-2540J0D01*
G01*
X676740D02*
G03*
X676740Y569000I-2540J0D01*
G01*
X651340D02*
G03*
X651340Y569000I-2540J0D01*
G01*
X625940D02*
G03*
X625940Y569000I-2540J0D01*
G01*
X600540D02*
G03*
X600540Y569000I-2540J0D01*
G01*
X575140D02*
G03*
X575140Y569000I-2540J0D01*
G01*
X549740D02*
G03*
X549740Y569000I-2540J0D01*
G01*
X524340D02*
G03*
X524340Y569000I-2540J0D01*
G01*
X498940D02*
G03*
X498940Y569000I-2540J0D01*
G01*
X473540D02*
G03*
X473540Y569000I-2540J0D01*
G01*
X1035050Y656082D02*
X1037590Y653542D01*
X1040130Y656082D01*
X1037590Y658622D02*
X1040130Y656082D01*
X1035050D02*
X1037590Y658622D01*
X1007872Y800100D02*
X1010412Y797560D01*
X1012952Y800100D01*
X1010412Y802640D02*
X1012952Y800100D01*
X1007872D02*
X1010412Y802640D01*
X1028446Y743458D02*
X1030986Y740918D01*
X1033526Y743458D01*
X1030986Y745998D02*
X1033526Y743458D01*
X1028446D02*
X1030986Y745998D01*
X430022Y593344D02*
X432562Y590804D01*
X435102Y593344D01*
X432562Y595884D02*
X435102Y593344D01*
X430022D02*
X432562Y595884D01*
X701040Y792480D02*
X703580Y789940D01*
X706120Y792480D01*
X703580Y795020D02*
X706120Y792480D01*
X701040D02*
X703580Y795020D01*
X939800Y603758D02*
X942340Y601218D01*
X944880Y603758D01*
X942340Y606298D02*
X944880Y603758D01*
X939800D02*
X942340Y606298D01*
X1091438Y758952D02*
X1093978Y756412D01*
X1096518Y758952D01*
X1093978Y761492D02*
X1096518Y758952D01*
X1091438D02*
X1093978Y761492D01*
X1140714Y713994D02*
X1143254Y711454D01*
X1145794Y713994D01*
X1143254Y716534D02*
X1145794Y713994D01*
X1140714D02*
X1143254Y716534D01*
X1104138Y692150D02*
X1106678Y689610D01*
X1109218Y692150D01*
X1106678Y694690D02*
X1109218Y692150D01*
X1104138D02*
X1106678Y694690D01*
X1040384Y612902D02*
X1042924Y610362D01*
X1045464Y612902D01*
X1042924Y615442D02*
X1045464Y612902D01*
X1040384D02*
X1042924Y615442D01*
X969010Y590296D02*
X971550Y587756D01*
X974090Y590296D01*
X971550Y592836D02*
X974090Y590296D01*
X969010D02*
X971550Y592836D01*
X491998Y806958D02*
X494538Y804418D01*
X497078Y806958D01*
X494538Y809498D02*
X497078Y806958D01*
X491998D02*
X494538Y809498D01*
X555752Y669036D02*
X558292Y666496D01*
X560832Y669036D01*
X558292Y671576D02*
X560832Y669036D01*
X555752D02*
X558292Y671576D01*
X489966Y657606D02*
X492506Y655066D01*
X495046Y657606D01*
X492506Y660146D02*
X495046Y657606D01*
X489966D02*
X492506Y660146D01*
X1173988Y642874D02*
X1176528Y640334D01*
X1179068Y642874D01*
X1176528Y645414D02*
X1179068Y642874D01*
X1173988D02*
X1176528Y645414D01*
X921512Y613664D02*
X924052Y611124D01*
X926592Y613664D01*
X924052Y616204D02*
X926592Y613664D01*
X921512D02*
X924052Y616204D01*
X1057460Y529590D02*
X1060000Y527050D01*
X1062540Y529590D01*
X1060000Y532130D02*
X1062540Y529590D01*
X1057460D02*
X1060000Y532130D01*
X1027460Y758000D02*
X1030000Y755460D01*
X1032540Y758000D01*
X1030000Y760540D02*
X1032540Y758000D01*
X1027460D02*
X1030000Y760540D01*
X919860Y895952D02*
X924940D01*
Y901032D01*
X919860D02*
X924940D01*
X919860Y895952D02*
Y901032D01*
X894460Y895952D02*
X899540D01*
Y901032D01*
X894460D02*
X899540D01*
X894460Y895952D02*
Y901032D01*
X869060Y895952D02*
X874140D01*
Y901032D01*
X869060D02*
X874140D01*
X869060Y895952D02*
Y901032D01*
X843660Y895952D02*
X848740D01*
Y901032D01*
X843660D02*
X848740D01*
X843660Y895952D02*
Y901032D01*
X369460Y521160D02*
X374540D01*
Y526240D01*
X369460D02*
X374540D01*
X369460Y521160D02*
Y526240D01*
Y495760D02*
X374540D01*
Y500840D01*
X369460D02*
X374540D01*
X369460Y495760D02*
Y500840D01*
X744860Y896460D02*
X749940D01*
Y901540D01*
X744860D02*
X749940D01*
X744860Y896460D02*
Y901540D01*
X719460Y896460D02*
X724540D01*
Y901540D01*
X719460D02*
X724540D01*
X719460Y896460D02*
Y901540D01*
X606208Y896460D02*
X611288D01*
Y901540D01*
X606208D02*
X611288D01*
X606208Y896460D02*
Y901540D01*
X580808Y896460D02*
X585888D01*
Y901540D01*
X580808D02*
X585888D01*
X580808Y896460D02*
Y901540D01*
X468460Y896460D02*
X473540D01*
Y901540D01*
X468460D02*
X473540D01*
X468460Y896460D02*
Y901540D01*
X443060Y896460D02*
X448140D01*
Y901540D01*
X443060D02*
X448140D01*
X443060Y896460D02*
Y901540D01*
X317476Y428476D02*
X320524D01*
Y431524D01*
X317476D02*
X320524D01*
X317476Y428476D02*
Y431524D01*
X316460Y427460D02*
X321540D01*
Y432540D01*
X316460D02*
X321540D01*
X316460Y427460D02*
Y432540D01*
X317476Y978476D02*
X320524D01*
Y981524D01*
X317476D02*
X320524D01*
X317476Y978476D02*
Y981524D01*
X316460Y977460D02*
X321540D01*
Y982540D01*
X316460D02*
X321540D01*
X316460Y977460D02*
Y982540D01*
X1247476Y978476D02*
X1250524D01*
Y981524D01*
X1247476D02*
X1250524D01*
X1247476Y978476D02*
Y981524D01*
X1246460Y977460D02*
X1251540D01*
Y982540D01*
X1246460D02*
X1251540D01*
X1246460Y977460D02*
Y982540D01*
X1247476Y428476D02*
X1250524D01*
Y431524D01*
X1247476D02*
X1250524D01*
X1247476Y428476D02*
Y431524D01*
X1246460Y427460D02*
X1251540D01*
Y432540D01*
X1246460D02*
X1251540D01*
X1246460Y427460D02*
Y432540D01*
X803730Y467460D02*
X805000Y466190D01*
X802460Y467460D02*
X803730D01*
X802460D02*
X803730Y468730D01*
X802460Y470000D02*
X803730Y468730D01*
X802460Y470000D02*
X803730D01*
X805000Y471270D01*
X806270Y470000D01*
X807540D01*
X806270Y468730D02*
X807540Y470000D01*
X806270Y468730D02*
X807540Y467460D01*
X806270D02*
X807540D01*
X805000Y466190D02*
X806270Y467460D01*
X803730Y485460D02*
X805000Y484190D01*
X802460Y485460D02*
X803730D01*
X802460D02*
X803730Y486730D01*
X802460Y488000D02*
X803730Y486730D01*
X802460Y488000D02*
X803730D01*
X805000Y489270D01*
X806270Y488000D01*
X807540D01*
X806270Y486730D02*
X807540Y488000D01*
X806270Y486730D02*
X807540Y485460D01*
X806270D02*
X807540D01*
X805000Y484190D02*
X806270Y485460D01*
X803730Y503460D02*
X805000Y502190D01*
X802460Y503460D02*
X803730D01*
X802460D02*
X803730Y504730D01*
X802460Y506000D02*
X803730Y504730D01*
X802460Y506000D02*
X803730D01*
X805000Y507270D01*
X806270Y506000D01*
X807540D01*
X806270Y504730D02*
X807540Y506000D01*
X806270Y504730D02*
X807540Y503460D01*
X806270D02*
X807540D01*
X805000Y502190D02*
X806270Y503460D01*
X616900Y804460D02*
X619440Y809540D01*
X614360D02*
X619440D01*
X614360D02*
X616900Y804460D01*
X512300D02*
X514840Y809540D01*
X509760D02*
X514840D01*
X509760D02*
X512300Y804460D01*
X1963460Y545460D02*
Y546730D01*
X1964730Y548000D01*
X1963460Y549270D02*
X1964730Y548000D01*
X1963460Y549270D02*
Y550540D01*
X1964730D01*
X1966000Y549270D01*
X1967270Y550540D01*
X1968540D01*
Y549270D02*
Y550540D01*
X1967270Y548000D02*
X1968540Y549270D01*
X1967270Y548000D02*
X1968540Y546730D01*
Y545460D02*
Y546730D01*
X1967270Y545460D02*
X1968540D01*
X1966000Y546730D02*
X1967270Y545460D01*
X1964730D02*
X1966000Y546730D01*
X1963460Y545460D02*
X1964730D01*
X2088460D02*
Y546730D01*
X2089730Y548000D01*
X2088460Y549270D02*
X2089730Y548000D01*
X2088460Y549270D02*
Y550540D01*
X2089730D01*
X2091000Y549270D01*
X2092270Y550540D01*
X2093540D01*
Y549270D02*
Y550540D01*
X2092270Y548000D02*
X2093540Y549270D01*
X2092270Y548000D02*
X2093540Y546730D01*
Y545460D02*
Y546730D01*
X2092270Y545460D02*
X2093540D01*
X2091000Y546730D02*
X2092270Y545460D01*
X2089730D02*
X2091000Y546730D01*
X2088460Y545460D02*
X2089730D01*
X2088460Y595460D02*
Y596730D01*
X2089730Y598000D01*
X2088460Y599270D02*
X2089730Y598000D01*
X2088460Y599270D02*
Y600540D01*
X2089730D01*
X2091000Y599270D01*
X2092270Y600540D01*
X2093540D01*
Y599270D02*
Y600540D01*
X2092270Y598000D02*
X2093540Y599270D01*
X2092270Y598000D02*
X2093540Y596730D01*
Y595460D02*
Y596730D01*
X2092270Y595460D02*
X2093540D01*
X2091000Y596730D02*
X2092270Y595460D01*
X2089730D02*
X2091000Y596730D01*
X2088460Y595460D02*
X2089730D01*
X1963460D02*
Y596730D01*
X1964730Y598000D01*
X1963460Y599270D02*
X1964730Y598000D01*
X1963460Y599270D02*
Y600540D01*
X1964730D01*
X1966000Y599270D01*
X1967270Y600540D01*
X1968540D01*
Y599270D02*
Y600540D01*
X1967270Y598000D02*
X1968540Y599270D01*
X1967270Y598000D02*
X1968540Y596730D01*
Y595460D02*
Y596730D01*
X1967270Y595460D02*
X1968540D01*
X1966000Y596730D02*
X1967270Y595460D01*
X1964730D02*
X1966000Y596730D01*
X1963460Y595460D02*
X1964730D01*
X1889616Y560566D02*
X1892664D01*
Y563614D01*
X1889616D02*
X1892664D01*
X1889616Y560566D02*
Y563614D01*
X1888600Y559550D02*
X1893680D01*
Y564630D01*
X1888600D02*
X1893680D01*
X1888600Y559550D02*
Y564630D01*
X1519616Y560566D02*
X1522664D01*
Y563614D01*
X1519616D02*
X1522664D01*
X1519616Y560566D02*
Y563614D01*
X1518600Y559550D02*
X1523680D01*
Y564630D01*
X1518600D02*
X1523680D01*
X1518600Y559550D02*
Y564630D01*
X1889616Y930566D02*
X1892664D01*
Y933614D01*
X1889616D02*
X1892664D01*
X1889616Y930566D02*
Y933614D01*
X1888600Y929550D02*
X1893680D01*
Y934630D01*
X1888600D02*
X1893680D01*
X1888600Y929550D02*
Y934630D01*
X1519616Y930566D02*
X1522664D01*
Y933614D01*
X1519616D02*
X1522664D01*
X1519616Y930566D02*
Y933614D01*
X1518600Y929550D02*
X1523680D01*
Y934630D01*
X1518600D02*
X1523680D01*
X1518600Y929550D02*
Y934630D01*
X355460Y633060D02*
X360540D01*
Y638140D01*
X355460D02*
X360540D01*
X355460Y633060D02*
Y638140D01*
Y658460D02*
X360540D01*
Y663540D01*
X355460D02*
X360540D01*
X355460Y658460D02*
Y663540D01*
Y683860D02*
X360540D01*
Y688940D01*
X355460D02*
X360540D01*
X355460Y683860D02*
Y688940D01*
Y709260D02*
X360540D01*
Y714340D01*
X355460D02*
X360540D01*
X355460Y709260D02*
Y714340D01*
X1166260Y575530D02*
X1167530D01*
X1166260D02*
Y578070D01*
X1167530D01*
Y579340D01*
X1170070D01*
Y578070D02*
Y579340D01*
Y578070D02*
X1171340D01*
Y575530D02*
Y578070D01*
X1170070Y575530D02*
X1171340D01*
X1170070Y574260D02*
Y575530D01*
X1167530Y574260D02*
X1170070D01*
X1167530D02*
Y575530D01*
X1024860D02*
X1026130D01*
X1024860D02*
Y578070D01*
X1026130D01*
Y579340D01*
X1028670D01*
Y578070D02*
Y579340D01*
Y578070D02*
X1029940D01*
Y575530D02*
Y578070D01*
X1028670Y575530D02*
X1029940D01*
X1028670Y574260D02*
Y575530D01*
X1026130Y574260D02*
X1028670D01*
X1026130D02*
Y575530D01*
X1052660Y886460D02*
X1057740D01*
Y891540D01*
X1052660D02*
X1057740D01*
X1052660Y886460D02*
Y891540D01*
X1078060Y886460D02*
X1083140D01*
Y891540D01*
X1078060D02*
X1083140D01*
X1078060Y886460D02*
Y891540D01*
X1103460Y886460D02*
X1108540D01*
Y891540D01*
X1103460D02*
X1108540D01*
X1103460Y886460D02*
Y891540D01*
X1128860Y886460D02*
X1133940D01*
Y891540D01*
X1128860D02*
X1133940D01*
X1128860Y886460D02*
Y891540D01*
X1326360Y467460D02*
X1328900Y468730D01*
X1331440Y467460D01*
X1330170Y470000D02*
X1331440Y467460D01*
X1330170Y470000D02*
X1331440Y472540D01*
X1328900Y471270D02*
X1331440Y472540D01*
X1326360D02*
X1328900Y471270D01*
X1326360Y472540D02*
X1327630Y470000D01*
X1326360Y467460D02*
X1327630Y470000D01*
X1402560Y467460D02*
X1405100Y468730D01*
X1407640Y467460D01*
X1406370Y470000D02*
X1407640Y467460D01*
X1406370Y470000D02*
X1407640Y472540D01*
X1405100Y471270D02*
X1407640Y472540D01*
X1402560D02*
X1405100Y471270D01*
X1402560Y472540D02*
X1403830Y470000D01*
X1402560Y467460D02*
X1403830Y470000D01*
X689360Y805460D02*
X691900Y806730D01*
X694440Y805460D01*
X693170Y808000D02*
X694440Y805460D01*
X693170Y808000D02*
X694440Y810540D01*
X691900Y809270D02*
X694440Y810540D01*
X689360D02*
X691900Y809270D01*
X689360Y810540D02*
X690630Y808000D01*
X689360Y805460D02*
X690630Y808000D01*
X765560Y805460D02*
X768100Y806730D01*
X770640Y805460D01*
X769370Y808000D02*
X770640Y805460D01*
X769370Y808000D02*
X770640Y810540D01*
X768100Y809270D02*
X770640Y810540D01*
X765560D02*
X768100Y809270D01*
X765560Y810540D02*
X766830Y808000D01*
X765560Y805460D02*
X766830Y808000D01*
X1326360Y438960D02*
X1328900Y440230D01*
X1331440Y438960D01*
X1330170Y441500D02*
X1331440Y438960D01*
X1330170Y441500D02*
X1331440Y444040D01*
X1328900Y442770D02*
X1331440Y444040D01*
X1326360D02*
X1328900Y442770D01*
X1326360Y444040D02*
X1327630Y441500D01*
X1326360Y438960D02*
X1327630Y441500D01*
X1402560Y438960D02*
X1405100Y440230D01*
X1407640Y438960D01*
X1406370Y441500D02*
X1407640Y438960D01*
X1406370Y441500D02*
X1407640Y444040D01*
X1405100Y442770D02*
X1407640Y444040D01*
X1402560D02*
X1405100Y442770D01*
X1402560Y444040D02*
X1403830Y441500D01*
X1402560Y438960D02*
X1403830Y441500D01*
X1326360Y410460D02*
X1328900Y411730D01*
X1331440Y410460D01*
X1330170Y413000D02*
X1331440Y410460D01*
X1330170Y413000D02*
X1331440Y415540D01*
X1328900Y414270D02*
X1331440Y415540D01*
X1326360D02*
X1328900Y414270D01*
X1326360Y415540D02*
X1327630Y413000D01*
X1326360Y410460D02*
X1327630Y413000D01*
X1402560Y410460D02*
X1405100Y411730D01*
X1407640Y410460D01*
X1406370Y413000D02*
X1407640Y410460D01*
X1406370Y413000D02*
X1407640Y415540D01*
X1405100Y414270D02*
X1407640Y415540D01*
X1402560D02*
X1405100Y414270D01*
X1402560Y415540D02*
X1403830Y413000D01*
X1402560Y410460D02*
X1403830Y413000D01*
X936560Y465810D02*
X939100Y467080D01*
X941640Y465810D01*
X940370Y468350D02*
X941640Y465810D01*
X940370Y468350D02*
X941640Y470890D01*
X939100Y469620D02*
X941640Y470890D01*
X936560D02*
X939100Y469620D01*
X936560Y470890D02*
X937830Y468350D01*
X936560Y465810D02*
X937830Y468350D01*
X860360Y465810D02*
X862900Y467080D01*
X865440Y465810D01*
X864170Y468350D02*
X865440Y465810D01*
X864170Y468350D02*
X865440Y470890D01*
X862900Y469620D02*
X865440Y470890D01*
X860360D02*
X862900Y469620D01*
X860360Y470890D02*
X861630Y468350D01*
X860360Y465810D02*
X861630Y468350D01*
X2067476Y983476D02*
X2070524D01*
Y986524D01*
X2067476D02*
X2070524D01*
X2067476Y983476D02*
Y986524D01*
X2066460Y982460D02*
X2071540D01*
Y987540D01*
X2066460D02*
X2071540D01*
X2066460Y982460D02*
Y987540D01*
X2067476Y449476D02*
X2070524D01*
Y452524D01*
X2067476D02*
X2070524D01*
X2067476Y449476D02*
Y452524D01*
X2066460Y448460D02*
X2071540D01*
Y453540D01*
X2066460D02*
X2071540D01*
X2066460Y448460D02*
Y453540D01*
D85*
X2176905Y817905D02*
X4889887D01*
X2176905Y475005D02*
X4889887D01*
X2176905Y436905D02*
X4889887D01*
Y856005D01*
X2176905D02*
X4889887D01*
X2176905Y436905D02*
Y856005D01*
X4539720Y436905D02*
Y856005D01*
X4200984Y436905D02*
Y856005D01*
X3984128Y436905D02*
Y856005D01*
X3793681Y436905D02*
Y856005D01*
X3604248Y436905D02*
Y856005D01*
X3454427Y436905D02*
Y856005D01*
X3073541Y436905D02*
Y856005D01*
X2887155Y436905D02*
Y856005D01*
X2758662Y436905D02*
Y856005D01*
X2466648Y436905D02*
Y856005D01*
X2316827Y436905D02*
Y856005D01*
D86*
X4551151Y847617D02*
Y829335D01*
Y838476D01*
X4563339D01*
Y847617D01*
Y829335D01*
X4572480D02*
X4578574D01*
X4581620Y832382D01*
Y838476D01*
X4578574Y841523D01*
X4572480D01*
X4569432Y838476D01*
Y832382D01*
X4572480Y829335D01*
X4587715D02*
X4593809D01*
X4590762D01*
Y847617D01*
X4587715D01*
X4612091Y829335D02*
X4605997D01*
X4602950Y832382D01*
Y838476D01*
X4605997Y841523D01*
X4612091D01*
X4615138Y838476D01*
Y835429D01*
X4602950D01*
X4639514Y847617D02*
X4651702D01*
X4645608D01*
Y829335D01*
X4660843D02*
X4666937D01*
X4669984Y832382D01*
Y838476D01*
X4666937Y841523D01*
X4660843D01*
X4657796Y838476D01*
Y832382D01*
X4660843Y829335D01*
X4676078D02*
X4682172D01*
X4679125D01*
Y847617D01*
X4676078D01*
X4700454Y829335D02*
X4694360D01*
X4691313Y832382D01*
Y838476D01*
X4694360Y841523D01*
X4700454D01*
X4703501Y838476D01*
Y835429D01*
X4691313D01*
X4709595Y841523D02*
Y829335D01*
Y835429D01*
X4712642Y838476D01*
X4715689Y841523D01*
X4718736D01*
X4730924D02*
X4737018D01*
X4740065Y838476D01*
Y829335D01*
X4730924D01*
X4727877Y832382D01*
X4730924Y835429D01*
X4740065D01*
X4746159Y829335D02*
Y841523D01*
X4755300D01*
X4758347Y838476D01*
Y829335D01*
X4776630Y841523D02*
X4767488D01*
X4764442Y838476D01*
Y832382D01*
X4767488Y829335D01*
X4776630D01*
X4791865D02*
X4785771D01*
X4782723Y832382D01*
Y838476D01*
X4785771Y841523D01*
X4791865D01*
X4794911Y838476D01*
Y835429D01*
X4782723D01*
X4825382Y829335D02*
X4819288Y835429D01*
Y841523D01*
X4825382Y847617D01*
X4834523Y838476D02*
X4846711D01*
X4852805Y829335D02*
X4858899Y835429D01*
Y841523D01*
X4852805Y847617D01*
X4212414D02*
Y829335D01*
Y838476D01*
X4224602D01*
Y847617D01*
Y829335D01*
X4233743D02*
X4239837D01*
X4242884Y832382D01*
Y838476D01*
X4239837Y841523D01*
X4233743D01*
X4230696Y838476D01*
Y832382D01*
X4233743Y829335D01*
X4248978D02*
X4255072D01*
X4252025D01*
Y847617D01*
X4248978D01*
X4273354Y829335D02*
X4267260D01*
X4264213Y832382D01*
Y838476D01*
X4267260Y841523D01*
X4273354D01*
X4276401Y838476D01*
Y835429D01*
X4264213D01*
X4300778Y847617D02*
X4312965D01*
X4306872D01*
Y829335D01*
X4322107D02*
X4328201D01*
X4331248Y832382D01*
Y838476D01*
X4328201Y841523D01*
X4322107D01*
X4319059Y838476D01*
Y832382D01*
X4322107Y829335D01*
X4337342D02*
X4343436D01*
X4340388D01*
Y847617D01*
X4337342D01*
X4361718Y829335D02*
X4355624D01*
X4352577Y832382D01*
Y838476D01*
X4355624Y841523D01*
X4361718D01*
X4364765Y838476D01*
Y835429D01*
X4352577D01*
X4370859Y841523D02*
Y829335D01*
Y835429D01*
X4373906Y838476D01*
X4376953Y841523D01*
X4380000D01*
X4392188D02*
X4398282D01*
X4401329Y838476D01*
Y829335D01*
X4392188D01*
X4389141Y832382D01*
X4392188Y835429D01*
X4401329D01*
X4407423Y829335D02*
Y841523D01*
X4416564D01*
X4419611Y838476D01*
Y829335D01*
X4437893Y841523D02*
X4428752D01*
X4425705Y838476D01*
Y832382D01*
X4428752Y829335D01*
X4437893D01*
X4453128D02*
X4447034D01*
X4443987Y832382D01*
Y838476D01*
X4447034Y841523D01*
X4453128D01*
X4456175Y838476D01*
Y835429D01*
X4443987D01*
X4486645Y829335D02*
X4480551Y835429D01*
Y841523D01*
X4486645Y847617D01*
X4495786Y838476D02*
X4507975D01*
X4501880Y844570D02*
Y832382D01*
X4514068Y829335D02*
X4520162Y835429D01*
Y841523D01*
X4514068Y847617D01*
X3995558D02*
Y829335D01*
X4004699D01*
X4007746Y832382D01*
Y844570D01*
X4004699Y847617D01*
X3995558D01*
X4022981Y829335D02*
X4016887D01*
X4013840Y832382D01*
Y838476D01*
X4016887Y841523D01*
X4022981D01*
X4026028Y838476D01*
Y835429D01*
X4013840D01*
X4032122Y829335D02*
X4041263D01*
X4044310Y832382D01*
X4041263Y835429D01*
X4035169D01*
X4032122Y838476D01*
X4035169Y841523D01*
X4044310D01*
X4062592D02*
X4053452D01*
X4050404Y838476D01*
Y832382D01*
X4053452Y829335D01*
X4062592D01*
X4068687Y841523D02*
Y829335D01*
Y835429D01*
X4071733Y838476D01*
X4074781Y841523D01*
X4077827D01*
X4086969Y829335D02*
X4093063D01*
X4090016D01*
Y841523D01*
X4086969D01*
X4102204Y823241D02*
Y841523D01*
X4111345D01*
X4114392Y838476D01*
Y832382D01*
X4111345Y829335D01*
X4102204D01*
X4123533Y844570D02*
Y841523D01*
X4120486D01*
X4126580D01*
X4123533D01*
Y832382D01*
X4126580Y829335D01*
X4135721D02*
X4141815D01*
X4138768D01*
Y841523D01*
X4135721D01*
X4154003Y829335D02*
X4160097D01*
X4163144Y832382D01*
Y838476D01*
X4160097Y841523D01*
X4154003D01*
X4150956Y838476D01*
Y832382D01*
X4154003Y829335D01*
X4169238D02*
Y841523D01*
X4178379D01*
X4181426Y838476D01*
Y829335D01*
X3805111Y847617D02*
X3817299D01*
X3811205D01*
Y829335D01*
X3832534D02*
X3826440D01*
X3823393Y832382D01*
Y838476D01*
X3826440Y841523D01*
X3832534D01*
X3835581Y838476D01*
Y835429D01*
X3823393D01*
X3841675Y829335D02*
Y841523D01*
X3844722D01*
X3847769Y838476D01*
Y829335D01*
Y838476D01*
X3850816Y841523D01*
X3853863Y838476D01*
Y829335D01*
X3859957Y823241D02*
Y841523D01*
X3869098D01*
X3872145Y838476D01*
Y832382D01*
X3869098Y829335D01*
X3859957D01*
X3878239D02*
X3884333D01*
X3881286D01*
Y847617D01*
X3878239D01*
X3896521Y841523D02*
X3902615D01*
X3905662Y838476D01*
Y829335D01*
X3896521D01*
X3893474Y832382D01*
X3896521Y835429D01*
X3905662D01*
X3914803Y844570D02*
Y841523D01*
X3911756D01*
X3917850D01*
X3914803D01*
Y832382D01*
X3917850Y829335D01*
X3936133D02*
X3930038D01*
X3926991Y832382D01*
Y838476D01*
X3930038Y841523D01*
X3936133D01*
X3939179Y838476D01*
Y835429D01*
X3926991D01*
X3615678Y829335D02*
Y847617D01*
X3624819D01*
X3627866Y844570D01*
Y838476D01*
X3624819Y835429D01*
X3615678D01*
X3637007Y841523D02*
X3643101D01*
X3646148Y838476D01*
Y829335D01*
X3637007D01*
X3633960Y832382D01*
X3637007Y835429D01*
X3646148D01*
X3664430Y847617D02*
Y829335D01*
X3655289D01*
X3652242Y832382D01*
Y838476D01*
X3655289Y841523D01*
X3664430D01*
X3700994Y844570D02*
X3697947Y847617D01*
X3691853D01*
X3688806Y844570D01*
Y841523D01*
X3691853Y838476D01*
X3697947D01*
X3700994Y835429D01*
Y832382D01*
X3697947Y829335D01*
X3691853D01*
X3688806Y832382D01*
X3707088Y847617D02*
Y829335D01*
Y838476D01*
X3710135Y841523D01*
X3716230D01*
X3719276Y838476D01*
Y829335D01*
X3728417Y841523D02*
X3734512D01*
X3737559Y838476D01*
Y829335D01*
X3728417D01*
X3725370Y832382D01*
X3728417Y835429D01*
X3737559D01*
X3743653Y823241D02*
Y841523D01*
X3752794D01*
X3755841Y838476D01*
Y832382D01*
X3752794Y829335D01*
X3743653D01*
X3771076D02*
X3764982D01*
X3761935Y832382D01*
Y838476D01*
X3764982Y841523D01*
X3771076D01*
X3774123Y838476D01*
Y835429D01*
X3761935D01*
X3465857Y847617D02*
Y835429D01*
X3471950Y829335D01*
X3478045Y835429D01*
Y847617D01*
X3484138Y829335D02*
X3490233D01*
X3487186D01*
Y841523D01*
X3484138D01*
X3502421D02*
X3508515D01*
X3511562Y838476D01*
Y829335D01*
X3502421D01*
X3499373Y832382D01*
X3502421Y835429D01*
X3511562D01*
X3517656Y829335D02*
X3529844Y841523D01*
X3535938Y829335D02*
Y847617D01*
X3545079D01*
X3548126Y844570D01*
Y838476D01*
X3545079Y835429D01*
X3535938D01*
X3557267Y841523D02*
X3563361D01*
X3566408Y838476D01*
Y829335D01*
X3557267D01*
X3554220Y832382D01*
X3557267Y835429D01*
X3566408D01*
X3584690Y847617D02*
Y829335D01*
X3575549D01*
X3572502Y832382D01*
Y838476D01*
X3575549Y841523D01*
X3584690D01*
X3084971Y847617D02*
Y829335D01*
X3094112D01*
X3097159Y832382D01*
Y844570D01*
X3094112Y847617D01*
X3084971D01*
X3103253Y841523D02*
Y829335D01*
Y835429D01*
X3106300Y838476D01*
X3109347Y841523D01*
X3112394D01*
X3121535Y829335D02*
X3127629D01*
X3124582D01*
Y841523D01*
X3121535D01*
X3136770Y829335D02*
X3142864D01*
X3139817D01*
Y847617D01*
X3136770D01*
X3152005Y829335D02*
X3158099D01*
X3155052D01*
Y847617D01*
X3152005D01*
X3185522D02*
Y829335D01*
X3197710D01*
X3206851Y841523D02*
X3212945D01*
X3215992Y838476D01*
Y829335D01*
X3206851D01*
X3203804Y832382D01*
X3206851Y835429D01*
X3215992D01*
X3222086Y841523D02*
Y832382D01*
X3225133Y829335D01*
X3234274D01*
Y826288D01*
X3231227Y823241D01*
X3228180D01*
X3234274Y829335D02*
Y841523D01*
X3249509Y829335D02*
X3243416D01*
X3240368Y832382D01*
Y838476D01*
X3243416Y841523D01*
X3249509D01*
X3252556Y838476D01*
Y835429D01*
X3240368D01*
X3258651Y841523D02*
Y829335D01*
Y835429D01*
X3261697Y838476D01*
X3264745Y841523D01*
X3267791D01*
X3295215Y829335D02*
Y847617D01*
X3304356D01*
X3307403Y844570D01*
Y838476D01*
X3304356Y835429D01*
X3295215D01*
X3316544Y841523D02*
X3322638D01*
X3325685Y838476D01*
Y829335D01*
X3316544D01*
X3313497Y832382D01*
X3316544Y835429D01*
X3325685D01*
X3331779Y829335D02*
X3337873D01*
X3334826D01*
Y841523D01*
X3331779D01*
X3347014D02*
Y829335D01*
Y835429D01*
X3350061Y838476D01*
X3353108Y841523D01*
X3356155D01*
X2898585Y847617D02*
Y829335D01*
Y838476D01*
X2910773D01*
Y847617D01*
Y829335D01*
X2919914D02*
X2926008D01*
X2929055Y832382D01*
Y838476D01*
X2926008Y841523D01*
X2919914D01*
X2916867Y838476D01*
Y832382D01*
X2919914Y829335D01*
X2935149D02*
X2941243D01*
X2938196D01*
Y847617D01*
X2935149D01*
X2959525Y829335D02*
X2953431D01*
X2950384Y832382D01*
Y838476D01*
X2953431Y841523D01*
X2959525D01*
X2962572Y838476D01*
Y835429D01*
X2950384D01*
X2986949Y847617D02*
X2999136D01*
X2993042D01*
Y829335D01*
X3005230Y841523D02*
Y832382D01*
X3008277Y829335D01*
X3017419D01*
Y826288D01*
X3014372Y823241D01*
X3011324D01*
X3017419Y829335D02*
Y841523D01*
X3023513Y823241D02*
Y841523D01*
X3032654D01*
X3035701Y838476D01*
Y832382D01*
X3032654Y829335D01*
X3023513D01*
X3050936D02*
X3044842D01*
X3041795Y832382D01*
Y838476D01*
X3044842Y841523D01*
X3050936D01*
X3053983Y838476D01*
Y835429D01*
X3041795D01*
X2770092Y829335D02*
Y847617D01*
X2779234D01*
X2782281Y844570D01*
Y838476D01*
X2779234Y835429D01*
X2770092D01*
X2788375Y829335D02*
X2794469D01*
X2791422D01*
Y847617D01*
X2788375D01*
X2806657Y841523D02*
X2812751D01*
X2815798Y838476D01*
Y829335D01*
X2806657D01*
X2803610Y832382D01*
X2806657Y835429D01*
X2815798D01*
X2824939Y844570D02*
Y841523D01*
X2821892D01*
X2827986D01*
X2824939D01*
Y832382D01*
X2827986Y829335D01*
X2846268D02*
X2840174D01*
X2837127Y832382D01*
Y838476D01*
X2840174Y841523D01*
X2846268D01*
X2849315Y838476D01*
Y835429D01*
X2837127D01*
X2867597Y847617D02*
Y829335D01*
X2858456D01*
X2855409Y832382D01*
Y838476D01*
X2858456Y841523D01*
X2867597D01*
X2478078Y847617D02*
Y829335D01*
Y838476D01*
X2490266D01*
Y847617D01*
Y829335D01*
X2499407D02*
X2505501D01*
X2508548Y832382D01*
Y838476D01*
X2505501Y841523D01*
X2499407D01*
X2496360Y838476D01*
Y832382D01*
X2499407Y829335D01*
X2514642D02*
X2520736D01*
X2517689D01*
Y847617D01*
X2514642D01*
X2539018Y829335D02*
X2532924D01*
X2529877Y832382D01*
Y838476D01*
X2532924Y841523D01*
X2539018D01*
X2542065Y838476D01*
Y835429D01*
X2529877D01*
X2578629Y844570D02*
X2575582Y847617D01*
X2569489D01*
X2566441Y844570D01*
Y841523D01*
X2569489Y838476D01*
X2575582D01*
X2578629Y835429D01*
Y832382D01*
X2575582Y829335D01*
X2569489D01*
X2566441Y832382D01*
X2584724Y829335D02*
X2590818D01*
X2587770D01*
Y841523D01*
X2584724D01*
X2599958D02*
X2612147D01*
X2599958Y829335D01*
X2612147D01*
X2627382D02*
X2621288D01*
X2618241Y832382D01*
Y838476D01*
X2621288Y841523D01*
X2627382D01*
X2630429Y838476D01*
Y835429D01*
X2618241D01*
X2340446Y844570D02*
X2337399Y847617D01*
X2331304D01*
X2328257Y844570D01*
Y832382D01*
X2331304Y829335D01*
X2337399D01*
X2340446Y832382D01*
X2349586Y829335D02*
X2355681D01*
X2358728Y832382D01*
Y838476D01*
X2355681Y841523D01*
X2349586D01*
X2346539Y838476D01*
Y832382D01*
X2349586Y829335D01*
X2364822Y841523D02*
Y832382D01*
X2367869Y829335D01*
X2377010D01*
Y841523D01*
X2383104Y829335D02*
Y841523D01*
X2392245D01*
X2395292Y838476D01*
Y829335D01*
X2404433Y844570D02*
Y841523D01*
X2401386D01*
X2407480D01*
X2404433D01*
Y832382D01*
X2407480Y829335D01*
X2211953Y844570D02*
X2208906Y847617D01*
X2202812D01*
X2199765Y844570D01*
Y841523D01*
X2202812Y838476D01*
X2208906D01*
X2211953Y835429D01*
Y832382D01*
X2208906Y829335D01*
X2202812D01*
X2199765Y832382D01*
X2218047Y841523D02*
Y832382D01*
X2221094Y829335D01*
X2230235D01*
Y826288D01*
X2227188Y823241D01*
X2224141D01*
X2230235Y829335D02*
Y841523D01*
X2236329Y829335D02*
Y841523D01*
X2239376D01*
X2242423Y838476D01*
Y829335D01*
Y838476D01*
X2245470Y841523D01*
X2248517Y838476D01*
Y829335D01*
X2254611Y847617D02*
Y829335D01*
X2263752D01*
X2266799Y832382D01*
Y835429D01*
Y838476D01*
X2263752Y841523D01*
X2254611D01*
X2275940Y829335D02*
X2282034D01*
X2285081Y832382D01*
Y838476D01*
X2282034Y841523D01*
X2275940D01*
X2272893Y838476D01*
Y832382D01*
X2275940Y829335D01*
X2291175D02*
X2297269D01*
X2294222D01*
Y847617D01*
X2291175D01*
M02*
