G04*
G04 #@! TF.GenerationSoftware,Altium Limited,Altium Designer,19.0.4 (130)*
G04*
G04 Layer_Color=128*
%FSLAX44Y44*%
%MOMM*%
G71*
G01*
G75*
%ADD79C,0.0508*%
D79*
X1054470Y648050D02*
X1064630D01*
X1059550Y642970D02*
Y653130D01*
X1079870Y648050D02*
X1090030D01*
X1084950Y642970D02*
Y653130D01*
X1105270Y648050D02*
X1115430D01*
X1110350Y642970D02*
Y653130D01*
X1130670Y648050D02*
X1140830D01*
X1135750Y642970D02*
Y653130D01*
X1156070Y648050D02*
X1166230D01*
X1161150Y642970D02*
Y653130D01*
X1182740Y660750D02*
X1215760D01*
X1199250Y644240D02*
Y677260D01*
X1182740Y914750D02*
X1215760D01*
X1199250Y898240D02*
Y931260D01*
X1004940Y660750D02*
X1037960D01*
X1021450Y644240D02*
Y677260D01*
X1004940Y914750D02*
X1037960D01*
X1021450Y898240D02*
Y931260D01*
X1035450Y975750D02*
X1044450D01*
X1039950Y971250D02*
Y980250D01*
X1060850Y975750D02*
X1069850D01*
X1065350Y971250D02*
Y980250D01*
X1086250Y975750D02*
X1095250D01*
X1090750Y971250D02*
Y980250D01*
X1111650Y975750D02*
X1120650D01*
X1116150Y971250D02*
Y980250D01*
X1137050Y975750D02*
X1146050D01*
X1141550Y971250D02*
Y980250D01*
X2053500Y451000D02*
X2084500D01*
X2069000Y435500D02*
Y466500D01*
X2053500Y985000D02*
X2084500D01*
X2069000Y969500D02*
Y1000500D01*
X466000Y569000D02*
X476000D01*
X471000Y564000D02*
Y574000D01*
X491400Y569000D02*
X501400D01*
X496400Y564000D02*
Y574000D01*
X516800Y569000D02*
X526800D01*
X521800Y564000D02*
Y574000D01*
X542200Y569000D02*
X552200D01*
X547200Y564000D02*
Y574000D01*
X567600Y569000D02*
X577600D01*
X572600Y564000D02*
Y574000D01*
X593000Y569000D02*
X603000D01*
X598000Y564000D02*
Y574000D01*
X618400Y569000D02*
X628400D01*
X623400Y564000D02*
Y574000D01*
X643800Y569000D02*
X653800D01*
X648800Y564000D02*
Y574000D01*
X669200Y569000D02*
X679200D01*
X674200Y564000D02*
Y574000D01*
X694600Y569000D02*
X704600D01*
X699600Y564000D02*
Y574000D01*
X720000Y569000D02*
X730000D01*
X725000Y564000D02*
Y574000D01*
X745400Y569000D02*
X755400D01*
X750400Y564000D02*
Y574000D01*
X770800Y569000D02*
X780800D01*
X775800Y564000D02*
Y574000D01*
X796200Y569000D02*
X806200D01*
X801200Y564000D02*
Y574000D01*
X821600Y569000D02*
X831600D01*
X826600Y564000D02*
Y574000D01*
X847000Y569000D02*
X857000D01*
X852000Y564000D02*
Y574000D01*
X872400Y569000D02*
X882400D01*
X877400Y564000D02*
Y574000D01*
X897800Y569000D02*
X907800D01*
X902800Y564000D02*
Y574000D01*
X923200Y569000D02*
X933200D01*
X928200Y564000D02*
Y574000D01*
X948600Y569000D02*
X958600D01*
X953600Y564000D02*
Y574000D01*
X466000Y746800D02*
X476000D01*
X471000Y741800D02*
Y751800D01*
X491400Y746800D02*
X501400D01*
X496400Y741800D02*
Y751800D01*
X516800Y746800D02*
X526800D01*
X521800Y741800D02*
Y751800D01*
X542200Y746800D02*
X552200D01*
X547200Y741800D02*
Y751800D01*
X567600Y746800D02*
X577600D01*
X572600Y741800D02*
Y751800D01*
X593000Y746800D02*
X603000D01*
X598000Y741800D02*
Y751800D01*
X618400Y746800D02*
X628400D01*
X623400Y741800D02*
Y751800D01*
X643800Y746800D02*
X653800D01*
X648800Y741800D02*
Y751800D01*
X669200Y746800D02*
X679200D01*
X674200Y741800D02*
Y751800D01*
X694600Y746800D02*
X704600D01*
X699600Y741800D02*
Y751800D01*
X720000Y746800D02*
X730000D01*
X725000Y741800D02*
Y751800D01*
X745400Y746800D02*
X755400D01*
X750400Y741800D02*
Y751800D01*
X770800Y746800D02*
X780800D01*
X775800Y741800D02*
Y751800D01*
X796200Y746800D02*
X806200D01*
X801200Y741800D02*
Y751800D01*
X821600Y746800D02*
X831600D01*
X826600Y741800D02*
Y751800D01*
X847000Y746800D02*
X857000D01*
X852000Y741800D02*
Y751800D01*
X872400Y746800D02*
X882400D01*
X877400Y741800D02*
Y751800D01*
X897800Y746800D02*
X907800D01*
X902800Y741800D02*
Y751800D01*
X923200Y746800D02*
X933200D01*
X928200Y741800D02*
Y751800D01*
X948600Y746800D02*
X958600D01*
X953600Y741800D02*
Y751800D01*
X858650Y468350D02*
X867150D01*
X862900Y464100D02*
Y472600D01*
X934850Y468350D02*
X943350D01*
X939100Y464100D02*
Y472600D01*
X1400850Y413000D02*
X1409350D01*
X1405100Y408750D02*
Y417250D01*
X1324650Y413000D02*
X1333150D01*
X1328900Y408750D02*
Y417250D01*
X1400850Y441500D02*
X1409350D01*
X1405100Y437250D02*
Y445750D01*
X1324650Y441500D02*
X1333150D01*
X1328900Y437250D02*
Y445750D01*
X763850Y808000D02*
X772350D01*
X768100Y803750D02*
Y812250D01*
X687650Y808000D02*
X696150D01*
X691900Y803750D02*
Y812250D01*
X1400850Y470000D02*
X1409350D01*
X1405100Y465750D02*
Y474250D01*
X1324650Y470000D02*
X1333150D01*
X1328900Y465750D02*
Y474250D01*
X1004000Y473000D02*
X1014000D01*
X1009000Y468000D02*
Y478000D01*
X1080000Y473000D02*
X1090000D01*
X1085000Y468000D02*
Y478000D01*
X353500Y711800D02*
X362500D01*
X358000Y707300D02*
Y716300D01*
X353500Y686400D02*
X362500D01*
X358000Y681900D02*
Y690900D01*
X353500Y661000D02*
X362500D01*
X358000Y656500D02*
Y665500D01*
X353500Y635600D02*
X362500D01*
X358000Y631100D02*
Y640100D01*
X1626000Y514000D02*
X1636000D01*
X1631000Y509000D02*
Y519000D01*
X1505640Y932090D02*
X1536640D01*
X1521140Y916590D02*
Y947590D01*
X1875640Y932090D02*
X1906640D01*
X1891140Y916590D02*
Y947590D01*
X1505640Y562090D02*
X1536640D01*
X1521140Y546590D02*
Y577590D01*
X1875640Y562090D02*
X1906640D01*
X1891140Y546590D02*
Y577590D01*
X1753000Y514000D02*
X1763000D01*
X1758000Y509000D02*
Y519000D01*
X1727600Y514000D02*
X1737600D01*
X1732600Y509000D02*
Y519000D01*
X1702200Y514000D02*
X1712200D01*
X1707200Y509000D02*
Y519000D01*
X1676800Y514000D02*
X1686800D01*
X1681800Y509000D02*
Y519000D01*
X1651400Y514000D02*
X1661400D01*
X1656400Y509000D02*
Y519000D01*
X1958500Y598000D02*
X1973500D01*
X1966000Y590500D02*
Y605500D01*
X2083500Y598000D02*
X2098500D01*
X2091000Y590500D02*
Y605500D01*
X2083500Y548000D02*
X2098500D01*
X2091000Y540500D02*
Y555500D01*
X1958500Y548000D02*
X1973500D01*
X1966000Y540500D02*
Y555500D01*
X1354600Y545000D02*
X1364600D01*
X1359600Y540000D02*
Y550000D01*
X1380000Y545000D02*
X1390000D01*
X1385000Y540000D02*
Y550000D01*
X1354600Y726000D02*
X1364600D01*
X1359600Y721000D02*
Y731000D01*
X1380000Y726000D02*
X1390000D01*
X1385000Y721000D02*
Y731000D01*
X1354600Y907000D02*
X1364600D01*
X1359600Y902000D02*
Y912000D01*
X1380000Y907000D02*
X1390000D01*
X1385000Y902000D02*
Y912000D01*
X506300Y807000D02*
X518300D01*
X512300Y801000D02*
Y813000D01*
X610900Y807000D02*
X622900D01*
X616900Y801000D02*
Y813000D01*
X801000Y504730D02*
X809000D01*
X805000Y500730D02*
Y508730D01*
X801000Y486730D02*
X809000D01*
X805000Y482730D02*
Y490730D01*
X801000Y468730D02*
X809000D01*
X805000Y464730D02*
Y472730D01*
X1233500Y430000D02*
X1264500D01*
X1249000Y414500D02*
Y445500D01*
X1233500Y980000D02*
X1264500D01*
X1249000Y964500D02*
Y995500D01*
X303500Y980000D02*
X334500D01*
X319000Y964500D02*
Y995500D01*
X303500Y430000D02*
X334500D01*
X319000Y414500D02*
Y445500D01*
X441100Y899000D02*
X450100D01*
X445600Y894500D02*
Y903500D01*
X466500Y899000D02*
X475500D01*
X471000Y894500D02*
Y903500D01*
X578848Y899000D02*
X587848D01*
X583348Y894500D02*
Y903500D01*
X604248Y899000D02*
X613248D01*
X608748Y894500D02*
Y903500D01*
X717500Y899000D02*
X726500D01*
X722000Y894500D02*
Y903500D01*
X742900Y899000D02*
X751900D01*
X747400Y894500D02*
Y903500D01*
X367500Y498300D02*
X376500D01*
X372000Y493800D02*
Y502800D01*
X367500Y523700D02*
X376500D01*
X372000Y519200D02*
Y528200D01*
X841700Y898492D02*
X850700D01*
X846200Y893992D02*
Y902992D01*
X867100Y898492D02*
X876100D01*
X871600Y893992D02*
Y902992D01*
X892500Y898492D02*
X901500D01*
X897000Y893992D02*
Y902992D01*
X917900Y898492D02*
X926900D01*
X922400Y893992D02*
Y902992D01*
X448000Y715250D02*
X453000D01*
X450500Y712750D02*
Y717750D01*
X449000Y661750D02*
X454000D01*
X451500Y659250D02*
Y664250D01*
X1036250Y724750D02*
X1041250D01*
X1038750Y722250D02*
Y727250D01*
X1132500Y617500D02*
X1137500D01*
X1135000Y615000D02*
Y620000D01*
X1066519Y608000D02*
X1071519D01*
X1069019Y605500D02*
Y610500D01*
X970250Y686250D02*
X975250D01*
X972750Y683750D02*
Y688750D01*
X1098250Y680250D02*
X1103250D01*
X1100750Y677750D02*
Y682750D01*
X1211000Y705250D02*
X1216000D01*
X1213500Y702750D02*
Y707750D01*
X1150250Y758309D02*
X1155250D01*
X1152750Y755809D02*
Y760809D01*
X730500Y507250D02*
X735500D01*
X733000Y504750D02*
Y509750D01*
X739901Y661250D02*
X744901D01*
X742401Y658750D02*
Y663750D01*
X1204750Y823500D02*
X1209750D01*
X1207250Y821000D02*
Y826000D01*
X714000Y815750D02*
X719000D01*
X716500Y813250D02*
Y818250D01*
X1134250Y769250D02*
X1139250D01*
X1136750Y766750D02*
Y771750D01*
X537000Y728000D02*
X542000D01*
X539500Y725500D02*
Y730500D01*
X491250Y523750D02*
X496250D01*
X493750Y521250D02*
Y526250D01*
X488499Y661999D02*
X493499D01*
X490999Y659499D02*
Y664499D01*
X982500Y579386D02*
X987500D01*
X985000Y576886D02*
Y581886D01*
X1029500Y620000D02*
X1034500D01*
X1032000Y617500D02*
Y622500D01*
X982500Y526000D02*
X987500D01*
X985000Y523500D02*
Y528500D01*
X430062Y593344D02*
X435062D01*
X432562Y590844D02*
Y595844D01*
X969050Y590296D02*
X974050D01*
X971550Y587796D02*
Y592796D01*
X1077975Y776250D02*
X1082975D01*
X1080475Y773750D02*
Y778750D01*
X533948Y666242D02*
X538948D01*
X536448Y663742D02*
Y668742D01*
M02*
