G04*
G04 #@! TF.GenerationSoftware,Altium Limited,Altium Designer,19.0.4 (130)*
G04*
G04 Layer_Color=8421504*
%FSLAX44Y44*%
%MOMM*%
G71*
G01*
G75*
%ADD15R,1.6000X0.7500*%
%ADD16R,2.8000X1.5000*%
%ADD17R,0.9000X2.1000*%
%ADD18R,3.2000X2.1000*%
%ADD19R,1.5000X1.4000*%
%ADD20R,1.4000X1.5000*%
%ADD21R,1.2000X1.4000*%
%ADD22R,1.5000X2.8000*%
%ADD23O,0.5500X2.0000*%
%ADD24R,0.4500X1.0000*%
%ADD25R,2.6670X1.2700*%
D15*
X471000Y767049D02*
D03*
X496400D02*
D03*
X521800D02*
D03*
X547200D02*
D03*
X572600D02*
D03*
X598000D02*
D03*
X623400D02*
D03*
X648800D02*
D03*
X674200D02*
D03*
X699600D02*
D03*
X725000D02*
D03*
X750400D02*
D03*
X775800D02*
D03*
X801200D02*
D03*
X826600D02*
D03*
X852000D02*
D03*
X877400D02*
D03*
X902800D02*
D03*
X928200D02*
D03*
X953600D02*
D03*
Y548750D02*
D03*
X928200D02*
D03*
X902800D02*
D03*
X877400D02*
D03*
X852000D02*
D03*
X826600D02*
D03*
X801200D02*
D03*
X775800D02*
D03*
X750400D02*
D03*
X725000D02*
D03*
X699600D02*
D03*
X674200D02*
D03*
X648800D02*
D03*
X623400D02*
D03*
X598000D02*
D03*
X572600D02*
D03*
X547200D02*
D03*
X521800D02*
D03*
X496400D02*
D03*
D16*
X418000Y685500D02*
D03*
Y654500D02*
D03*
X1115000Y849330D02*
D03*
Y818330D02*
D03*
X555000Y653500D02*
D03*
Y684500D02*
D03*
D17*
X507000Y685500D02*
D03*
X484000D02*
D03*
X461000D02*
D03*
D18*
X484000Y628500D02*
D03*
D19*
X1011000Y835000D02*
D03*
Y815000D02*
D03*
X1076000Y835000D02*
D03*
Y815000D02*
D03*
X1044165Y759000D02*
D03*
Y779000D02*
D03*
X1009000Y759000D02*
D03*
Y779000D02*
D03*
X1044165Y815076D02*
D03*
Y835076D02*
D03*
X1079331Y779000D02*
D03*
Y759000D02*
D03*
X1114495D02*
D03*
Y779000D02*
D03*
X598000Y686000D02*
D03*
Y666000D02*
D03*
X420000Y739000D02*
D03*
Y719000D02*
D03*
D20*
X1046000Y637000D02*
D03*
X1066000D02*
D03*
X1158246Y682000D02*
D03*
X1178246D02*
D03*
X1158246Y708850D02*
D03*
X1178246D02*
D03*
D21*
X1091000Y637000D02*
D03*
X1109000D02*
D03*
D22*
X1192000Y646000D02*
D03*
X1161000D02*
D03*
D23*
X1128450Y726670D02*
D03*
X1115750D02*
D03*
X1103050D02*
D03*
X1090350D02*
D03*
X1077650D02*
D03*
X1064950D02*
D03*
X1052250D02*
D03*
X1039550D02*
D03*
X1128450Y673076D02*
D03*
X1115750D02*
D03*
X1103050D02*
D03*
X1090350D02*
D03*
X1077650D02*
D03*
X1064950D02*
D03*
X1052250D02*
D03*
X1039550D02*
D03*
D24*
X1158745Y752750D02*
D03*
X1149245Y775430D02*
D03*
X1168245D02*
D03*
D25*
X1160000Y817855D02*
D03*
Y852145D02*
D03*
M02*
