G04*
G04 #@! TF.GenerationSoftware,Altium Limited,Altium Designer,19.0.4 (130)*
G04*
G04 Layer_Physical_Order=2*
G04 Layer_Color=16711680*
%FSLAX44Y44*%
%MOMM*%
G71*
G01*
G75*
%ADD38C,3.1000*%
%ADD58C,0.3000*%
%ADD61R,1.6000X3.2000*%
%ADD62O,1.6000X3.2000*%
%ADD63C,1.4000*%
%ADD64R,2.0000X2.0000*%
%ADD65C,2.0000*%
%ADD66C,1.5000*%
%ADD67R,1.5000X1.5000*%
%ADD68C,3.2000*%
%ADD69R,2.0000X2.0000*%
%ADD70R,1.5000X1.5000*%
%ADD71C,4.0000*%
%ADD72C,2.5000*%
%ADD73R,1.5000X2.0000*%
%ADD74O,1.5000X2.0000*%
%ADD75O,2.0000X1.2000*%
%ADD76R,2.0000X1.2000*%
%ADD77R,1.7000X1.7000*%
%ADD78C,1.7000*%
%ADD79R,1.7000X1.7000*%
%ADD80C,0.8000*%
D38*
X2069000Y451000D02*
D03*
Y985000D02*
D03*
X1249000Y430000D02*
D03*
Y980000D02*
D03*
X319000D02*
D03*
Y430000D02*
D03*
D58*
X1077600Y759000D02*
X1185164D01*
X1385000Y907000D02*
Y928000D01*
X1220354D02*
X1385000D01*
X1185164Y892810D02*
X1220354Y928000D01*
X1405100Y466090D02*
X2044145D01*
X2108200Y505000D02*
Y778510D01*
X2083055Y505000D02*
X2108200D01*
X2044145Y466090D02*
X2083055Y505000D01*
X1076600Y758000D02*
X1077600Y759000D01*
X1075012Y756412D02*
X1076600Y758000D01*
X1030000D02*
X1076600D01*
X1031748Y756412D02*
X1075012D01*
X674200Y569000D02*
Y577089D01*
X699600Y542882D02*
Y569000D01*
X358000Y686800D02*
X386858D01*
X801200Y545592D02*
X812800D01*
X358000Y712200D02*
X385842D01*
X852000Y746800D02*
Y787000D01*
X712470D02*
X852000D01*
X712470Y457200D02*
Y787000D01*
X661416Y523700D02*
Y819150D01*
X572600Y523700D02*
X661416D01*
X572600D02*
Y569000D01*
X668718Y512000D02*
X699600Y542882D01*
X568770Y512000D02*
X668718D01*
X534670Y546100D02*
X568770Y512000D01*
X1128522Y713994D02*
X1138936D01*
X1077600Y759000D02*
X1106000Y787400D01*
X1185164Y759000D02*
Y892810D01*
Y632206D02*
Y759000D01*
X1371600D01*
X1060000Y529590D02*
Y606000D01*
X924052Y613664D02*
X953262Y642874D01*
X1176528D01*
X492506Y657606D02*
X503936Y669036D01*
X558292D01*
X494580Y807000D02*
X512300D01*
X494538Y806958D02*
X494580Y807000D01*
X971550Y590296D02*
X994156Y612902D01*
X1042924D01*
X1106678Y692150D02*
X1128522Y713994D01*
X1138936D02*
X1143254D01*
X1093978Y758952D02*
X1138936Y713994D01*
X1106000Y787400D02*
Y889000D01*
X1385000Y726000D02*
Y745600D01*
X1371600Y759000D02*
X1385000Y745600D01*
X942340Y603758D02*
Y609600D01*
X964946Y632206D01*
X1185164D01*
X358000Y711800D02*
Y712200D01*
Y686400D02*
Y686800D01*
X1966000Y598000D02*
X2091000D01*
X1947418D02*
X1966000D01*
X385842Y712200D02*
X412242Y685800D01*
X1072000Y493500D02*
X1586500D01*
X994651Y493500D02*
X1072000D01*
X1052565Y458500D02*
X1091006D01*
X997136Y487500D02*
X1023565D01*
X1052565Y458500D01*
X1592499Y499500D02*
X1604500Y487500D01*
X1091006Y458500D02*
X1120006Y487500D01*
X1407594D01*
X992166Y499500D02*
X1592499D01*
X992165Y499500D02*
X992166Y499500D01*
X936616Y499500D02*
X992165D01*
X994650Y493500D02*
X994651Y493500D01*
X889000Y493500D02*
X994650D01*
X997136Y487500D02*
Y487500D01*
X870892Y487500D02*
X997136D01*
X1147648Y445000D02*
X1184148Y481500D01*
X968510Y445000D02*
X1147648D01*
X950722Y462788D02*
X968510Y445000D01*
X605790Y800100D02*
Y807000D01*
X408686Y569722D02*
X471000D01*
X445600Y899000D02*
X452026D01*
X465074Y885952D01*
X520606D01*
X533654Y899000D01*
X583348D01*
X589694D01*
X602742Y885952D01*
X658782D01*
X671830Y899000D01*
X722000D01*
X768100Y808000D02*
X889000D01*
X915416Y781584D01*
Y520700D02*
Y781584D01*
Y520700D02*
X936616Y499500D01*
X1604500Y487500D02*
X1750200D01*
X1758000Y495300D01*
Y514000D01*
X1966000Y548000D02*
X2091000D01*
X939100Y457200D02*
Y468350D01*
X923098Y441198D02*
X939100Y457200D01*
X779018Y441198D02*
X923098D01*
X763016Y457200D02*
X779018Y441198D01*
X763016Y457200D02*
Y718566D01*
X750400Y731182D02*
X763016Y718566D01*
X750400Y731182D02*
Y746800D01*
X661416Y819150D02*
X671322Y829056D01*
X863600D01*
X897000Y862456D01*
Y898492D01*
X547200Y569000D02*
Y580728D01*
X585470Y618998D01*
Y768350D01*
X609600Y792480D01*
X631401D01*
Y855079D01*
X647700Y871378D01*
X743870D01*
X789984Y917492D01*
X914400D01*
X922400Y909492D01*
Y898492D02*
Y909492D01*
X674200Y577089D02*
X686816Y589704D01*
Y775716D01*
X703580Y792480D01*
X712470Y457200D02*
X738886Y430784D01*
X1175828D01*
X1215043Y470000D01*
X1328900D01*
X432562Y593344D02*
Y912114D01*
X471000D01*
Y899000D02*
Y912114D01*
X1010412Y764032D02*
X1030986Y743458D01*
X1010412Y764032D02*
Y800100D01*
X605790Y807000D02*
X616900D01*
X590042Y784352D02*
X605790Y800100D01*
X506052Y784352D02*
X590042D01*
X496400Y774700D02*
X506052Y784352D01*
X496400Y746800D02*
Y774700D01*
X1405100Y466090D02*
Y470000D01*
X2082800Y803910D02*
X2108200Y778510D01*
X1393890Y803910D02*
X2082800D01*
X1359600Y838200D02*
X1393890Y803910D01*
X1359600Y838200D02*
Y907000D01*
X836702Y468350D02*
X862900D01*
X818322Y486730D02*
X836702Y468350D01*
X805000Y486730D02*
X818322D01*
X623400Y569000D02*
Y692234D01*
X636016Y704850D01*
Y773095D01*
X643401Y780480D01*
Y812800D01*
X672980Y842379D01*
X799579D01*
X846200Y889000D01*
Y898492D01*
X598000Y569000D02*
Y726186D01*
X610616Y738802D01*
Y769208D01*
X627888Y786480D01*
X637401D01*
Y850900D01*
X651879Y865378D01*
X787400D01*
X833514Y911492D01*
X871600D01*
Y898492D02*
Y911492D01*
X534670Y546100D02*
Y584200D01*
X483870Y635000D02*
X534670Y584200D01*
X483870Y635000D02*
Y838200D01*
X524510Y878840D01*
X737240D01*
X747400Y889000D01*
Y899000D01*
X998728Y656082D02*
X1037590D01*
X969010Y685800D02*
X998728Y656082D01*
X969010Y685800D02*
Y790956D01*
X939800Y820166D02*
X969010Y790956D01*
X674200Y820166D02*
X939800D01*
X674200Y746800D02*
Y820166D01*
X412242Y596900D02*
Y685800D01*
Y596900D02*
X428498Y580644D01*
X449834D01*
X460756Y591566D01*
X482600D01*
X496400Y577766D01*
Y569000D02*
Y577766D01*
X386858Y686800D02*
X400558Y673100D01*
Y577850D02*
Y673100D01*
Y577850D02*
X408686Y569722D01*
X471000Y569000D02*
Y569722D01*
X1656400Y514000D02*
Y528574D01*
X1765300D01*
X1772666Y521208D01*
Y488866D02*
Y521208D01*
X1765300Y481500D02*
X1772666Y488866D01*
X1598500Y481500D02*
X1765300D01*
X1586500Y493500D02*
X1598500Y481500D01*
X852000Y530500D02*
X889000Y493500D01*
X852000Y530500D02*
Y569000D01*
X1923880Y621538D02*
X1947418Y598000D01*
X965200Y621538D02*
X1923880D01*
X953600Y609938D02*
X965200Y621538D01*
X953600Y569000D02*
Y609938D01*
X1707200Y499500D02*
Y514000D01*
X1616500Y499500D02*
X1707200D01*
X1616500D02*
Y528364D01*
X1625600Y537464D01*
X1765300D01*
X1778762Y524002D01*
Y480314D02*
Y524002D01*
X1771650Y473202D02*
X1778762Y480314D01*
X1421892Y473202D02*
X1771650D01*
X1407594Y487500D02*
X1421892Y473202D01*
X812800Y545592D02*
X870892Y487500D01*
X801200Y545592D02*
Y569000D01*
X1732600Y501650D02*
Y514000D01*
X1724450Y493500D02*
X1732600Y501650D01*
X1610500Y493500D02*
X1724450D01*
X1593713Y510286D02*
X1610500Y493500D01*
X938614Y510286D02*
X1593713D01*
X928200Y520700D02*
X938614Y510286D01*
X928200Y520700D02*
Y569000D01*
X826600Y711200D02*
Y746800D01*
X788670Y673270D02*
X826600Y711200D01*
X788670Y456438D02*
Y673270D01*
Y456438D02*
X910590D01*
X934002Y479850D01*
X950722D01*
Y462788D02*
Y479850D01*
X1184148Y481500D02*
X1344168D01*
Y463550D02*
Y481500D01*
X1337564Y456946D02*
X1344168Y463550D01*
X1328900Y456946D02*
X1337564D01*
X1328900Y441500D02*
Y456946D01*
D61*
X471000Y561000D02*
D03*
D62*
X496400D02*
D03*
X521800D02*
D03*
X547200D02*
D03*
X572600D02*
D03*
X598000D02*
D03*
X623400D02*
D03*
X648800D02*
D03*
X674200D02*
D03*
X699600D02*
D03*
X725000D02*
D03*
X750400D02*
D03*
X775800D02*
D03*
X801200D02*
D03*
X826600D02*
D03*
X852000D02*
D03*
X877400D02*
D03*
X902800D02*
D03*
X928200D02*
D03*
X953600D02*
D03*
X471000Y754800D02*
D03*
X496400D02*
D03*
X521800D02*
D03*
X547200D02*
D03*
X572600D02*
D03*
X598000D02*
D03*
X623400D02*
D03*
X648800D02*
D03*
X674200D02*
D03*
X699600D02*
D03*
X725000D02*
D03*
X750400D02*
D03*
X775800D02*
D03*
X801200D02*
D03*
X826600D02*
D03*
X852000D02*
D03*
X877400D02*
D03*
X902800D02*
D03*
X928200D02*
D03*
X953600D02*
D03*
D63*
X862900Y468350D02*
D03*
X939100D02*
D03*
X1405100Y413000D02*
D03*
X1328900D02*
D03*
X1405100Y441500D02*
D03*
X1328900D02*
D03*
X768100Y808000D02*
D03*
X691900D02*
D03*
X1405100Y470000D02*
D03*
X1328900D02*
D03*
D64*
X1009000Y473000D02*
D03*
X1631000Y514000D02*
D03*
X616900Y807000D02*
D03*
D65*
X1085000Y473000D02*
D03*
X1136200Y606000D02*
D03*
X1110800D02*
D03*
X1085400D02*
D03*
X1758000Y514000D02*
D03*
X1732600D02*
D03*
X1707200D02*
D03*
X1681800D02*
D03*
X1656400D02*
D03*
X512300Y807000D02*
D03*
D66*
X1131400Y889000D02*
D03*
X1106000D02*
D03*
X1080600D02*
D03*
X358000Y711800D02*
D03*
Y686400D02*
D03*
Y661000D02*
D03*
D67*
X1055200Y889000D02*
D03*
D68*
X1027400Y576800D02*
D03*
X1168800D02*
D03*
D69*
X1060000Y606000D02*
D03*
D70*
X358000Y635600D02*
D03*
D71*
X1521140Y932090D02*
D03*
X1891140D02*
D03*
X1521140Y562090D02*
D03*
X1891140D02*
D03*
D72*
X1966000Y598000D02*
D03*
X2091000D02*
D03*
Y548000D02*
D03*
X1966000D02*
D03*
D73*
X1359600Y545000D02*
D03*
Y726000D02*
D03*
Y907000D02*
D03*
D74*
X1385000Y545000D02*
D03*
Y726000D02*
D03*
Y907000D02*
D03*
D75*
X805000Y504730D02*
D03*
Y486730D02*
D03*
D76*
Y468730D02*
D03*
D77*
X445600Y899000D02*
D03*
X583348D02*
D03*
X722000D02*
D03*
X846200Y898492D02*
D03*
D78*
X471000Y899000D02*
D03*
X608748D02*
D03*
X747400D02*
D03*
X372000Y523700D02*
D03*
X871600Y898492D02*
D03*
X897000D02*
D03*
X922400D02*
D03*
D79*
X372000Y498300D02*
D03*
D80*
X1030000Y758000D02*
D03*
X1060000Y529590D02*
D03*
X924052Y613664D02*
D03*
X1176528Y642874D02*
D03*
X492506Y657606D02*
D03*
X558292Y669036D02*
D03*
X494538Y806958D02*
D03*
X971550Y590296D02*
D03*
X1042924Y612902D02*
D03*
X1106678Y692150D02*
D03*
X1143254Y713994D02*
D03*
X1093978Y758952D02*
D03*
X942340Y603758D02*
D03*
X703580Y792480D02*
D03*
X432562Y593344D02*
D03*
X1030986Y743458D02*
D03*
X1010412Y800100D02*
D03*
X1037590Y656082D02*
D03*
M02*
