G04*
G04 #@! TF.GenerationSoftware,Altium Limited,Altium Designer,19.0.4 (130)*
G04*
G04 Layer_Color=255*
%FSLAX44Y44*%
%MOMM*%
G71*
G01*
G75*
%ADD16R,2.8000X1.5000*%
%ADD17R,0.9000X2.1000*%
%ADD18R,3.2000X2.1000*%
%ADD19R,1.5000X1.4000*%
%ADD20R,1.4000X1.5000*%
%ADD21R,1.2000X1.4000*%
%ADD22R,1.5000X2.8000*%
%ADD23O,0.5500X2.0000*%
%ADD24R,0.4500X1.0000*%
%ADD25R,2.6670X1.2700*%
%ADD38C,3.1000*%
%ADD61R,1.6000X3.2000*%
%ADD62O,1.6000X3.2000*%
%ADD63C,1.4000*%
%ADD64R,2.0000X2.0000*%
%ADD65C,2.0000*%
%ADD66C,1.5000*%
%ADD67R,1.5000X1.5000*%
%ADD68C,3.2000*%
%ADD69R,2.0000X2.0000*%
%ADD70R,1.5000X1.5000*%
%ADD71C,4.0000*%
%ADD72C,2.5000*%
%ADD73R,1.5000X2.0000*%
%ADD74O,1.5000X2.0000*%
%ADD75O,2.0000X1.2000*%
%ADD76R,2.0000X1.2000*%
%ADD77R,1.7000X1.7000*%
%ADD78C,1.7000*%
%ADD79R,1.7000X1.7000*%
D16*
X418000Y685500D02*
D03*
Y654500D02*
D03*
X1115000Y849330D02*
D03*
Y818330D02*
D03*
X555000Y653500D02*
D03*
Y684500D02*
D03*
D17*
X507000Y685500D02*
D03*
X484000D02*
D03*
X461000D02*
D03*
D18*
X484000Y628500D02*
D03*
D19*
X1011000Y835000D02*
D03*
Y815000D02*
D03*
X1076000Y835000D02*
D03*
Y815000D02*
D03*
X1044165Y759000D02*
D03*
Y779000D02*
D03*
X1009000Y759000D02*
D03*
Y779000D02*
D03*
X1044165Y815076D02*
D03*
Y835076D02*
D03*
X1079331Y779000D02*
D03*
Y759000D02*
D03*
X1114495D02*
D03*
Y779000D02*
D03*
X598000Y686000D02*
D03*
Y666000D02*
D03*
X420000Y739000D02*
D03*
Y719000D02*
D03*
D20*
X1046000Y637000D02*
D03*
X1066000D02*
D03*
X1158246Y682000D02*
D03*
X1178246D02*
D03*
X1158246Y708850D02*
D03*
X1178246D02*
D03*
D21*
X1091000Y637000D02*
D03*
X1109000D02*
D03*
D22*
X1192000Y646000D02*
D03*
X1161000D02*
D03*
D23*
X1128450Y726670D02*
D03*
X1115750D02*
D03*
X1103050D02*
D03*
X1090350D02*
D03*
X1077650D02*
D03*
X1064950D02*
D03*
X1052250D02*
D03*
X1039550D02*
D03*
X1128450Y673076D02*
D03*
X1115750D02*
D03*
X1103050D02*
D03*
X1090350D02*
D03*
X1077650D02*
D03*
X1064950D02*
D03*
X1052250D02*
D03*
X1039550D02*
D03*
D24*
X1158745Y752750D02*
D03*
X1149245Y775430D02*
D03*
X1168245D02*
D03*
D25*
X1160000Y817855D02*
D03*
Y852145D02*
D03*
D38*
X2069000Y451000D02*
D03*
Y985000D02*
D03*
X1249000Y430000D02*
D03*
Y980000D02*
D03*
X319000D02*
D03*
Y430000D02*
D03*
D61*
X471000Y561000D02*
D03*
D62*
X496400D02*
D03*
X521800D02*
D03*
X547200D02*
D03*
X572600D02*
D03*
X598000D02*
D03*
X623400D02*
D03*
X648800D02*
D03*
X674200D02*
D03*
X699600D02*
D03*
X725000D02*
D03*
X750400D02*
D03*
X775800D02*
D03*
X801200D02*
D03*
X826600D02*
D03*
X852000D02*
D03*
X877400D02*
D03*
X902800D02*
D03*
X928200D02*
D03*
X953600D02*
D03*
X471000Y754800D02*
D03*
X496400D02*
D03*
X521800D02*
D03*
X547200D02*
D03*
X572600D02*
D03*
X598000D02*
D03*
X623400D02*
D03*
X648800D02*
D03*
X674200D02*
D03*
X699600D02*
D03*
X725000D02*
D03*
X750400D02*
D03*
X775800D02*
D03*
X801200D02*
D03*
X826600D02*
D03*
X852000D02*
D03*
X877400D02*
D03*
X902800D02*
D03*
X928200D02*
D03*
X953600D02*
D03*
D63*
X862900Y468350D02*
D03*
X939100D02*
D03*
X1405100Y413000D02*
D03*
X1328900D02*
D03*
X1405100Y441500D02*
D03*
X1328900D02*
D03*
X768100Y808000D02*
D03*
X691900D02*
D03*
X1405100Y470000D02*
D03*
X1328900D02*
D03*
D64*
X1009000Y473000D02*
D03*
X1631000Y514000D02*
D03*
X616900Y807000D02*
D03*
D65*
X1085000Y473000D02*
D03*
X1136200Y606000D02*
D03*
X1110800D02*
D03*
X1085400D02*
D03*
X1758000Y514000D02*
D03*
X1732600D02*
D03*
X1707200D02*
D03*
X1681800D02*
D03*
X1656400D02*
D03*
X512300Y807000D02*
D03*
D66*
X1131400Y889000D02*
D03*
X1106000D02*
D03*
X1080600D02*
D03*
X358000Y711800D02*
D03*
Y686400D02*
D03*
Y661000D02*
D03*
D67*
X1055200Y889000D02*
D03*
D68*
X1027400Y576800D02*
D03*
X1168800D02*
D03*
D69*
X1060000Y606000D02*
D03*
D70*
X358000Y635600D02*
D03*
D71*
X1521140Y932090D02*
D03*
X1891140D02*
D03*
X1521140Y562090D02*
D03*
X1891140D02*
D03*
D72*
X1966000Y598000D02*
D03*
X2091000D02*
D03*
Y548000D02*
D03*
X1966000D02*
D03*
D73*
X1359600Y545000D02*
D03*
Y726000D02*
D03*
Y907000D02*
D03*
D74*
X1385000Y545000D02*
D03*
Y726000D02*
D03*
Y907000D02*
D03*
D75*
X805000Y504730D02*
D03*
Y486730D02*
D03*
D76*
Y468730D02*
D03*
D77*
X445600Y899000D02*
D03*
X583348D02*
D03*
X722000D02*
D03*
X846200Y898492D02*
D03*
D78*
X471000Y899000D02*
D03*
X608748D02*
D03*
X747400D02*
D03*
X372000Y523700D02*
D03*
X871600Y898492D02*
D03*
X897000D02*
D03*
X922400D02*
D03*
D79*
X372000Y498300D02*
D03*
M02*
