G04*
G04 #@! TF.GenerationSoftware,Altium Limited,Altium Designer,19.0.4 (130)*
G04*
G04 Layer_Color=8421504*
%FSLAX44Y44*%
%MOMM*%
G71*
G01*
G75*
%ADD16R,1.6000X0.7500*%
%ADD17R,2.8000X1.5000*%
%ADD18R,0.4500X1.0000*%
%ADD19R,1.5000X1.4000*%
%ADD20R,1.3970X1.0160*%
%ADD21R,0.9000X2.1000*%
%ADD22R,3.2000X2.1000*%
%ADD23R,1.4000X1.2000*%
%ADD24O,0.5500X2.0000*%
D16*
X471001Y767049D02*
D03*
X496401D02*
D03*
X521801D02*
D03*
X547201D02*
D03*
X572601D02*
D03*
X598001D02*
D03*
X623401D02*
D03*
X648801D02*
D03*
X674201D02*
D03*
X699601D02*
D03*
X725001D02*
D03*
X750401D02*
D03*
X775801D02*
D03*
X801201D02*
D03*
X826601D02*
D03*
X852001D02*
D03*
X877401D02*
D03*
X902801D02*
D03*
X928201D02*
D03*
X953601D02*
D03*
Y548750D02*
D03*
X928201D02*
D03*
X902801D02*
D03*
X877401D02*
D03*
X852001D02*
D03*
X826601D02*
D03*
X801201D02*
D03*
X775801D02*
D03*
X750401D02*
D03*
X725001D02*
D03*
X699601D02*
D03*
X674201D02*
D03*
X648801D02*
D03*
X623401D02*
D03*
X598001D02*
D03*
X572601D02*
D03*
X547201D02*
D03*
X521801D02*
D03*
X496401D02*
D03*
D17*
X1204000Y846500D02*
D03*
Y877500D02*
D03*
X418000Y685500D02*
D03*
Y654500D02*
D03*
X1215500Y762000D02*
D03*
Y731000D02*
D03*
X555000Y653500D02*
D03*
Y684500D02*
D03*
D18*
X1172500Y784570D02*
D03*
X1191500D02*
D03*
X1182000Y807250D02*
D03*
D19*
X1018000Y758000D02*
D03*
Y778000D02*
D03*
X1050568Y833000D02*
D03*
Y853000D02*
D03*
X1081136Y854000D02*
D03*
Y834000D02*
D03*
X1111704Y833000D02*
D03*
Y853000D02*
D03*
X1142272Y834000D02*
D03*
Y854000D02*
D03*
X1020001Y853000D02*
D03*
Y833000D02*
D03*
X1082250Y691500D02*
D03*
Y711500D02*
D03*
X1239750Y855000D02*
D03*
Y875000D02*
D03*
X1171000Y761000D02*
D03*
Y741000D02*
D03*
X1135000Y696000D02*
D03*
Y716000D02*
D03*
X598000Y686000D02*
D03*
Y666000D02*
D03*
X420000Y739000D02*
D03*
Y719000D02*
D03*
D20*
X1168000Y832570D02*
D03*
Y855430D02*
D03*
D21*
X507000Y685500D02*
D03*
X484000D02*
D03*
X461000D02*
D03*
D22*
X484000Y628500D02*
D03*
D23*
X1108000Y713000D02*
D03*
Y695000D02*
D03*
D24*
X1138450Y799670D02*
D03*
X1125750D02*
D03*
X1113050D02*
D03*
X1100350D02*
D03*
X1087650D02*
D03*
X1074950D02*
D03*
X1062250D02*
D03*
X1049550D02*
D03*
X1138450Y746076D02*
D03*
X1125750D02*
D03*
X1113050D02*
D03*
X1100350D02*
D03*
X1087650D02*
D03*
X1074950D02*
D03*
X1062250D02*
D03*
X1049550D02*
D03*
M02*
